<?xml version="1.0" encoding="utf-8"?>
<!-- Generator: Adobe Illustrator 12.0.0, SVG Export Plug-In . SVG Version: 6.00 Build 51448)  -->
<!DOCTYPE svg PUBLIC "-//W3C//DTD SVG 1.1//EN" "http://www.w3.org/Graphics/SVG/1.1/DTD/svg11.dtd" [
	<!ENTITY ns_svg "http://www.w3.org/2000/svg">
	<!ENTITY ns_xlink "http://www.w3.org/1999/xlink">
]>
<svg  version="1.1" id="Layer_1" xmlns="&ns_svg;" xmlns:xlink="&ns_xlink;" width="711.099" height="338.316"
	 viewBox="0 0 711.099 338.316" overflow="visible" enable-background="new 0 0 711.099 338.316" xml:space="preserve">
<path d="M89.892,130.665c-0.618,0.42-1.759,0.904-3.002,1.304c-0.384-0.05-0.771-0.039-1.169-0.009
	c-0.059-0.063-0.114,0.156-0.186,0.406c-1.362,0.348-2.677,0.548-3.436,0.428l-0.84-0.131c-0.167-0.182-0.322-0.425-0.464-0.751
	c-0.131,0.281-0.276,0.49-0.428,0.646l-0.979-0.063c-0.005,0.014-0.014,0.028-0.018,0.042l-0.136,0.911
	c-0.593,0.144-1.188,0.267-1.773,0.424c-8.349,2.05-18.674,0.326-26.934,2.534c-2.5,0.666-6.831-1.225-8.374,1.518l2.528-0.137
	c-2.438,1.726-5.058,0.274-7.558,0.942c0.057,1.06,0.084,1.591-0.729,2.167c1.686-0.094,4.188-0.761,5.903-0.323l0.087,1.592
	c-1.659,0.625-4.248-0.299-5.906,0.322c0.027,0.484,0.078,1.393,0.108,1.952c-0.344,0.11-0.698,0.219-1.015,0.331
	c-6.226,2.188-5.508,4.085,0.936,4.809c-0.025,0.36,0.05,0.662,0.406,0.859l2.532-0.138c-0.898,0.193-1.659,0.536-2.304,0.961
	c-2.762,0.64-5.073,1.356-6.649,2.145c-1.492,0.764-0.05,1.375,0.36,2.034c-0.229,0.666,1.567,1.064,4.468,1.121
	c-0.261,0.209-0.512,0.416-0.745,0.624c-0.155,0.018-0.292,0.025-0.456,0.045c-0.478,0.16-0.722,0.24-0.845,0.283
	c0.274,0.009,0.59,0.023,0.92,0.036c-0.083,0.08-0.162,0.161-0.235,0.243c-0.326-0.057-0.671-0.118-1.064-0.187
	c-0.329,0.063-1.113,0.209-3.077,0.578c0,0-0.541,0.177-0.926,0.361c-0.03,0.153-0.03,0.153-1.667,0.859c0,0-0.02,0.176,0.169,0.342
	c0.535,0.118,0.535,0.118,0.717,0.572c0,0,0.606,0.121,1.479,0.186c0.826,0.004,1.04,0.006,4.105-0.027l-0.709,0.329
	c-0.494,0.939-0.494,0.939,3.514,2.571c0,0,2.168,0.332,5.637,0.368c3.996-0.233,3.996-0.233,8.606-0.519
	c0,0,1.007-0.035,2.744-0.115c1.318,0.192,1.612,0.248,2.6,0.445l0.02,0c-0.874,0.115-1.728,0.265-2.432,0.438
	c-2.036,0.507-2.272,1.035-0.5,1.187c-2.14,1.592-0.645,2.668,2.368,3.528c-0.833,0.537-1.188,1.055-1.019,1.526
	c-3.258,1.513-5.235,2.962-5.98,4.36l-0.282,1.181c1.081,0.856,4.014,1.452,8.299,1.693l1.305,0.133l-1.109,1.071
	c5.663,1.923,16.556,2.783,23.401,4.466l5.093,0.729c3.244,0.55,8.083,0.721,13.749,0.518c-5.313,0.633-10.498,1.267-15.46,1.892
	c-14.796,1.867-25.482,7.341-25.482,7.341c-3.636,1.163-7.185,3.118-3.402,3.549c7.46-0.339,25.985-2.172,26.144-0.579
	c0.041,0.397-3.658,0.763-7.366,1.13c0.155,1.589-10.65,5.869-14.354,6.235c-3.637,1.167-25.642,5.749-29.272,6.91
	c-11.007,2.298,22.955,4.96,37.896,4.686c7.499,0.06,0.197,1.987,0.315,3.178c7.378-1.128,11.208-0.306,18.588-1.437
	c0.029,0.291,11.957-0.594,22.715-1.522c-14.015,2.535-4.932,2.945,1.409,4.085c4.692,0.334-1.42,2.187,5.88,2.277
	c-5.207,0.485-7.817,0.726-13.048,1.211c-0.52,0.82,16.024-1.999,12.529-0.39c-5.046,0.212-10.62,1.24-15.836,1.725
	c1.806,0.803,16.39-1.188,17.358-0.478c-2.2,0.181-4.524,0.346-6.919,0.501c-2.368,0.071-4.791,0.169-6.492,0.399
	c-14.671,0.863-30.506,1.663-38.147,4.087l17.004-1.323c-16.882,2.909-34.023,2.643-50.994,4.496
	c0.081,1.058,0.125,1.588-5.512,2.559c11.344-0.882,28.315-2.735,39.706-3.087l0.125,1.586c-11.31,1.415-28.403,1.678-39.708,3.088
	c0.041,0.53,0.124,1.586,0.165,2.118c0.042,0.529,5.72,0.089,11.384-0.352c0.042,0.528,0.125,1.587,0.166,2.116
	c0.04,0.526-5.626,0.97-11.305,1.41c0.083,1.061-5.505,2.56,0.207,2.646l17.016-1.323c-22.647,2.297-33.786,5.821-33.664,7.412
	c5.637-0.972,5.761,0.614,11.386-0.354c-16.888,2.909-33.743,6.351-11.015,5.113c38.992-2.718,78.197-5.599,117.523-8.59
	c0.539,1.16,3.418,1.881,8.313,1.828l1.232,0.002c-3.963,0.946-7.374,2.106-9.344,3.438c-9.269,0.768-18.402,1.711-25.646,2.815
	c-5.621,1.021-11.329,2.187-17.011,3.32c2.694,0.26,5.194,0.534,7.367,0.824c-5.842,0.346-11.68,0.687-13.889,1.325
	c-12.354,2.002-5.218,2.865-0.314,4.37c3.495,0.563-1.069,2.113,4.368,2.561c-3.883,0.228-5.826,0.342-9.729,0.569
	c-0.396,0.792,11.953-1.21,9.337,0.222c-3.76-0.034-7.921,0.72-11.809,0.945c1.418,0.941,13.493-0.533,12.963,0.525
	c-2.083,0.379-11.017-0.64-11.681,0.682c-0.132,0.263,3.761,0.034,5.707-0.077c-11.945,1.209-18.457,2.869-7.434,3.505
	c-3.797,0.221-9.199,0.052-13.198,0.5l0.032,0.02c2.004-0.097,5.474-0.068,7.327-0.18l-6.836,0.4l1.228,0.448
	c1.713,0.04,3.428,0.048,5.205-0.054l-4.539,0.265c1.161,0.335,2.489,0.646,3.946,0.922c5.442,0.45,10.688,1.295,13.604,1.125
	c21.856-0.935,43.785-2.042,65.605-3.414l-0.046,0.57c0.585,0.569,1.8,1.003,3.499,1.278c-1.21,0.335-2.45,0.44-3.695,0.462
	l0.31-0.485c-1.838,0.034-3.583,0.283-5.405,0.782l-0.494,0.14c-3.749,1.125-7.006,1.731-10.902,2.183
	c-0.957,0.109-1.886,0.45-2.842,0.562c-0.691,0.309,0.662,1.535-0.507,1.899l0.209,0.208c0.875-0.399,1.631-0.912,1.941-0.458
	c0.212,0.438-0.068,0.826-0.521,1.236c-0.67,0.027-1.336,0.054-2.022,0.078c-1.982,0.065-3.958,0.365-5.943,0.435
	c-1.477,0.28,1.05,1.564-1.423,1.879l0.388,0.217c1.878-0.361,3.527-0.839,4.072-0.37c0.725,0.927-2.844,1.561-5.088,2.62
	l-0.263,0.537c0,0-0.326,0.014-0.71,0.028l-0.224,0.188c0.1,0.317,0.006,0.644-0.149,0.968l2.609-0.091
	c-0.785,0.777-1.59,1.248-2.928,1.679l0.007,0.026l-0.099,0.003l-0.873,0.254l0,0.007c5.819,1.577,0.414,2.677-1.632,5.313
	c0.506,0.059,1.119,0.044,1.802-0.056c0.005,0.183,0.016,0.509,0.021,0.629l1.158,0.153c3.857,0.357,6.689,1.109,10.339,2.022
	c1,0.195,1.033,1.11,2.519,1.058c2.119-0.072,4.238-0.082,6.356-0.13c-14.726,1.544-31.644,2.86-29.145,4.797
	c3.232,2.51,29.678-0.848,48.959-2.449c-16.05,4.108-35.624,5.088-52.283,7.956c1.304,0.018,2.426,0.099,3.544,0.176
	c-0.392,0.037-0.766,0.07-1.156,0.106c-3.56,0.313-7.098,0.858-10.66,1.171c-2.648,0.462,1.923,1.438-2.507,2.059l0.697,0.165
	c3.364-0.592,6.314-1.274,7.308-0.875c1.322,0.84-5.073,1.917-9.071,3.256c-0.099,0.188-0.25,0.376-0.46,0.572
	c0,0-0.582,0.052-1.276,0.114l-0.396,0.218c0.189,0.303,0.027,0.64-0.241,0.985l4.684-0.413c-1.391,0.874-2.822,1.443-5.215,2.041
	l0.014,0.025l-0.173,0.015c-0.484,0.121-0.995,0.24-1.562,0.361l0.001,0.009c10.489,0.857,0.811,2.63-2.795,5.522
	c0.911-0.005,2.012-0.098,3.236-0.282c0.02,0.227,0.059,0.685,0.059,0.685c8.051-0.253,13.474,0.188,20.696,0.7
	c1.802,0.07,1.882,0.982,4.554,0.745c4.7-0.409,9.413-0.738,14.117-1.148c5.909,0.691,16.674-0.061,25.144-0.163
	c-9.521,2.877-21.239,2.375-31.159,3.97c2.426,0.357,3.836,1.174,7.276,1.068l13.024-0.282c4.315-0.434,8.113-1.351,12.143-0.305
	l1.14-0.033c0.748-0.179,1.432-0.588,2.2-0.685c3.447-0.106,4.248,0.621,7.993-0.354c0.053,0.174-0.073,0.321-0.279,0.456
	c1.131-0.362,2.978-0.227,4.222-0.793c0.106,0.323,0.205,0.645,0.5,0.878c8.375-0.331,16.821-0.759,25.386-1.35l6.991-0.529
	c0.025,0.029,0.047,0.044,0.07,0.076l0.295,0.071c0.068-0.039,0.135-0.114,0.2-0.192c0.272-0.034,0.547-0.065,0.821-0.101
	c0.54,0.291,0.85,0.688,1.591,0.191c0.021,0.172-0.005,0.309-0.052,0.425c0.278-0.255,0.768,0.048,1.066-0.402
	c0.041,0.328,0.081,0.657,0.17,0.916c2.168,0.433,4.351,0.772,6.558,0.969l1.941,0.119c0.537-0.095,1.087-0.154,1.666-0.124
	c0.284-0.039,0.489-0.733,0.609-0.915c0.77,0.393,1.541,0.78,2.433,0.988c0.119-0.179,0.403-0.223,0.647-0.589l0.565,0.672
	l3.256-0.129l-0.008-0.076c0.781-0.172,1.706-0.133,2.622-0.128c0.201,0.457-10.007,1.301-9.874,2.205
	c0.312,2.101,0.624,4.199,18.987,3.091c4.615-0.144,0.312,2.103,0.469,3.151c13.125-1.943,26.522-3.923,40.045-5.958
	c3.101,1.805,12.401,1.317,19.439,1.625c-6.539,2.464-14.671,1.472-21.511,2.642c1.689,0.459,2.686,1.333,5.067,1.373l9.023,0.269
	c2.98-0.251,5.592-1.005,8.407,0.206l0.79,0.017c0.516-0.148,0.979-0.529,1.512-0.593c2.383,0.039,2.957,0.798,5.529-0.013
	c0.043,0.168-0.04,0.313-0.181,0.442c0.775-0.315,2.057-0.103,2.907-0.614c0.079,0.322,0.156,0.649,0.366,0.896
	c5.796,0.022,11.642-0.051,17.568-0.278l5.213-0.252c1.455-0.194,2.947-0.361,4.496-0.444c0.769-0.094,1.39-0.832,1.733-1.043
	c2.036,0.247,4.068,0.498,6.448,0.535c0.346-0.208,1.111-0.301,1.81-0.72l1.454,0.569l8.776-0.756l-0.016-0.072
	c4.096-0.621,9.557-0.568,13.576-1.365h0.003l3.646,0.025c-0.209-0.246-0.287-0.574-0.364-0.898
	c-0.374,0.226-0.833,0.303-1.293,0.354c0.748-0.254,1.415-0.553,1.949-0.931c1.152,0.51,2.429,0.821,3.801,0.988l9.97-0.736
	c0.259-0.257-0.01-0.546-0.063-0.776l4.516,0.509l8.103-0.358c0.626-0.2,1.248-0.448,1.86-0.768c0.388,0.305,0.864,0.522,1.415,0.67
	l3.076-0.06c2.777-0.047,7.754-0.563,12.967-1.239c0.37-0.274,0.662-0.513,0.857-0.461c1.499-0.125,2.946-0.227,4.349-0.261
	c4.801-0.705,9.239-1.468,11.708-2.045c2.919-1.023-6.682-3.641-6.146-4.704c0.25-0.334,0.53-0.621,0.82-0.893
	c0.735-0.106,1.471-0.224,2.199-0.369c0.049,0.397,0.049,0.397,0.098,0.794c2.594-0.316,5.174-0.628,5.225-0.233
	c0.048,0.397,0.048,0.397,0.098,0.796c2.642,0.081,7.727-1.34,7.822-0.547c-0.048-0.397-0.048-0.397-0.096-0.793
	c10.364-1.259,18.183-1.808,26-2.353c20.905-0.931,46.718-4.868,69.931-8.491c2.589-0.315,5.082-1.423,2.397-1.903l7.771-0.943
	c5.178-0.63,2.444-1.504,7.623-2.131c41.211-7.018,82.896-10.067,124.189-16.288c-10.412,0.862-18.279,1.013-28.586,2.666
	c-0.048-0.396-0.145-1.189-2.736-0.873c-15.593,1.489-33.626,4.481-41.589,3.84c-2.638-0.081-5.37-0.956-13.145-0.015l7.774-0.941
	c-0.047-0.399-0.144-1.19-0.144-1.19c-10.409,0.861-23.415,2.037-33.825,2.9c0,0-0.097-0.793-0.144-1.188l-5.176,0.627
	c-5.518-2.15,23.023-5.213,35.93-7.181c-0.052-0.396-0.146-1.19-0.194-1.587l-5.184,0.63l-0.098-0.793
	c15.544-1.889,28.488-3.46,44.037-5.348c-2.596,0.314-7.777,0.944-10.368,1.258c-0.049-0.396-0.097-0.791-2.688-0.479
	c10.366-1.257,23.368-2.431,33.629-4.482c2.541-0.709-0.192-1.588-8.007-1.04c-7.775,0.943-12.949,1.57-20.727,2.518l-0.095-0.794
	c5.181-0.629,12.996-1.178,18.133-2.202c2.545-0.712-5.328-0.56-2.789-1.274c2.598-0.313,5.188-0.627,7.736-1.338
	c-7.783,0.943-18.091,2.598-25.915,3.146c-2.638-0.082-5.278-0.165-5.374-0.956c-3.941,0.6-7.631,1.005-11.118,1.274
	c2.817-0.394,5.633-0.826,8.434-1.352c-0.155-1.052-0.234-1.576,4.229-2.773c-7.904,1.171-19.19,3.251-28.016,4.303
	c-1.332-0.085-2.612-0.198-3.832-0.338l-0.128-0.842c8.998-1.868,22.75-2.829,31.742-4.698c-0.076-0.525-0.234-1.573-0.309-2.101
	c-0.08-0.526-4.619,0.147-9.146,0.815c-0.078-0.524-0.236-1.572-0.31-2.098c-0.082-0.525,4.448-1.195,8.989-1.869
	c-0.156-1.051,4.224-2.769-0.388-2.623l-13.604,2.012c18.058-3.21,26.74-7.179,26.505-8.753c-4.463,1.197-4.695-0.379-9.146,0.82
	c2.193-0.593,4.382-1.194,6.43-1.783c-0.018,0.07-0.035,0.142-0.056,0.2l0.68-0.029c-0.087-0.074-0.177-0.165-0.269-0.271
	c1.147-0.329,2.242-0.653,3.266-0.967c0,0.078,0.01,0.193,0.019,0.313l0.873-0.575l-0.095,0.019
	c7.577-2.356,10.526-3.985-2.398-2.453c-1.411,0.195-2.829,0.396-4.239,0.593c2.274-0.741,4.547-1.494,6.812-2.302l2.282-0.712
	c-1.717,0.265-3.433,0.531-5.145,0.801c7.539-1.471,15.077-2.968,22.593-4.593c-1.308,0.418-2.543,0.925-3.644,1.587
	c2.202-0.385,3.645-1.046,5.76-1.461c-0.022-0.138,0-0.217,0.386-0.077l-0.386,0.077c0.019,0.128,0.073,0.314-0.088,0.428
	c1.311-0.494,2.851-1.012,4.378-1.353l0.441-0.823c-1.481,0.315-2.969,0.607-4.402,0.95c-5.229,0.606-10.448,1.213-15.624,1.846
	c3.771-0.906,7.524-1.567,11.397-2.554c0.627-0.241,1.26-0.414,1.823-0.615c2.383-0.278,4.771-0.554,7.161-0.83
	c9.658-1.771,18.98-2.823,28.808-4.451c2.256-0.516,4.538-0.8,6.007-1.446c1.005-0.718,2.013-1.436,2.902-2.146
	c-3.002,0.452-6.068,1.083-8.689,1.674c0.335-0.127,0.273-0.308,0.259-0.439c-4.139,0.565-7.06,1.336-11.359,1.876
	c5.94-1.978,13.382-2.909,20.812-3.977l0.931-0.955c-14.585,1.491-29.332,3.828-43.636,6.58l0.07-0.164l4.857-1.203
	c12.064-2.743,26.386-4.125,39.438-6.317c0.305-0.718,0.264-1.403-0.296-2.048c-14.342,1.049-28.438,4.053-42.726,5.458
	l-0.326,0.114c-1.176,0.425-2.518,0.792-3.961,1.131c-2.912,0.391-5.787,1.013-8.659,1.65c-2.991,0.519-6.029,1.059-8.824,1.734
	c-0.471,0.072-0.941,0.15-1.416,0.209l-0.157,0.103c-0.105,0.065-0.23,0.117-0.34,0.181c-2.747,0.855-5.509,1.587-8.277,2.273
	c0.189-0.114,0.378-0.221,0.562-0.355c0.146-0.119,0.34-0.218,0.556-0.302c0.834-0.113,1.664-0.239,2.476-0.402
	c-0.126-0.057-0.245-0.086-0.365-0.13c0.262-0.066,0.521-0.136,0.758-0.225l1.029-0.604c3.776-0.688,7.45-1.286,10.723-2.575
	c1.47-0.646,4.541-0.803,6.792-1.314c0.935-0.334,1.955-0.655,3.003-0.976l-3.407,0.162c-0.787-0.133,19.139-3.841,18.269-4.654
	c-0.028-0.229-16.336,2.912-28.04,4.439c-2.368-0.397,1.559-3.599,3.061-4.014l0.525-0.242l-5.242,0.51l-3.448,0.708
	c0.078-0.118,0.146-0.222,0.237-0.352l-0.312,0.056l-1.689,0.661l-0.128,0.024c-1.296,0.229-2.571,0.477-3.799,0.774l-4.313,0.855
	c1.492-0.522,2.975-1.063,4.436-1.612c2.874-0.463,5.91-0.809,9.017-1.115l9.199-1.996l0.229-0.074
	c-3.922,0.48-7.938,0.828-11.855,1.22c-0.013,0.005-0.025,0.006-0.036,0.009c-0.003-0.001-0.005-0.002-0.009-0.004
	c0.016-0.002,0.028-0.003,0.045-0.005c6.744-1.417,13.376-2.889,19.797-4.464c-4.429,0.557-9.471,1.198-13.816,1.964
	c-3.788,0.73-7.496,1.453-11.163,2.172c0.012-0.049,0.022-0.103,0.023-0.168c-0.188-0.028-0.362-0.039-0.536-0.052l0.746-1.025
	c-1.631,0.308-3.284,0.797-4.694,1.262c0.177-0.111,0.126-0.295,0.111-0.425c-2.179,0.36-3.717,0.958-5.932,1.306
	c0.004-0.008,0.01-0.012,0.013-0.021c0.021-0.025,0.035-0.056,0.053-0.083c3.104-1.576,7.031-2.157,10.949-2.854l0.446-0.902
	c-3.813,0.39-7.631,0.972-11.423,1.695c-0.097-0.196-0.203-0.373-0.321-0.54c4.02-0.733,8.158-1.347,12.067-2.219
	c0.022-0.145,0.034-0.289,0.041-0.433c22.662-3.521,45.256-7.028,67.737-10.486c7.118-1.565,3.362-2.094,3.208-3.143
	c-14.378,2.084-28.691,4.698-39.632,5.215c-0.547,0.08-0.83,0.064-0.966-0.003c1.838-1.112,9.088-1.636,12.373-2.777
	c-3.901,0.371-7.563,0.742-11.147,1.139c0.146-0.169,0.265-0.334,0.344-0.491l1.007-0.154c-0.329,0.051-0.674,0.1-1.006,0.149
	c0.219-0.461,0.063-0.856-1.061-1.018c-3.597,0.523-10.793,1.568-14.392,2.09c-3.822-1.053,3.143-3.673-0.688-4.728
	c-3.82-1.055-18.055,2.085-21.805,1.556c-10.949,0.519,6.966-2.619,17.754-4.184c-3.745-0.53,7.194-1.047,7.042-2.097
	c-0.298-2.038-0.594-4.074-13.929-3.729c1.005-0.243,2.001-0.492,2.977-0.746c0.609-0.065,1.13-0.929,0.433-1.655l1.833-0.202
	c1.218-0.135,0.477-1.261,1.698-1.395c9.557-3.066,19.548-2.16,29.188-4.43c-2.488-0.126-4.406-0.72-6.804-0.052
	c-0.046-0.398-0.135-1.193-0.744-1.122c-3.71,0.006-7.896,1.271-9.903-0.116c-0.657-0.327-1.399-1.451-3.23-1.248l1.831-0.203
	c-0.042-0.397-0.131-1.191-0.131-1.191c-1.315-0.067-2.799-0.114-4.276-0.164l0.242-0.052c-0.347-0.125-0.396-0.069-0.385,0.044
	c-1.268-0.04-2.526-0.085-3.653-0.142c0,0-0.088-0.794-0.131-1.192l-0.78,0.087l0.165-0.266c-0.223,0.053-0.441,0.114-0.663,0.172
	c-0.128-0.265-0.184-0.51-0.148-0.728c0.413-0.089,0.83-0.178,1.246-0.271l0.374-0.912c-0.217,0.029-0.438,0.067-0.657,0.1
	c1.758-0.958,5.464-1.279,7.485-1.773c-0.044-0.396-0.13-1.19-0.174-1.587l-1.224,0.136l-0.087-0.794
	c2.812-0.312,5.289-0.587,7.94-0.879c-0.046-0.395-0.091-0.794-0.699-0.726c2.441-0.271,5.539-0.208,7.894-1.276
	c0.57-0.463-0.172-1.589-2.049-1.78c-1.831,0.201-3.053,0.336-4.886,0.538l-0.088-0.792c1.223-0.138,3.096,0.059,4.273-0.475
	c0.569-0.466-1.353-1.059-0.787-1.521c0.614-0.066,1.227-0.134,1.792-0.599c-1.835,0.203-4.231,0.869-6.111,0.675
	c-0.654-0.329-1.306-0.661-1.394-1.452c-2.412,0.587-4.538,0.103-6.345-1.026c2.4-2.124,7.445-4.703,17.813-7.732
	c3.806-0.271,8.355-0.014,11.906-0.053c-0.237-0.932,0.754-1.737,2.065-2.502c2.116-0.342,3.795-0.657,4.525-0.967
	c1.358-0.578,0.155-0.678-1.478-0.698c1.468-0.863,2.483-1.753,1.691-2.811c2.607-0.03,6.523-0.072,6.7-0.843
	c0.528-2.306,2.443-5.008,9.318-6.619c2.702-0.415,6.891,0.406,7.832-0.09c1.479-0.781-3.566-1.494-2.088-2.276
	c-17.005-0.122-33.441,1.026-50.336,1.788c-0.681-2.461,4.07-2.449,6.237-2.989c-0.028-0.397-0.086-1.194-0.114-1.594l-0.91,0.066
	l-0.057-0.797c2.491-0.177,4.616-0.329,7.043-0.501c-0.411,0.028-0.856,0.06-1.135,0.081c-0.031-0.399-0.057-0.798-0.513-0.766
	c1.819-0.127,4.117,0.11,5.879-0.818c0.425-0.431-0.115-1.593-1.504-1.894c-1.362,0.097-2.271,0.16-3.636,0.258l-0.055-0.798
	c0.904-0.064,2.299,0.237,3.178-0.226c0.426-0.433-0.992-1.131-0.569-1.561c0.457-0.033,0.912-0.066,1.338-0.497
	c-1.365,0.097-3.153,0.626-4.547,0.323c-0.48-0.364-0.963-0.732-1.02-1.529c-1.978,0.491-3.69-0.279-5.1-1.766
	c0.323-0.117,0.653-0.224,0.975-0.343c0.444-0.162,0.654-0.408,0.548-0.633c0.178,0.033,0.403,0.016,0.594-0.069
	c1.018-0.545,2.182-0.954,3.415-1.347c0.265-0.119,0.395-0.278,0.248-0.38c-0.151-0.134-0.472-0.148-0.71-0.049
	c-1.26,0.409-2.485,0.861-3.592,1.403c-0.12,0.062-0.189,0.146-0.201,0.227c-0.279-0.109-0.695-0.119-1.094,0.001
	c-0.397,0.085-0.793,0.179-1.19,0.266c-0.601-0.19-1.585-0.074-2.514,0.046c-0.821-0.142-1.643-0.257-2.469-0.35
	c3.229-0.996,6.44-1.958,9.861-2.709c0.314-0.045,0.502-0.215,0.451-0.348c-0.059-0.133-0.333-0.216-0.635-0.138
	c-4.029,0.801-7.849,1.873-11.62,3.016c-2.309-0.173-4.624-0.214-6.926-0.283c9.222-1.786,18.378-3.737,27.412-5.903
	c0.56-0.085,0.979-0.384,0.93-0.655c-0.052-0.275-0.56-0.431-1.119-0.348c-1.618,0.127-3.246,0.264-4.867,0.394
	c7.57-1.019,15.137-2.09,22.687-3.26c-11.123,1.017-19.527,1.28-30.542,3.085c-0.003-0.036-0.01-0.08-0.016-0.124
	c2.755-0.433,5.511-0.881,8.269-1.369c1.589-0.194,2.812-0.988,2.783-1.796c-0.084-0.776-1.347-1.238-2.879-1.083l0.718-0.245
	c0.245-0.068,0.401-0.248,0.317-0.359c-0.115-0.122-0.448-0.168-0.686-0.1l-2.564,0.928c-8.087,0.839-16.137,2.062-24.173,3.346
	c8.545-2.13,17.243-3.989,26.063-5.478c-0.168,0.12-0.165,0.289,0.069,0.36c0.202,0.063,0.575,0.006,0.745-0.114
	c0.193-0.138,0.136-0.3-0.07-0.363l-0.019-0.004c4.732-0.791,9.497-1.473,14.289-2.035c0.284-0.026,0.506-0.185,0.479-0.336
	c-0.028-0.153-0.301-0.237-0.612-0.189c-15.254,1.793-30.214,4.834-44.742,8.594c-0.594,0.154-1.191,0.302-1.787,0.459l-2.508,0.399
	l-0.002-0.012c-0.349-0.561-0.979-1.01-1.791-1.332c2.283-0.436,4.561-0.88,6.831-1.33c3.101-0.612,6.195-1.234,9.293-1.877
	l13.578-1.761c0.651-0.082,1.16-0.41,1.125-0.766c-0.023-0.322-0.6-0.5-1.287-0.427l-3.332,0.418
	c0.855-0.539,1.369-1.205,1.341-1.866c-0.027-0.637-0.566-1.149-1.399-1.483c4.808-1.283,9.562-2.625,14.168-4.167
	c0.271-0.089,0.398-0.248,0.28-0.371c-0.118-0.121-0.414-0.157-0.68-0.068c-6.826,1.34-13.537,2.856-20.287,4.253
	c-3.158-0.012-6.288-0.037-9.489,0.035c-1.203,0.028-2.413,0.066-3.641,0.129c0.829-0.105,1.689-0.216,2.531-0.322
	c-0.829,0.105-1.682,0.214-2.532,0.322c-1.18,0.06-2.367,0.128-3.582,0.235c-0.468,0.041-0.927,0.098-1.391,0.15
	c-0.135-0.288-0.621-0.479-2.804-0.199c2.659-0.34,5.493-0.677,8.396-1.024c6.517-0.776,13.438-1.599,19.891-2.612
	c12.23-1.112,24.477-2.033,36.632-3.875c-5.704,0.158-10.029-0.22-15.647,0.732c-0.041-0.396-0.118-1.188-1.536-1.052
	c-6.9,0.353-14.647,1.576-19.685,1.409c6.28-1.513,12.551-3.061,18.855-4.58c1.428-0.29,2.381-1.088,2.107-1.772
	c-0.267-0.688-1.673-1.015-3.093-0.728c-8.29,1.167-15.98,2.99-23.971,5.016c-0.038-0.386-0.078-0.821-0.078-0.821
	c-4.604,0.129-10.112,0.347-15.07,0.51c1.63-0.193,2.905-0.562,2.834-0.825c-0.063-0.271-1.531-0.344-3.216-0.156
	c-1.047,0.089-2.103,0.183-3.149,0.275c-0.016-0.142-0.026-0.276-0.039-0.382l-2.83,0.279c-3.103-2.507,12.506-3.64,19.548-4.729
	c-0.043-0.399-0.118-1.193-0.158-1.592l-2.833,0.277l-0.079-0.793c6.541-0.643,12.244-1.204,18.4-1.809
	c-0.039-0.394-0.077-0.795-1.493-0.656c5.663-0.556,12.78-0.851,18.364-2.204c1.374-0.537-0.16-1.59-4.441-1.572
	c-4.248,0.418-7.075,0.696-11.326,1.112l-0.077-0.795c2.831-0.277,7.114-0.295,9.91-0.973c1.377-0.537-2.949-0.913-1.572-1.45
	c1.415-0.139,2.834-0.277,4.21-0.816c-4.253,0.418-9.872,1.37-14.159,1.391c-1.455-0.259-2.911-0.517-2.987-1.312
	c-7.034,1.091-12.812,0.455-17.257-1.115c-1.115-0.495-5.358-0.002-9.2,0.45c-9.803,0.172-19.786,0.808-29.712,1.468
	c17.172-2.404,34.328-4.833,51.571-7.242c4.34-0.55,7.415-1.545,6.813-2.197c-0.582-0.66-4.653-0.748-8.978-0.197
	c-15.58,1.665-30.546,3.554-45.516,5.586c-0.162-0.244-0.454-0.427-1.02-0.367c-6.611,0.305-14.193,1.918-17.646,0.68
	c-0.182-0.045-0.366-0.113-0.562-0.188c1.139-0.548,2.261-1.089,3.284-1.627c-1.913,0.26-3.833,0.556-5.727,0.858
	c-0.71-0.116-1.556-0.161-2.643-0.046l3.288-0.354c-0.018-0.136-0.037-0.318-0.055-0.5c2.273-0.302,4.556-0.604,6.848-0.907
	c0.589-0.35,1.117-0.691,1.57-1.028c-3.834,0.41-7.681,0.854-11.53,1.308c-2.067,0.046-4.251,0.107-6.375,0.161
	c6.469-0.847,12.903-1.709,19.167-2.635c0.544-0.742,0.537-1.434-0.314-2.043c-8.836,0.786-17.636,1.86-26.426,3.02
	c0.501-1.942,10.527-2.74,15.336-3.613c-0.041-0.395-0.126-1.19-0.167-1.588l-2.189,0.234l-0.084-0.794
	c5.529-0.591,10.289-1.101,15.572-1.666c-0.51,0.054-0.989,0.105-1.342,0.143c-0.043-0.394-0.084-0.793-1.178-0.676
	c4.378-0.468,9.896-0.655,14.189-1.922c1.054-0.512-0.168-1.587-3.493-1.633c-3.286,0.354-5.474,0.587-8.764,0.938l-0.084-0.794
	c2.189-0.234,5.519-0.188,7.666-0.818c1.054-0.517-2.317-0.959-1.269-1.476c1.1-0.115,2.193-0.233,3.25-0.748
	c-3.291,0.352-7.625,1.218-10.955,1.173c-1.052-0.26-2.1-0.526-2.313-1.195c6.619-0.957,13.24-1.933,19.849-3.081l3.401-0.492
	c-12.316,0.491-24.602,0.988-36.056,2.321c-0.227-0.096-0.458-0.183-0.676-0.285c-0.885-0.51-4.165-0.082-7.135,0.31
	c-0.618,0.004-1.247,0.011-1.869,0.019c8.705-1.623,18.125-2.519,27.859-3.111c5.836-1.134,11.863-2.192,18.016-3.104
	c-5.59,1.131-11.353,2.096-17.624,3.079c6.348-0.379,12.817-0.643,19.298-0.903c7.238-0.945,14.201-1.202,21.563-1.992
	c1.695-0.322,3.396-0.413,4.513-0.931c0.775-0.629,1.554-1.258,2.24-1.888c-2.245,0.191-4.551,0.563-6.52,0.927
	c0.255-0.097,0.215-0.284,0.213-0.416c-3.096,0.213-5.296,0.733-8.507,0.907c4.487-1.463,10.047-1.765,15.607-2.198l0.728-0.871
	c-11.563,0.268-23.303,1.455-34.645,3.135l-6.241,1.179l3.177,0.075l-3.417,0.183l-1.632,0.077
	c-3.533,0.618-7.176,1.208-11.036,1.807c3.076-0.607,6.21-1.192,9.395-1.745c-6.443,0.212-13.191,0.192-19.46,1.312
	c-3.311,0.854-7.736,1.327-11.632,2.192l-0.215,0.279l-0.896-0.002c-0.495,0.179-1.021,0.426-1.35,0.581
	c-3.465,0.607-6.939,1.287-10.54,1.81c-0.354,0.017-0.704,0.033-1.059,0.053c4.382-1.098,7.923-2.395,12.948-2.443
	c0.34-0.124,0.66-0.215,0.885-0.228l0.227-0.049c1.306-1.408,5.021-1.607,8.23-1.779c-0.595-0.426,1.127-0.289,1.102-0.745
	c3.361-1.101,6.722-2.196,9.532-3.038c4.497-1.153,9.075-0.942,12.979-2.525c1.116-0.52,3.405-0.413,5.097-0.733
	c0.707-0.257,1.479-0.489,2.267-0.716l-2.535-0.127c-0.58-0.202,14.357-2.207,13.743-3.088c-0.012-0.23-12.24,1.516-20.991,2.046
	c-1.742-0.595,1.298-3.451,2.43-3.739l0.397-0.198l-3.91,0.063l-6.157,0.986l-10.039,1.508l2.684-0.758l1.307-0.417
	c3.581-1.02,7.806-1.232,12.206-1.319l6.908-1.205l0.172-0.06c-2.93,0.151-5.924,0.155-8.849,0.217
	c-5.315,0.881-10.734,1.695-16.195,2.494l2.683-0.758c3.835-1.383,8.563-1.639,13.513-1.735c5.063-0.842,10.043-1.745,14.871-2.771
	c-3.306,0.181-7.077,0.393-10.333,0.788c-13.096,1.866-25.098,3.746-37.24,5.626c-1.446,0.617-2.896,1.132-4.365,1.362
	c-2.214,0.419-4.679,0.652-7.071,0.881c1.112-0.34,2.309-0.632,3.554-0.917c0.161-0.052,0.279-0.108,0.36-0.167
	c2.521-0.386,5.027-0.775,7.522-1.16l1.336-0.594c-6.294,0.201-12.528,0.827-18.223,2.399c-1.124,0.291-2.798,1.067-3.933,1.127
	c-5.373,0.506-10.459,1.508-15.538,2.441l7.402-1.031l0.208-0.028c5.671-0.81,11.133-1.624,16.499-2.435
	c-0.507,0.15-1.005,0.306-1.485,0.471c-0.12,0.045-0.196,0.097-0.247,0.156c-0.097,0.01-0.199,0.021-0.296,0.032
	c-0.368-0.057-0.847-0.047-1.32,0.058c-4.054,0.634-8.056,1.345-12.045,2.071c-0.487,0.007-0.542-0.202-1.105-0.352
	c-1.041,0.481-2.18,0.849-3.357,1.168c-1.937,0.356-3.875,0.708-5.814,1.059c-2.313,0.253-4.729,0.374-7.16,0.479
	c1.217-0.263,2.454-0.517,3.688-0.775c1.685-0.27,3.359-0.563,5.033-0.871c-0.713,0.095-1.408,0.177-2.114,0.268
	c1.208-0.248,2.417-0.494,3.646-0.746c8.448-1.721,16.175-3.724,24.729-5.105c0.447-0.049,0.729-0.223,0.67-0.355
	c-0.072-0.132-0.453-0.213-0.89-0.13c-12.493,1.833-23.741,4.913-35.752,7.236c0.09-0.135,0.127-0.267,0.043-0.393
	c-0.443-0.675-3.399-0.895-6.521-0.483c-0.236,0.023-0.462,0.05-0.697,0.076c2.066-0.685,4.127-1.37,6.182-2.052
	c16.694-2.283,33.291-4.811,49.644-7.675c0.804-0.09,1.429-0.396,1.381-0.669c-0.047-0.275-0.752-0.427-1.555-0.333
	c-9.393,0.586-18.836,1.208-28.29,1.902l1.934-0.585l1.953-0.346c6.053-0.683,12.104-1.406,18.168-2.205
	c2.276-0.213,4.085-1.025,4.123-1.835c-0.047-0.781-1.8-1.231-3.993-1.058l1.045-0.252c0.354-0.074,0.593-0.254,0.486-0.368
	c-0.158-0.123-0.623-0.163-0.967-0.092l-3.735,0.962c-11.572,0.933-23.126,2.254-34.669,3.635
	c12.343-2.235,24.884-4.206,37.553-5.802c-0.247,0.124-0.26,0.291,0.068,0.362c0.28,0.061,0.815,0.002,1.066-0.122
	c0.291-0.142,0.222-0.304-0.063-0.364l-0.029-0.004c6.803-0.848,13.639-1.589,20.505-2.209c0.404-0.029,0.734-0.19,0.708-0.342
	c-0.026-0.152-0.405-0.236-0.849-0.183c-22.749,2.054-45.166,5.459-66.977,9.627l-3.601,0.43l-0.004-0.01
	c-0.444-0.56-1.295-1.006-2.422-1.325c7.764-1.088,15.48-2.221,23.218-3.405l19.457-1.922c0.938-0.09,1.691-0.425,1.678-0.783
	c-0.009-0.324-0.81-0.497-1.794-0.415l-4.775,0.458c1.266-0.554,2.06-1.228,2.08-1.892c0.021-0.642-0.7-1.147-1.854-1.476
	c2.497-0.482,4.984-0.977,7.456-1.483c3.44-0.299,6.879-0.598,10.312-0.906c-2.377,0.064-4.788,0.161-7.205,0.271
	c3.357-0.708,6.684-1.446,9.961-2.231c0.394-0.093,0.594-0.254,0.438-0.378c-0.158-0.12-0.577-0.151-0.964-0.062
	c-7.347,1.069-14.608,2.231-21.873,3.371c-4.93,0.329-9.903,0.7-14.927,1.116l-0.577,0.068c-5.068,0.048-10.2,0.161-15.645,0.542
	c-10.341,0.742-20.053,2.314-29.662,4.01c2.977-0.766,5.939-1.536,8.919-2.304c7.604-0.917,15.112-1.95,22.552-3.072
	c13.633-1.25,27.048-2.332,39.841-2.952c-12.718,0.417-26.235,1.46-39.544,2.907c20.108-3.043,39.748-6.69,59.629-10.186
	c2.058-0.306,3.484-1.121,3.158-1.804c-0.039-0.086-0.105-0.166-0.192-0.241c6.704-0.596,13.408-1.231,20.102-1.932
	c1.82-1.101,9.757-1.391,13.36-2.445c-12.243,0.724-22.354,1.537-34.29,2.889l23.891-2.706c-17.86,2.023-37.44,3.979-56.979,6.373
	c0.229-0.094,0.306-0.185,0.112-0.242c-0.324-0.121-1.063-0.102-1.635,0.021c-1.899,0.347-3.764,0.708-5.56,1.095
	c-3.729,0.381-7.324,0.128-11.243,0.09c4.674-0.778,9.393-1.522,14.273-2.198c0.733-0.08,1.209-0.271,1.118-0.4
	c-0.111-0.127-0.724-0.187-1.442-0.075c-6.467,0.833-12.733,1.788-18.911,2.8c-2.7,0.184-5.605,0.613-8.827,1.483
	c-4.12,0.71-8.222,1.431-12.326,2.149c-9.654,0.9-19.321,1.762-29.05,2.488c3.002-0.724,6.012-1.449,9.003-2.171
	c27.332-3.356,54.519-6.959,81.333-10.879c1.316-0.145,2.356-0.492,2.297-0.765c-0.058-0.275-1.204-0.382-2.513-0.24
	c-15.326,1.19-30.74,2.418-46.178,3.718l3.191-0.713l3.198-0.473c9.901-1.073,19.802-2.187,29.726-3.376
	c3.715-0.358,6.724-1.291,6.836-2.109c-0.021-0.785-2.844-1.126-6.425-0.813l1.72-0.321c0.58-0.096,0.981-0.293,0.811-0.397
	c-0.247-0.117-0.998-0.128-1.563-0.034l-6.146,1.206c-18.905,1.676-37.799,3.739-56.685,5.864
	c20.247-3.038,40.795-5.818,61.527-8.229c-0.411,0.14-0.443,0.31,0.087,0.359c0.451,0.042,1.328-0.048,1.745-0.191
	c0.481-0.161,0.381-0.319-0.077-0.36l-0.049-0.003c11.132-1.286,22.309-2.469,33.527-3.529c0.658-0.055,1.206-0.239,1.177-0.388
	c-0.029-0.153-0.642-0.213-1.368-0.132c-37.17,3.515-73.895,8.369-109.684,13.952l-5.893,0.665l-0.003-0.012
	c-0.684-0.536-2.038-0.929-3.849-1.178c12.711-1.591,25.346-3.221,38.021-4.906l31.808-3.173c1.531-0.152,2.782-0.538,2.779-0.894
	c0.014-0.33-1.277-0.45-2.888-0.304l-7.806,0.764c0.916-0.277,1.674-0.572,2.258-0.874c2.872-0.441,5.72-0.883,9.045-1.299
	c-0.014-0.139,0.09-0.227,1.239-0.156l-1.239,0.156c0.002,0.132,0.095,0.313-0.459,0.461c4.304-0.767,9.343-1.607,14.254-2.255
	l1.734-0.945c-8.063,1.039-16.119,2.022-23.503,3.259c0.1-0.129,0.17-0.259,0.187-0.387c0.066-0.545-0.737-0.958-2.105-1.229
	c3.141-0.52,6.158-0.933,8.239-1.567c0.012-0.004,0.024-0.012,0.036-0.02c8.32-1.343,16.55-2.739,24.624-4.236
	c0.646-0.117,0.977-0.291,0.732-0.407c-0.243-0.111-0.922-0.115-1.562,0c-6.517,0.837-12.988,1.698-19.45,2.572
	c0.175-0.088,0.353-0.175,0.519-0.262c-3.575,0.472-7.207,1.045-10.585,1.618c-1.092,0.147-2.186,0.297-3.279,0.445
	c0.089-0.096,0.07-0.191,0.066-0.271c-5.973,0.745-10.425,1.587-16.209,2.339c-0.441,0.02-0.883,0.039-1.324,0.058
	c9.627-2.233,21.34-3.625,33.068-5.133c0.595-0.347,1.133-0.689,1.594-1.024c-18.69,1.933-37.591,4.391-56.198,7.15
	c-1.734,0.097-3.48,0.202-5.239,0.313c19.419-3.375,42-5.656,62.72-8.627c0.533-0.71,0.539-1.374-0.216-1.969
	c9.709-1.435,19.419-2.878,29.167-4.309c3.371-0.435,5.743-1.349,5.263-2.017c-0.471-0.672-3.643-0.862-7.001-0.426
	c-25.331,2.649-48.552,6.319-74.057,10.22c-11.453,1.747-22.036,3.313-32.869,4.863c9.133-1.567,24.499-4.146,23.568-4.675
	c-0.022-0.226-26.785,4.009-45.931,6.313c-0.847-0.052-1.154-0.272-1.131-0.576c2.181-0.2,4.365-0.396,6.545-0.6
	c0.715-0.064,1.299-0.234,1.32-0.387c0.021-0.131-0.549-0.207-1.2-0.136c-2.123,0.192-4.236,0.375-6.357,0.567
	c0.479-0.514,1.425-1.124,2.49-1.673c5.508-0.372,11-0.752,16.479-1.17c-4.631-0.177-9.402-0.073-14.25,0.169
	c0.536-0.204,1.033-0.362,1.42-0.446l0.873-0.278l-7.332,0.735c0.002-0.03,0.008-0.06,0.011-0.09
	c4.093-0.693,8.156-1.396,12.196-2.108c0.169,0,0.341-0.005,0.51-0.006c-1.956,0.48-3.806,0.964-5.385,1.469l10.814-1.152
	c5.521-1.312,8.88-1.998,10.799-2.3c0.817-0.418,1.904-0.942,3.376-1.608l-0.993,0.119c-5.734,1.087-11.548,2.145-17.438,3.184
	c-0.354,0.087-0.696,0.17-1.045,0.257c-0.131-0.003-0.264-0.001-0.396-0.004c0.479-0.084,0.96-0.167,1.44-0.253l0.381-0.091
	c-1.043,0.12-2.101,0.222-3.146,0.336c-2.406-0.007-4.838,0.03-7.299,0.144c8.011-1.388,15.906-2.805,23.617-4.27
	c-7.235,0.851-15.485,1.826-22.609,2.88c-1.291,0.206-2.551,0.407-3.834,0.61c0.745-1.186,1.964-2.338,3.938-3.319
	c1.649-0.585,4.413-0.046,4.94-0.601c0.829-0.873-2.457-1.244-1.627-2.118c-12.772,1.18-24.792,4.084-37.523,6.077
	c-1.35,0.608-5.363,1.563-10.413,2.599c-0.502,0.044-1.01,0.097-1.507,0.134c0.415-0.025,0.82-0.053,1.233-0.078
	c-6.967,1.42-15.824,2.979-22.457,3.992c-9.245,0.904-18.479,1.995-27.696,3.14c-0.023-0.17-0.035-0.289-0.035-0.289
	c-5.272,0.258-11.848,0.675-17.116,0.933c0,0-0.056-0.44-0.105-0.829c2.758-0.44,5.559-0.839,8.395-1.165l-11.191,0.99
	c-0.493-0.521-0.201-0.994,0.628-1.43c13.112-0.939,25.923-2.012,38.658-3.336c-7.06-1.144-17.317,2.078-25.361,1.38
	c27.942-4.012,59.005-5.076,86.376-11.011c-9.836,0.848-19.664,1.693-29.687,1.899c1.887-0.038,4.034-0.428,6.142-0.768
	c-6.822,0.736-19.279,1.049-20.231,2.058c8.991-0.939,17.93-2.239,26.696-4.129c10.631-1.938,4.365-4.175,0.034-3.654
	c-14.648,1.751-28.476,2.508-42.139,3.857c-0.613-0.195-1.126-0.394-0.558-0.65c1.307-0.163,2.613-0.327,3.868-0.885
	c-3.916,0.489-9.086,1.54-13.053,1.632c-1.354-0.233-2.709-0.467-2.809-1.259c-6.47,1.211-11.837,0.673-16.001-0.817
	c-1.05-0.473-4.958,0.091-8.496,0.609c-22.235,0.836-45.391,4.494-66.421,4.329c-1.355-0.235-4.063-0.698-5.421-0.935
	c-10.581,0.118-23.583,2.145-33.918,4.242c-5.171,1.053-8.54,5.903-8.54,5.903c-0.234,0.185-0.46,0.406-0.668,0.638
	c-0.534,0.087-1.071,0.176-1.603,0.264c-0.564-0.087-1.138-0.156-1.735-0.192l-10.708,1.304c-0.268,0.273,0.03,0.547,0.097,0.773
	l-4.881-0.252l-8.717,0.822c-0.665,0.232-1.326,0.517-1.971,0.871c-0.428-0.282-0.953-0.473-1.554-0.592l-3.309,0.236
	c-2.993,0.206-8.332,1.003-13.92,1.977c-0.388,0.294-0.697,0.55-0.905,0.508c-1.607,0.211-3.163,0.392-4.674,0.509
	c-5.146,0.978-9.896,1.992-12.533,2.708c-2.195,0.843,2.37,2.123,5.05,3.188c-10.802,1.529-21.935,2.778-31.5,5.349
	c-4.679,1.257-12.934,0.379-15.7,3.492l4.756-0.734c-4.514,2.308-9.517,1.465-14.194,2.723c0.026,0.168,0.048,0.32,0.062,0.464
	c-5.65,0.693-10.992,1.868-14.365,3.29c-6.036,2.544-3.569,4.91,5.556,5.289l1.32,0.068c-4.561,0.771-8.504,1.807-10.652,3.13
	c-1.145,0.723-0.008,1.37,0.324,2.039c-0.1,0.404,0.401,0.727,1.325,0.947c-2.067,0.241-4.134,0.502-6.192,0.805
	c-0.665,1.011-4.008,0.959-5.436,1.847c3.232-0.12,6.098-0.313,9.011-0.645c-0.059,0.031-0.116,0.06-0.17,0.091
	c-0.002,0.027-0.008,0.055-0.022,0.08l-4.414,0.738c1.436-0.24,2.91-0.475,4.396-0.708c-0.077,0.096-0.328,0.228-1.239,0.706
	c0,0-0.009,0.175,0.138,0.345c0.419,0.127,0.419,0.127,0.573,0.591c0,0,0.474,0.134,1.154,0.22c0.644,0.023,0.812,0.03,3.198,0.076
	l-0.544,0.311c-0.28,0.711-0.339,0.878,1.082,1.704c0.426,0.247,0.979,0.552,1.709,0.952c0,0,0.097,0.021,0.261,0.053
	c-0.752,0.102-1.386,0.192-1.939,0.277c-7.058,1.071,1.03,0.787-9.498,2.022c-4.978,0.585-9.925,1.399-14.897,1.982
	c-3.705,0.664,2.676,1.298-3.519,2.255l0.977,0.115c4.704-0.849,8.827-1.757,10.213-1.43c1.84,0.741-7.097,2.307-12.691,3.954
	c-0.137,0.193-0.351,0.394-0.646,0.607c0,0-0.813,0.095-1.783,0.209l-0.553,0.249c0.262,0.291,0.033,0.644-0.345,1.009l6.544-0.769
	c-1.947,0.981-3.951,1.662-7.297,2.443l0.017,0.022l-0.242,0.028c-0.679,0.157-1.389,0.317-2.183,0.483l0.002,0.009
	c14.647,0.066,1.114,2.574-3.939,5.75c1.27-0.072,2.813-0.247,4.52-0.526c0.028,0.227,0.083,0.682,0.083,0.682
	c11.247-0.859,19.056-1.974,29.14-2.007c2.521-0.064,2.625,0.844,6.359,0.406c0.061-0.007,0.111-0.012,0.169-0.019
	c7.711-0.888,2.262,0.868,4.837,0.894c-1.611,0.161-3.212,0.32-4.803,0.473c-34.022,3.303-62.701,5.014-53.548,5.912l-3.686,1.081
	c2.438,0.72,10.691,0.449,14.968,0.629c-1.839,0.541-3.986,0.452-6.12,0.362c2.134,0.09,2.134,0.09,4.281,0.179
	c-15.94,1.805-47.125,2.352-43.811,4.961c3.309,2.611,31.483,0.084,51.983-0.911c-17.194,3.606-37.978,3.969-55.758,6.317
	c4.281,0.177,6.712,0.897,12.835,0.539l23.183-1.252c7.706-0.757,14.538-1.967,21.608-1.209l2.028-0.118
	c1.348-0.235,2.601-0.7,3.978-0.858c3.615-0.21,5.412,0.729,7.657,1.28c-4.161,0.582-8.08,1.203-11.534,1.851
	c-5.286,1.16-10.648,2.464-15.989,3.738c2.56,0.196,4.937,0.407,6.999,0.643c-5.518,0.487-11.03,0.97-13.101,1.664
	c-11.621,2.306-4.842,2.993-0.146,4.376c3.325,0.478-0.947,2.139,4.218,2.451c-3.668,0.323-5.505,0.486-9.19,0.808
	c-0.345,0.802,11.273-1.502,8.847-0.006c-3.562,0.058-7.474,0.913-11.146,1.235c0.724,0.478,4.236,0.211,7.324,0.009
	c-0.104-0.123-0.209-0.236-0.307-0.376c0.138,0.137,0.278,0.241,0.413,0.369c2.716-0.177,5.073-0.295,4.856,0.201
	c-0.768,0.17-2.555,0.15-4.466,0.144 M629.515,232.702c-0.005-0.017-0.003-0.025-0.005-0.039c0.271-0.034,0.546-0.067,0.819-0.104
	c-0.272,0.019-0.552,0.044-0.827,0.061c-0.007-0.048-0.013-0.093-0.013-0.135c1.756-0.224,3.556-0.423,5.385-0.606
	c-0.001,0.012,0,0.023,0,0.033c-0.994,0.211-2.006,0.411-3.003,0.618c0.294-0.119,0.598-0.23,0.89-0.351
	c-1.189,0.207-2.462,0.437-3.727,0.689C629.199,232.816,629.356,232.766,629.515,232.702z M590.162,72.183
	c-0.174,0.026-0.347,0.053-0.521,0.08c-0.035-0.007-0.071-0.011-0.105-0.018C589.743,72.223,589.953,72.205,590.162,72.183z
	 M344.421,17.657c0.246,0.004,0.493-0.006,0.741-0.001l-2.233,0.539C343.335,18.009,343.84,17.829,344.421,17.657z M102.938,132.578
	c0.075-0.248,0.128-0.466,0.186-0.405c0.399-0.029,0.787-0.039,1.169,0.01L102.938,132.578z M474.928,46.928l1.74-0.163
	c-0.563,0.091-1.127,0.183-1.69,0.271L474.928,46.928z M652.726,111.367c-0.112,0.029-0.227,0.059-0.341,0.087
	c-0.454,0.012-0.945,0.04-1.479,0.091L652.726,111.367z M566.161,64.277c6.363-1.778,13.677-2.529,20.768-3.314l1.845-0.419
	c1.325-0.25,2.485-0.281,3.608-0.222l0.502-0.064l-0.287,0.074c1.684,0.104,3.31,0.38,5.316,0.409l0.555-0.258l0.034,0.684
	c-5.032,1.876-11.345,1.071-16.998,2.061c-7.345,1.308-15.294,1.968-22.598,3.962c-1.127,0.292-2.848,0.153-3.983,0.213
	C558.867,66.504,562.218,65.177,566.161,64.277z M474.168,45.119c0.415-0.208,0.671-0.409,0.789-0.599
	c1.8-0.275,3.606-0.544,5.414-0.816c6.614-0.551,13.181-1.107,19.7-1.672C491.292,43.315,482.808,44.223,474.168,45.119z
	 M548.128,31.941c5.875-0.42,11.769-0.86,17.679-1.316c-9.613,1.494-19.074,3.297-29.114,5.165
	c-10.223,1.895-19.326,3.476-29.433,5.121c-5.17,0.181-10.436,0.599-15.722,1.118c16.717-2.505,33.354-5.056,49.021-8.18
	c1.061-0.209,1.602-0.483,1.404-0.702c0.404,0.015,0.929-0.021,1.392-0.132C544.839,32.619,546.448,32.271,548.128,31.941z
	 M506.757,36.72c4.252-0.634,8.476-1.283,12.644-1.977c-0.736,0.071-1.476,0.142-2.212,0.211c2.753-0.478,5.483-0.956,8.21-1.431
	c6.141-0.422,12.32-0.849,18.525-1.283c-0.672,0.148-1.327,0.304-1.968,0.461c-0.286,0.075-0.474,0.168-0.515,0.25
	c-0.622-0.084-1.587-0.048-2.533,0.114c-14.978,2.024-29.593,4.401-44.425,6.542c-3.16,0.257-6.327,0.517-9.486,0.76
	C492.07,39.133,499.293,37.946,506.757,36.72z M479.507,40.399c-2.019,0.283-4.059,0.554-6.111,0.814
	c-0.575,0.041-1.147,0.085-1.72,0.125C474.292,41.032,476.904,40.721,479.507,40.399z M452.56,11.658
	c0.711-0.123,1.427-0.244,2.139-0.366c2.667-0.146,5.304-0.24,7.904-0.297c-3.389,0.364-6.773,0.722-10.167,1.06
	C452.473,11.921,452.514,11.789,452.56,11.658z M79.453,133.623c0.379-0.105,0.771-0.177,1.191-0.162
	c0.202-0.043,0.289-0.742,0.361-0.923c0.588,0.371,1.176,0.738,1.835,0.924c0.073-0.182,0.276-0.228,0.419-0.601l0.464,0.654
	C82.341,133.617,80.926,133.67,79.453,133.623z M86.056,133.307l-0.01-0.075c1.479-0.508,3.845,0.463,4.516-1.709
	c0.374,0.573,0.759,0.963,1.155,1.216C89.83,132.878,87.966,133.112,86.056,133.307z M94.383,132.619
	c0.042-0.238-0.061-0.539-0.104-0.773l1.3,0.783L94.383,132.619z M97.769,132.77c0.154-0.155,0.296-0.365,0.432-0.644
	c0.138,0.325,0.295,0.571,0.46,0.753L97.769,132.77z M627.36,239.78l0.015,0.094c-0.066,0.001-0.138-0.012-0.204-0.009
	L627.36,239.78z M625.952,240.136c-0.093,0.039-0.191,0.063-0.285,0.108c0.218-0.051,0.435-0.092,0.655-0.128
	c0.105-0.008,0.203-0.008,0.311-0.016l0.074-0.033c0.225-0.026,0.453-0.044,0.687-0.048l0.021,0.179
	c-0.658,0.142-1.304,0.273-1.925,0.387c-0.204-0.073-0.325-0.22-0.393-0.402C625.375,240.172,625.661,240.153,625.952,240.136z
	 M622.697,234.396c0.086-0.137,0.175-0.263,0.255-0.405c-1.022,0.28-2.046,0.553-3.187,0.562c1.927-0.346,3.866-0.702,5.838-1.134
	c0.093-0.029,0.18-0.055,0.273-0.082c0.478-0.01,0.943-0.037,1.404-0.088c-0.531,0.122-1.059,0.25-1.556,0.391
	c-0.481,0.146-0.95,0.294-1.424,0.438C623.769,234.185,623.229,234.291,622.697,234.396z M621.967,245.672
	c0.323-0.045,0.644-0.092,0.967-0.139c-0.14,0.072-0.274,0.15-0.414,0.217c-0.115,0.02-0.229,0.036-0.343,0.057
	C622.111,245.763,622.04,245.718,621.967,245.672z M621.351,249.958c1.849-0.728,3.734-1.435,5.646-2.127
	c0.348-0.048,0.688-0.099,1.038-0.147C625.893,248.445,623.689,249.191,621.351,249.958z M628.967,249.104
	c-0.279,0.037-0.556,0.073-0.832,0.113c2.349-0.866,4.733-1.701,7.166-2.493l0.323-0.064
	C633.47,247.505,631.262,248.308,628.967,249.104z M635.654,246.649l-0.2,0.025c0.081-0.025,0.163-0.055,0.245-0.081
	c0.081-0.02,0.163-0.039,0.245-0.059C635.848,246.575,635.749,246.61,635.654,246.649z M635.154,245.092
	c-0.178,0.037-0.356,0.073-0.533,0.11l0.696-0.292c0.519-0.117,1.04-0.23,1.56-0.348
	C636.299,244.735,635.728,244.916,635.154,245.092z M640.061,243.649c-0.776,0.083-1.551,0.166-2.335,0.247l0.194-0.081
	c0.411-0.158,0.843-0.29,1.265-0.432c1.039-0.121,2.078-0.231,3.124-0.336C641.558,243.242,640.808,243.438,640.061,243.649z
	 M646.796,244.126c0.018-0.01,0.035-0.018,0.052-0.029c0.551-0.118,1.108-0.232,1.66-0.353
	C647.975,243.887,647.417,244.019,646.796,244.126z M652.475,243.09c-0.004-0.001-0.006,0.002-0.008,0.001
	c0.077-0.055,0.106-0.129,0.11-0.203c0.361-0.076,0.727-0.151,1.092-0.226C653.256,242.805,652.856,242.949,652.475,243.09z
	 M659.187,241.548c-0.862,0.207-1.736,0.403-2.605,0.604l0.058-0.087C657.489,241.897,658.332,241.719,659.187,241.548z"/>
</svg>
