<?xml version="1.0" encoding="iso-8859-1"?>
<!-- Generator: Adobe Illustrator 12.0.0, SVG Export Plug-In . SVG Version: 6.00 Build 51448)  -->
<!DOCTYPE svg PUBLIC "-//W3C//DTD SVG 1.1//EN" "http://www.w3.org/Graphics/SVG/1.1/DTD/svg11.dtd" [
	<!ENTITY ns_svg "http://www.w3.org/2000/svg">
	<!ENTITY ns_xlink "http://www.w3.org/1999/xlink">
]>
<svg  version="1.1" id="f:8" xmlns="&ns_svg;" xmlns:xlink="&ns_xlink;" width="50" height="50" viewBox="0 0 50 50"
	 style="overflow:visible;enable-background:new 0 0 50 50;" xml:space="preserve">
<rect style="fill:none;" width="50" height="50"/>
<g>
	<g>
		<path style="fill:none;stroke:#000000;stroke-width:0.5;" d="M11.2,18.4c-0.2,0.1-0.4,0.2-0.5,0.3c-0.6,0.6-1.1,1.2-1.4,1.9
			c-1.3,0.2-2.1,0.8-2.5,1.6h0.1H7c0.1,0.2,0.2,0.4,0.2,0.6c0,0.1,0,0.1,0,0.1c0.1,0.3,0.3,0.5,0.5,0.6v0.1c0.4,0,0.6-0.1,0.9-0.3
			c0.1,0,0.1-0.1,0.1-0.1c0-0.1,0-0.1,0-0.1c0.1-0.1,0.1-0.2,0.1-0.3l0,0v-0.1h0.1c0.1,0,0.1,0,0.2,0c0,0.1,0,0.1,0,0.1v0.1
			c1.3,0.3,2.3,0,3.1-1c0-0.4,0-0.7,0.1-1c0-0.1,0-0.2,0-0.3c0,0,0,0,0.1,0c0-0.1,0-0.1,0.1-0.1l0.1,0.1l0,0
			c1.3,0.1,2.4-0.3,3.3-1.1c0.1-0.1,0.1-0.2,0.1-0.3c0-0.1,0-0.3,0-0.4c0-0.1,0-0.1,0-0.2h0.1c0,0,0,0,0.1,0c0,0,0.1,0,0.1,0.1
			c0,0.1,0.1,0.2,0.1,0.3v0.1c1,0,1.7-0.5,1.9-1.5c0-0.1,0-0.2,0-0.2l0.1-0.1c0.3,0.2,0.7,0.2,1.1,0.1c0-0.1,0-0.1,0-0.1
			c0-0.1,0-0.1,0-0.1c0-0.1,0.1-0.1,0.1-0.2c0,0,0,0,0.1,0c0-0.1,0.1-0.1,0.2-0.1l0,0c0.1,0,0.1,0,0.1,0c0-0.1,0-0.2,0-0.3
			c-0.3-1-1.1-1.5-2.3-1.5c-0.1,0-0.2,0-0.3,0c-0.7,0-1.2,0.3-1.4,1c-0.9,0.1-1.8,0.1-2.6,0.2C11.899,16.4,11.2,17.1,11.2,18.4z"/>
		<path style="fill:none;stroke:#000000;" d="M6.899,22.2h-0.1v0.1c0,0,0,0,0,0.1s0,0.2,0,0.3l-0.1-0.1c-0.1,0.4-0.1,0.7,0,1.1
			c-1,0.7-1.2,1.5-0.8,2.6c0,0.101,0.1,0.3,0.3,0.4c1.1,0.8,2,0.6,2.8-0.7c1.4-0.1,2.3-0.9,2.7-2.1c1.7,0.2,2.8-0.6,3.3-2.3
			c0.2,0.1,0.5,0.2,0.8,0.2c2-0.1,3.1-1.1,3.6-2.9c0.5-0.5,0.8-1,0.7-1.7c0,0,0,0,0-0.1l0,0c0-0.1,0-0.2,0-0.2H20c0,0,0,0-0.1,0l0,0
			c-0.1,0-0.2,0-0.2,0.1c-0.1,0-0.1,0-0.1,0c0,0.1-0.1,0.1-0.1,0.2c0,0,0,0,0,0.1c0,0,0,0,0,0.1c-0.4,0.1-0.8,0.1-1.1-0.1l-0.1,0.1
			c0,0,0,0.1,0,0.2c-0.2,1-0.9,1.5-1.9,1.5V19c0-0.1-0.1-0.2-0.1-0.3c0-0.1-0.1-0.1-0.1-0.1c-0.1,0-0.1,0-0.1,0H16
			c0,0.1,0,0.1,0,0.2c0,0.1,0,0.3,0,0.4c0,0.1,0,0.2-0.1,0.3c-0.9,0.8-2,1.2-3.3,1.1l0,0l-0.1-0.1c-0.1,0-0.1,0-0.1,0.1
			c-0.1,0-0.1,0-0.1,0c0,0.1,0,0.2,0,0.3c-0.1,0.3-0.1,0.6-0.1,1c-0.8,1-1.8,1.3-3.1,1v-0.1c0,0,0,0,0-0.1c-0.1,0-0.1,0-0.2,0h-0.1
			v0.1l0,0c0,0.1,0,0.2-0.1,0.3c0,0,0,0,0,0.1c0,0,0,0.1-0.1,0.1c-0.3,0.2-0.5,0.3-0.9,0.3v-0.1c-0.2-0.1-0.4-0.3-0.5-0.6
			c0,0,0,0,0-0.1c0-0.2-0.1-0.4-0.2-0.6H6.899z M18.6,17.9L18.6,17.9L18.6,17.9L18.6,17.9z"/>
		<path style="fill:none;stroke:#000000;" d="M18.6,17.9L18.6,17.9L18.6,17.9L18.6,17.9z"/>
		<path style="fill:none;stroke:#000000;" d="M6.7,22.6l0.1,0.1c0-0.1,0-0.2,0-0.3C6.799,22.5,6.7,22.6,6.7,22.6z"/>
		<path style="fill:none;stroke:#000000;stroke-width:0.5;" d="M21.2,17.3c0-0.1,0-0.1,0-0.1v-0.1c0,0,0,0,0.1-0.1l0,0l0,0
			c0.2-0.1,0.2,0,0.3,0.1l0,0c0.1,0.1,0.1,0.1,0.1,0.2c0,0,0,0,0,0.1c0.1,0,0.1,0,0.2,0.1c0.4,0.1,0.8-0.1,1.2-0.4l0,0
			c0.1,0,0.2,0,0.2,0h0.1c0,0.1,0,0.1,0.1,0.2c0.7,0.1,1.3-0.3,1.7-0.9c-0.4-0.3-0.9-0.5-1.4-0.5c-0.1,0-0.1,0-0.2,0c0,0,0,0-0.1,0
			c0,0.1-0.1,0.2-0.1,0.3c-0.1,0.2-0.2,0.5-0.4,0.7c-0.2-0.3-0.5-0.4-0.9-0.4c-0.1,0-0.2,0-0.3,0c-0.3,0.1-0.5,0.2-0.6,0.5
			c0,0,0,0.1,0,0.2C21.2,17.2,21.2,17.2,21.2,17.3z"/>
		<path style="fill:none;stroke:#000000;" d="M21.2,17.2c0,0,0,0,0,0.1c0,0.1,0,0.1,0,0.1c0,0.1,0,0.1,0,0.1l0,0
			c0.1,0.1,0.2,0.2,0.3,0.4h0.1c0.4,0.3,0.9,0.3,1.4,0c0.8,0.1,1.4,0,1.8-0.4c0.3-0.1,0.5-0.3,0.7-0.6c0.1-0.2,0.2-0.4,0.2-0.5
			c0,0,0,0,0-0.1c-0.1,0-0.1,0-0.1-0.1c-0.1,0-0.2,0-0.3,0c0,0,0,0,0,0.1c0,0,0,0-0.1,0.1c-0.4,0.6-1,1-1.7,0.9
			c-0.1-0.1-0.1-0.1-0.1-0.2h-0.1c0,0-0.1,0-0.2,0l0,0c-0.4,0.3-0.8,0.5-1.2,0.4c-0.1-0.1-0.1-0.1-0.2-0.1c0-0.1,0-0.1,0-0.1
			c0-0.1,0-0.1-0.1-0.2l0,0c-0.1-0.1-0.1-0.2-0.3-0.1l0,0l0,0c-0.1,0.1-0.1,0.1-0.1,0.1V17.2z"/>
		<path style="fill:none;stroke:#000000;" d="M21.2,17.4v0.1l0,0C21.2,17.5,21.2,17.5,21.2,17.4z"/>
		<path style="fill:none;stroke:#000000;" d="M21.5,17.9c0.1,0,0.1,0,0.1,0H21.5L21.5,17.9z"/>
		<path style="fill:none;stroke:#000000;" d="M25.399,17.1c0.1-0.1,0.1-0.1,0.1-0.2c-0.2,0.3-0.4,0.5-0.7,0.6
			C25,17.4,25.2,17.3,25.399,17.1z"/>
		<path style="fill:none;stroke:#000000;stroke-width:0.5;" d="M31.5,14.4c0.1,0.1,0.1,0.1,0.1,0.2c0.4,0.6,1,1,1.801,1.1
			c0.1,0,0.1,0,0.1,0.1c0,0.4,0.2,0.6,0.6,0.8c0.5,0.1,1,0.1,1.4-0.2c0-0.1,0-0.3,0-0.4s0.1-0.1,0.1-0.1c0.301,0,0.5,0.1,0.801,0.3
			c0.1,0.2,0.3,0.3,0.5,0.4c0.699,0.2,1.199,0.1,1.899-0.2c0,0,0-0.1,0-0.2v-0.1l0,0c0-0.1,0-0.1,0.101-0.1c0-0.3,0.1-0.4,0.199-0.4
			c0-0.1,0-0.2-0.1-0.2c-0.1-0.3-0.3-0.4-0.5-0.5c-0.6-0.3-1.2-0.7-1.7-1v-0.1c0-0.1,0-0.2,0-0.3c0,0,0,0-0.1-0.1
			c-0.101-0.2-0.3-0.4-0.5-0.5c-0.7-0.8-1.601-1-2.601-0.8c-0.1-0.2-0.199-0.3-0.399-0.5c-0.101,0-0.101-0.1-0.101-0.1
			c-0.3,0-0.6,0-1,0c-0.5,0.1-1.1,0.4-1.6,0.8c-0.4,0.2-0.6,0.6-0.8,1c-0.101,0-0.2,0-0.3-0.1c-0.4,0-0.7-0.1-1-0.1
			c0,0.1,0,0.1,0,0.1l0,0c0,0.1,0,0.1,0,0.2c-0.101,0-0.101,0-0.101,0s0,0-0.1,0c0,0.1,0,0.1,0,0.1c-0.101,0.1-0.2,0.1-0.3,0.2l0,0
			l0,0c0,0.7,0.399,1,1.1,0.9c0.4-0.1,0.7,0,1,0.4c0.6,0,1-0.2,1.4-0.6C31.5,14.4,31.5,14.4,31.5,14.4z"/>
		<path style="fill:none;stroke:#000000;" d="M31.599,14.6c0-0.1,0-0.1-0.1-0.2c0,0,0,0-0.1,0C31,14.8,30.599,15,30,15
			c-0.3-0.4-0.6-0.5-1-0.4c-0.7,0.1-1.1-0.2-1.1-0.9l0,0l0,0c0.1-0.1,0.199-0.1,0.3-0.2c0,0,0,0,0-0.1c0.1,0,0.1,0,0.1,0
			s0,0,0.101,0c0-0.1,0-0.1,0-0.2l0,0c0,0,0,0,0-0.1c-0.101,0-0.101,0-0.101,0h-0.1l0,0c0,0-0.101,0-0.101,0.1H28l0,0
			c-0.4,0-0.8,0.1-1.1,0.2c-0.101,0.1-0.101,0.1-0.101,0.1c0,0.1-0.1,0.2-0.1,0.4c-0.2,0-0.3,0-0.4,0.1c0,0.1,0,0.2,0,0.2
			c0,0.1,0,0.2,0,0.2c-0.1,0-0.1,0-0.1,0.1c-0.101,0-0.101,0-0.101,0.1c0,0,0,0.1-0.1,0.2c0,0.2,0,0.3,0,0.6
			c0.6,0.3,1.2,0.3,1.8,0.1c0.5,0.9,1.2,1.4,2.2,1.4c0.2,0.2,0.5,0.5,0.8,0.8c0.601-0.1,1.101-0.1,1.5,0c0.2,0.4,0.5,0.7,0.9,0.9
			c0.399,0.3,0.899,0.4,1.399,0.2c0.4-0.1,0.7-0.3,0.9-0.5c0.1,0.4,0.5,0.8,1,1.1c0.6,0,1.1-0.1,1.5-0.2c0.1,0.2,0.3,0.4,0.4,0.5
			c0.899,0.6,1.6,0.4,2-0.4c0-0.1,0-0.1,0-0.2l0,0c0.399-0.3,0.5-0.7,0.5-1.2c-0.2-0.9-0.7-1.5-1.5-1.9c0-0.1,0-0.1,0-0.1
			c0-0.1,0-0.1,0-0.2c-0.101-0.1-0.2-0.1-0.301-0.1C39,15.6,38.9,15.7,38.9,16c-0.101,0-0.101,0-0.101,0.1l0,0v0.1
			c0,0.1,0,0.2,0,0.2c-0.7,0.3-1.2,0.4-1.899,0.2c-0.2-0.1-0.4-0.2-0.5-0.4c-0.301-0.2-0.5-0.3-0.801-0.3c0,0-0.1,0-0.1,0.1
			s0,0.3,0,0.4c-0.4,0.3-0.9,0.3-1.4,0.2c-0.399-0.2-0.6-0.4-0.6-0.8c0-0.1,0-0.1-0.1-0.1C32.599,15.6,32,15.2,31.599,14.6z"/>
		<path style="fill:none;stroke:#000000;" d="M28,13.2L28,13.2h0.1H28z"/>
		<path style="fill:none;stroke:#000000;" d="M41.299,21.6c0,0.1,0,0.1-0.1,0.1c-0.101,0.4-0.101,0.9,0.1,1.3
			c-0.1-0.3-0.1-0.5-0.1-0.7c0-0.1,0-0.2,0.1-0.2c0-0.1,0.101-0.1,0.2-0.1l0,0c0,0,0.1,0,0.2,0.1l0,0c0,0.2,0,0.4,0,0.6
			c0,0,0.1,0,0.1,0.1c0,0,0,0,0.101,0.1c0.199,0,0.399,0,0.6,0c0.4-0.2,0.5-0.1,0.4,0.4c-0.101,0.1-0.101,0.2-0.101,0.3
			c0.101,0,0.101,0,0.101,0s0.1,0,0.1,0.1c0.1-0.1,0.2-0.1,0.2-0.2c0,0,0,0,0.1,0c-0.1-0.2-0.1-0.3-0.1-0.5c0.1-0.1,0.1-0.1,0.1-0.1
			c0-0.1,0-0.1,0-0.1s-0.1,0-0.2-0.1c0.101-0.2,0-0.6-0.399-1c-0.2,0-0.3,0-0.5-0.1s-0.4-0.1-0.7,0l0,0h-0.1H41.299z"/>
		<path style="fill:none;stroke:#000000;stroke-width:0.5;" d="M41.5,22c-0.1,0-0.2,0-0.2,0.1c-0.1,0-0.1,0.1-0.1,0.2
			c0,0.2,0,0.4,0.1,0.7c0,0,0,0,0,0.1H41.4c0.199,0.2,0.399,0.3,0.6,0.3c0.1,0.1,0.2,0.1,0.3,0.1v0.1c0.2,0.6,0.601,0.7,1.101,0.4
			c0.1,0,0.199-0.1,0.3-0.2c0,0,0,0,0-0.1c0.2-0.3,0.2-0.6-0.101-0.9c-0.1,0-0.199,0-0.3,0c0,0,0,0,0,0.1c0,0,0,0-0.1,0.1
			c0,0.2,0,0.3,0.1,0.5c-0.1,0-0.1,0-0.1,0c0,0.1-0.101,0.1-0.2,0.2c0-0.1-0.1-0.1-0.1-0.1s0,0-0.101,0c0-0.1,0-0.2,0.101-0.3
			c0.1-0.5,0-0.6-0.4-0.4c-0.2,0-0.4,0-0.6,0c-0.101-0.1-0.101-0.1-0.101-0.1c0-0.1-0.1-0.1-0.1-0.1c0-0.2,0-0.4,0-0.6l0,0
			C41.599,22,41.5,22,41.5,22L41.5,22z"/>
		<path style="fill:none;stroke:#000000;" d="M41.4,23.1c0.1,0.3,0.3,0.4,0.6,0.3C41.799,23.4,41.599,23.3,41.4,23.1z"/>
		<path style="fill:none;stroke:#000000;" d="M43.4,24h0.1c0,0,0.1-0.1,0.2-0.2C43.599,23.9,43.5,24,43.4,24z"/>
		<path style="fill:none;stroke:#000000;" d="M46.5,26.8c0-0.1,0-0.2,0-0.3s0-0.2-0.1-0.3c0,0,0,0,0-0.101
			c-0.301-0.3-0.601-0.5-1-0.6c-0.2,0-0.5,0.1-0.7,0.1c-0.101,0.1-0.101,0.1-0.2,0.1c-0.2,0.1-0.4,0.2-0.7,0.3
			c-0.7,0.3-1,0.9-0.899,1.6c0.1,0.801,0.5,1.4,1.199,1.9C43.9,29.7,43.9,29.9,43.9,30c0,0.3,0,0.6,0,0.9
			c-0.101,0.199-0.2,0.199-0.301,0.3c-0.3,0.399-0.5,0.7-0.5,1.1c-1.399,0.3-2.699,0.8-3.8,1.7c0,0.1,0,0.1-0.1,0.2
			c0,0.2,0.1,0.399,0.1,0.6c-0.1,0.101-0.1,0.101-0.2,0.101c-0.5,0.399-1,0.8-1.3,1.3c0,0.1,0,0.2,0,0.2c0,0.1,0,0.1,0,0.1
			c-0.3,0.1-0.5,0.2-0.8,0.2c-0.2,0.1-0.4,0.1-0.5,0.2l0,0c0,0.1,0,0.199-0.1,0.199V37.2c0,0.1,0,0.2,0,0.399h-0.101
			c-0.1,0.7,0.101,1.2,0.4,1.7c0.1,0.101,0.3,0.2,0.399,0.4c0.9,0.2,1.601,0,2.2-0.7c0-0.1,0-0.3,0-0.4c0-0.1,0-0.1,0-0.1
			c0-0.1,0-0.1,0.101-0.1h0.1c0,0,0.1,0,0.1,0.1c0,0,0,0,0,0.1c0,0,0,0,0,0.101c1.2,0.3,1.9,0,2.4-1c0.1-0.101,0.1-0.2,0.1-0.3
			C42,37.1,41.9,36.8,41.599,36.6c-0.199,0-0.3-0.1-0.199-0.199c0.3-0.2,0.699-0.2,1.199-0.2c0.7,0,1.101-0.3,1.4-0.8
			c0.1-0.2,0.1-0.5,0-0.7c0-0.101,0-0.2,0-0.3L43.9,34.3v-0.1c0,0,0-0.101,0.1-0.101V34c0.5,0.1,1,0,1.3-0.3
			c0.3-0.2,0.3-0.5,0.101-0.8c-0.101-0.2-0.301-0.301-0.4-0.5c0-0.101,0-0.101,0-0.101c0-0.1,0-0.1,0-0.2l0,0l0,0
			c0.8-0.399,1.1-1,1-1.899c-0.1-0.4-0.3-0.7-0.6-1c-0.101,0-0.2-0.101-0.301-0.101c0,0-0.1-0.1-0.1-0.199V28.8
			c0.1,0,0.1-0.1,0.1-0.1l0,0c0.7-0.101,1.301-0.4,1.801-0.9v-0.1c0-0.101,0-0.101,0-0.2c0,0,0,0,0.1,0c0,0,0-0.1,0.1-0.1l0,0l0,0
			C47,27.2,46.799,27,46.5,26.8z M40.9,34.4l0.1,0.1L40.9,34.4L40.9,34.4z"/>
		<path style="fill:none;stroke:#000000;stroke-width:0.5;" d="M47.299,27.5c-0.1,0-0.1,0-0.1,0s0,0-0.101-0.1l0,0l0,0
			c-0.1,0-0.1,0.1-0.1,0.1c-0.1,0-0.1,0-0.1,0c0,0.1,0,0.1,0,0.2v0.1c-0.5,0.5-1.101,0.8-1.801,0.9l0,0c0,0,0,0.1-0.1,0.1V28.9
			c0,0.1,0.1,0.199,0.1,0.199c0.101,0,0.2,0.101,0.301,0.101c0.3,0.3,0.5,0.6,0.6,1c0.1,0.899-0.2,1.5-1,1.899l0,0l0,0
			c0,0.101,0,0.101,0,0.2c0,0,0,0,0,0.101c0.1,0.199,0.3,0.3,0.4,0.5c0.199,0.3,0.199,0.6-0.101,0.8C45,34,44.5,34.1,44,34v0.1
			c-0.1,0-0.1,0.101-0.1,0.101v0.1L44,34.4c0,0.1,0,0.199,0,0.3c0.1,0.2,0.1,0.5,0,0.7c-0.3,0.5-0.7,0.8-1.4,0.8
			c-0.5,0-0.899,0-1.199,0.2c-0.101,0.1,0,0.199,0.199,0.199c0.301,0.2,0.4,0.5,0.5,0.801c0,0.1,0,0.199-0.1,0.3
			c-0.5,1-1.2,1.3-2.4,1c0-0.101,0-0.101,0-0.101c0-0.1,0-0.1,0-0.1c0-0.1-0.1-0.1-0.1-0.1h-0.1c-0.101,0-0.101,0-0.101,0.1
			c0,0,0,0,0,0.1c0,0.101,0,0.301,0,0.4c-0.6,0.7-1.3,0.9-2.2,0.7c-0.1-0.2-0.3-0.3-0.399-0.4c-0.3-0.5-0.5-1-0.4-1.7H36.4
			c0-0.199,0-0.3,0-0.399V37.1c0.1,0,0.1-0.1,0.1-0.199l0,0h-0.1c0,0,0-0.101-0.101-0.101c0,0.101,0,0.101-0.1,0.101
			c0,0,0,0.1-0.101,0.1l0,0c0,0.1,0,0.1,0,0.1l0,0c-1,0.5-1.199,1.4-0.699,2.601c-1.101,0.3-1.801,1-2,2c-0.101,0.5,0,0.8,0.399,1.1
			c1.5,0.8,3,0.7,4.4-0.2c0.5,0,1.1,0.101,1.6,0.101c0.101-0.101,0.3-0.2,0.4-0.3c0.6-0.4,1-0.9,1.2-1.601c1.5-0.1,2.5-0.7,3-2
			c1.1-0.399,1.699-1,2-2c0-0.1,0-0.2,0-0.3c0.3-0.4,0.5-0.9,0.5-1.5c0-0.2,0-0.4,0.1-0.5c0.4-0.9,0.3-1.7-0.3-2.4
			c0.2-0.199,0.399-0.399,0.5-0.6c0.399-0.9,0.3-1.7-0.2-2.5c0.1-0.1,0.2-0.2,0.2-0.3c0.1-0.3,0.1-0.5,0.1-0.7v-0.1
			C47.299,27.8,47.299,27.6,47.299,27.5z"/>
		<path style="fill:none;stroke:#000000;" d="M36.099,37.1L36.099,37.1c0,0,0,0,0-0.1C36.099,37,36.099,37,36.099,37.1z"/>
		<path style="fill:none;stroke:#000000;" d="M24.299,40.1c0-0.1-0.1-0.1-0.1-0.1c-1-0.2-2,0-2.9,0.5c-0.1-0.1-0.2-0.1-0.3-0.2
			c-0.7-0.2-1.4-0.2-2.1,0c-0.1-0.1-0.1-0.2-0.2-0.3c-0.3-0.6-0.7-1.1-1.3-1.4c-0.5,0-1.1,0-1.6,0c0,0-0.1,0-0.1-0.1
			c-0.2-0.4-0.6-0.8-1-1c-0.4,0.1-0.8,0.3-1.2,0.6c-0.2,0.101-0.3,0.301-0.4,0.4h0.1c0,0,0.1,0,0.1,0.1c0,0.101,0,0.2,0,0.4l0,0
			c0.1,0.2,0.2,0.4,0.3,0.5c0,0.1,0,0.1,0,0.1V39.7c0.3,0.1,0.5,0.2,0.8,0.399c0.1,0,0.2,0,0.3,0c0.1-0.1,0.2-0.199,0.3-0.3
			c0.1,0,0.1,0,0.2,0c0,0,0,0,0,0.101c0.1,0.1,0.1,0.3,0.1,0.6l0,0c0.1,0.2,0.2,0.2,0.3,0.3c0.4,0.2,0.8,0.2,1.3,0.101
			c0-0.101,0-0.101,0-0.101c0.1,0,0.1,0,0.1,0h0.1h0.1c0,0,0,0,0.1,0c0,0.2,0,0.4-0.1,0.601v0.1c0.2,0.3,0.4,0.7,0.6,1
			c0.1,0.1,0.1,0.1,0.2,0.1c0.8,0.101,1.7,0.101,2.4-0.1c0.3-0.2,0.6-0.4,0.9-0.5c-0.1-0.1-0.1-0.3-0.1-0.4v-0.1l0.1-0.1
			c0.2,0.1,0.3,0.1,0.3,0.3c0.9,0.3,1.5,0.2,2-0.4c0.3-0.2,0.4-0.5,0.6-0.8c0-0.1,0.1-0.2,0.1-0.3
			C24.299,40.1,24.299,40.1,24.299,40.1L24.299,40.1z"/>
		<path style="fill:none;stroke:#000000;stroke-width:0.5;" d="M24.299,40.2c0,0.1-0.1,0.2-0.1,0.3c-0.2,0.3-0.3,0.6-0.6,0.8
			c-0.5,0.601-1.1,0.7-2,0.4c0-0.2-0.1-0.2-0.3-0.3l-0.1,0.1v0.1c0,0.101,0,0.301,0.1,0.4c-0.3,0.1-0.6,0.3-0.9,0.5
			c-0.7,0.2-1.6,0.2-2.4,0.1c-0.1,0-0.1,0-0.2-0.1c-0.2-0.3-0.4-0.7-0.6-1v-0.1c0.1-0.2,0.1-0.4,0.1-0.601c-0.1,0-0.1,0-0.1,0h-0.1
			H17c0,0,0,0-0.1,0c0,0,0,0,0,0.101C16.399,41,16,41,15.6,40.8c-0.1-0.1-0.2-0.1-0.3-0.3l0,0c0-0.3,0-0.5-0.1-0.6
			c0-0.101,0-0.101,0-0.101c-0.1,0-0.1,0-0.2,0c-0.1,0.101-0.2,0.2-0.3,0.3c-0.1,0-0.2,0-0.3,0c-0.3-0.199-0.5-0.3-0.8-0.399V39.6
			c0,0,0,0,0-0.1c-0.1-0.1-0.2-0.3-0.3-0.5l0,0c0-0.2,0-0.3,0-0.4c0-0.1-0.1-0.1-0.1-0.1h-0.1c-0.1,0-0.1,0.1-0.2,0.2l0,0l-0.1,0.1
			h-0.1l0,0c-0.1,0-0.1,0-0.2,0.101c0,0-0.1,0-0.1,0.1c-0.1,0.2-0.1,0.5-0.1,0.8C12.2,41.4,13,42.1,14.6,42c0.2-0.1,0.4-0.2,0.5-0.2
			c0.1,0.101,0.1,0.2,0.1,0.2c0.4,1.2,1.1,2.1,2.1,2.5c0.8,1.5,1.9,1.7,3.4,0.7c1.2,0.399,2,0,2.4-1.2c0-0.1,0-0.1,0-0.2
			c1,0,1.8-0.3,2.6-1c0.1-0.1,0.1-0.2,0.1-0.3c0-0.2,0-0.4-0.1-0.6c-0.1-0.101-0.2-0.101-0.2-0.2h-0.1c-0.2-0.5-0.5-1-0.8-1.4
			c0,0,0-0.1-0.1-0.2c0-0.1,0-0.1-0.1-0.1c0,0,0,0-0.1,0c0,0.1,0,0.1,0,0.1l0,0C24.299,40.1,24.299,40.1,24.299,40.2z M16.899,41.3
			L16.899,41.3L16.899,41.3L16.899,41.3z M14.899,40.3V40.4l0,0C14.899,40.3,14.899,40.3,14.899,40.3z"/>
		<path style="fill:none;stroke:#000000;" d="M16.899,41.3L16.899,41.3L16.899,41.3L16.899,41.3z"/>
		<path style="fill:none;stroke:#000000;" d="M14.899,40.4V40.3C14.899,40.3,14.899,40.3,14.899,40.4L14.899,40.4z"/>
		<path style="fill:none;stroke:#000000;stroke-width:0.5;" d="M8.299,31.8L8.299,31.8v-0.1H8.2c0,0,0,0-0.1,0.1l0,0
			c-0.1,0-0.2,0-0.3,0.101c-0.3,0.1-0.5,0.3-0.8,0.6c0,0,0,0.1-0.1,0.1c0,0,0,0,0,0.101c0,0,0,0.1,0,0.2V33c0,0.1,0.1,0.1,0.2,0.2
			c0,0,0,0.1,0.1,0.1c0.1,0,0.2,0,0.3,0c0,0.101,0,0.2,0.1,0.3c-0.4,0.2-0.6,0.5-0.6,1c-0.1,0.4,0,0.9,0.1,1.301
			c0.1,0.1,0.2,0.3,0.4,0.399l0,0c0,0.2,0,0.4,0.1,0.5c0.4,0.9,1.2,1.3,2.4,1.101c0-0.101,0.1-0.2,0.2-0.2c0.5-0.3,0.9-0.8,1.1-1.4
			c0.1-0.1,0.1-0.3,0.1-0.399c0.1-0.101,0.1-0.2,0.1-0.301c-0.2-0.199-0.4-0.1-0.5,0.2c-0.1,0-0.2,0.101-0.3,0.2c-0.1,0-0.2,0-0.4,0
			c-0.1-0.1-0.2-0.3-0.4-0.4c0,0,0,0,0-0.1c0.1-0.1,0-0.1,0-0.2c-0.5-0.2-1-0.2-1.5-0.3c-0.1-0.1-0.1-0.1-0.1-0.2
			c0.1-0.399,0.3-0.7,0.5-1c-0.1-0.1-0.2-0.2-0.5-0.1c0,0,0,0,0-0.101C8.2,33.1,8.2,32.4,8.299,31.8z"/>
		<path style="fill:none;stroke:#000000;" d="M8.299,31.8L8.299,31.8c-0.1,0.601-0.1,1.3,0,1.8c0,0.101,0,0.101,0,0.101
			c0.3-0.101,0.4,0,0.5,0.1c-0.2,0.3-0.4,0.601-0.5,1c0,0.101,0,0.101,0.1,0.2c0.5,0.1,1,0.1,1.5,0.3c0,0.101,0.1,0.101,0,0.2
			c0,0.1,0,0.1,0,0.1c0.2,0.101,0.3,0.301,0.4,0.4c0.2,0,0.3,0,0.4,0c0.1-0.1,0.2-0.2,0.3-0.2c0.1-0.3,0.3-0.399,0.5-0.2
			c0.1-1-0.4-1.699-1.4-2.199C10.1,33,10,32.6,9.7,32.3C9.299,31.9,8.799,31.7,8.299,31.8z"/>
	</g>
</g>
</svg>
