<?xml version="1.0" encoding="iso-8859-1"?>
<!-- Generator: Adobe Illustrator 12.0.0, SVG Export Plug-In . SVG Version: 6.00 Build 51448)  -->
<!DOCTYPE svg PUBLIC "-//W3C//DTD SVG 1.1//EN" "http://www.w3.org/Graphics/SVG/1.1/DTD/svg11.dtd" [
	<!ENTITY ns_svg "http://www.w3.org/2000/svg">
	<!ENTITY ns_xlink "http://www.w3.org/1999/xlink">
]>
<svg  version="1.1" id="f:9" xmlns="&ns_svg;" xmlns:xlink="&ns_xlink;" width="50" height="50" viewBox="0 0 50 50"
	 style="overflow:visible;enable-background:new 0 0 50 50;" xml:space="preserve">
<rect style="fill:none;" width="50" height="50"/>
<g>
	<g>
		<path style="fill:none;stroke:#000000;" d="M18,14.5c-0.1,0-0.1,0.1-0.1,0.1l0,0c0,0,0,0,0,0.1c0,0.1,0,0.2,0,0.2
			c-0.1,0.1-0.1,0.1-0.1,0.1s0,0,0,0.1v0.1c-0.1,0.2-0.4,0.5-0.5,0.7c-0.4,0-0.7,0-1,0c-0.2-0.2-0.3-0.3-0.4-0.4c0,0,0,0-0.1,0l0,0
			c0,0.2,0,0.4-0.1,0.5c-0.2,0.9-0.8,1.2-1.7,0.9c-0.1,0.1-0.1,0.2-0.1,0.4c0,0.1,0,0.2,0,0.4c-0.3,0.8-0.9,1.1-1.8,0.9
			c-0.1,0-0.1,0-0.1,0v0.1c0,0,0,0,0,0.1c0,0,0.1,0,0.1,0.1c-0.2,0.9-0.7,1.3-1.7,1.3l0,0c-0.1-0.1-0.1-0.1-0.1-0.1
			c-0.1,0-0.2,0.1-0.2,0.2v0.1c0,0.2,0,0.3-0.1,0.5c-0.4,0.3-0.8,0.3-1.3,0.2c0,0,0,0-0.1,0.1l0,0c0,0.1,0,0.1,0,0.2
			c-0.1,0.1-0.3,0.2-0.3,0.4c-0.1,0-0.2,0.1-0.3,0l0,0l-0.1-0.1l0,0c0-0.1,0-0.2,0-0.3c-0.1,0-0.1,0-0.2,0.1l-0.1-0.1
			c0,0.1,0,0.1,0,0.2c-0.1,0-0.1,0-0.2,0.1c0,0-0.1,0-0.1,0.1v0.1c0,0.1,0,0.1,0,0.2s0,0.1,0,0.2v0.1c0,0,0,0.1,0.1,0.1
			c0,0.1,0,0.1,0.1,0.1c0,0.1,0,0.1,0,0.1c0,0.2-0.1,0.3-0.2,0.4c-0.1,0-0.1,0.1-0.2,0.2c0,0,0,0.1,0,0.2s0,0.1,0,0.2v0.1
			C7,23.8,7,23.9,7,23.9l-0.1,0.1c0,0,0,0.1-0.1,0.1v0.1c0,0.1,0,0.1,0,0.1c0,0.1,0,0.1-0.1,0.1c0,0.1,0,0.1,0,0.1
			c-0.1,0.1-0.1,0.1-0.1,0.2c0,0.1,0,0.2,0.1,0.4c0,0,0,0.1,0,0.2c0.1,0,0.1,0,0.2,0.1c0.2,0,0.4,0,0.6,0c0.2-0.1,0.3-0.3,0.4-0.5
			c0.3-1,0.8-1.8,1.6-2.3c0.3-0.1,0.5-0.1,0.7-0.2c0,0,0.1,0,0.1-0.1c0.1,0,0.1-0.1,0.1-0.2c0,0,0.1,0,0.1-0.1
			c0.1-0.1,0.3-0.2,0.4-0.3c0.6-0.7,1.2-1.4,1.8-2.2c0.3-0.1,0.7-0.2,1-0.3c1.2-0.2,1.9-0.8,2.1-2c0.4,0,0.8,0,1.3-0.1
			c0,0,0,0,0.1,0c0-0.1,0-0.1,0.1-0.1c0.1-0.1,0.3-0.1,0.5-0.2c0.7-0.3,1.1-0.9,1-1.7c0,0,0,0,0-0.1c-0.2-0.1-0.5-0.3-0.7-0.4l0,0
			v-0.1C18,14.5,18,14.5,18,14.5z"/>
		<path style="fill:none;stroke:#000000;stroke-width:0.5;" d="M17.899,14.6c-0.1,0-0.2,0-0.3,0c-1.1,0.1-2.1,0.4-3,0.9
			c-1,0-1.7,0.5-2,1.4c-1.5-0.2-2.3,0.4-2.3,1.7c-0.2,0.1-0.4,0.2-0.5,0.2c-0.5,0.3-0.6,0.6-0.6,1.1c-0.4,0-0.9,0.1-1.2,0.3
			l-0.1,0.1c-0.1,0.1-0.1,0.1-0.2,0.2c0,0,0,0.1-0.1,0.1c0,0.2,0.1,0.4,0.1,0.6c0,0.1,0,0.2-0.1,0.2l0.1,0.1
			c0.1-0.1,0.1-0.1,0.2-0.1c0,0.1,0,0.2,0,0.3l0,0L8,21.8l0,0c0.1,0.1,0.2,0,0.3,0c0-0.2,0.2-0.3,0.3-0.4c0-0.1,0-0.1,0-0.2l0,0
			c0.1-0.1,0.1-0.1,0.1-0.1c0.5,0.1,0.9,0.1,1.3-0.2c0.1-0.2,0.1-0.3,0.1-0.5v-0.1c0-0.1,0.1-0.2,0.2-0.2c0,0,0,0,0.1,0.1l0,0
			c1,0,1.5-0.4,1.7-1.3c0-0.1-0.1-0.1-0.1-0.1c0-0.1,0-0.1,0-0.1v-0.1c0,0,0,0,0.1,0c0.9,0.2,1.5-0.1,1.8-0.9c0-0.2,0-0.3,0-0.4
			c0-0.2,0-0.3,0.1-0.4c0.9,0.3,1.5,0,1.7-0.9c0.1-0.1,0.1-0.3,0.1-0.5l0,0c0.1,0,0.1,0,0.1,0c0.1,0.1,0.2,0.2,0.4,0.4
			c0.3,0,0.6,0,1,0c0.1-0.2,0.4-0.5,0.5-0.7v-0.1c0-0.1,0-0.1,0-0.1s0,0,0.1-0.1c0,0,0-0.1,0-0.2
			C17.899,14.6,17.899,14.6,17.899,14.6L17.899,14.6z"/>
		<path style="fill:none;stroke:#000000;stroke-width:0.5;" d="M34,12.3L34,12.3c-0.1,0-0.1,0-0.2,0c-0.6,0.3-1.2,0.7-1.5,1.2
			c-0.2,0-0.2,0-0.3,0c0-0.1-0.1-0.1-0.2-0.1c-0.6-0.3-1.3-0.4-2.1-0.4l0,0c-0.101,0-0.101,0.1-0.2,0.1c0,0.1,0,0.1-0.1,0.2
			c0,0,0,0.1-0.101,0.1h-0.1c-0.601,0-1.2,0.1-1.8,0.1c-0.101,0-0.101,0-0.101,0.1c-0.2,0.1-0.2,0.3-0.3,0.4c0,0.1,0,0.2,0,0.4l0,0
			c0.1,0.1,0.3,0.2,0.4,0.3c-0.101-0.1-0.2-0.2-0.301-0.3c0-0.2,0.101-0.4,0.101-0.5c0,0,0-0.1,0-0.2c0.1,0,0.1,0,0.2-0.1l0,0
			c0.1,0,0.1,0.1,0.1,0.1c0.1,0,0.1,0,0.1,0c0,0.2,0,0.2,0.101,0.3v0.1c0.3,0.4,0.8,0.5,1.3,0.2c0.1-0.1,0.1-0.1,0.1-0.1
			c0.101-0.1,0.101-0.1,0.101-0.1c0.1,0,0.3,0,0.399,0c0,0,0,0.1,0.101,0.1c0,0.1,0,0.1,0,0.1c0,0.1,0,0.1,0,0.1s0,0,0,0.1
			c0.2,0.1,0.399,0.1,0.7,0c0.1-0.1,0.1-0.1,0.1-0.2c0.1-0.1,0.1-0.1,0.1-0.2l0,0C30.7,14,30.7,14,30.7,14c0.3,0,0.5,0,0.7,0.2
			c0.1,0.1,0.3,0.2,0.399,0.2c0.101-0.1,0.101-0.2,0.101-0.2c0.1,0,0.1-0.1,0.1-0.1c0.1,0,0.2,0,0.4,0v0.1c0.1,0,0.1,0,0.1,0
			c0,0.2,0,0.3-0.1,0.5c0,0,0,0,0,0.1c0.199,0.2,0.5,0.2,0.8,0c0.1,0,0.2,0,0.2,0.1c0.1,0,0.1,0,0.1,0c0.1,0.1,0.1,0.1,0.1,0.1v0.1
			c0,0.1,0,0.1,0,0.2c0.2,0.4,0.601,0.5,1.101,0.4c0.1,0,0.2,0,0.3,0s0.1,0.1,0.1,0.2l0,0c0,0,0,0.1,0,0.2v0.1
			c0,0.2,0.101,0.2,0.301,0.3c0.5,0.1,1,0,1.399-0.4c0.101,0,0.2,0,0.2,0c0.1,0.1,0.1,0.1,0.1,0.3l0,0c0.4,0,0.7,0,1,0.1v0.1
			c0.101,0,0.101,0,0.101,0.1c0.1,0.2,0,0.2-0.101,0.4c0,0,0,0,0,0.1c0.101,0.2,0.301,0.2,0.4,0.2c0.2-0.1,0.4-0.2,0.6-0.1
			c0,0.1,0,0.1,0.101,0.1c0,0,0,0,0,0.1s0,0.2,0,0.3c0,0.1,0,0.1,0,0.1c0.2,0,0.3,0,0.5,0.1c0,0,0,0,0.1,0.1c0,0,0,0,0,0.1
			c0,0,0,0.1,0,0.2c0,0,0,0,0,0.1c0.2,0.1,0.4,0.1,0.601,0.1c0.1-0.1,0-0.3-0.101-0.5c-0.5-0.8-1.2-1.6-2-2.2c0-0.2,0-0.3-0.2-0.3
			c-0.5-0.6-1-1-1.6-1.4c-0.1,0-0.1-0.1-0.1-0.1c-0.301-0.5-0.801-0.7-1.4-0.6v-0.1C34.9,12.9,34.599,12.4,34,12.3z"/>
		<path style="fill:none;stroke:#000000;" d="M31,14.8l-0.1,0.1c0.1,0,0.3,0,0.399,0C31.2,14.9,31.099,14.8,31,14.8z"/>
		<path style="fill:none;stroke:#000000;" d="M30.9,14.9l0.1-0.1c0.1,0,0.2,0.1,0.3,0.1c0.2,0,0.4,0.1,0.601,0.1
			c0.199,0.4,0.6,0.6,1.1,0.5c0,0,0,0,0.1,0c0,0.2,0.2,0.4,0.4,0.5c0.3,0.3,0.6,0.4,1,0.4l0,0v0.1c0,0,0,0,0,0.1l0,0
			c0.1,0.2,0.3,0.3,0.4,0.3c0,0,0.1,0,0.1,0.1c0,0,0.1,0,0.1,0.1c0.601,0.1,1.2,0,1.7-0.2c0,0,0,0,0.101,0c0,0.1,0,0.1,0,0.1
			c0.199,0,0.399,0.1,0.6,0.1h0.1l0,0v0.1c0,0.2,0,0.3,0,0.5c0.101,0,0.2,0,0.2,0.1c0.101,0.1,0.3,0.1,0.4,0.2
			c0.2,0,0.3,0.1,0.399,0.1c0,0,0,0,0,0.1c0.101,0.1,0.2,0.2,0.301,0.3c0.1,0,0.3,0.1,0.399,0.1c0.101,0.5,0.5,0.7,1.101,0.6
			c0-0.1,0-0.1,0.1-0.1c0.1-0.1,0.1-0.2,0.1-0.3v-0.1c-0.1,0-0.1-0.1-0.1-0.1c-0.1,0-0.1,0-0.1,0c-0.2,0-0.4,0-0.601-0.1
			c0-0.1,0-0.1,0-0.1c0-0.1,0-0.2,0-0.2c0-0.1,0-0.1,0-0.1C39.7,18,39.7,18,39.7,18c-0.2-0.1-0.3-0.1-0.5-0.1c0,0,0,0,0-0.1
			c0-0.1,0-0.2,0-0.3s0-0.1,0-0.1c-0.101,0-0.101,0-0.101-0.1c-0.199-0.1-0.399,0-0.6,0.1c-0.1,0-0.3,0-0.4-0.2c0-0.1,0-0.1,0-0.1
			c0.101-0.2,0.2-0.2,0.101-0.4c0-0.1,0-0.1-0.101-0.1v-0.1c-0.3-0.1-0.6-0.1-1-0.1l0,0c0-0.2,0-0.2-0.1-0.3c0,0-0.1,0-0.2,0
			C36.4,16.5,35.9,16.6,35.4,16.5c-0.2-0.1-0.301-0.1-0.301-0.3v-0.1c0-0.1,0-0.2,0-0.2l0,0c0-0.1,0-0.2-0.1-0.2s-0.2,0-0.3,0
			c-0.5,0.1-0.9,0-1.101-0.4c0-0.1,0-0.1,0-0.2V15c0,0,0,0-0.1-0.1c0,0,0,0-0.1,0c0-0.1-0.101-0.1-0.2-0.1c-0.3,0.2-0.601,0.2-0.8,0
			c0-0.1,0-0.1,0-0.1c0.1-0.2,0.1-0.3,0.1-0.5c0,0,0,0-0.1,0v-0.1c-0.2,0-0.301,0-0.4,0c0,0,0,0.1-0.1,0.1c0,0,0,0.1-0.101,0.2
			c-0.1,0-0.3-0.1-0.399-0.2C31.2,14,31,14,30.7,14c0,0,0,0-0.101,0.1l0,0c0,0.1,0,0.1-0.1,0.2c0,0.1,0,0.1-0.1,0.2
			c-0.301,0.1-0.5,0.1-0.7,0c0-0.1,0-0.1,0-0.1s0,0,0-0.1c0,0,0,0,0-0.1c-0.101,0-0.101-0.1-0.101-0.1c-0.1,0-0.3,0-0.399,0
			c0,0,0,0-0.101,0.1c0,0,0,0-0.1,0.1c-0.5,0.3-1,0.2-1.3-0.2V14c-0.101-0.1-0.101-0.1-0.101-0.3c0,0,0,0-0.1,0c0,0,0-0.1-0.1-0.1
			l0,0c-0.101,0.1-0.101,0.1-0.2,0.1c0,0.1,0,0.2,0,0.2c0,0.1-0.101,0.3-0.101,0.5c0.101,0.1,0.2,0.2,0.301,0.3
			c0.399,0.4,1,0.5,1.6,0.3c0.5,0.3,1.1,0.3,1.7,0.1c0,0,0-0.1,0.1-0.1L30.9,14.9z"/>
		<path style="fill:none;stroke:#000000;" d="M37.599,17.1h-0.1H37.599L37.599,17.1z"/>
		<path style="fill:none;stroke:#000000;" d="M34.5,16.4L34.5,16.4v0.1V16.4z"/>
		<path style="fill:none;stroke:#000000;" d="M37.799,17.8C37.9,17.9,37.9,17.9,38,18c0.1,0,0.1,0,0.2,0
			C38.099,17.9,37.9,17.9,37.799,17.8z"/>
		<path style="fill:none;stroke:#000000;" d="M33,15.5c0.1,0.3,0.2,0.4,0.4,0.5h0.1c-0.2-0.1-0.4-0.3-0.4-0.5
			C33,15.5,33,15.5,33,15.5z"/>
		<path style="fill:none;stroke:#000000;stroke-width:0.5;" d="M22.6,14c0,0,0,0,0.1,0c0,0,0,0,0.1,0c0,0.1,0,0.1,0,0.1
			c0.1,0.1,0.1,0.1,0.1,0.2c0,0.1,0,0.1,0,0.1c0.1,0.1,0.2,0.1,0.2,0.2c0.2,0.1,0.4,0,0.6,0c0.1,0,0.1,0,0.1,0
			c0.1-0.5-0.2-0.7-1-0.8c-0.3,0-0.5,0.1-0.5,0.4c-0.1,0.2-0.1,0.3-0.1,0.5c0.1,0.1,0.2,0.2,0.3,0.2c0,0.1,0,0.1,0,0.1
			c0.1,0.1,0.1,0.1,0.2,0.1c0.1,0,0.2,0,0.3,0c-0.2,0-0.3-0.1-0.4-0.2c0,0,0,0-0.1,0c-0.1-0.3-0.1-0.4-0.1-0.6
			c0-0.1,0.1-0.2,0.1-0.2C22.5,14,22.5,14,22.6,14z"/>
		<path style="fill:none;stroke:#000000;" d="M22.7,14c-0.1,0-0.1,0-0.1,0c-0.1,0-0.1,0-0.1,0.1c0,0-0.1,0.1-0.1,0.2
			c0,0.2,0,0.3,0.1,0.6c0.1,0,0.1,0,0.1,0c0.1,0.1,0.2,0.2,0.4,0.2c0.2,0.1,0.4,0.1,0.6,0.1c0.3-0.1,0.4-0.3,0.3-0.5
			c0,0,0-0.1-0.1-0.1c0,0,0,0-0.1,0c-0.2,0-0.4,0.1-0.6,0c0-0.1-0.1-0.1-0.2-0.2c0,0,0,0,0-0.1c0-0.1,0-0.1-0.1-0.2c0,0,0,0,0-0.1
			C22.7,14,22.7,14,22.7,14z"/>
		<path style="fill:none;stroke:#000000;stroke-width:0.5;" d="M43.5,20.9c0,0-0.1,0-0.1,0.1c0,0-0.101,0-0.101,0.1
			c-0.1,0.1-0.1,0.2-0.1,0.3c0.1,0.1,0.1,0.1,0.1,0.2c0.101,0,0.101,0.1,0.2,0.1s0.2,0,0.3,0H43.9c0.1-0.1,0.199-0.2,0.199-0.4
			c0,0,0-0.1,0-0.2c-0.1,0-0.1,0-0.1-0.1c-0.1,0-0.1,0-0.2-0.1C43.7,20.9,43.599,20.9,43.5,20.9z M43.9,21.3c0,0,0,0,0.1,0.1
			c0,0,0,0-0.1,0c0,0.1,0,0.1,0,0.1l0,0c-0.301,0.2-0.5,0.1-0.5-0.2l0,0c0-0.1,0.1-0.1,0.199-0.1l0,0
			C43.7,21.2,43.799,21.2,43.9,21.3z"/>
		<path style="fill:none;stroke:#000000;" d="M44,21.4c-0.1-0.1-0.1-0.1-0.1-0.1c-0.101-0.1-0.2-0.1-0.301-0.1l0,0
			c-0.1,0-0.199,0-0.199,0.1l0,0c0,0.3,0.199,0.4,0.5,0.2l0,0c0,0,0,0,0-0.1C44,21.4,44,21.4,44,21.4z"/>
		<path style="fill:none;stroke:#000000;" d="M46.4,26.5c0,0-0.101,0-0.101-0.1c-0.1,0-0.2,0-0.399,0l0,0l-0.101,0.1
			c-0.1,0-0.2,0.1-0.2,0.3c-0.1,0.3-0.199,0.601-0.1,0.9c0,0.1,0.1,0.2,0.2,0.2c0.1,0.199,0.2,0.3,0.3,0.5c-0.1,0-0.2,0.1-0.2,0.199
			L45.7,28.7c0,0.1,0,0.3,0,0.399c0,0.101,0,0.2,0,0.301c0.1,0.1,0.1,0.199,0.2,0.3c0,0,0,0,0,0.1c-0.101,0.101-0.2,0.2-0.301,0.4
			C45.5,30.6,45.4,30.9,45.4,31.4C45.299,31.6,45.2,31.6,45.099,31.8c-0.199,0.101-0.3,0.3-0.3,0.4c-0.3,0.1-0.399,0.2-0.5,0.5
			c-0.399,0.8-0.399,1.5,0,2.3c-0.2,0.2-0.399,0.4-0.6,0.6c-0.5,0.5-0.601,1.101-0.5,1.801c-1.2-0.301-2,0.1-2.3,1.199
			c-0.801,0.2-1.301,0.601-1.601,1.4c-1,0.1-1.899,0.5-2.7,1C36.4,40.9,36.2,40.8,36,40.8c-1,0.101-1.8,0.4-2.2,1.101l0,0
			c0,0.1,0,0.1,0,0.1v0.1c0.101,0,0.101,0,0.101,0.101c0-0.101,0-0.101,0.1-0.101c0,0.101,0,0.101,0,0.101c0,0.1,0.1,0.1,0.1,0.2
			l0,0c0,0,0,0,0,0.1c0.101,0.1,0.2,0.2,0.301,0.2c0,0.1,0.1,0.1,0.1,0.2c0.8,0.3,1.6,0.199,2.2-0.301c0-0.1,0-0.1,0.1-0.199
			c0,0,0,0,0-0.101c0,0,0,0,0.101,0c0,0,0,0,0.1,0c0.6,0.5,1.1,0.4,1.6-0.1c0.101-0.2,0.2-0.4,0.301-0.5c0,0,0-0.101,0-0.2
			c1,0.2,1.699-0.3,2.1-1.2c0.4,0.101,0.9,0,1.3-0.2c0.4-0.199,0.7-0.5,0.9-0.899c0-0.101,0-0.2,0-0.3c0.1-0.101,0.2,0,0.2,0.1h0.1
			c0.8-0.1,1.1-0.5,1.1-1.2c0-0.1,0-0.2,0-0.2c0.2,0,0.301,0,0.5,0c0.101-0.1,0.2-0.199,0.2-0.399c0-0.101,0.101-0.2,0.101-0.3l0,0
			c0-0.101,0-0.101-0.101-0.101c0.101-0.1,0.3-0.3,0.4-0.399c0.1-0.101,0.1-0.101,0.2-0.2l0,0c0,0,0,0,0.1,0c-0.1,0-0.1,0-0.1-0.101
			c0.399-0.199,0.699-0.5,0.899-0.8c0,0,0-0.1-0.1-0.1c-0.101-0.3-0.3-0.601-0.601-0.8L46.2,34.3c0.2-0.399,0.399-0.7,0.6-1.1
			c-0.1-0.3-0.3-0.5-0.5-0.5c0.7-0.3,0.9-0.601,0.5-1.3C46.9,31.3,46.9,31.3,46.9,31.2c0-0.101-0.101-0.2-0.101-0.3
			c-0.1-0.101-0.1-0.2-0.2-0.301c0.2-0.199,0.4-0.399,0.5-0.6c0.2-0.1,0.2-0.2,0.301-0.3c0.199-0.5,0-0.8-0.4-0.9
			c0-0.1,0.1-0.2,0.1-0.3c0.2-0.7,0-1.1-0.699-1.2c0.1-0.1,0.1-0.2,0.1-0.3s0-0.2,0-0.3C46.5,26.7,46.4,26.6,46.4,26.5z"/>
		<path style="fill:none;stroke:#000000;stroke-width:0.5;" d="M46,36.2c-0.1,0-0.1,0-0.1,0l0,0c-0.101,0.1-0.101,0.1-0.2,0.2
			c-0.101,0.1-0.3,0.3-0.4,0.399c0.101,0,0.101,0,0.101,0.101l0,0c0,0.1-0.101,0.199-0.101,0.3c0,0.2-0.1,0.3-0.2,0.399
			c-0.199,0-0.3,0-0.5,0c0,0,0,0.101,0,0.2c0,0.7-0.3,1.101-1.1,1.2h-0.1c0-0.1-0.101-0.2-0.2-0.1c0,0.1,0,0.199,0,0.3
			c-0.2,0.399-0.5,0.7-0.9,0.899C41.9,40.3,41.4,40.4,41,40.3c-0.4,0.9-1.1,1.4-2.1,1.2c0,0.1,0,0.2,0,0.2
			c-0.101,0.1-0.2,0.3-0.301,0.5c-0.5,0.5-1,0.6-1.6,0.1c-0.1,0-0.1,0-0.1,0c-0.101,0-0.101,0-0.101,0c0,0.101,0,0.101,0,0.101
			c-0.1,0.1-0.1,0.1-0.1,0.199c-0.601,0.5-1.4,0.601-2.2,0.301c0-0.101-0.1-0.101-0.1-0.2c-0.101,0-0.2-0.101-0.301-0.2
			c0-0.1,0-0.1,0-0.1l0,0c0-0.101-0.1-0.101-0.1-0.2c0,0,0,0,0-0.101c-0.1,0-0.1,0-0.1,0.101c0-0.101,0-0.101-0.101-0.101V42
			c0,0,0,0,0-0.1l0,0c-0.1,0-0.1,0-0.1,0h-0.101c0,0.1,0,0.1,0,0.199l0,0l0,0c-0.1,0.2-0.199,0.5-0.3,0.7c-0.2,0-0.3,0-0.399,0.101
			c-0.101,0.1-0.2,0.199-0.101,0.3v0.1c0,0.101,0.101,0.2,0.101,0.2c0.199,0.3,0.5,0.5,0.699,0.7c0.4,0,0.7,0,1,0
			c0.101-0.101,0.2-0.101,0.2-0.101C34.9,44,34.9,44,35,44c1,0.9,2.1,0.8,3-0.4c0.3,0,0.6,0,0.9,0c0.1-0.1,0.1-0.1,0.199-0.199
			c0.301-0.2,0.5-0.5,0.7-0.801c1.101,0.2,1.9-0.199,2.3-1.199c1.5,0,2.4-0.601,2.801-1.801c0.3-0.199,0.6-0.5,1-0.8
			c0.1-0.1,0.199-0.2,0.199-0.3c0.4-0.7,0.4-1.4-0.1-2c0-0.1,0-0.1,0-0.1c0.2,0,0.4-0.101,0.5-0.2c0,0,0,0-0.1,0
			c0,0,0,0-0.101-0.101c0,0.101-0.1,0.101-0.1,0.101C46.099,36.2,46.099,36.2,46,36.2L46,36.2z M43.4,39.1h-0.101c0,0,0,0,0-0.1
			C43.299,39.1,43.4,39.1,43.4,39.1z M33.799,43.2c0,0,0,0,0-0.101V43.2L33.799,43.2z"/>
		<path style="fill:none;stroke:#000000;" d="M43.299,39.1H43.4c0,0-0.101,0-0.101-0.1C43.299,39.1,43.299,39.1,43.299,39.1z"/>
		<path style="fill:none;stroke:#000000;" d="M33.599,42.1L33.599,42.1L33.599,42.1L33.599,42.1z"/>
		<path style="fill:none;stroke:#000000;" d="M23.799,43c0,0,0.1,0,0.2,0l0.1,0.1h0.1c0.2-0.1,0.4-0.199,0.5-0.199
			c0-0.101,0.1-0.101,0.1-0.2c-0.1-0.101-0.1-0.2-0.2-0.2c0,0,0-0.1-0.1-0.1c0-0.101,0-0.101-0.1-0.2c-0.1,0-0.2,0-0.3,0
			s-0.1,0-0.1,0c-0.2-0.101-0.6,0-0.9,0.2c-1.1-0.101-2.3-0.101-3.4,0c0,0-0.1,0-0.1-0.101c0,0-0.1,0-0.1-0.1
			c-0.1,0-0.1,0-0.2-0.101c-0.4,0-0.7,0-1.1,0c0,0,0,0-0.1-0.1c0,0,0,0,0-0.1c-0.1,0-0.2,0-0.2-0.101c-0.5,0-0.9-0.1-1.3-0.1
			c-0.1-0.2-0.2-0.3-0.2-0.4c-0.4-0.5-0.9-0.8-1.4-1c0-0.1,0-0.2,0-0.2c-0.1-0.199-0.2-0.3-0.4-0.399c0,0-0.1-0.101-0.2-0.101
			c0,0,0-0.1-0.1-0.1v-0.1c-0.1-0.101-0.2-0.2-0.3-0.2c-0.2-0.101-0.4-0.101-0.6-0.101c-0.1,0-0.3-0.1-0.5-0.1l0,0
			c-0.1,0.1-0.1,0.1-0.1,0.1l0,0h0.1c0.2,0.2,0.3,0.4,0.3,0.601c0,0,0,0.1,0,0.2c0.4,0,0.6,0.3,0.5,0.699c0.1,0,0.2,0.101,0.3,0.101
			c0,0,0.1,0,0.1,0.1c0.2-0.1,0.4,0,0.5,0.2c0,0,0,0,0.1,0c0,0.1,0,0.2,0,0.2c0.1,0.1,0.2,0.2,0.4,0.3l0,0c0.3,0,0.5,0.1,0.8,0.2H16
			c0,0,0,0,0.1,0c0,0.1,0,0.1,0,0.2c0,0,0,0.1,0,0.199c0.2,0.2,0.3,0.4,0.6,0.5c0.1,0,0.1,0,0.2,0c0,0,0,0,0-0.1l0,0
			c0.1,0,0.1,0,0.1,0c0.1,0,0.2,0,0.2,0c0.1,0,0.1,0,0.1,0.1h0.1V42.7v0.1c0,0.101,0.1,0.101,0.1,0.2c0.1,0.1,0.1,0.1,0.1,0.1
			c0.6,0,1.1,0.101,1.7,0.4c0.2,0.1,0.4,0.1,0.5-0.1c0.1-0.101,0.1-0.101,0.1-0.101c0.1,0,0.2,0,0.2,0c0.1,0,0.1,0.101,0.1,0.101
			c0.1,0.1,0.1,0.1,0.1,0.1c0,0.1,0.1,0.1,0.1,0.1V43.7c1,0,1.9-0.101,2.9-0.3c0.2-0.101,0.3-0.101,0.3-0.2
			C23.7,43.1,23.7,43.1,23.799,43z"/>
		<path style="fill:none;stroke:#000000;stroke-width:0.5;" d="M24,43c-0.1,0-0.2,0-0.2,0c-0.1,0.1-0.1,0.1-0.2,0.2
			c0,0.1-0.1,0.1-0.3,0.2c-1,0.199-1.9,0.3-2.9,0.3V43.6c0,0-0.1,0-0.1-0.1c0,0,0,0-0.1-0.1c0,0,0-0.101-0.1-0.101c0,0-0.1,0-0.2,0
			c0,0,0,0-0.1,0.101c-0.1,0.199-0.3,0.199-0.5,0.1c-0.6-0.3-1.1-0.4-1.7-0.4c0,0,0,0-0.1-0.1c0-0.1-0.1-0.1-0.1-0.2v-0.1V42.6h-0.1
			c0-0.1,0-0.1-0.1-0.1c0,0-0.1,0-0.2,0c0,0,0,0-0.1,0l0,0c0,0.1,0,0.1,0,0.1c-0.1,0-0.1,0-0.2,0c-0.3-0.1-0.4-0.3-0.6-0.5
			c0-0.1,0-0.199,0-0.199c0-0.101,0-0.101,0-0.2c-0.1,0-0.1,0-0.1,0h-0.1c-0.3-0.101-0.5-0.2-0.8-0.2l0,0c-0.2-0.1-0.3-0.2-0.4-0.3
			c0,0,0-0.101,0-0.2c-0.1,0-0.1,0-0.1,0c-0.1-0.2-0.3-0.3-0.5-0.2c0-0.1-0.1-0.1-0.1-0.1c-0.1,0-0.2-0.101-0.3-0.101
			c0.1-0.399-0.1-0.699-0.5-0.699c0-0.101,0-0.2,0-0.2c0-0.2-0.1-0.4-0.3-0.601h-0.1h-0.1c0,0,0,0.101-0.1,0.101l0,0
			c0,0.1-0.1,0.2,0,0.2c0,0.3,0,0.6,0,0.8c0,0.1,0.1,0.1,0.1,0.1c0,0.2,0,0.3,0.1,0.4c0,0.3,0,0.6,0,1c0.1,0.2,0.3,0.3,0.5,0.5
			c0.4,0,0.7,0,1.1-0.2c0,0.2,0.1,0.3,0.2,0.3c0.4,0.3,0.6,0.7,0.8,1.101c0.4,0.899,1.1,1.3,2.3,0.899c0.2,0.3,0.5,0.601,0.8,0.8
			c0.3,0,0.6,0,0.8-0.1c0.1,0.1,0.1,0.1,0.1,0.1c0.2,0,0.3,0,0.5,0C20,45.1,20,45,20,45s0,0,0.1-0.1c0,0,0,0,0.1,0
			c0.2,0.3,0.5,0.399,0.9,0.399c0.3-0.2,0.6-0.3,0.9-0.5c0.6,0.3,1.2,0.2,1.8-0.2c0.4-0.3,0.6-0.6,0.8-1c0.2-0.1,0.4-0.3,0.6-0.5
			c-0.1-0.199-0.3-0.199-0.5-0.199c-0.1,0-0.3,0.1-0.5,0.199h-0.1L24,43z"/>
		<path style="fill:none;stroke:#000000;" d="M7,31.8c0,0.101-0.1,0.101-0.1,0.101c-0.1,0.199-0.1,0.3-0.1,0.399
			c-0.2,0.8-0.2,1.4-0.1,2.101c0,0,0,0,0.1,0.1c0.3,0.1,0.7,0.1,1,0c0,0,0.1-0.1,0.1-0.2c0,0,0,0,0.1-0.1c-0.1,0.1-0.2,0.1-0.3,0.2
			c-0.4,0.199-0.8,0.1-1.1-0.301c0-0.199,0.1-0.5,0.2-0.699c0-0.101,0-0.2,0.1-0.2l0,0C7,33.2,7,33.2,7,33.1l0,0L7.1,33.2h0.1
			c0,0.2,0,0.399,0,0.399c0,0.101,0,0.101,0,0.2c0,0,0,0,0.1,0c0,0,0,0,0.1,0h0.1v-0.1c0,0,0,0,0-0.101h0.1l0,0
			c0.1,0,0.2-0.1,0.3-0.1C8,33.6,8,33.6,8,33.6c0-0.3-0.1-0.5-0.4-0.8c0.1,0,0.1-0.1,0.1-0.2c0.1-0.1,0.1-0.3,0-0.399
			c0,0,0,0-0.1-0.101c-0.1,0-0.3-0.199-0.5-0.3C7.1,31.8,7.1,31.8,7,31.8z"/>
		<path style="fill:none;stroke:#000000;stroke-width:0.5;" d="M6.899,33.2L6.899,33.2c-0.1,0-0.1,0.1-0.1,0.2
			C6.7,33.6,6.6,33.9,6.6,34.1c0.3,0.4,0.7,0.5,1.1,0.301c0.1-0.101,0.2-0.101,0.3-0.2C8.2,34.1,8.2,33.9,8,33.6c0,0,0,0-0.1-0.1
			c-0.1,0-0.2,0.1-0.3,0.1l0,0H7.5c0,0.101,0,0.101,0,0.101v0.1h-0.1c-0.1,0-0.1,0-0.1,0c-0.1,0-0.1,0-0.1,0c0-0.1,0-0.1,0-0.2
			c0,0,0-0.199,0-0.399H7.1L7,33.1l0,0C7,33.2,7,33.2,6.899,33.2z"/>
		<path style="fill:none;stroke:#000000;stroke-width:0.5;" d="M10.1,38.4c0.5-0.101,0.9-0.301,1-0.7c0-0.101,0-0.101-0.1-0.101
			c0-0.1,0-0.1-0.1-0.199c0,0-0.1,0-0.2,0h-0.1c-0.3,0.1-0.5,0.199-0.7,0.3c-0.2,0-0.3,0-0.5,0c-0.1-0.101-0.2-0.2-0.4-0.2l0,0
			c-0.2-0.3-0.4-0.5-0.7-0.6c0,0,0,0-0.1,0l0,0c0,0,0,0,0,0.1c-0.1,0.1-0.1,0.2-0.1,0.3c0.2,0.3,0.4,0.601,0.7,0.9
			C9.2,38.4,9.6,38.4,10.1,38.4z"/>
		<path style="fill:none;stroke:#000000;" d="M10.6,37.4c0,0,0-0.101-0.1-0.2c-0.1-0.2-0.2-0.4-0.4-0.601c-0.3,0-0.5,0-0.8-0.1
			c-0.3,0-0.6-0.1-0.9-0.2c-0.1,0.101-0.1,0.101-0.2,0.101c0,0.1-0.1,0.1-0.1,0.199V36.7c0,0.1,0,0.2,0.1,0.3c0-0.1,0-0.1,0-0.1l0,0
			c0.1,0,0.1,0,0.1,0c0.3,0.1,0.5,0.3,0.7,0.6l0,0c0.2,0,0.3,0.1,0.4,0.2c0.2,0,0.3,0,0.5,0C10.1,37.6,10.299,37.5,10.6,37.4z"/>
	</g>
</g>
</svg>
