<?xml version="1.0" encoding="iso-8859-1"?>
<!-- Generator: Adobe Illustrator 12.0.0, SVG Export Plug-In . SVG Version: 6.00 Build 51448)  -->
<!DOCTYPE svg PUBLIC "-//W3C//DTD SVG 1.1//EN" "http://www.w3.org/Graphics/SVG/1.1/DTD/svg11.dtd" [
	<!ENTITY ns_svg "http://www.w3.org/2000/svg">
	<!ENTITY ns_xlink "http://www.w3.org/1999/xlink">
]>
<svg  version="1.1" id="f:3" xmlns="&ns_svg;" xmlns:xlink="&ns_xlink;" width="50" height="50" viewBox="0 0 50 50"
	 style="overflow:visible;enable-background:new 0 0 50 50;" xml:space="preserve">
<rect style="fill:none;" width="50" height="50"/>
<g>
	<g>
		<path style="fill:none;stroke:#000000;stroke-width:0.5;" d="M9.899,23.8c-0.1,0.1-0.2,0.1-0.3,0.2c-0.9,0.9-1.7,1.9-2.5,2.9
			C7,27.5,6.899,28.1,6.7,28.6c-0.3,1.2-0.4,2.301-0.2,3.5c0.2,0.4,0.4,0.7,0.5,1.101c0.2,0.7,0.5,1.3,0.9,1.8
			c0-0.3-0.1-0.6-0.3-0.9c-0.9-1.8-1-3.699-0.4-5.6c0.1-0.3,0.2-0.6,0.4-0.9C8.299,26.4,9.2,25.2,10,24c0,0,0.1,0,0.1-0.1
			c0.3-0.1,0.5-0.3,0.7-0.4c-0.1,0.5,0,1,0.3,1.5c0.2,0.2,0.4,0.3,0.7,0.4c-1.1,0.7-2.1,1.7-2.8,2.8c-0.2,0.3-0.4,0.7-0.5,1
			c-0.2,0.8-0.3,1.7-0.2,2.6c0.2,0.5,0.5,1,0.7,1.5s0.3,0.9,0.6,1.4c0.1,0,0.2,0,0.2-0.101c0.1,0,0.1,0,0.1,0c-0.6-1.3-0.9-2.6-1-4
			c-0.1-0.199,0-0.399,0.1-0.6c0.9-1.8,2.1-3.2,3.7-4.2c0.3,0.1,0.6,0.1,0.9,0.2c-0.1,0.6-0.1,1.2,0.1,1.9
			c-0.4,0.199-0.9,0.399-1.4,0.6c-0.2,0.1-0.4,0.4-0.6,0.6c-0.4,0.5-0.8,1-1.1,1.5c-0.1,0.4-0.1,0.801-0.2,1.101
			c0,0.399-0.1,0.899-0.1,1.2c0.2,0.3,0.4,0.699,0.5,1.1c0.1,0.5,0.3,0.9,0.5,1.4c0.1,0,0.1,0,0.2,0c0,0,0-0.101,0.1-0.101
			c-0.1-0.5-0.3-1-0.5-1.5c-0.3-1-0.3-1.899,0-3c0,0,0-0.1,0.1-0.1c0.7-1.101,1.5-2,2.6-2.7l0,0c0,0,0,0,0,0.1
			c0.2,0.2,0.4,0.4,0.6,0.601c0.1,0.2,0.2,0.3,0.3,0.399c0.3-0.399,0.7-0.8,1.3-1c0.4-0.199,0.7-0.3,1.1-0.399
			c0.6-0.2,1-0.2,1.4,0.1c0.1,0.101,0.1,0.101,0.1,0.101c0.3,0,0.6,0.199,0.9,0.3c0.2,0.2,0.3,0.399,0.3,0.6l0,0
			c0.6-0.899,1.5-1.399,2.7-1.399c0.1,0,0.1,0,0.1-0.101c0.1,0,0.1,0,0.1,0.101c0.2,0,0.4,0.1,0.5,0c0.2,0,0.3-0.101,0.4-0.2V27.1
			h-0.1c-0.9-0.3-1.8-0.8-2.5-1.399l-0.1-0.1c-0.3-0.5-0.3-1,0.1-1.4c0.3,0.1,0.5,0,0.8-0.1V24v-0.1c-0.3-0.3-0.6-0.6-1-0.8
			c-0.9-0.5-1.3-1.3-1-2.3c0.9-0.6,1.9-0.9,3-0.7c0.1,0.1,0.3,0.3,0.5,0.3c0.1,0.2,0.2,0.4,0.4,0.4c0.2-0.2,0.3-0.4,0.3-0.8
			c0.2-0.1,0.5-0.3,0.7-0.4c0,0,0.1,0,0.2,0.1c0.5,0.2,1.1,0.4,1.6,0.7c0.1,0.1,0.2,0.3,0.3,0.5l0,0c0.101,0.2,0.101,0.3,0.2,0.4
			v0.1c0,0.2,0,0.4,0.1,0.6c0.101,0,0.2,0,0.2,0c0.101,0,0.101,0,0.101,0c0.1-0.2,0.3-0.4,0.3-0.7c0.899-0.5,1.7-0.7,2.6-0.4l0,0
			c0,0.1,0.101,0.2,0.101,0.2c0.199,0.1,0.3,0.1,0.399,0c0,0,0-0.1,0.101-0.1c0-0.2,0-0.4-0.101-0.6l0,0
			c0.101-0.1,0.101-0.2,0.2-0.2s0.3,0,0.5,0c0,0.1,0,0.1,0,0.1c0.1,0,0.2,0,0.3,0c0,0.1,0,0.1,0,0.1s0.101,0,0.101,0.1
			c0.8,0.3,1.699,0.2,2.5-0.1c0.5-0.4,0.899-0.9,1.199-1.3c0.2,0,0.301,0,0.5,0.1c1,0.3,1.801,0.1,2.5-0.7c0-0.1,0-0.1,0-0.1v-0.1
			c0-0.1,0-0.1,0.101-0.1c0.2-0.3,0.3-0.6,0.1-1l0,0c-0.1,0-0.1,0-0.1,0l0,0c-0.101,0-0.101,0-0.101,0c-0.1,0-0.1,0-0.1,0
			c0,0.1,0,0.1,0,0.1v-0.1c-0.9,0.1-1.6,0-2.2-0.2c0,0,0-0.1-0.1-0.1c-0.7-1.4-1.9-2-3.601-2.2c-2,0-3.6,0.7-4.899,2.2
			c-0.101-0.1-0.2-0.2-0.3-0.2c-0.101-0.3-0.2-0.5-0.301-0.8c-0.199-0.4-0.5-0.7-0.8-1c-0.1,0-0.3,0-0.4-0.1
			c-0.5-0.1-0.9-0.2-1.4-0.2c-3,0.9-5.6,2.6-7.6,5.1c-2.4-0.3-4.4,0.6-5.9,2.6c0,0.2,0,0.4,0,0.7c0,0,0,0-0.1,0.1c0,0,0,0,0,0.1
			C10.6,23.4,10.2,23.6,9.899,23.8z M11.299,22.8c0-0.1,0.1-0.1,0.1-0.2s0.1-0.2,0.2-0.2h0.1C11.5,22.5,11.399,22.7,11.299,22.8
			L11.299,22.8z"/>
		<path style="fill:none;stroke:#000000;" d="M21.799,24.1c-0.3,0.1-0.5,0.2-0.8,0.1c-0.4,0.4-0.4,0.9-0.1,1.4l0.1,0.1
			c0.7,0.6,1.6,1.1,2.5,1.399h0.1V27.2c-0.1,0.1-0.2,0.2-0.4,0.2c1.7,0.3,2.7,1.3,3.1,2.899c0.101,0.5,0.101,0.9,0,1.3
			c-0.1,0-0.2,0.101-0.3,0.101c-0.1,0-0.1,0-0.2,0c0-1.101-0.3-2-1-2.8c-0.5-0.7-1.3-1-2.2-1.101c-1.1-0.1-2,0.3-2.8,1.101V28.8l0,0
			C19.7,28.9,19.7,29,19.6,29c0,0,0,0,0.1,0l0,0c0,0.1,0.1,0.2,0,0.2c0,0.1,0,0.1,0,0.1c0.1,0,0.1,0.101,0,0.101v0.1
			c-1.3,0.1-2,0.7-2.3,1.9c0,0.1,0,0.199,0,0.3c0.4,0.7,0.9,0.899,1.7,0.899c0.4-0.1,0.8-0.199,1.2-0.199c0,0,0.1,0,0.1,0.1
			c0,0,0,0,0,0.1c0,0.301-0.3,0.601-0.8,0.601c-0.1,0.1-0.3,0.1-0.4,0.2c-0.3,0.199-0.5,0.3-0.8,0.5c0,0.1,0,0.199,0,0.3
			c-0.1,0.1-0.1,0.1-0.1,0.1c0,0.601,0,1.2,0.1,1.7c0.2,0.8,0.7,1.4,1.3,1.8c0.3,0.2,0.7,0.4,1.1,0.5c0.9,0.2,1.8,0.2,2.6,0.101
			C24,38.3,24.6,38,25,37.6c0.3-0.199,0.6-0.399,0.7-0.8c0.1,0.101,0.2,0.101,0.3,0.101c0.1,0,0.1,0,0.1,0c0,0.1,0,0.1,0.101,0.1
			c0,0.1,0,0.1,0,0.2c-0.101,0-0.101,0.1-0.101,0.1c0,0.8,0.4,1.2,1.2,1.3c0.601,0.101,1-0.1,1.4-0.5c0.2-0.3,0.3-0.6,0.399-0.899
			c0-0.101,0.2-0.101,0.301-0.101c0,0.101,0,0.101,0.1,0.101c0,0,0,0,0,0.1l0,0c0,0.101,0,0.101,0,0.2c0.8,0.9,1.8,1.1,3,0.5
			c0.6-0.5,1-1.1,0.9-1.9c0-0.1,0-0.199,0-0.3l0,0c0.1-0.1,0.1-0.1,0.1-0.1c0.1,0,0.1,0,0.3,0c0,0.1,0.101,0.1,0.101,0.2
			c0,0,0,0,0.1,0.1c0.9,0.5,1.8,0.5,2.6-0.1c0.101,0,0.2-0.101,0.2-0.2c0.5-0.601,0.8-1.3,0.8-2c0-0.101,0-0.3-0.1-0.5
			c-0.3-0.601-0.5-1.2-0.9-1.8c0-0.101,0-0.2,0-0.2c0-0.101,0-0.101,0-0.101V31c0.101-0.1,0.101-0.1,0.2-0.1c0.101,0,0.2,0,0.3,0
			c0.2,0.199,0.301,0.3,0.301,0.6c0.3,0.2,0.6,0.4,1,0.4c0.8,0.199,1.5,0.199,2.3,0c1.1-0.301,2.1-0.801,2.899-1.7
			c0-0.101,0.101-0.3,0.2-0.4l0,0c0.101-0.3,0.101-0.5,0.101-0.7c0-0.1,0-0.1,0-0.1c0.1-0.1,0.1-0.1,0.1-0.1l0,0l0,0
			c-0.9-1.2-1.9-2.2-3-3.101c0.3-0.4,0.7-0.9,0.9-1.4c0.5-0.8,0.699-1.8,0.5-2.8c-0.301-2-1.4-3.4-3.301-4.2
			c-0.1-0.1-0.199-0.1-0.3-0.2c0.2,0.4,0.101,0.7-0.1,1c-0.101,0-0.101,0-0.101,0.1v0.1c0,0,0,0,0,0.1c-0.699,0.8-1.5,1-2.5,0.7
			c-0.199-0.1-0.3-0.1-0.5-0.1c-0.3,0.4-0.699,0.9-1.199,1.3c-0.801,0.3-1.7,0.4-2.5,0.1c0-0.1-0.101-0.1-0.101-0.1s0,0,0-0.1
			c-0.1,0-0.2,0-0.3,0c0,0,0,0,0-0.1c-0.2,0-0.4,0-0.5,0s-0.1,0.1-0.2,0.2l0,0C30.9,20.6,30.9,20.8,30.9,21
			c-0.101,0-0.101,0.1-0.101,0.1c-0.1,0.1-0.2,0.1-0.399,0c0,0-0.101-0.1-0.101-0.2l0,0c-0.899-0.3-1.7-0.1-2.6,0.4
			c0,0.3-0.2,0.5-0.3,0.7c0,0,0,0-0.101,0c0,0-0.1,0-0.2,0C27,21.8,27,21.6,27,21.4v-0.1c-0.1-0.1-0.1-0.2-0.2-0.4l0,0
			c-0.1-0.2-0.2-0.4-0.3-0.5c-0.5-0.3-1.1-0.5-1.6-0.7c-0.1-0.1-0.2-0.1-0.2-0.1c-0.2,0.1-0.5,0.3-0.7,0.4c0,0.4-0.1,0.6-0.3,0.8
			c-0.2,0-0.3-0.2-0.4-0.4c-0.2,0-0.4-0.2-0.5-0.3c-1.1-0.2-2.1,0.1-3,0.7c-0.3,1,0.1,1.8,1,2.3c0.4,0.2,0.7,0.5,1,0.8V24V24.1z"/>
		<path style="fill:none;stroke:#000000;" d="M38.5,17.2v0.1C38.5,17.3,38.5,17.3,38.5,17.2L38.5,17.2z"/>
		<path style="fill:none;stroke:#000000;stroke-width:0.5;" d="M44.099,28.9c0,0,0,0-0.1,0l0,0c0,0,0,0-0.1,0.1c0,0,0,0,0,0.1
			c0,0.2,0,0.4-0.101,0.7l0,0c-0.1,0.101-0.2,0.3-0.2,0.4c-0.8,0.899-1.8,1.399-2.899,1.7c-0.8,0.199-1.5,0.199-2.3,0
			c-0.4,0-0.7-0.2-1-0.4c0-0.3-0.101-0.4-0.301-0.6c-0.1,0-0.199,0-0.3,0c-0.1,0-0.1,0-0.2,0.1v0.1c0,0,0,0,0,0.101c0,0,0,0.1,0,0.2
			C37,32,37.2,32.6,37.5,33.2c0.1,0.2,0.1,0.399,0.1,0.5c0,0.7-0.3,1.399-0.8,2c0,0.1-0.1,0.2-0.2,0.2c-0.8,0.6-1.699,0.6-2.6,0.1
			c-0.1-0.1-0.1-0.1-0.1-0.1c0-0.101-0.101-0.101-0.101-0.2c-0.2,0-0.2,0-0.3,0c0,0,0,0-0.1,0.1l0,0c0,0.101,0,0.2,0,0.3
			c0.1,0.801-0.301,1.4-0.9,1.9c-1.2,0.6-2.2,0.4-3-0.5c0-0.1,0-0.1,0-0.2l0,0c0-0.1,0-0.1,0-0.1c-0.1,0-0.1,0-0.1-0.101
			c-0.101,0-0.301,0-0.301,0.101C29,37.5,28.9,37.8,28.7,38.1c-0.4,0.4-0.8,0.601-1.4,0.5c-0.8-0.1-1.2-0.5-1.2-1.3
			c0,0,0-0.1,0.101-0.1c0-0.101,0-0.101,0-0.2c-0.101,0-0.101,0-0.101-0.1c0,0,0,0-0.1,0c-0.1,0-0.2,0-0.3-0.101
			c-0.1,0.4-0.4,0.601-0.7,0.8c-0.4,0.4-1,0.7-1.6,0.801c-0.8,0.1-1.7,0.1-2.6-0.101c-0.4-0.1-0.8-0.3-1.1-0.5
			c-0.6-0.399-1.1-1-1.3-1.8c-0.1-0.5-0.1-1.1-0.1-1.7c0,0,0,0,0.1-0.1c0-0.101,0-0.2,0-0.3c0.3-0.2,0.5-0.301,0.8-0.5
			c0.1-0.101,0.3-0.101,0.4-0.2c0.5,0,0.8-0.3,0.8-0.601c0-0.1,0-0.1,0-0.1c0-0.1-0.1-0.1-0.1-0.1c-0.4,0-0.8,0.1-1.2,0.199
			c-0.8,0-1.3-0.199-1.7-0.899c0-0.101,0-0.2,0-0.3c0.3-1.2,1-1.801,2.3-1.9v-0.1c0.1,0,0.1-0.101,0-0.101c0,0,0,0,0-0.1
			c0.1,0,0-0.101,0-0.2l0,0c-0.1,0-0.1,0-0.1,0s0,0-0.1,0l0,0h-0.1v-0.1c-0.4-0.2-0.8-0.301-1.2-0.5c-1.3-0.101-2.4,0.199-3.4,1
			h-0.1c-0.2,0.1-0.3,0.3-0.3,0.5c-0.6,0.399-1.2,1-1.6,1.699c0,0.2-0.1,0.301-0.1,0.5c0,0.2,0,0.5,0,0.601
			c0.3,1.2,0.7,2.399,1.4,3.399c-1.1,1.101-1.6,2.5-1.5,4c0.1,1.101,0.7,1.801,1.8,2.301c1.4,0.6,2.7,0.6,3.9,0.1
			c-0.2,1.4,0.2,2.5,1.2,3.5c1.4,1.1,2.8,1.1,4.3,0c0,0,0.1,0,0.2,0c0.1,0.2,0.3,0.5,0.6,0.6c2.1,1.4,4.1,1.4,6.2,0
			c1.101-0.8,2.3-1.699,3.3-2.699c0.301,0.199,0.7,0.199,1.2,0.199c0.4-0.1,0.8-0.199,1.3-0.3c1.5-0.6,1.9-1.6,1-3
			c1.101-0.1,2-0.399,2.9-0.8c0.8-0.3,1.4-0.9,1.6-1.7c0.301-1.3,0-2.5-1-3.5c0.4-0.2,0.801-0.3,1.101-0.5
			c1.8-1,2.6-2.5,2.399-4.399c0-0.2-0.1-0.301-0.199-0.5c0,0,0,0-0.101-0.101c0-0.1,0-0.2,0-0.3c0,0,0,0-0.1,0
			C44.2,28.9,44.2,28.9,44.099,28.9z"/>
		<path style="fill:none;stroke:#000000;" d="M22.6,27.8c0.9,0.101,1.7,0.4,2.2,1.101c0.7,0.8,1,1.699,1,2.8c0.1,0,0.1,0,0.2,0
			c0.1,0,0.2-0.101,0.3-0.101c0.101-0.399,0.101-0.8,0-1.3c-0.4-1.6-1.4-2.6-3.1-2.899c-0.1,0.1-0.3,0-0.5,0
			c0-0.101,0-0.101-0.1-0.101c0,0.101,0,0.101-0.1,0.101c-1.2,0-2.1,0.5-2.7,1.399V28.9C20.6,28.1,21.5,27.7,22.6,27.8z"/>
		<path style="fill:none;stroke:#000000;" d="M18.6,27.9c0,0,0,0-0.1-0.101c-0.4-0.3-0.8-0.3-1.4-0.1c-0.4,0.1-0.7,0.2-1.1,0.399
			c-0.6,0.2-1,0.601-1.3,1c0,0.101-0.1,0.101-0.1,0.2l0,0l0.1,0.101h0.1c1-0.801,2.1-1.101,3.4-1c0.4,0.199,0.8,0.3,1.2,0.5l0.1,0.1
			l0,0c0.1,0,0.1,0,0.1,0c0.1,0,0.1-0.1,0.2-0.2c0-0.2-0.1-0.399-0.3-0.6C19.2,28.1,18.899,27.9,18.6,27.9z"/>
		<path style="fill:none;stroke:#000000;" d="M19.399,28.9V29h0.1L19.399,28.9z"/>
	</g>
</g>
</svg>
