<?xml version="1.0" encoding="iso-8859-1"?>
<!-- Generator: Adobe Illustrator 12.0.0, SVG Export Plug-In . SVG Version: 6.00 Build 51448)  -->
<!DOCTYPE svg PUBLIC "-//W3C//DTD SVG 1.1//EN" "http://www.w3.org/Graphics/SVG/1.1/DTD/svg11.dtd" [
	<!ENTITY ns_svg "http://www.w3.org/2000/svg">
	<!ENTITY ns_xlink "http://www.w3.org/1999/xlink">
]>
<svg  version="1.1" id="f:2" xmlns="&ns_svg;" xmlns:xlink="&ns_xlink;" width="50" height="50" viewBox="0 0 50 50"
	 style="overflow:visible;enable-background:new 0 0 50 50;" xml:space="preserve">
<rect style="fill:none;" width="50" height="50"/>
<g>
	<g>
		<path style="fill:none;stroke:#000000;" d="M13,16.5c0.1,0.1,0.1,0.1,0.1,0.1c-0.2,0.4-0.5,0.8-0.7,1.2c-0.1,0.1-0.1,0.3-0.1,0.5
			c0,0.3,0,0.6-0.1,0.9c0,0.1,0,0.1,0.1,0.2l0,0c0,0.1,0,0.3,0,0.4l0,0c0.1,0.1,0.1,0.2,0.1,0.4c0.1,0,0.1,0,0.1,0
			c0.5,0.4,1.1,0.6,1.7,0.7c0.2,0,0.3,0.1,0.3,0.2c-1,0.7-1.8,1.5-2.3,2.5c-0.1,0.1-0.1,0.2-0.1,0.3c-0.1,0.9,0.2,1.7,0.8,2.3
			c0.2,0.1,0.4,0.2,0.6,0.2c0.8,0,1.5,0,2.2-0.101c0.3-0.1,0.6-0.2,0.9-0.4c0.1-0.1,0.3-0.2,0.4-0.2s0.2,0,0.2,0.1
			c0,0.1,0,0.2-0.1,0.3V26.2c-0.7,0.5-1,1.2-1.1,2.2c0,0.6,0.2,1.199,0.7,1.699c0.4,0.5,0.9,0.801,1.5,1
			c0.2,0.101,0.4,0.101,0.6,0.2c0.7,0.101,1.3-0.1,1.8-0.399c0.1,0.1,0.2,0.199,0.2,0.199c-0.3,0.5-0.6,0.801-1,1.2
			c-0.1,0.3-0.1,0.5-0.2,0.8c0,0,0,0.101,0,0.2c0.8,1.101,1.9,1.601,3.3,1.3c0.3-0.1,0.7-0.3,1-0.399c0-0.101,0.1-0.2,0.1-0.3
			c0,0,0,0,0-0.101c0,0,0.1,0,0.2-0.1c0,0,0,0.1,0.1,0.1c0.3,0.601,0.9,0.9,1.6,0.7c0.1-0.1,0.1-0.3,0.2-0.4c0,0,0,0,0-0.1
			c0,0,0.101,0,0.2-0.1c0.2,0.199,0.5,0.3,0.8,0.399c0.7,0.3,1.4,0.101,2-0.5c1-1.1,1.2-2.2,0.4-3.5c0-0.2-0.1-0.3-0.1-0.5
			c0-0.1,0-0.2,0-0.3c0.399,0,0.6,0.2,0.8,0.6c0.1,0.101,0.1,0.2,0.2,0.2c1.1,0.5,2,0.4,2.899-0.3c0-0.2,0-0.3,0-0.4v-0.1v-0.1l0,0
			c0.101-0.101,0.2-0.101,0.3,0c0,0.1,0.2,0.199,0.2,0.399l0,0c0.8,0.601,1.7,0.5,2.601,0c0.8-0.5,1.5-1.1,2-1.899
			c0.199-0.2,0.3-0.5,0.5-0.601c0.1-0.3,0.1-0.7,0.199-1c0-0.1,0.101-0.2,0.101-0.2c0.1-0.399,0.1-0.7,0-1.1c0-0.1,0.1-0.2,0.1-0.3
			l0.101-0.1c-0.7-1.5-2-2.5-3.801-3.2c0.7-0.6,0.801-1.4,0.4-2.2c-0.9-1.7-2.4-2.8-4.2-3.5c-2.399-0.7-4.7-0.5-6.9,0.7
			c0,0,0-0.1,0-0.2c-0.7-1.7-1.8-2.7-3.6-3.1c-3.2,0.1-6.1,1.3-8.4,3.4v0.1C12.899,16.6,13,16.6,13,16.5L13,16.5z"/>
		<path style="fill:none;stroke:#000000;stroke-width:0.5;" d="M13.1,16.6c0,0,0,0-0.1-0.1l0,0c0,0.1-0.1,0.1-0.1,0.1v-0.1
			c-1.2-0.4-2.4-0.3-3.6,0.4c-1.4,0.8-2.5,1.9-3.2,3.4c-0.9,1.7-1,3.4-0.2,5.2c-0.9,0.3-1.4,1-1.6,1.8C3.899,28.9,4.1,30.2,5,31.4
			l0,0c-0.3,0.199-0.5,0.5-0.7,0.899c0,0.101,0,0.3,0,0.5c0,0.3,0,0.601,0.1,0.8C4.5,33.7,4.5,33.7,4.5,33.7c0,0.1,0,0.1,0.1,0.1
			C4.7,33.9,4.899,33.9,5,33.9c0,0.3,0.1,0.6,0.3,0.899c0,0.101,0,0.2,0.1,0.2c0.1,1,0.5,1.9,1.1,2.7c0.2,0.3,0.3,0.5,0.4,0.7
			C7,38.4,7,38.4,7,38.3c0,0,0,0,0-0.1c0,0,0,0-0.1-0.101C6.799,38,6.7,37.9,6.7,37.7c-0.1,0-0.1-0.101-0.1-0.101
			c-0.2-0.699-0.4-1.3-0.6-2c0.1,0,0.1,0.101,0.2,0.101c0.3,1.1,0.7,2.1,1.2,3.1c1.6,3,3.7,5.5,6.3,7.601c0.1,0,0.2-0.101,0.2-0.101
			c0-0.2-0.1-0.3-0.2-0.3c-1.3-1-2.4-2.2-3.3-3.5c-1.6-2-2.7-4.2-3.6-6.6c0.5,0.1,1,0,1.5-0.2h0.1c0.5,1.8,1.4,3.399,2.5,4.899
			c0.3,0.4,0.7,1,1,1.5c0.4,0.601,0.8,1,1.3,1.301c-0.7-1-1.5-2-2.2-2.9c0-0.1,0-0.1,0-0.1c-0.7-1.5-1.4-2.9-2.1-4.4
			c0.6,0.2,1.1,0.4,1.7,0.5l0,0c0.2,0.2,0.3,0.4,0.4,0.6c0.2,0.4,0.4,0.7,0.7,0.801V37.8c-0.3-0.399-0.5-0.8-0.8-1.3
			c0.6,0.1,1.2,0,1.7-0.1c0,0,0,0,0.1,0c0.3,1.199,1,2.199,2.1,3c0.2,0.1,0.4,0.199,0.6,0.199c1.2,0.301,2.3,0.301,3.5,0.101
			c0,0,0,0,0-0.101c0.3,0.5,0.7,1,1.3,1.4c0.1,0.1,0.3,0.2,0.5,0.2c2.4,0.6,4.5,0,6.2-1.8c0.6,0.1,1.1,0.1,1.6,0.1
			c0.1,0.1,0.3,0.1,0.4,0.2c3.1,1,5.6,0.1,7.399-2.601c0.5-0.6,0.7-1.3,0.8-2.1c0-0.6,0-1.2-0.199-1.6c0-0.2,0-0.5-0.2-0.801
			c1.2-0.5,2.1-1.399,2.8-2.5c0.6-1.1,0.8-2.3,0.6-3.5c-0.1-0.5-0.3-1-0.399-1.5c-0.101-0.1-0.101-0.2-0.101-0.4
			c0,0-0.1,0-0.199-0.1l0,0l-0.101,0.1c0,0.1-0.1,0.2-0.1,0.3c0.1,0.4,0.1,0.7,0,1.1c0,0-0.101,0.101-0.101,0.2
			C39,26.6,39,27,38.9,27.3c-0.2,0.101-0.301,0.4-0.5,0.601c-0.5,0.8-1.2,1.399-2,1.899c-0.9,0.5-1.801,0.601-2.601,0l0,0
			c0-0.2-0.2-0.3-0.2-0.399c-0.1-0.101-0.199-0.101-0.3,0l0,0v0.1v0.1c0,0.101,0,0.2,0,0.4c-0.899,0.7-1.8,0.8-2.899,0.3
			c-0.101,0-0.101-0.1-0.2-0.2c-0.2-0.399-0.4-0.6-0.8-0.6c0,0.1,0,0.2,0,0.3c0,0.2,0.1,0.3,0.1,0.5c0.8,1.3,0.6,2.4-0.4,3.5
			c-0.6,0.601-1.3,0.8-2,0.5c-0.3-0.1-0.6-0.2-0.8-0.399c-0.1,0.1-0.2,0.1-0.2,0.1c0,0.1,0,0.1,0,0.1C26,34.2,26,34.4,25.899,34.5
			c-0.7,0.2-1.3-0.1-1.6-0.7c-0.1,0-0.1-0.1-0.1-0.1c-0.1,0.1-0.2,0.1-0.2,0.1c0,0.101,0,0.101,0,0.101c0,0.1-0.1,0.199-0.1,0.3
			c-0.3,0.1-0.7,0.3-1,0.399c-1.4,0.301-2.5-0.199-3.3-1.3c0-0.1,0-0.2,0-0.2c0.1-0.3,0.1-0.5,0.2-0.8c0.4-0.399,0.7-0.7,1-1.2
			c0,0-0.1-0.1-0.2-0.199c-0.5,0.3-1.1,0.5-1.8,0.399c-0.2-0.1-0.4-0.1-0.6-0.2c-0.6-0.199-1.1-0.5-1.5-1C16.2,29.6,16,29,16,28.4
			c0.1-1,0.4-1.7,1.1-2.2V26.1c0.1-0.1,0.1-0.2,0.1-0.3c0-0.1-0.1-0.1-0.2-0.1s-0.3,0.1-0.4,0.2c-0.3,0.2-0.6,0.3-0.9,0.4
			C15,26.4,14.299,26.4,13.5,26.4c-0.2,0-0.4-0.101-0.6-0.2c-0.6-0.6-0.9-1.4-0.8-2.3c0-0.1,0-0.2,0.1-0.3c0.5-1,1.3-1.8,2.3-2.5
			c0-0.1-0.1-0.2-0.3-0.2c-0.6-0.1-1.2-0.3-1.7-0.7c0,0,0,0-0.1,0c0-0.2,0-0.3-0.1-0.4l0,0c0-0.1,0-0.3,0-0.4l0,0
			c-0.1-0.1-0.1-0.1-0.1-0.2c0.1-0.3,0.1-0.6,0.1-0.9c0-0.2,0-0.4,0.1-0.5C12.6,17.4,12.899,17,13.1,16.6z M19.7,31.8
			c-0.1,0-0.1,0-0.1,0l0,0C19.6,31.8,19.6,31.8,19.7,31.8z"/>
		<path style="fill:none;stroke:#000000;" d="M19.6,31.8c0,0,0,0,0.1,0C19.6,31.8,19.6,31.8,19.6,31.8L19.6,31.8z"/>
		<path style="fill:none;stroke:#000000;" d="M11.799,37.9c0,0,0,0-0.1-0.101V37.9H11.799z"/>
	</g>
</g>
</svg>
