<?xml version="1.0" encoding="iso-8859-1"?>
<!-- Generator: Adobe Illustrator 12.0.0, SVG Export Plug-In . SVG Version: 6.00 Build 51448)  -->
<!DOCTYPE svg PUBLIC "-//W3C//DTD SVG 1.1//EN" "http://www.w3.org/Graphics/SVG/1.1/DTD/svg11.dtd" [
	<!ENTITY ns_svg "http://www.w3.org/2000/svg">
	<!ENTITY ns_xlink "http://www.w3.org/1999/xlink">
]>
<svg  version="1.1" id="f:5" xmlns="&ns_svg;" xmlns:xlink="&ns_xlink;" width="50.26" height="50.227" viewBox="0 0 50.26 50.227"
	 style="overflow:visible;enable-background:new 0 0 50.26 50.227;" xml:space="preserve">
<rect style="fill:none;" width="50" height="50"/>
<g>
	<g>
		<path style="fill:none;stroke:#000000;stroke-width:0.5;" d="M13.299,19.2c-2.2,0.3-3.3,1.5-3.5,3.5c-0.1,1.5,0.4,2.7,1.6,3.5
			c-1.1,0.6-1.6,1.6-1.5,2.8c0.1,0.6,0.2,1.2,0.3,1.8c-1.6,0.9-2.5,2.3-2.7,4.101c-0.1,1.1,0,2.3,0.1,3.5
			c0.3,0.399,0.7,0.699,1.2,0.899c0.5,0.4,1.2,0.5,1.9,0.4c1.8-0.2,3.6-0.4,5.3-0.8c0,0.1,0,0.199,0,0.3c-0.1,0.7,0,1.5,0.2,2
			c0.6,2,2,2.899,4.2,2.7C20.299,44.6,20.1,45.3,20,46c-0.2,1.3,0.1,2.4,0.9,3.4c0.3,0.5,0.9,0.699,1.5,0.5c2.2-0.4,4.1-1.4,5.8-3
			c1.399,0.699,2.7,0.5,3.899-0.4c1-0.7,1.601-1.6,1.9-2.8c2.4,0.8,4.4,0.2,5.8-1.9c0.4-0.6,0.7-1.3,0.7-2c0.1,0,0.3,0,0.4-0.1
			c0.3-0.2,0.699-0.4,1-0.601c0.8-0.6,1.6-1.199,2.3-1.899c1.2-1.4,1.7-2.9,1.5-4.601c0.7-0.3,1.5-0.5,2.3-0.899
			c1.6-0.601,2.3-1.9,1.9-3.601c-0.2-1.199-0.601-2.3-1.2-3.399c-0.8-1.5-1.8-2.5-3.101-3c-0.1,0-0.1-0.1-0.1-0.1
			c-0.1,0-0.1-0.1-0.2-0.1c0,0,0,0-0.1,0l0,0v0.1c-0.101,0-0.101,0-0.101,0l0,0c0,0.1-0.1,0.1-0.1,0.1s0,0,0,0.1l0,0
			c0.1,0.1,0.1,0.1,0.1,0.2c0.301,0.5,0.4,1.1,0.301,1.7c-0.7,0.8-1.5,1.1-2.4,1c0,0.1-0.1,0.1-0.1,0.2s0,0.1,0.1,0.2
			c0.7,0.6,0.9,1.4,0.7,2.4c-1,0.7-2.101,1.2-3.2,1.4l0,0l0,0c0,0,0-0.101-0.1-0.101c0,0,0,0,0-0.1c-0.101,0-0.2,0-0.301,0l0,0
			c-0.1,0-0.1,0-0.1,0.1l0,0c-0.1,0-0.1,0-0.1,0s0,0.101-0.101,0.101c-0.2-0.101-0.399-0.101-0.5,0.1l0,0c0,0-0.1,0-0.1,0.1l0,0
			c0,0,0,0-0.101,0c0,0.101,0,0.101,0,0.2c0,0.101,0,0.2,0,0.3C39.2,29.7,39.2,29.7,39.2,29.7c0.1,0.1,0.2,0.1,0.2,0.1
			c0,0.101,0.1,0.2,0.1,0.2c0.1,0.2,0.1,0.3,0,0.4c-0.1,0.1-0.2,0.199-0.4,0.3c-0.6,0.6-1.199,0.7-2,0.2c0,0,0,0-0.1,0h-0.1
			c0,0.5-0.101,0.899-0.5,1.199c-0.801,0.7-1.7,1-2.801,0.801l0,0c0,0.1,0,0.1,0,0.199c0,0,0,0,0,0.101v0.1
			c0.301,0.101,0.5,0.101,0.7,0.2c0.5,0.5,0.601,1.2,0.2,1.9c-0.2,0.5-0.6,0.899-1.1,1.199c-0.5,0.4-1,0.5-1.601,0.4
			c-0.3,0-0.6,0-0.899,0c0,0,0,0,0.1,0c-0.1,0-0.1,0-0.1,0s0,0-0.101,0l0,0c0,0.1,0,0.1-0.1,0.1c0,0,0,0,0,0.101
			c0,0-0.101,0.1-0.101,0.2c0,0,0,0,0,0.1c-0.199,0.1-0.3,0.2-0.5,0.3c-0.6,0.5-1.199,0.5-1.8,0.2c-0.1,0-0.2,0-0.2,0
			C28,38,28,38.1,28,38.1l0,0c-0.1,0.101-0.1,0.101-0.1,0.2l0,0C28,38.4,28,38.4,28,38.5c0.1,0,0.1,0.1,0.1,0.1
			c0,0.101,0,0.301,0,0.4c0,0.2-0.1,0.4-0.1,0.6c0,0.7-0.3,1.2-0.9,1.601c-0.399,0.3-0.899,0.5-1.3,0.8c-1.1,0.5-2.1,0.4-3-0.3
			c-0.1-0.2-0.1-0.5-0.1-0.8c0-0.5,0.1-1,0.4-1.5c-0.3-0.2-0.7-0.2-1.2-0.101c-0.2-0.1-0.4-0.3-0.5-0.5c0,0-0.1,0-0.1-0.1L21.2,38.6
			c0-0.1,0-0.1,0-0.1c-0.1,0-0.1,0-0.1-0.1c-0.1,0-0.1,0-0.1,0c0-0.101,0-0.2,0-0.2c0-0.101-0.1-0.3-0.1-0.4
			c0.1-0.2,0.3-0.399,0.6-0.5c0,0,0,0-0.1,0c0-0.1,0-0.1,0-0.1l0,0c0-0.101-0.1-0.101-0.1-0.101c0-0.1-0.1-0.1-0.1-0.199
			c-0.5,0.1-0.9,0-1.3-0.101c-0.1,0-0.2,0-0.2-0.1c-0.4-0.4-0.4-0.9-0.1-1.5c0.1-0.3,0.1-0.601-0.1-0.8c-0.1-0.101-0.2-0.101-0.2,0
			c-0.6,0.5-1.2,0.8-1.9,1.1c-0.3,0.1-0.7,0.2-1,0.2c-0.5,0-0.9,0-1.4-0.101c-1.1-0.199-1.6-0.8-1.5-1.8c0.1-0.899,0.5-1.6,1.1-2.2
			c0-0.1,0.1-0.199,0.2-0.199c0.6-0.101,1.1-0.4,1.5-0.9c-0.2-0.2-0.5-0.3-0.9-0.2c0,0-0.1-0.1-0.1-0.2
			c-0.1-0.199-0.2-0.399-0.1-0.6c0.5-0.6,0.9-1.2,1.3-1.8c0.4-0.7,0.9-1.3,1.3-1.9c-0.2-0.2-0.4-0.2-0.6,0c-0.4,0.1-0.8,0.1-1.1,0.2
			c-0.2,0-0.3-0.1-0.4-0.2c-0.3-0.7-0.4-1.4-0.1-2.1c0.3-1.1,1.1-1.8,2.2-2v-0.1c0.1,0,0.1,0,0.1-0.1c-0.4-0.2-0.8-0.4-1.1-0.6
			c0-0.1,0-0.1,0-0.2c0-0.1,0-0.1,0-0.2c0,0,0.1,0,0.1-0.1l0,0c0-0.1,0-0.2,0-0.2c0.1-0.2,0.3-0.4,0.5-0.5c0,0,0,0,0.2,0l0,0
			c0-0.1,0.1-0.2,0-0.2c0-0.1,0-0.1,0-0.1c-0.2-0.1-0.3-0.2-0.5-0.3c0-0.1,0-0.3,0-0.4c0-0.4,0.1-0.8,0.3-1.1v-0.1
			c0.2-0.2,0.3-0.4,0.5-0.6c0,0,0,0,0.1,0c0.2-0.3,0.3-0.5,0.3-0.8l0,0c-0.1,0-0.2,0-0.2,0L18,16c-0.4,0.2-0.8,0.4-1.2,0.6
			c-0.9,0.5-1.3,1.3-1.3,2.1c0,0,0,0,0,0.1c-0.1,0-0.2,0.1-0.2,0.2c-0.1,0.1-0.1,0.2-0.1,0.4c-0.1-0.1-0.2-0.1-0.2-0.1
			C14.399,19.2,13.799,19.2,13.299,19.2z M31.099,37.1L31.099,37.1L31.099,37.1L31.099,37.1z M16.7,26.5v-0.1h0.1
			C16.7,26.4,16.7,26.4,16.7,26.5z"/>
		<path style="fill:none;stroke:#000000;" d="M31.099,37.1L31.099,37.1L31.099,37.1L31.099,37.1z"/>
		<path style="fill:none;stroke:#000000;" d="M16.7,26.4v0.1c0-0.1,0-0.1,0.1-0.1H16.7z"/>
		<path style="fill:none;stroke:#000000;" d="M18.799,15.8c-0.2,0.1-0.5,0.1-0.8,0.2l0.1,0.1c0,0,0.1,0,0.2,0l0,0
			c0,0.3-0.1,0.5-0.3,0.8c-0.1,0-0.1,0-0.1,0c-0.2,0.2-0.3,0.4-0.5,0.6v0.1c-0.2,0.3-0.3,0.7-0.3,1.1c0,0.1,0,0.3,0,0.4
			c0.2,0.1,0.3,0.2,0.5,0.3c0,0,0,0,0,0.1c0.1,0,0,0.1,0,0.2l0,0c-0.2,0-0.2,0-0.2,0c-0.2,0.1-0.4,0.3-0.5,0.5c0,0,0,0.1,0,0.2l0,0
			c0,0.1-0.1,0.1-0.1,0.1c0,0.1,0,0.1,0,0.2c0,0.1,0,0.1,0,0.2c0.3,0.2,0.7,0.4,1.1,0.6c0,0.1,0,0.1-0.1,0.1v0.1
			c-1.1,0.2-1.9,0.9-2.2,2c-0.3,0.7-0.2,1.4,0.1,2.1c0.1,0.1,0.2,0.2,0.4,0.2c0.3-0.1,0.7-0.1,1.1-0.2c0.2-0.2,0.4-0.2,0.6,0
			c-0.4,0.601-0.9,1.2-1.3,1.9c-0.4,0.6-0.8,1.2-1.3,1.8c-0.1,0.2,0,0.4,0.1,0.6c0,0.101,0.1,0.2,0.1,0.2c0.4-0.1,0.7,0,0.9,0.2
			c-0.4,0.5-0.9,0.8-1.5,0.9c-0.1,0-0.2,0.1-0.2,0.199c-0.6,0.601-1,1.301-1.1,2.2c-0.1,1,0.4,1.601,1.5,1.8
			c0.5,0.101,0.9,0.101,1.4,0.101c0.3,0,0.7-0.101,1-0.2c0.7-0.3,1.3-0.6,1.9-1.1c0-0.101,0.1-0.101,0.2,0
			c0.2,0.199,0.2,0.5,0.1,0.8c-0.3,0.6-0.3,1.1,0.1,1.5c0,0.1,0.1,0.1,0.2,0.1c0.4,0.101,0.8,0.2,1.3,0.101c0,0.1,0.1,0.1,0.1,0.199
			c0,0,0.1,0,0.1,0.101l0,0c0,0,0,0,0,0.1c0.1,0,0.1,0,0.1,0c-0.3,0.101-0.5,0.3-0.6,0.5c0,0.101,0.1,0.3,0.1,0.4c0,0,0,0.1,0,0.2
			c0,0,0,0,0.1,0c0,0.1,0,0.1,0.1,0.1c0,0,0,0,0,0.1l0.1,0.101c0,0.1,0.1,0.1,0.1,0.1c0.1,0.2,0.3,0.4,0.5,0.5
			c0.5-0.1,0.9-0.1,1.2,0.101c-0.3,0.5-0.4,1-0.4,1.5c0,0.3,0,0.6,0.1,0.8c0.9,0.7,1.9,0.8,3,0.3c0.4-0.3,0.9-0.5,1.3-0.8
			C27.7,40.8,28,40.3,28,39.6c0-0.199,0.1-0.399,0.1-0.6c0-0.1,0-0.3,0-0.4c0,0,0-0.1-0.1-0.1c0-0.1,0-0.1-0.1-0.2l0,0
			c0-0.1,0-0.1,0.1-0.2l0,0c0,0,0-0.1,0.1-0.1c0,0,0.101,0,0.2,0c0.601,0.3,1.2,0.3,1.8-0.2c0.2-0.1,0.301-0.2,0.5-0.3
			c0-0.1,0-0.1,0-0.1c0-0.101,0.101-0.2,0.101-0.2c0-0.101,0-0.101,0-0.101c0.1,0,0.1,0,0.1-0.1l0,0c0.101,0,0.101,0,0.101,0
			s0,0,0.1,0c-0.1,0-0.1,0-0.1,0c0.3,0,0.6,0,0.899,0c0.601,0.1,1.101,0,1.601-0.4c0.5-0.3,0.899-0.699,1.1-1.199
			c0.4-0.7,0.3-1.4-0.2-1.9c-0.2-0.1-0.399-0.1-0.7-0.2v-0.1c0-0.101,0-0.101,0-0.101c0-0.1,0-0.1,0-0.199l0,0
			c1.101,0.199,2-0.101,2.801-0.801c0.399-0.3,0.5-0.699,0.5-1.199H37c0.1,0,0.1,0,0.1,0c0.801,0.5,1.4,0.399,2-0.2
			c0.2-0.101,0.301-0.2,0.4-0.3c0.1-0.101,0.1-0.2,0-0.4c0,0-0.1-0.1-0.1-0.2c0,0-0.101,0-0.2-0.1c0,0,0,0-0.101-0.101
			c0-0.1,0-0.199,0-0.3c0-0.1,0-0.1,0-0.2c0.101,0,0.101,0,0.101,0l0,0c0-0.1,0.1-0.1,0.1-0.1l0,0c0.101-0.2,0.3-0.2,0.5-0.1
			C39.9,28.9,39.9,28.8,39.9,28.8s0,0,0.1,0l0,0c0-0.1,0-0.1,0.1-0.1l0,0c0.101,0,0.2,0,0.301,0c0,0.1,0,0.1,0,0.1
			c0.1,0,0.1,0.101,0.1,0.101l0,0l0,0c1.1-0.2,2.2-0.7,3.2-1.4c0.2-1,0-1.8-0.7-2.4c-0.1-0.1-0.1-0.1-0.1-0.2s0.1-0.1,0.1-0.2
			c0.9,0.1,1.7-0.2,2.4-1c0.1-0.6,0-1.2-0.301-1.7c0-0.1,0-0.1-0.1-0.2l0,0c0-0.1,0-0.1,0-0.1s0.1,0,0.1-0.1l0,0c0,0,0,0,0.101,0
			c-0.101,0-0.101,0-0.101,0c-0.899-0.3-1.8-0.4-2.899-0.3c0.1-2.2-0.601-4.2-1.9-6c-0.2-0.3-0.5-0.5-0.8-0.7
			c-1.5-0.9-3.1-1-4.9-0.4c-0.1-0.1-0.199-0.2-0.3-0.3c-0.2-0.5-0.7-1-1.2-1.3c-0.1,0-0.3,0-0.5-0.1c-0.3-0.1-0.699,0-1.1,0.2
			c-1.9,0.9-3.5,2-4.9,3.4c-0.7-0.3-1.3-0.3-2,0c-0.8,0.4-1.3,1-1.3,1.8c-0.8-1.5-2-2.2-3.6-2.2C19.399,15.7,19.1,15.7,18.799,15.8z
			 M21.1,22c0.2-0.2,0.4-0.2,0.7-0.3c0.4-0.3,0.8-0.8,1.1-1.2c0.1-0.3,0-0.6,0-0.9c0,0-0.1-0.1,0-0.2c0.3-0.1,0.7,0,1,0.3
			c0.4-0.1,0.7-0.2,1-0.5c0,0,0-0.1,0.1-0.2l0,0c0.1,0,0.1,0,0.2,0c0,0,0,0,0.1,0c0,0.1,0,0.1,0,0.1s0,0,0,0.1
			c1.101,0.5,2.2,0.4,3.2-0.4c0.2-0.2,0.4-0.3,0.5-0.6c0,0,0-0.1,0.1-0.2l0,0c0.101,0,0.101,0,0.101,0c0.1,0,0.1,0,0.1,0.1l0,0
			c0,0.1,0,0.1,0,0.2c0.601,1.1,1.601,1.5,2.8,1.3c0.301-0.1,0.5-0.2,0.801-0.4c0.1,0,0.199,0,0.199,0c0.101,0.1,0.101,0.1,0.2,0.1
			c0,0.1,0,0.2-0.2,0.3c0,0.1,0,0.1,0,0.1c-0.199,0.6-0.1,1.1,0.4,1.5c0.1,0.1,0.3,0.2,0.5,0.2c0.4,0.1,0.9,0.1,1.4,0.1v0.1
			c0.1,0,0.1,0,0.1,0.1c0,0,0,0-0.1,0v0.1c-0.801,0.1-1.4,0.6-1.601,1.3c-0.3,0.6-0.2,1,0.3,1.4c0.101,0.1,0.301,0.1,0.5,0.2
			c0.601,0,1.301,0.1,1.9,0.1c0,0.1,0,0.1,0,0.2v0.1c-0.2,0.1-0.4,0.2-0.7,0.1c-0.2,0.1-0.2,0.2-0.3,0.3c-0.1,0.4-0.1,0.7-0.1,1.1
			c0,0.101,0,0.2,0,0.301c0,0,0,0,0.1,0V27c0,0.1,0,0.3,0,0.4c0.1,0,0,0,0,0c0,0.199-0.1,0.199-0.3,0.1
			c-0.101,0-0.101-0.1-0.101-0.1c-0.3,0-0.699,0.1-1.199,0.199c-0.101,0-0.101,0.101-0.2,0.2C33.599,27.9,33.5,27.9,33.4,27.9
			h-0.101c0,0,0,0,0,0.1c-1,0.2-1.899,0.8-2.7,1.7c-1-1-2.3-1.2-3.699-0.601c-0.101-1-0.601-1.699-1.5-2c-0.8-0.3-1.5-0.399-2.1-0.3
			c0.4-0.399,0.7-0.9,0.7-1.4c0.3-1.2,0-2.1-0.8-2.8l0,0c-0.1,0-0.1,0-0.2,0c0-0.1-0.1-0.1-0.1-0.2c0,0-0.1,0-0.1-0.1c0,0,0,0,0-0.1
			c-0.2,0-0.3-0.1-0.4-0.2c-0.1,0-0.1,0-0.1,0C21.899,22,21.5,22,21.1,22L21.1,22z"/>
		<path style="fill:none;stroke:#000000;" d="M21.799,21.7c-0.3,0.1-0.5,0.1-0.7,0.3l0,0c0.4,0,0.8,0,1.2,0c0,0,0,0,0.1,0
			c0.1,0.1,0.2,0.2,0.4,0.2c0,0.1,0,0.1,0,0.1c0,0.1,0.1,0.1,0.1,0.1c0,0.1,0.1,0.1,0.1,0.2c0.1,0,0.1,0,0.2,0l0,0
			c0-0.1,0-0.1,0-0.1s0,0,0.1-0.1c-0.1,0-0.1,0-0.1,0c0-0.1,0-0.1,0-0.2c0,0,0,0,0.1-0.1c0.7,0,1.4-0.3,2-1c0.8,0.6,1.7,0.9,2.7,0.9
			c0.1,0.2,0.2,0.4,0.4,0.6c0.8,1.1,1.899,1.6,3.3,1.3c-0.101,0.3-0.101,0.7-0.2,1c-0.1,0.8,0.1,1.5,0.5,2.1s0.8,0.9,1.3,0.9H33.4
			c0.1,0,0.199,0,0.3-0.101c0.1-0.1,0.1-0.2,0.2-0.2c0.5-0.1,0.899-0.199,1.199-0.199c0,0,0,0.1,0.101,0.1c0.2,0.1,0.3,0.1,0.3-0.1
			c0,0,0.1,0,0,0c0-0.101,0-0.301,0-0.4v-0.1c-0.1,0-0.1,0-0.1,0c0-0.101,0-0.2,0-0.301c0-0.399,0-0.7,0.1-1.1
			c0.1-0.1,0.1-0.2,0.3-0.3c0.3,0.1,0.5,0,0.7-0.1V25c0-0.1,0-0.1,0-0.2c-0.6,0-1.3-0.1-1.9-0.1c-0.199-0.1-0.399-0.1-0.5-0.2
			c-0.5-0.4-0.6-0.8-0.3-1.4c0.2-0.7,0.8-1.2,1.601-1.3v-0.1c0.1,0,0.1,0,0.1,0c0-0.1,0-0.1-0.1-0.1v-0.1c-0.5,0-1,0-1.4-0.1
			c-0.2,0-0.4-0.1-0.5-0.2c-0.5-0.4-0.6-0.9-0.4-1.5c0,0,0,0,0-0.1c0.2-0.1,0.2-0.2,0.2-0.3c-0.1,0-0.1,0-0.2-0.1c0,0-0.1,0-0.199,0
			c-0.301,0.2-0.5,0.3-0.801,0.4c-1.199,0.2-2.199-0.2-2.8-1.3c0-0.1,0-0.1,0-0.2l0,0c0-0.1,0-0.1-0.1-0.1c0,0,0,0-0.101,0l0,0
			C29,18.1,29,18.2,29,18.2c-0.1,0.3-0.3,0.4-0.5,0.6c-1,0.8-2.1,0.9-3.2,0.4c0-0.1,0-0.1,0-0.1s0,0,0-0.1c-0.1,0-0.1,0-0.1,0
			c-0.1,0-0.1,0-0.2,0l0,0c-0.1,0.1-0.1,0.2-0.1,0.2c-0.3,0.3-0.6,0.4-1,0.5c-0.3-0.3-0.7-0.4-1-0.3c-0.1,0.1,0,0.2,0,0.2
			c0,0.3,0.1,0.6,0,0.9C22.6,20.9,22.2,21.4,21.799,21.7z M35.4,25.2l-0.101-0.1H35.4V25.2z"/>
		<path style="fill:none;stroke:#000000;" d="M35.299,25.1l0.101,0.1v-0.1H35.299z"/>
	</g>
</g>
</svg>
