<?xml version="1.0" encoding="iso-8859-1"?>
<!-- Generator: Adobe Illustrator 12.0.0, SVG Export Plug-In . SVG Version: 6.00 Build 51448)  -->
<!DOCTYPE svg PUBLIC "-//W3C//DTD SVG 1.1//EN" "http://www.w3.org/Graphics/SVG/1.1/DTD/svg11.dtd" [
	<!ENTITY ns_svg "http://www.w3.org/2000/svg">
	<!ENTITY ns_xlink "http://www.w3.org/1999/xlink">
]>
<svg  version="1.1" id="f:7" xmlns="&ns_svg;" xmlns:xlink="&ns_xlink;" width="50" height="50" viewBox="0 0 50 50"
	 style="overflow:visible;enable-background:new 0 0 50 50;" xml:space="preserve">
<rect style="fill:none;" width="50" height="50"/>
<g>
	<g>
		<path style="fill:none;stroke:#000000;stroke-width:0.5;" d="M17.899,13.6c-0.5,0.2-0.9,0.3-1.4,0.6c-0.4,0.2-0.8,0.6-1.1,1
			c0,0,0,0.1,0,0.2h-0.1c0,0,0,0,0,0.1c-1.3-0.5-2.6-0.3-3.7,0.4c-1.3,0.8-2.3,1.9-2.6,3.4c-0.1,0.1-0.2,0.2-0.2,0.3s0,0.1,0,0.1
			l0,0c0,0.1,0,0.2,0,0.3c0,0,0,0,0.1,0.1c-0.1,0-0.1,0-0.1,0c0.1,0.4,0,0.8-0.1,1.2c-0.1,0.3-0.1,0.7,0,1c0.1,0.2,0.1,0.3,0.2,0.4
			l0,0c0,0.1,0,0.1,0,0.1C9,22.9,9.1,23,9.2,23.1c0.6,0.2,1.2,0.2,1.8-0.2c0-0.1,0-0.1,0-0.2c0,0,0,0,0-0.1c0.1-0.1,0.2-0.2,0.3-0.3
			c0.1,0,0.1,0,0.2,0c0,0,0,0,0,0.1c0,0.5,0.2,0.8,0.6,1c0.2,0.2,0.5,0.2,0.8,0.1c0.6-0.3,1.1-0.7,1.6-1.1c0.1,0,0.2-0.1,0.2-0.2
			c0-0.1,0-0.2,0-0.3c0,0,0,0,0-0.1c0-0.1-0.1-0.2-0.2-0.2c0-0.2,0-0.3,0-0.4c0-0.1,0-0.1,0-0.1c0.3-0.3,0.5-0.2,0.6,0.2
			c0.1,0,0.1,0.1,0.2,0.1c0.8-0.2,1.6-0.6,2.3-1.2c0-0.1,0.1-0.3,0.2-0.4c0-0.1,0-0.2,0-0.3c0,0,0,0,0-0.1c0.1,0,0.1,0,0.2-0.1
			c0.1,0,0.1,0.1,0.1,0.1c0.1,0,0.1,0.1,0.1,0.1s0,0,0,0.1c0.7,0.3,1.4,0.2,1.8-0.3c0.1-0.1,0.2-0.3,0.2-0.4c0-0.3-0.1-0.5-0.1-0.8
			C20,18,20,18,19.899,17.9c0,0,0-0.1,0-0.2c0,0,0,0,0-0.1c0.5,0.1,1.1,0.1,1.6,0.1c0.2,0,0.4,0,0.6-0.1c0.1,0,0.1-0.1,0.2-0.2
			c0-0.1,0-0.3,0-0.4v-0.1c0.1,0,0.1,0,0.2,0s0.3,0.1,0.3,0.2c1,0.5,2,0.5,2.9,0c0.1-0.1,0.2-0.2,0.3-0.4h0.1c0-0.1,0-0.1,0-0.1
			s0,0,0.101,0c0-0.1,0-0.1,0-0.1h0.1c0,0.1,0.101,0.1,0.101,0.1c0,0.2,0,0.4,0,0.5v0.1c0.199,0.2,0.3,0.3,0.399,0.4
			c0.8,0.1,1.5-0.1,2.101-0.6c0-0.1,0-0.1,0-0.1c0-0.1,0-0.1,0-0.2c0.1,0,0.1,0,0.1,0c0.1,0,0.1,0,0.1,0c0.101,0,0.101,0,0.101,0.1
			c0.2,0.6,0.6,0.9,1.3,1.1c0.6,0,1.2,0,1.6-0.4l0,0c0.101,0,0.2,0,0.2,0H32.4c-0.301,1,0.199,1.5,1.1,1.6c0.6,0.1,1.3,0,1.9-0.3
			c0.1,0,0.199,0,0.199,0s0,0,0.101,0.1c-0.101,0.2-0.101,0.4-0.101,0.7c0,0,0,0,0,0.1c0.5,0.3,0.9,0.5,1.4,0.7
			c0.3,0,0.6-0.2,0.9-0.5H38c0,0.1,0.1,0.1,0.1,0.1c0,0.8,0.4,1.2,1.2,1.1c0.4-0.1,0.601-0.3,0.8-0.6c0-0.3,0.101-0.5,0.301-0.7
			c0-0.1-0.101-0.2-0.101-0.2c0-0.1,0-0.2-0.1-0.3l0,0c0-0.1-0.101-0.1-0.2-0.2c0-0.1,0-0.1,0-0.2c0,0,0,0,0-0.1c0.1,0,0.1,0,0.1,0
			c-0.1-0.3-0.3-0.5-0.399-0.8c-0.601-0.8-1.3-1.3-2.3-1.6c0-0.5-0.101-1-0.4-1.5c0,0,0-0.1-0.1-0.2c-1.601-1-3.2-1.1-4.9-0.3
			c0,0,0,0-0.1,0c-0.601-0.5-1.301-0.9-2-1c-0.4,0-0.9,0-1.301,0.1c-1.3,0.3-2.199,1-2.7,2.1c-0.6-0.3-1.2-0.3-1.8,0
			c-0.4,0.4-0.7,0.8-0.7,1.3c-0.2-0.5-0.5-0.9-0.9-1.3v-0.1C21.399,14.1,19.799,13.5,17.899,13.6z"/>
		<path style="fill:none;stroke:#000000;" d="M8.6,19.6v0.1c-0.1,0.1,0,0.2,0,0.3c-0.9,1.4-0.9,2.9-0.2,4.6
			c-0.6,0.3-1.1,0.8-1.5,1.4c-0.8,1.1-0.9,2.3-0.3,3.4C6.7,29.6,6.799,29.7,7,29.8c1.3,0.2,2.5,0.2,3.7-0.1c2.1-0.601,3-2,2.8-4
			c1,0.1,1.7-0.1,2.3-0.8c0.6-0.6,0.9-1.3,1-2.1c1.6,0.2,3-0.3,3.8-1.7c0.9,0.2,1.6-0.1,2.2-0.9c0.5-0.7,0.7-1.4,0.8-2
			c0.2,0.4,0.5,0.7,0.9,1c0.5,0.4,1,0.5,1.3,0.2c0.7,0.3,1.5,0.2,2.4-0.3c0.6,0.8,1.399,1.2,2.399,1.2C31.2,20.9,32,21.2,33,21
			c0.1,0.4,0.5,0.8,1,0.9c1,0.3,1.6,0.2,2.1-0.4c0,0.1,0,0.2,0,0.2c0,0.9,0.301,1.6,1.101,2.2c0.399,0,0.899,0,1.3,0
			c0-0.1,0.1-0.1,0.2-0.1c1.3,0.5,2.399,0.3,3.3-0.9c0,0,0,0,0-0.1c0.1-0.3,0-0.6-0.3-0.8c0,0,0,0-0.101,0l0,0
			c0.101-0.1,0.2-0.2,0.2-0.3c0.101,0,0.101-0.1,0.2-0.2c0.2-0.4,0.2-0.7-0.1-1.1c-0.301-0.6-0.801-1.1-1.4-1.4
			c0-0.1-0.1-0.2-0.3-0.3c0,0.1-0.101,0.1-0.101,0.1s0,0-0.1,0c0,0.1,0,0.1,0,0.1c0,0.1,0,0.1,0,0.2c0.1,0.1,0.2,0.1,0.2,0.2l0,0
			c0.1,0.1,0.1,0.2,0.1,0.3c0,0,0.101,0.1,0.101,0.2c-0.2,0.2-0.301,0.4-0.301,0.7c-0.199,0.3-0.399,0.5-0.8,0.6
			c-0.8,0.1-1.2-0.3-1.2-1.1c0,0-0.1,0-0.1-0.1h-0.1c-0.301,0.3-0.601,0.5-0.9,0.5c-0.5-0.2-0.9-0.4-1.4-0.7c0-0.1,0-0.1,0-0.1
			c0-0.3,0-0.5,0.101-0.7c-0.101-0.1-0.101-0.1-0.101-0.1s-0.1,0-0.199,0c-0.601,0.3-1.301,0.4-1.9,0.3c-0.9-0.1-1.4-0.6-1.1-1.6
			h-0.101c0,0-0.1,0-0.2,0l0,0c-0.399,0.4-1,0.4-1.6,0.4c-0.7-0.2-1.1-0.5-1.3-1.1c0-0.1,0-0.1-0.101-0.1c0,0,0,0-0.1,0
			c0,0,0,0-0.1,0c0,0.1,0,0.1,0,0.2c0,0,0,0,0,0.1c-0.601,0.5-1.301,0.7-2.101,0.6c-0.1-0.1-0.2-0.2-0.399-0.4v-0.1
			c0-0.1,0-0.3,0-0.5c0,0-0.101,0-0.101-0.1h-0.1c0,0,0,0,0,0.1c-0.101,0-0.101,0-0.101,0s0,0,0,0.1H26c-0.1,0.2-0.2,0.3-0.3,0.4
			c-0.9,0.5-1.9,0.5-2.9,0c0-0.1-0.2-0.2-0.3-0.2s-0.1,0-0.2,0V17c0,0.1,0,0.3,0,0.4c-0.1,0.1-0.1,0.2-0.2,0.2
			c-0.2,0.1-0.4,0.1-0.6,0.1c-0.5,0-1.1,0-1.6-0.1c0,0.1,0,0.1,0,0.1c0,0.1,0,0.2,0,0.2C20,18,20,18,20.1,18.1
			c0,0.3,0.1,0.5,0.1,0.8c0,0.1-0.1,0.3-0.2,0.4c-0.4,0.5-1.1,0.6-1.8,0.3c0-0.1,0-0.1,0-0.1s0-0.1-0.1-0.1c0,0,0-0.1-0.1-0.1
			c-0.1,0.1-0.1,0.1-0.2,0.1c0,0.1,0,0.1,0,0.1c0,0.1,0,0.2,0,0.3c-0.1,0.1-0.2,0.3-0.2,0.4c-0.7,0.6-1.5,1-2.3,1.2
			c-0.1,0-0.1-0.1-0.2-0.1c-0.1-0.4-0.3-0.5-0.6-0.2c0,0,0,0,0,0.1c0,0.1,0,0.2,0,0.4c0.1,0,0.2,0.1,0.2,0.2c0,0.1,0,0.1,0,0.1
			c0,0.1,0,0.2,0,0.3c0,0.1-0.1,0.2-0.2,0.2c-0.5,0.4-1,0.8-1.6,1.1c-0.3,0.1-0.6,0.1-0.8-0.1c-0.4-0.2-0.6-0.5-0.6-1
			c0-0.1,0-0.1,0-0.1c-0.1,0-0.1,0-0.2,0c-0.1,0.1-0.2,0.2-0.3,0.3c0,0.1,0,0.1,0,0.1c0,0.1,0,0.1,0,0.2c-0.6,0.4-1.2,0.4-1.8,0.2
			c-0.1-0.1-0.2-0.2-0.3-0.3c0,0,0,0,0-0.1l0,0c-0.1-0.1-0.1-0.2-0.2-0.4c-0.1-0.3-0.1-0.7,0-1c0.1-0.4,0.2-0.8,0.1-1.2
			c0,0,0,0,0.1,0c-0.1-0.1-0.1-0.1-0.1-0.1c0-0.1,0-0.2,0-0.3l0,0c0-0.1-0.1-0.1-0.1-0.1S8.7,19.6,8.6,19.6L8.6,19.6z M25.2,18.9
			L25.2,18.9L25.2,18.9L25.2,18.9z M35.299,19.4v-0.1l0,0C35.299,19.4,35.299,19.4,35.299,19.4z"/>
		<path style="fill:none;stroke:#000000;" d="M35.299,19.3v0.1C35.299,19.4,35.299,19.4,35.299,19.3L35.299,19.3z"/>
		<path style="fill:none;stroke:#000000;" d="M46.2,26.7c0,0,0,0,0-0.101c-0.5-1.8-1.7-2.6-3.7-2.399c-0.3,0.2-0.6,0.5-1,0.7
			c0,0.1,0,0.1,0,0.1h-0.1c-0.101,0-0.2,0-0.301,0l0,0H41c-0.1,0-0.1,0-0.1,0c-0.101,0.2-0.2,0.3-0.4,0.4s-0.4,0.3-0.6,0.6
			c0.1,0.2,0.1,0.5,0.1,0.7c0,0.8,0.4,1.399,1.2,1.6c-0.4,0.601-0.601,1.3-0.7,2c0,0.101,0,0.2,0,0.4c-0.2,0.1-0.4,0.399-0.6,0.7
			V31.6c0,0,0,0.101,0,0.2c-1.4,0.5-2.4,1.5-3.101,2.8c-1.5-0.6-3-0.399-4.2,0.7c-0.199,0.101-0.3,0.3-0.5,0.5
			C31.9,36.6,32,37.4,32.4,38.2c-0.301,0.1-0.601,0.2-0.801,0.399c-0.6,0.5-1,1.101-1.3,1.801c-1-0.101-1.899,0.199-2.6,0.699
			c0,0,0,0,0,0.101c0,0,0,0,0,0.1c0,0,0,0,0,0.101c0,0,0,0-0.101,0c0.101,0,0.101,0,0.101,0.1c0,0.2,0,0.3,0,0.4
			c0,0.1,0,0.1,0,0.199c0.1,0.101,0.2,0.2,0.2,0.301c0,0,0,0,0.1,0c0.4,0.199,0.8,0.199,1.3,0.199c0.601-0.6,1.3-0.8,2.101-0.699
			c0.3,0,0.6,0,0.899,0c0.2,0,0.3,0,0.5-0.101c0.101-0.5,0.101-0.899-0.2-1.399c0,0,0,0,0-0.101c0.301-0.1,0.601,0,1,0.2
			c0,0.1,0.2,0.2,0.301,0.2c0.699,0,1.199,0,1.699-0.3C36,40.3,36.2,40,36.4,39.8c0-0.1,0-0.1,0-0.1V39.6c0.1-0.1,0.1-0.1,0.1-0.199
			c0,0,0,0,0.1,0c0.5,0,1-0.101,1.5-0.301c0,0,0.2-0.1,0.2-0.199c0-0.5-0.2-0.9-0.5-1.301c0-0.1,0-0.1,0-0.1c0.3-0.1,0.601,0,1,0.1
			c0.7,0.2,1.4,0.2,2-0.1c0.4-0.2,0.8-0.5,1.2-0.8c0.2-0.5,0.2-1-0.1-1.5c0-0.101,0-0.101,0-0.2s0.1-0.2,0.199-0.2
			c0.7,0.4,1.4,0.3,2-0.2c0.101-0.1,0.2-0.199,0.2-0.3v-0.1c0-0.7-0.3-1.3-0.899-1.601c0-0.1,0-0.1,0-0.1c0-0.1,0-0.1,0-0.2
			c1,0,1.6-0.5,1.8-1.399c0-0.2,0-0.301-0.101-0.5l0,0c0-0.101,0-0.101,0-0.2C45,30.1,44.9,30,44.799,29.8c-0.1,0-0.1-0.1-0.2-0.2
			l0,0c0-0.1,0.101-0.1,0.101-0.199l0,0c0.1,0,0.1,0,0.1,0c0.7,0.199,1.4,0.199,2,0c0.101-0.101,0.2-0.101,0.3-0.2
			c0-0.101,0-0.101,0-0.101c0.101,0,0.101,0,0.2,0C47.4,29,47.4,28.8,47.5,28.7c0,0,0,0,0-0.101c0-0.3,0-0.6,0.2-0.8l0,0
			C47.299,27.4,46.9,27,46.2,26.7z"/>
		<path style="fill:none;stroke:#000000;stroke-width:0.5;" d="M47.7,27.8L47.7,27.8L47.7,27.8c-0.2,0.2-0.2,0.5-0.2,0.8
			c0,0.101,0,0.101,0,0.101c-0.1,0.1-0.1,0.3-0.2,0.399c-0.1,0-0.1,0-0.2,0c0,0,0,0,0,0.101c-0.1,0.1-0.199,0.1-0.3,0.2
			c-0.6,0.199-1.3,0.199-2,0c0,0,0,0-0.1,0l0,0c0,0.1-0.101,0.1-0.101,0.199l0,0c0.101,0.101,0.101,0.2,0.2,0.2
			c0.101,0.2,0.2,0.3,0.3,0.4c0,0.1,0,0.1,0,0.2l0,0C45.2,30.6,45.2,30.7,45.2,30.9C45,31.8,44.4,32.3,43.4,32.3
			c0,0.101,0,0.101,0,0.2c0,0,0,0,0,0.1c0.6,0.301,0.899,0.9,0.899,1.601v0.1c0,0.101-0.1,0.2-0.2,0.3c-0.6,0.5-1.3,0.601-2,0.2
			C42,34.8,41.9,34.9,41.9,35s0,0.1,0,0.2c0.3,0.5,0.3,1,0.1,1.5c-0.4,0.3-0.8,0.6-1.2,0.8c-0.6,0.3-1.3,0.3-2,0.1
			c-0.399-0.1-0.7-0.199-1-0.1c0,0,0,0,0,0.1c0.3,0.4,0.5,0.801,0.5,1.301c0,0.1-0.2,0.199-0.2,0.199c-0.5,0.2-1,0.301-1.5,0.301
			c-0.1,0-0.1,0-0.1,0c0,0.1,0,0.1-0.1,0.199V39.7c0,0,0,0,0,0.1C36.2,40,36,40.3,35.599,40.4c-0.5,0.3-1,0.3-1.699,0.3
			c-0.101,0-0.301-0.101-0.301-0.2c-0.399-0.2-0.699-0.3-1-0.2c0,0.101,0,0.101,0,0.101c0.301,0.5,0.301,0.899,0.2,1.399
			c-0.2,0.101-0.3,0.101-0.5,0.101c-0.3,0-0.6,0-0.899,0C30.599,41.8,29.9,42,29.299,42.6c-0.5,0-0.899,0-1.3-0.199
			c-0.1,0-0.1,0-0.1,0c0-0.101-0.101-0.2-0.2-0.301c0-0.1,0-0.1,0-0.199c0-0.101,0-0.2,0-0.4c0-0.1,0-0.1-0.101-0.1
			c0.101,0,0.101,0,0.101,0c0-0.101,0-0.101,0-0.101c0-0.1,0-0.1,0-0.1c0-0.101,0-0.101,0-0.101L27.599,41l0,0
			c-0.1,0.1-0.1,0.1-0.1,0.2c0,0,0,0-0.1,0l0,0c0,0.1,0,0.1,0,0.1l0,0c-0.301,0.2-0.5,0.4-0.7,0.601c-0.101,0.399,0,0.699,0.2,1
			c0.6,0.899,1.3,1.399,2.3,1.199l0,0c0.1,0.2,0.1,0.5,0.1,0.7c0,0.101,0,0.101,0,0.2c0.3,0.4,0.7,0.7,1.101,1
			c0.199,0,0.399,0.1,0.6,0.1c1.6,0.101,2.9-0.6,3.7-2.199c0.1,0.1,0.2,0.1,0.3,0.1c0.4,0,0.8,0,1.1-0.1
			c1.4-0.301,2.301-1.2,2.801-2.5V41.3c0-0.1,0-0.3,0-0.399c0-0.101,0-0.101,0-0.101c0.1-0.1,0.3-0.1,0.5-0.1
			c2,0.2,3.1-0.601,3.5-2.601c1.199,0.301,2.199-0.1,2.899-0.899c0.4-0.5,0.601-1.101,0.601-1.7c-0.101-0.9-0.2-1.8-0.5-2.6
			c1.1-0.5,1.8-1.301,2.1-2.5c0.3-0.9,0.2-1.601-0.1-2.301c0,0,0-0.1,0-0.199L47.799,27.8H47.7z"/>
		<path style="fill:none;stroke:#000000;" d="M27.4,41.3L27.4,41.3c0,0,0,0,0-0.1V41.3z"/>
		<path style="fill:none;stroke:#000000;stroke-width:0.5;" d="M25.7,40.4v0.1c0,0.2-0.1,0.3-0.3,0.4c-0.8,0.8-1.6,0.8-2.5,0.1
			c0,0.1-0.1,0.2-0.2,0.2l0,0c0,0.1,0,0.2,0.1,0.3c-0.1,0.5-0.3,0.7-0.7,0.7c-0.5,0.1-1.1,0.1-1.6,0c-0.4,0-0.8-0.2-1-0.5
			c-0.1,0-0.1,0-0.1,0c0-0.101,0-0.2,0-0.2c-0.1-0.1-0.3-0.2-0.5,0c0,0.1,0,0.2,0,0.4c-0.2,0.3-0.6,0.399-1,0.399
			c-0.3,0-0.5-0.1-0.6-0.3c-0.2-0.3-0.4-0.7-0.7-1c-0.1,0-0.1,0-0.2,0v0.2c-0.4,0-0.7,0-1.1,0c-0.3-0.101-0.4-0.3-0.4-0.601
			c0.1-0.699,0.2-1.3,0.3-1.899c0-0.101,0-0.101,0.1-0.2c0-0.1,0-0.2-0.1-0.3h-0.1c-0.6,0.7-1.5,1-2.6,0.7
			c-0.1-0.101-0.2-0.2-0.3-0.2c-0.5-0.601-0.7-1.2-0.6-1.9v-0.1c-0.3,0-0.5,0-0.8,0l0,0c-0.1-0.5-0.2-0.9-0.2-1.4c0,0,0,0,0-0.1
			c-0.6,0.2-1.1,0-1.5-0.4l0,0c-0.1-0.399-0.1-0.7,0-1l0,0c0-0.1,0.1-0.1,0.1-0.1c0.1-0.101,0.1-0.3,0.2-0.5c-0.1,0-0.1,0-0.1,0l0,0
			V33.1c-0.1,0-0.1,0.101-0.1,0.101l0,0c-0.1,0-0.2-0.101-0.3-0.101s-0.1,0-0.1,0s-0.1,0-0.2-0.1c0,0.1-0.1,0.1-0.1,0.1
			c-0.1,0-0.1,0-0.1,0c-0.1,0-0.1,0-0.1,0.101H8.2c-0.9,0.6-1.4,1.5-1.4,2.7c0,0.199,0,0.3,0.1,0.5c0.5,1.6,1.6,2.199,3.4,2
			c0,0.1,0,0.3,0,0.399c-0.1,1.101,0.3,2,1.2,2.601c0.4,0,0.8,0.1,1.2,0.1c0.1,0,0.1,0,0.2,0c-0.4,0.9-0.3,1.6,0.1,2.4
			c0.1,0.1,0.2,0.199,0.3,0.3c1.1,0.8,2.2,0.8,3.4,0c0.1,0.2,0.2,0.399,0.4,0.6c1,0.9,2.1,1,3.3,0.3c0.1-0.1,0.2-0.1,0.3-0.199
			c0.3-0.2,0.5-0.4,0.6-0.601c1,0.9,2.1,1.4,3.4,1.5c0.5-0.399,0.8-0.899,1.1-1.5c0.2-0.5,0.4-1,0.5-1.6c0.101-0.601,0-1.2-0.3-1.7
			c0-0.1,0-0.1-0.1-0.1c0,0,0-0.101-0.1-0.101C25.799,40.7,25.799,40.5,25.7,40.4z"/>
		<path style="fill:none;stroke:#000000;" d="M25.399,40.9c0.2-0.101,0.3-0.2,0.3-0.4c-1-1.3-2.2-1.5-3.8-0.7
			c-0.2-0.3-0.4-0.7-0.7-1c-0.1-0.2-0.3-0.3-0.5-0.3c-1.1-0.6-2.3-0.5-3.5,0.1c0-0.1-0.1-0.3-0.1-0.399c-0.3-1-0.8-1.7-1.6-2.3
			c-0.9,0-1.7,0-2.6,0.1c0.1-0.3,0.1-0.6,0-0.9c0-0.5-0.1-1-0.3-1.399c-0.1-0.101-0.1-0.101-0.2-0.101c-0.4-0.5-1-0.8-1.6-0.8
			c-0.5,0.101-1,0.2-1.5,0.4c0,0,0,0,0.1,0c-0.1,0.2-0.1,0.399-0.2,0.5c0,0-0.1,0-0.1,0.1l0,0c-0.1,0.3-0.1,0.601,0,1l0,0
			c0.4,0.4,0.9,0.601,1.5,0.4c0,0.1,0,0.1,0,0.1c0,0.5,0.1,0.9,0.2,1.4l0,0c0.3,0,0.5,0,0.8,0v0.1c-0.1,0.7,0.1,1.3,0.6,1.9
			c0.1,0,0.2,0.1,0.3,0.2c1.1,0.3,2,0,2.6-0.7h0.1c0.1,0.1,0.1,0.2,0.1,0.3c-0.1,0.1-0.1,0.1-0.1,0.2c-0.1,0.6-0.2,1.2-0.3,1.899
			c0,0.301,0.1,0.5,0.4,0.601c0.4,0,0.7,0,1.1,0V41c0.1,0,0.1,0,0.2,0c0.3,0.3,0.5,0.7,0.7,1c0.1,0.2,0.3,0.3,0.6,0.3
			c0.4,0,0.8-0.1,1-0.399c0-0.2,0-0.301,0-0.4c0.2-0.2,0.4-0.1,0.5,0c0,0,0,0.1,0,0.2c0,0,0,0,0.1,0c0.2,0.3,0.6,0.5,1,0.5
			c0.5,0.1,1.1,0.1,1.6,0c0.4,0,0.6-0.2,0.7-0.7c-0.1-0.1-0.1-0.2-0.1-0.3l0,0c0.1,0,0.2-0.101,0.2-0.2
			C23.799,41.7,24.6,41.7,25.399,40.9z"/>
	</g>
</g>
</svg>
