<?xml version="1.0" encoding="iso-8859-1"?>
<!-- Generator: Adobe Illustrator 12.0.0, SVG Export Plug-In . SVG Version: 6.00 Build 51448)  -->
<!DOCTYPE svg PUBLIC "-//W3C//DTD SVG 1.1//EN" "http://www.w3.org/Graphics/SVG/1.1/DTD/svg11.dtd" [
	<!ENTITY ns_svg "http://www.w3.org/2000/svg">
	<!ENTITY ns_xlink "http://www.w3.org/1999/xlink">
]>
<svg  version="1.1" id="f:1" xmlns="&ns_svg;" xmlns:xlink="&ns_xlink;" width="50.273" height="50" viewBox="0 0 50.273 50"
	 style="overflow:visible;enable-background:new 0 0 50.273 50;" xml:space="preserve">
<rect x="0.273" style="fill:none;" width="50" height="50"/>
<g>
	<g>
		<path style="fill:none;stroke:#000000;" d="M9.873,23.3c0,0.1-0.1,0.1-0.1,0.2c0,0,0,0-0.1,0.1c0.1,0,0.1,0,0.1,0s0.1,0,0.1,0.1
			c0,0.1,0,0.2-0.1,0.3c0,0.1,0,0.1,0,0.2c-0.5,0.4-1,0.8-1.4,1.3c-0.1,0.1-0.2,0.3-0.3,0.5c0,0,0,0,0,0.1
			c-0.2,0.601-0.3,1.2-0.4,1.9c0,0.2,0,0.3,0,0.5c0.1,0.2,0.2,0.4,0.3,0.6l0,0c0.2,0,0.4,0,0.6,0l0,0V29c0.2,0,0.4,0,0.5,0
			c0,0.1,0.1,0.2,0.2,0.2v0.1c-0.5,0.8-1,1.5-1.4,2.3c-0.3,0.7-0.5,1.4-0.4,2.101c0,0.2,0,0.3,0.1,0.5c0.5,1.1,1.4,1.399,2.6,1
			c0.1,0,0.2-0.101,0.2-0.2l0,0c0-0.1,0-0.1,0-0.1c0.1-0.101,0.1-0.101,0.2-0.101c0-0.1,0-0.1,0-0.1c0.1,0,0.2,0,0.4,0
			c0.1,0.1,0.1,0.2,0.1,0.3c0,0,0,0,0.1,0c1,0.4,1.6,0,1.9-1l0.1-0.1c0-0.101,0-0.101,0.1-0.2l0,0c0.1,0,0.2,0,0.3,0
			c0.6,1.1,1.5,1.6,2.8,1.399c0.3-0.1,0.6-0.199,0.8-0.399c0.8-0.5,1.2-1.2,1.1-2.101c0-0.199,0-0.399,0.1-0.5
			c0-0.1,0-0.199,0.1-0.199c0.1,0,0.2,0,0.3,0c0.1,0.199,0.2,0.3,0.2,0.399c0,0.101,0,0.101,0,0.101c0.3,0.5,0.7,0.8,1.1,1
			c0.4,0.199,0.7,0.199,1,0.199c1.7-0.3,3-1.199,3.7-2.6c0.2-0.3,0.2-0.5,0.2-0.8c0-0.101,0-0.101,0-0.2c-0.2-0.3-0.4-0.7-0.6-1
			c0-0.1,0-0.1-0.1-0.1c-0.2-0.2-0.5-0.301-0.8-0.301c-0.2-0.1-0.4-0.3-0.6-0.5c-0.1,0-0.1-0.1-0.1-0.1v-0.1
			c0.1-0.101,0.1-0.101,0.1-0.2c0.1,0,0.1,0,0.1,0c0.1,0,0.3,0,0.4,0c1.2,0.7,2.4,0.8,3.6,0.1c0.2-0.1,0.399-0.3,0.6-0.5
			c0.4-0.399,0.7-1,0.8-1.6c0,0,0-0.1,0-0.2v-0.1c-0.199-0.1-0.199-0.3-0.199-0.5l0,0c0-0.1,0-0.1,0.1-0.1l0,0
			c-0.2-0.1-0.4-0.1-0.7-0.1c-0.7,0-1.4,0.1-2.1,0.3c0-0.2,0.1-0.4,0.1-0.6c0.3-1.8-0.4-3.3-2.2-4.4c-1.5,0.5-3.1,1-4.7,1.5
			c-0.5-0.8-1.3-1.2-2.3-1.1c-2-0.4-3.8,0.3-5.4,1.9c-0.3,0.2-0.6,0.4-0.8,0.5C10.073,23,10.073,23.2,9.873,23.3z"/>
		<path style="fill:none;stroke:#000000;stroke-width:0.5;" d="M9.773,24c0.1-0.1,0.1-0.2,0.1-0.3c0-0.1-0.1-0.1-0.1-0.1s0,0-0.1,0
			c0,0,0,0-0.1-0.1c0,0.1,0,0.1,0,0.1h-0.1l0,0c0,0.1,0,0.1,0,0.1v-0.1c-0.8-0.4-1.6-0.6-2.6-0.8c-0.2,0.1-0.5,0.2-0.8,0.3
			c-1.5,0.6-2.3,1.7-2.4,3.4c-0.2,0.1-0.4,0.2-0.6,0.3c-0.3,0.2-0.7,0.4-0.9,0.7c-0.8,1.3-0.9,2.7-0.2,4.1
			c-0.1,0.101-0.2,0.2-0.3,0.301c0,0,0,0.1,0,0.199c0,0,0,0-0.1,0.101l-0.1,0.1c-0.5,0.5-0.9,1-1.2,1.601c0.5,1.3,1.5,2.1,3.1,2.399
			c-0.4,1.4,0.1,2.601,1.4,3.5c1,0.7,2.1,1.101,3.1,1.101c0.1,0.399,0.3,0.8,0.5,1.199c0.5,0.601,1,1,1.5,1.2c0-0.1-0.1-0.1-0.1-0.2
			c-0.6-0.699-1.2-1.399-1.6-2.199c0.6,0,1.2-0.101,1.8-0.301c0.2,0,0.4-0.1,0.6-0.199c0,0,0.1-0.101,0.2-0.101
			c0.1-0.1,0.3-0.3,0.4-0.399c0.9,0.6,1.8,0.8,2.7,0.5c0.1,0,0.1,0,0.1,0.1c0.2,0.2,0.5,0.3,0.7,0.4c1.2,1.399,2.4,2.699,3.6,4h0.1
			c-1.2-1.301-2.2-2.601-3.3-3.801c0.5,0.2,1.1,0.2,1.6,0.2c2.4-0.1,4.2-1.1,5.6-3c0,0,0,0,0-0.1l0,0c0.1,0.1,0.2,0.1,0.3,0.2
			c2.9,0.8,5.101,0,6.5-2.601c-0.1-0.1-0.1-0.2-0.1-0.3c0-0.2,0-0.3,0-0.5l-0.101-0.1c-0.199-0.301-0.399-0.4-0.8-0.4l0,0l0,0
			c0-0.1,0-0.1,0-0.1c1.5-0.5,2.2-1.5,1.9-2.7c1.7-1.5,1.8-3.4,0.5-5.4c-0.101-0.1-0.101-0.2-0.2-0.2c-0.4-0.6-0.9-1-1.4-1.2
			c-0.1-0.1-0.1-0.1-0.199-0.2c-0.101,0-0.2,0-0.4,0c0,0,0,0,0,0.1l0,0c-0.1,0-0.1,0-0.1,0.1l0,0c0,0.2,0,0.4,0.199,0.5v0.1
			c0,0.1,0,0.2,0,0.2c-0.1,0.6-0.399,1.2-0.8,1.6c-0.2,0.2-0.399,0.4-0.6,0.5c-1.2,0.7-2.4,0.601-3.6-0.1c-0.1,0-0.3,0-0.4,0
			c0,0,0,0-0.1,0c0,0.1,0,0.1-0.1,0.2V28c0,0,0,0.1,0.1,0.1c0.2,0.2,0.4,0.4,0.6,0.5c0.3,0,0.6,0.101,0.8,0.301c0.1,0,0.1,0,0.1,0.1
			c0.2,0.3,0.4,0.7,0.6,1c0,0.1,0,0.1,0,0.2c0,0.3,0,0.5-0.2,0.8c-0.7,1.4-2,2.3-3.7,2.6c-0.3,0-0.6,0-1-0.199
			c-0.4-0.2-0.8-0.5-1.1-1c0,0,0,0,0-0.101c0-0.1-0.1-0.2-0.2-0.399c-0.1,0-0.2,0-0.3,0c-0.1,0-0.1,0.1-0.1,0.199
			c-0.1,0.101-0.1,0.301-0.1,0.5c0.1,0.9-0.3,1.601-1.1,2.101c-0.2,0.2-0.5,0.3-0.8,0.399c-1.3,0.2-2.2-0.3-2.8-1.399
			c-0.1,0-0.2,0-0.3,0l0,0c-0.1,0.1-0.1,0.1-0.1,0.2l-0.1,0.1c-0.3,1-0.9,1.4-1.9,1c-0.1,0-0.1,0-0.1,0c0-0.1,0-0.2-0.1-0.3
			c-0.2,0-0.3,0-0.4,0c0,0,0,0,0,0.1c-0.1,0-0.1,0-0.2,0.101c0,0,0,0,0,0.1l0,0c0,0.1-0.1,0.2-0.2,0.2c-1.2,0.399-2.1,0.1-2.6-1
			c-0.1-0.2-0.1-0.3-0.1-0.5c-0.1-0.7,0.1-1.4,0.4-2.101c0.4-0.8,0.9-1.5,1.4-2.3v-0.1c-0.1,0-0.2-0.101-0.2-0.2c-0.1,0-0.3,0-0.5,0
			v0.1l0,0c-0.2,0-0.4,0-0.6,0l0,0c-0.1-0.199-0.2-0.399-0.3-0.6c0-0.2,0-0.3,0-0.5c0.1-0.7,0.2-1.3,0.4-1.9c0-0.1,0-0.1,0-0.1
			c0.1-0.2,0.2-0.4,0.3-0.5c0.4-0.5,0.9-0.9,1.4-1.3C9.773,24.1,9.773,24.1,9.773,24z M29.173,32.4L29.173,32.4c0,0,0,0,0-0.101
			C29.173,32.4,29.173,32.4,29.173,32.4z M13.573,39.5L13.573,39.5l-0.1-0.1C13.573,39.4,13.573,39.5,13.573,39.5z"/>
		<path style="fill:none;stroke:#000000;" d="M9.473,23.6L9.473,23.6v0.1C9.473,23.7,9.473,23.7,9.473,23.6z"/>
		<path style="fill:none;stroke:#000000;" d="M18.373,44.9h-0.1c0,0,0.1,0,0.1,0.1C18.373,44.9,18.373,44.9,18.373,44.9z"/>
		<path style="fill:none;stroke:#000000;" d="M10.773,40.4L10.773,40.4L10.773,40.4L10.773,40.4z"/>
		<path style="fill:none;stroke:#000000;stroke-width:0.5;" d="M10.773,40.4L10.773,40.4c1.8,2,3.7,4,5.6,6c0.1,0,0.1,0,0.1-0.101
			v-0.1c0-0.101-0.1-0.101-0.1-0.2C14.573,44.1,12.673,42.2,10.773,40.4z"/>
		<path style="fill:none;stroke:#000000;stroke-width:0.5;" d="M10.173,41.7c-0.1-0.101-0.1-0.101-0.1,0c1.8,2.5,3.9,4.5,6.4,5.899
			h0.1C14.173,45.9,12.073,43.9,10.173,41.7z"/>
		<path style="fill:none;stroke:#000000;" d="M16.473,47.6c0.1,0,0.2,0.101,0.2,0.101l-0.1-0.101H16.473z"/>
	</g>
</g>
</svg>
