<?xml version="1.0" encoding="iso-8859-1"?>
<!-- Generator: Adobe Illustrator 12.0.0, SVG Export Plug-In . SVG Version: 6.00 Build 51448)  -->
<!DOCTYPE svg PUBLIC "-//W3C//DTD SVG 1.1//EN" "http://www.w3.org/Graphics/SVG/1.1/DTD/svg11.dtd" [
	<!ENTITY ns_svg "http://www.w3.org/2000/svg">
	<!ENTITY ns_xlink "http://www.w3.org/1999/xlink">
]>
<svg  version="1.1" id="f:6" xmlns="&ns_svg;" xmlns:xlink="&ns_xlink;" width="50" height="50" viewBox="0 0 50 50"
	 style="overflow:visible;enable-background:new 0 0 50 50;" xml:space="preserve">
<rect style="fill:none;" width="50" height="50"/>
<g>
	<g>
		<path style="fill:none;stroke:#000000;stroke-width:0.5;" d="M10.399,18.9c0,0,0,0.1-0.1,0.1c0,0.1,0,0.1,0,0.1
			c0,0.2,0,0.3-0.1,0.4c0,0,0,0-0.1,0.1c0,0,0,0,0,0.1c-0.1,0.3-0.2,0.7-0.2,1C8.7,21.2,7.7,22,7,23.1c-0.1,0.2-0.1,0.3-0.1,0.5
			c-0.1,1.2,0.3,2.1,1.4,2.7c-0.5,0.3-0.8,0.7-1.1,1.2c-1,1.4-0.9,2.9,0.1,4.3c-0.4,0.4-0.7,0.8-1,1.3C5.7,33.9,5.5,34.9,5.6,35.9
			c1.4,1.8,3.2,2.6,5.3,2.5c0.2-0.2,0.4-0.4,0.7-0.601c-0.2,0.601-0.1,1.2,0.1,1.7c0.4,1.2,1.2,1.8,2.4,2c1.4,0.2,2.6,0.2,3.7,0.1
			c0,0.2-0.1,0.5-0.1,0.7c-0.4,1.4,0,2.5,1.1,3.3c1.2,0.2,2.3,0,3.4-0.5C23,45.9,24,46.2,25.2,46c1.399-0.1,2.6-0.5,3.7-1.2
			c0.3,0.7,0.699,1.2,1.399,1.4c0.3,0.1,0.7,0.1,1,0.1c2-0.5,3.3-1.6,4.2-3.399c0.2,0,0.4,0.1,0.5,0.199
			c0.1,0.101,0.1,0.101,0.1,0.2c1.2,0.2,2.301,0,3.2-0.7c0.2-0.3,0.4-0.6,0.601-0.8c0.399-0.5,0.6-1,0.6-1.6c0.5,0.6,1.1,1,1.9,1
			c2,0.2,3.699-0.5,5.1-2c1.6-1.7,1.7-3.4,0.4-5.101C47.9,34,48,34,48,33.9c0.2-0.2,0.4-0.5,0.5-0.7c0.6-1.3,0.6-2.4,0-3.5
			c0.2-0.4,0.3-0.9,0.2-1.601c-0.2-1.399-0.9-2.399-2.2-3.1c0-0.3,0-0.7,0-1s0-0.6,0-0.9c0,0-0.1,0-0.1-0.1
			c-0.7-0.9-1.601-1.4-2.7-1.4c0-0.2-0.101-0.4-0.3-0.6l-0.101-0.1h-0.1c0,0,0,0,0-0.1l0,0c0-0.1,0-0.1,0-0.1l0,0
			c0-0.1,0-0.1-0.101-0.2l0,0L43,20.4c-0.1,0-0.1,0-0.1,0l-0.101,0.1c0,0,0,0.1,0,0.2c0,0.1,0,0.2,0,0.3v0.1c0,0,0,0,0.101,0
			c0,0.1,0,0.2,0,0.2c0,0.2,0.1,0.3,0.1,0.4c-0.4,0.6-0.9,0.9-1.6,1.1l0,0c0,0.1,0,0.1,0,0.2c0.199,0.2,0.5,0.4,0.8,0.5
			c0.1,0.1,0.2,0.2,0.3,0.3c0.3,0.3,0.6,0.7,0.9,1.1c-0.601,0.6-1.301,1-2,1.5l0,0c0,0.1,0,0.199,0.1,0.199
			c0.7,0.301,1.4,0.601,2.1,0.801c0.5,0.3,0.9,0.6,1,1.199c0.101,0.7-0.199,1.101-1,1.301c-0.1-0.101-0.199-0.101-0.3-0.2
			c0,0,0,0.1-0.1,0.1l0,0c0,0.101,0,0.101,0,0.101c0.399,0.5,0.899,0.899,1.399,1.399l0,0c0,0.101-0.1,0.2-0.1,0.3
			c-0.1,0.2-0.2,0.5-0.4,0.801C43.5,33.3,42.7,33.6,41.599,33c0,0-0.1,0.1-0.199,0.1l0.1,0.101c0,0.1,0,0.2,0.1,0.3
			c0,0.1,0.101,0.1,0.101,0.1c0.1,0.101,0.1,0.2,0.1,0.4l0.101,0.1C42,34.3,42,34.4,42,34.5c0,0.2-0.1,0.4-0.3,0.5
			c-0.601,0.7-1.4,1-2.3,0.7c-0.101,0-0.101-0.101-0.2-0.101c-0.101,0-0.101,0-0.2,0.101c0,0,0,0,0,0.1c-0.1,0.101-0.1,0.2-0.1,0.3
			c0.1,0,0.1,0.101,0.199,0.101c0,0,0.101,0.1,0.101,0.2c0,0.1,0,0.1,0,0.199c-0.3,0.2-0.5,0.4-0.8,0.5c-0.9,0.301-1.7,0.2-2.5-0.1
			c0,0-0.101,0.1-0.2,0.1c0,0.101,0,0.101,0,0.101c-0.3,0.8-1,1.3-1.9,1.7c-0.5,0.1-1,0.1-1.399-0.2c-0.4-0.2-0.801-0.3-1.2-0.4
			c0,0.101,0,0.101,0,0.101s0,0.1-0.101,0.1l0.101,0.1c0,0.101,0.1,0.2,0.1,0.2c0,0.4,0,0.7-0.2,1c-0.3,0.9-1,1.101-1.899,0.8
			C28.9,40.4,28.599,40.4,28.4,40.4c-0.301,0.3-0.601,0.399-1.101,0.3c0-0.2-0.1-0.3-0.1-0.5c0.1-0.2,0.1-0.4,0-0.601
			c0-0.1-0.101-0.1-0.101-0.1c-0.1,0-0.1,0-0.199,0v0.1L26.799,39.7c-0.1,0.1-0.2,0.2-0.3,0.2h-0.1c-0.601-0.301-1-0.7-1.3-1.2V38.6
			c0-0.1,0-0.199-0.1-0.3c-0.2,0-0.3,0-0.5,0C24.2,38.9,23.7,39.2,23,39.4c-0.1,0.1-0.2,0.1-0.3,0.1c-1.4,0-2.8-0.3-4.2-0.7
			c-0.2,0-0.3-0.1-0.5-0.2c-0.9-0.6-1.3-1.399-1.1-2.5c-0.1-0.1-0.2-0.1-0.2-0.199c-0.4,0.3-0.8,0.5-1.2,0.399
			c-0.5-0.1-0.9-0.3-1.2-0.7c-0.1-0.199-0.1-0.5,0-0.699c0.1-0.4,0.2-0.801,0.3-1.2c-0.1,0-0.1-0.101-0.2-0.101h-0.1
			c-0.1,0.2-0.2,0.301-0.4,0.301c-0.5,0.1-0.9,0.1-1.3-0.2c-0.9-0.601-1.2-1.5-0.9-2.601c0.1-0.3,0.3-0.699,0.4-1
			c0.2-0.3,0.4-0.5,0.6-0.8c0.7-0.6,1.4-1.1,2.2-1.5l0,0c0-0.1,0-0.1,0-0.2c-0.1,0-0.1,0-0.2,0c-0.5,0.2-1.1,0.2-1.6,0
			c-0.1-0.199-0.2-0.3-0.3-0.399c-0.1-0.101-0.1-0.2-0.1-0.4c-0.1-0.2-0.1-0.5,0-0.7l0.1-0.1c0.5-0.7,1.1-1.4,1.7-1.9
			c0,0,0-0.1-0.1-0.1c-0.4,0-0.9-0.1-1.3-0.1c-0.4-0.1-0.6-0.2-0.8-0.5c-0.4-0.8-0.4-1.5,0-2.3c0.4-0.6,1.1-1.1,1.8-1.4
			c-0.1-0.1-0.1-0.1-0.3-0.2c-0.7-0.1-1-0.6-0.9-1.4c0.1,0,0.1,0,0.1,0c0-0.1,0-0.1,0-0.1v-0.1c0,0,0,0,0-0.1
			c0.1-0.1,0.1-0.1,0.1-0.1c0.2-0.2,0.4-0.5,0.5-0.7c0.2-0.3,0.5-0.6,0.8-0.7c0.2-0.2,0.4-0.3,0.5-0.4l0,0c0.2-0.1,0.3-0.2,0.5-0.2
			v-0.1c0.2,0,0.4-0.1,0.5-0.2H16c0.1,0,0.1,0,0.1,0c0.1,0,0.1,0,0.1-0.1v-0.1l0,0h-0.1c-0.1,0-0.2-0.1-0.2-0.1
			c-0.1,0.1-0.1,0.1-0.1,0.1h-0.1c-0.1,0-0.1,0-0.1,0l0,0c-0.8,0-1.5,0.2-2.2,0.5C11.799,16.4,10.799,17.4,10.399,18.9z M9.899,21.4
			L9.899,21.4L9.899,21.4z M47.599,28.7H47.7c0,0,0,0,0,0.1C47.7,28.7,47.599,28.7,47.599,28.7z M42.4,26.4h-0.101l0,0
			C42.299,26.4,42.299,26.4,42.4,26.4z M11.899,37.2L12,37.1L11.899,37.2L11.899,37.2z"/>
		<path style="fill:none;stroke:#000000;" d="M42.299,26.4H42.4C42.299,26.4,42.299,26.4,42.299,26.4L42.299,26.4z"/>
		<path style="fill:none;stroke:#000000;" d="M12.899,18.1c-0.1,0.8,0.2,1.3,0.9,1.4c0.2,0.1,0.2,0.1,0.3,0.2
			c-0.7,0.3-1.4,0.8-1.8,1.4c-0.4,0.8-0.4,1.5,0,2.3c0.2,0.3,0.4,0.4,0.8,0.5c0.4,0,0.9,0.1,1.3,0.1c0.1,0,0.1,0.1,0.1,0.1
			c-0.6,0.5-1.2,1.2-1.7,1.9l-0.1,0.1c-0.1,0.2-0.1,0.5,0,0.7c0,0.2,0,0.3,0.1,0.4c0.1,0.1,0.2,0.2,0.3,0.399c0.5,0.2,1.1,0.2,1.6,0
			c0.1,0,0.1,0,0.2,0c0,0.101,0,0.101,0,0.2l0,0c-0.8,0.4-1.5,0.9-2.2,1.5c-0.2,0.3-0.4,0.5-0.6,0.8c-0.1,0.301-0.3,0.7-0.4,1
			c-0.3,1.101,0,2,0.9,2.601c0.4,0.3,0.8,0.3,1.3,0.2c0.2,0,0.3-0.101,0.4-0.301h0.1c0.1,0,0.1,0.101,0.2,0.101
			c-0.1,0.399-0.2,0.8-0.3,1.2c-0.1,0.199-0.1,0.5,0,0.699c0.3,0.4,0.7,0.601,1.2,0.7c0.4,0.101,0.8-0.1,1.2-0.399
			c0,0.1,0.1,0.1,0.2,0.199C16.7,37.2,17.1,38,18,38.6c0.2,0.101,0.3,0.2,0.5,0.2c1.4,0.4,2.8,0.7,4.2,0.7c0.1,0,0.2,0,0.3-0.1
			c0.7-0.2,1.2-0.5,1.5-1.101c0.2,0,0.3,0,0.5,0c0.1,0.101,0.1,0.2,0.1,0.3V38.7c0.3,0.5,0.7,0.899,1.3,1.2h0.1
			c0.1,0,0.2-0.101,0.3-0.2L26.9,39.6v-0.1c0.1,0,0.1,0,0.199,0c0,0,0.101,0,0.101,0.1c0.1,0.2,0.1,0.4,0,0.601
			c0,0.2,0.1,0.3,0.1,0.5c0.5,0.1,0.8,0,1.101-0.3c0.199,0,0.5,0,0.8,0.199c0.899,0.301,1.6,0.101,1.899-0.8c0.2-0.3,0.2-0.6,0.2-1
			c0,0-0.1-0.1-0.1-0.2l-0.101-0.1c0.101,0,0.101-0.1,0.101-0.1s0,0,0-0.101c0.399,0.101,0.8,0.2,1.2,0.4
			c0.399,0.3,0.899,0.3,1.399,0.2c0.9-0.4,1.601-0.9,1.9-1.7c0,0,0,0,0-0.101c0.1,0,0.2-0.1,0.2-0.1c0.8,0.3,1.6,0.4,2.5,0.1
			c0.3-0.1,0.5-0.3,0.8-0.5c0-0.1,0-0.1,0-0.199c0-0.101-0.101-0.2-0.101-0.2C39,36.2,39,36.1,38.9,36.1c0-0.1,0-0.199,0.1-0.3
			c0-0.1,0-0.1,0-0.1c0.1-0.101,0.1-0.101,0.2-0.101c0.1,0,0.1,0.101,0.2,0.101c0.899,0.3,1.699,0,2.3-0.7c0.2-0.1,0.3-0.3,0.3-0.5
			c0-0.1,0-0.2-0.1-0.4L41.799,34c0-0.2,0-0.3-0.1-0.4c0,0-0.101,0-0.101-0.1c-0.1-0.1-0.1-0.2-0.1-0.3L41.4,33.1
			c0.1,0,0.199-0.1,0.199-0.1c1.101,0.6,1.9,0.3,2.5-0.6c0.2-0.301,0.301-0.601,0.4-0.801c0-0.1,0.1-0.199,0.1-0.3l0,0
			c-0.5-0.5-1-0.899-1.399-1.399c0,0,0,0,0-0.101l0,0c0.1,0,0.1-0.1,0.1-0.1c0.101,0.1,0.2,0.1,0.3,0.2
			c0.801-0.2,1.101-0.601,1-1.301c-0.1-0.6-0.5-0.899-1-1.199C42.9,27.2,42.2,26.9,41.5,26.6c-0.1,0-0.1-0.1-0.1-0.199l0,0
			c0.699-0.5,1.399-0.9,2-1.5c-0.301-0.4-0.601-0.8-0.9-1.1c-0.1-0.1-0.2-0.2-0.3-0.3c-0.3-0.1-0.601-0.3-0.8-0.5c0-0.1,0-0.1,0-0.2
			l0,0c0.699-0.2,1.199-0.5,1.6-1.1c0-0.1-0.1-0.2-0.1-0.4c0,0,0-0.1,0-0.2c-0.101,0-0.101,0-0.101,0V21c0-0.1,0-0.2,0-0.3
			c0-0.1,0-0.2,0-0.2l0.101-0.1c0,0,0,0,0.1,0l0.1,0.1c0.101-0.7-0.1-1.3-0.5-1.8c-1.199-2-3-2.7-5.3-2.2c-0.2-1-0.8-1.5-1.899-1.5
			c-0.5,0-0.9-0.1-1.301-0.4c-1-0.5-1.899-0.7-2.899-0.6c-0.5,0.1-1,0.3-1.5,0.4c-0.7,0.2-1.3,0.5-1.8,0.7
			c-0.2-0.2-0.4-0.4-0.601-0.6c-0.2-0.1-0.3-0.1-0.399-0.3c-0.601-1-1.601-1.6-2.7-1.8c-1.2,0-2.3,0.4-3.2,1.2
			c-1.8-0.4-3.2,0.1-4.3,1.6c-0.2,0-0.4,0-0.5,0l0,0v0.1c0,0.1,0,0.1-0.1,0.1c0,0,0,0-0.1,0h-0.1c-0.1,0.1-0.3,0.2-0.5,0.2v0.1
			c-0.2,0-0.3,0.1-0.5,0.2l0,0c-0.1,0.1-0.3,0.2-0.5,0.4c-0.3,0.1-0.6,0.4-0.8,0.7c-0.1,0.2-0.3,0.5-0.5,0.7c0,0,0,0-0.1,0.1
			c0,0.1,0,0.1,0,0.1V18c0,0,0,0,0,0.1C13,18.1,13,18.1,12.899,18.1z M19.399,18.6L19.399,18.6c1.6,0.3,3,0.1,4.3-0.8
			c0-0.1,0-0.1,0.1-0.2l0,0c0.1,0,0.1,0,0.2,0l0,0c0,0.2,0.1,0.3,0.1,0.4s0,0.1,0,0.2c0.9,0.4,1.7,0.3,2.5-0.3l0,0c0,0,0,0,0-0.1
			v-0.1c0-0.1,0.101-0.1,0.2-0.2H26.9c0.699,0.5,1.3,0.5,2-0.1c0,0,0.1,0,0.1-0.1c0-0.1,0-0.1,0-0.2h0.1c0,0,0,0,0.101,0
			c0,0,0.1,0,0.2,0c0,0,0,0,0,0.1c0.1,0.1,0.1,0.2,0.1,0.2c0,0.1,0,0.1,0,0.2c0.3,0.3,0.7,0.5,1.1,0.5c0.9,0.1,1.7,0.1,2.5-0.1
			c0.101,0,0.2,0,0.301,0.1c0.1,0.1,0.1,0.1,0.1,0.2c0,0.1-0.1,0.1-0.1,0.2c-0.101,0.3-0.101,0.7,0,1.1c0.1,0,0.1,0,0.1,0
			c0.6,0.5,1.4,0.6,2.1,0.5c0.101,0,0.2,0,0.2,0c0.101,0.1,0.101,0.2,0.101,0.3l-0.101,0.1c-0.2,0.1-0.399,0.2-0.7,0.4
			c-0.1,0.3-0.199,0.6-0.199,1V22c0,0.1,0,0.1,0.1,0.2c0.4,0.1,0.9,0.1,1.3,0c0.2-0.1,0.3-0.1,0.4,0.1c0,0,0,0,0,0.1
			c0.1,0,0.1,0,0.1,0.1c-0.2,0.2-0.5,0.3-0.899,0.3c-0.301-0.1-0.4,0-0.5,0.2c0,0.1,0,0.1,0,0.2c-0.101,0-0.101,0-0.101,0
			c0.101,0.1,0.101,0.1,0.101,0.1s0,0,0,0.1c0.399,0.6,1,1.1,1.8,1.3c0.399,0.1,0.899,0.2,1.3,0.1c0.2,0,0.4-0.1,0.5-0.3
			c0.1,0,0.1,0,0.2,0c0.1,0,0.1,0.1,0.2,0.1c0,0.1,0,0.3,0,0.4v0.1c-0.2,0.1-0.301,0.3-0.301,0.6l0,0C38.9,25.9,38.7,26.1,38.5,26.4
			c-0.5,0.399-1,0.699-1.7,0.899c0.2,0.3,0.5,0.601,1,0.8C37.9,28.2,37.9,28.2,37.9,28.4c0,0,0,0-0.101,0c0,0.1,0,0.1,0,0.1
			C37.4,28.8,37,29,36.5,28.9c0,0.199,0,0.3,0,0.399c-0.2,0-0.3,0-0.4,0.101C34.9,29.8,34.4,30.7,34.5,32c-1.8-0.1-3.2,0.5-4.4,1.8
			c-1.3-0.1-2.399,0.4-3.3,1.601C26.4,35.2,26,35,25.7,34.8c-1.6-0.899-2.9-0.7-3.9,0.5c-0.9-0.8-2.1-0.899-3.5-0.399
			c0-0.801-0.2-1.5-0.7-2.2c-0.4-0.7-1-1.3-1.7-1.8c0.3-0.301,0.4-0.7,0.5-1c-0.1,0-0.1,0-0.1,0c0-0.101,0-0.101,0-0.101s0,0,0-0.1
			c0,0-0.1-0.101-0.1-0.2l0,0c0.2-0.4,0.4-0.7,0.7-1c0-0.1,0.1-0.1,0.2-0.1c0-0.101,0-0.101,0-0.101c0-0.1,0-0.1,0-0.2V28
			c0.1,0,0.1,0,0.1,0c0.1-0.9-0.2-1.7-0.8-2.4l0,0l0,0l0,0c0-0.1-0.1-0.2-0.1-0.2v-0.1c-0.1,0-0.1-0.1,0-0.2l0,0
			c0.1-0.1,0.1-0.2,0.3-0.1c0.1,0,0.1,0,0.1,0l0,0c0.7-0.1,1.4-0.5,2-1c0-0.1,0.1-0.1,0.1-0.2c0-0.2,0-0.4,0-0.6l-0.1-0.1
			c0-0.2-0.1-0.4-0.3-0.6l0,0c0-0.1,0-0.1-0.1-0.1c-0.1-0.2-0.2-0.5-0.4-0.7c0,0,0,0,0-0.1l0,0c0.1,0,0.2-0.1,0.2-0.1
			c0.8,0.3,1.7,0.1,2.4-0.6c0.1-0.4,0-0.9-0.3-1.2c-0.1-0.3-0.4-0.6-0.6-0.8c-0.1,0-0.2-0.1-0.2-0.2V18.6z"/>
		<path style="fill:none;stroke:#000000;" d="M19.399,18.6L19.399,18.6v0.1c0,0.1,0.1,0.2,0.2,0.2c0.2,0.2,0.5,0.5,0.6,0.8
			c0.3,0.3,0.4,0.8,0.3,1.2c-0.7,0.7-1.6,0.9-2.4,0.6c0,0-0.1,0.1-0.2,0.1l0,0c0,0.1,0,0.1,0,0.1c0.2,0.2,0.3,0.5,0.4,0.7
			c0.1,0,0.1,0,0.1,0.1l0,0c0.2,0.2,0.3,0.4,0.3,0.6l0.1,0.1c0,0.2,0,0.4,0,0.6c0,0.1-0.1,0.1-0.1,0.2c-0.6,0.5-1.3,0.9-2,1l0,0
			c0,0,0,0-0.1,0c-0.2-0.1-0.2,0-0.3,0.1l0,0c-0.1,0.1-0.1,0.2,0,0.2v0.1c0,0,0.1,0.1,0.1,0.2l0,0l0,0l0,0c0.6,0.7,0.9,1.5,0.8,2.4
			c0,0,0,0-0.1,0v0.1c0,0.101,0,0.101,0,0.2c0,0,0,0,0,0.101c-0.1,0-0.2,0-0.2,0.1c-0.3,0.3-0.5,0.6-0.7,1l0,0
			c0,0.1,0.1,0.2,0.1,0.2c0,0.1,0,0.1,0,0.1s0,0,0,0.101c0,0,0,0,0.1,0l0,0c0,0,0,0,0.1,0l0,0c0,0,0-0.101,0.1-0.101
			c0,0,0-0.1,0.1-0.2l0,0c1.4-0.6,2.2-1.8,2.6-3.6c0.7,0.1,1.4-0.1,2.1-0.5c1.5-0.8,1.9-2,1.3-3.5c0-0.1,0-0.2,0-0.3
			c-0.1-0.2-0.2-0.4-0.4-0.5c0-0.1,0-0.1,0-0.1c0.1,0,0.2,0,0.3,0.1c0.1,0,0.2,0,0.3,0c0.4-0.2,0.7-0.3,1.1-0.5
			c0.4-0.2,0.8-0.4,1.3-0.6c0.6,0.5,1.5,0.7,2.5,0.5c0.9-0.1,1.7-0.3,2.4-0.6c0.6,1.1,1.5,1.7,2.7,1.8c-0.2,0.3-0.301,0.5-0.4,0.7
			c-0.2,0.8-0.1,1.4,0.3,2c0.7,0.8,1.601,1.1,2.8,0.8C35.2,25.7,35,26.3,35,26.9c-0.1,1,0.3,1.699,1.3,1.899
			c0,0.101,0,0.101,0,0.101c0.101,0,0.101,0,0.2,0c0.5,0.1,0.9-0.101,1.3-0.4c0,0,0,0,0-0.1c0.101,0,0.101,0,0.101,0
			c0-0.2,0-0.2-0.101-0.301c-0.5-0.199-0.8-0.5-1-0.8c0.7-0.2,1.2-0.5,1.7-0.899c0.2-0.301,0.4-0.5,0.6-0.7l0,0
			c0-0.3,0.101-0.5,0.301-0.6V25c0-0.1,0-0.3,0-0.4c-0.101,0-0.101-0.1-0.2-0.1c-0.101,0-0.101,0-0.2,0c-0.1,0.2-0.3,0.3-0.5,0.3
			c-0.4,0.1-0.9,0-1.3-0.1c-0.8-0.2-1.4-0.7-1.8-1.3c0-0.1,0-0.1,0-0.1s0,0-0.101-0.1c0,0,0,0,0.101,0c0-0.1,0-0.1,0-0.2
			c0.1-0.2,0.199-0.3,0.5-0.2c0.399,0,0.699-0.1,0.899-0.3c0-0.1,0-0.1-0.1-0.1c0-0.1,0-0.1,0-0.1c-0.101-0.2-0.2-0.2-0.4-0.1
			c-0.399,0.1-0.899,0.1-1.3,0c-0.1-0.1-0.1-0.1-0.1-0.2v-0.1c0-0.4,0.1-0.7,0.199-1c0.301-0.2,0.5-0.3,0.7-0.4l0.101-0.1
			c0-0.1,0-0.2-0.101-0.3c0,0-0.1,0-0.2,0c-0.699,0.1-1.5,0-2.1-0.5c0,0,0,0-0.1,0c-0.101-0.4-0.101-0.8,0-1.1
			c0-0.1,0.1-0.1,0.1-0.2c0-0.1,0-0.1-0.1-0.2C33.299,18,33.2,18,33.099,18c-0.8,0.2-1.6,0.2-2.5,0.1c-0.399,0-0.8-0.2-1.1-0.5
			c0-0.1,0-0.1,0-0.2c0,0,0-0.1-0.1-0.2c0-0.1,0-0.1,0-0.1c-0.101,0-0.2,0-0.2,0c-0.101,0-0.101,0-0.101,0H29c0,0.1,0,0.1,0,0.2
			c0,0.1-0.1,0.1-0.1,0.1c-0.7,0.6-1.301,0.6-2,0.1h-0.101c-0.1,0.1-0.2,0.1-0.2,0.2v0.1c0,0.1,0,0.1,0,0.1l0,0
			c-0.8,0.6-1.6,0.7-2.5,0.3c0-0.1,0-0.1,0-0.2S24,17.8,24,17.6l0,0c-0.1,0-0.1,0-0.2,0l0,0c-0.1,0.1-0.1,0.1-0.1,0.2
			C22.399,18.7,21,18.9,19.399,18.6z M38.7,25.3c0,0.1,0,0.1,0,0.1l0,0C38.7,25.3,38.7,25.3,38.7,25.3z"/>
		<path style="fill:none;stroke:#000000;" d="M38.7,25.4c0,0,0,0,0-0.1C38.7,25.3,38.7,25.3,38.7,25.4L38.7,25.4z"/>
		<path style="fill:none;stroke:#000000;" d="M15.799,15.2c-0.1,0-0.1,0-0.2,0l0,0c0,0,0,0,0.1,0H15.799z"/>
		<path style="fill:none;stroke:#000000;" d="M43.299,20.9c-0.1-0.1-0.1-0.2-0.1-0.2l0,0c0,0,0,0,0,0.1l0,0c0,0.1,0,0.1,0,0.1
			H43.299z"/>
	</g>
</g>
</svg>
