<?xml version="1.0" encoding="iso-8859-1"?>
<!-- Generator: Adobe Illustrator 12.0.0, SVG Export Plug-In . SVG Version: 6.00 Build 51448)  -->
<!DOCTYPE svg PUBLIC "-//W3C//DTD SVG 1.1//EN" "http://www.w3.org/Graphics/SVG/1.1/DTD/svg11.dtd" [
	<!ENTITY ns_svg "http://www.w3.org/2000/svg">
	<!ENTITY ns_xlink "http://www.w3.org/1999/xlink">
]>
<svg  version="1.1" id="f:11" xmlns="&ns_svg;" xmlns:xlink="&ns_xlink;" width="50" height="50" viewBox="0 0 50 50"
	 style="overflow:visible;enable-background:new 0 0 50 50;" xml:space="preserve">
<rect style="fill:none;" width="50" height="50"/>
<g>
	<g>
		<path style="fill:none;stroke:#000000;stroke-width:0.5;" d="M13.399,15.7c-0.1,0-0.2,0.2-0.3,0.2c0,0.1-0.1,0.2-0.2,0.2
			c0,0.1,0,0.2,0,0.3c0,0,0,0-0.1,0.1c-0.5,0.1-1,0.4-1.5,0.7c0.1,0.2,0,0.2,0,0.4c-0.1,0.3-0.1,0.5,0,0.7c-0.1,0-0.2,0-0.4,0
			c-0.1,0-0.2,0.1-0.4,0.3c0,0-0.1,0.1-0.1,0.2l0,0c0.2-0.1,0.4,0,0.4,0.3h0.1c0,0,0,0,0.1,0c0-0.4,0.2-0.6,0.7-0.6l0,0l-0.1-0.1
			h0.1c0-0.1,0-0.2,0-0.3s0-0.1,0-0.2c0.1,0,0.3-0.2,0.4-0.3c0,0,0,0,0-0.1c0.1,0,0.1,0,0.1,0c0.6-0.1,1-0.4,1.4-0.9
			c0.1-0.1,0.2-0.2,0.2-0.5c0-0.1,0-0.1,0.1-0.2c-0.1,0-0.1-0.1-0.1-0.2C13.6,15.7,13.5,15.7,13.399,15.7z"/>
		<path style="fill:none;stroke:#000000;" d="M13.899,15.9L13.899,15.9c-0.1,0.1-0.1,0.1-0.1,0.2c0,0.3-0.1,0.4-0.2,0.5
			c-0.4,0.5-0.8,0.8-1.4,0.9c0,0,0,0-0.1,0c0,0.1,0,0.1,0,0.1c-0.1,0.1-0.3,0.3-0.4,0.3c0,0.1,0,0.1,0,0.2s0,0.2,0,0.3
			c0,0,0,0,0,0.1l0,0c-0.5,0-0.7,0.2-0.7,0.6c-0.1,0-0.1,0-0.1,0h-0.1c0-0.3-0.2-0.4-0.4-0.3l0,0c-0.1,0-0.1,0.1-0.1,0.1
			c0.1,0.3,0.1,0.5,0.2,0.7c0.2,0.2,0.5,0.2,0.8,0.2l0.1-0.1c0-0.1,0.1-0.2,0.1-0.3c0,0,0-0.1,0-0.3h0.1c0.5,0,0.7-0.3,0.6-0.9
			c0.2,0,0.3-0.1,0.4-0.3c1-0.2,1.6-0.8,1.7-1.8c0,0,0,0,0-0.1s-0.1-0.1-0.2-0.2c0,0,0,0-0.1,0C14,15.9,14,15.9,13.899,15.9
			L13.899,15.9z"/>
		<path style="fill:none;stroke:#000000;" d="M11.5,19.4c0,0,0,0,0.1,0c0-0.1,0-0.1,0-0.2c0,0,0,0,0-0.1l0,0h-0.1
			C11.5,19.3,11.5,19.4,11.5,19.4z"/>
		<path style="fill:none;stroke:#000000;" d="M32.4,11.5c0-0.1-0.101-0.1-0.2-0.1h-0.101c0,0.1,0,0.2,0,0.2c0,0.3,0,0.5,0.4,0.5
			c0,0,0,0,0,0.1c0.1,0,0.1,0,0.1,0l0,0v0.1l0,0c0,0.1,0,0.1,0,0.1c0.301,0,0.5,0.1,0.7,0.1s0.3-0.1,0.5-0.1c0.101,0,0.3,0,0.4,0
			c0.1,0,0.1,0,0.1,0c0.101,0.1,0.3,0.2,0.5,0.3c0.101,0,0.101,0.1,0.2,0.1l0.1,0.1c0.101,0,0.2,0,0.301,0
			c0.1,0.1,0.3,0.1,0.399,0.1c0.5,0,0.7-0.3,0.8-0.6c0-0.1,0-0.1,0-0.1c-0.1-0.1-0.1-0.1-0.1-0.1c-0.1,0-0.2,0-0.4,0l0,0
			c0,0.1-0.1,0.2-0.199,0.2c0,0-0.101,0-0.301,0c-0.1,0-0.3,0-0.6-0.1c-0.2-0.2-0.4-0.4-0.6-0.5c-0.101-0.1-0.2-0.1-0.301-0.1
			c-0.3,0.2-0.6,0.2-1,0.2c-0.1-0.2-0.3-0.3-0.5-0.2c0,0,0,0,0-0.1c-0.1,0-0.1,0-0.1,0s0,0,0-0.1C32.4,11.5,32.4,11.5,32.4,11.5z"/>
		<path style="fill:none;stroke:#000000;stroke-width:0.5;" d="M32.5,11.6c0,0,0,0,0.1,0c0,0.1,0,0.1,0,0.1c0.2-0.1,0.4,0,0.5,0.2
			c0.4,0,0.7,0,1-0.2c0.101,0,0.2,0,0.301,0.1c0.199,0.1,0.399,0.3,0.6,0.5c0.3,0.1,0.5,0.1,0.6,0.1c0.2,0,0.301,0,0.301,0
			c0.1,0,0.199-0.1,0.199-0.2l0,0C36,11.9,35.7,11.8,35.4,11.7c-0.301,0-0.601-0.2-0.9-0.4c-0.4,0-0.9,0-1.2,0l0,0
			c-0.3,0.1-0.6,0.1-0.899,0.2c0,0,0,0,0.1,0C32.5,11.6,32.5,11.6,32.5,11.6z"/>
		<path style="fill:none;stroke:#000000;" d="M32.4,12.1h0.1c-0.4,0-0.4-0.2-0.4-0.5c0,0-0.1,0-0.1,0.1c0,0-0.1,0-0.1,0.2
			c0,0,0.1,0,0.1,0.1C32.099,12,32.299,12.1,32.4,12.1z"/>
		<path style="fill:none;stroke:#000000;" d="M32.5,12.2c0,0,0,0,0.1,0c0,0,0,0,0,0.1v-0.1l0,0C32.599,12.2,32.599,12.2,32.5,12.2z"
			/>
		<path style="fill:none;stroke:#000000;" d="M33.799,12.4c-0.2,0-0.3,0.1-0.5,0.1s-0.399-0.1-0.7-0.1c0.4,0.2,0.7,0.2,1,0.1
			C33.7,12.5,33.799,12.5,33.799,12.4z"/>
		<path style="fill:none;stroke:#000000;" d="M34.2,12.4c0,0,0,0,0.1,0c0.101,0.1,0.2,0.2,0.3,0.3c0.101,0,0.2,0,0.4,0.1
			c-0.1,0-0.1-0.1-0.2-0.1c-0.2-0.1-0.399-0.2-0.5-0.3C34.299,12.4,34.299,12.4,34.2,12.4z"/>
		<path style="fill:none;stroke:#000000;" d="M35.099,12.9L35.099,12.9c0.101,0,0.2,0.1,0.2,0.1c0.2,0,0.3,0,0.4,0
			c0.1,0,0.1,0,0.1,0l0,0c-0.1,0-0.3,0-0.399-0.1C35.299,12.9,35.2,12.9,35.099,12.9z"/>
		<path style="fill:none;stroke:#000000;" d="M46.099,35.9c0-0.101,0-0.101,0-0.101l0,0c0,0-0.1,0-0.199,0.101
			C45.799,36,45.599,36.1,45.5,36.3c0,0.101,0,0.2,0,0.3c0,0,0,0.101-0.1,0.101c-0.801,1.1-1.4,2.2-1.9,3.399
			c-0.5,0.301-1,0.601-1.4,1c0,0.101,0,0.101,0.101,0.2V41.4l0.1,0.1c0.101,0,0.2,0.1,0.3,0l0,0c-0.1,0-0.199-0.1-0.199-0.1V41.3
			l0,0c-0.101-0.1-0.101-0.1-0.101-0.1s0-0.101-0.1-0.101c0.1-0.1,0.1-0.1,0.1-0.1c0.101,0,0.101,0,0.101,0
			c0.199,0.2,0.3,0.2,0.5,0.3H43l0,0l0,0c0,0,0,0,0.1,0l0,0c0.2-0.1,0.301-0.3,0.5-0.399L43.7,40.8c0.3,0.101,0.6,0,0.899-0.1
			c0.101-0.2,0.2-0.4,0.2-0.7c0-0.1,0-0.1,0-0.2c0.2-0.1,0.4-0.2,0.7-0.1c0.1-0.2,0.2-0.3,0.3-0.4l0.101-0.1c0-0.2,0-0.4,0-0.601
			c0-0.1,0-0.1,0-0.199c0-0.101,0-0.101,0.1-0.101l0,0c0.1-0.1,0.2-0.2,0.3-0.3c0,0,0-0.1,0.101-0.1l0,0c0-0.101,0-0.101,0-0.101
			v-0.1l0,0c0-0.101,0-0.101,0-0.101v-0.1l0,0c0-0.1,0-0.1,0-0.1L46.299,37.3c0-0.1,0-0.1,0-0.1L46.2,37.1c0-0.1,0-0.1,0-0.199
			c0.1-0.101,0.2-0.301,0.3-0.4c0,0,0,0,0.1,0c-0.1-0.2-0.3-0.4-0.399-0.5C46.099,36,46.099,35.9,46.099,35.9z"/>
		<path style="fill:none;stroke:#000000;stroke-width:0.5;" d="M46.099,35.8c0,0,0,0,0,0.101c0,0,0,0.1,0.101,0.1
			c0.1,0.1,0.3,0.3,0.399,0.5c-0.1,0-0.1,0-0.1,0c-0.1,0.1-0.2,0.3-0.3,0.4c0,0.1,0,0.1,0,0.199l0.1,0.101c0,0,0,0,0,0.1L46.4,37.4
			c0,0,0,0,0,0.1l0,0v0.1c0,0,0,0,0,0.101l0,0v0.1c0,0,0,0,0,0.101l0,0c-0.101,0-0.101,0.1-0.101,0.1c-0.1,0.1-0.2,0.2-0.3,0.3l0,0
			c-0.1,0-0.1,0-0.1,0.101c0,0.1,0,0.1,0,0.199c0,0.2,0,0.4,0,0.601l-0.101,0.1c-0.1,0.101-0.2,0.2-0.3,0.4
			c-0.3-0.101-0.5,0-0.7,0.1c0,0.101,0,0.101,0,0.2c0,0.3-0.1,0.5-0.2,0.7c-0.3,0.1-0.6,0.2-0.899,0.1L43.599,40.9
			c-0.199,0.1-0.3,0.3-0.5,0.399l0,0c-0.1,0-0.1,0-0.1,0l0,0h-0.1c-0.2-0.1-0.301-0.1-0.5-0.3c0,0,0,0-0.101,0c0,0,0,0-0.1,0.1
			c0.1,0,0.1,0.101,0.1,0.101s0,0,0.101,0.1l0,0V41.4c0,0,0.1,0.1,0.199,0.1l0,0c0.301,0.3,0.601,0.4,0.9,0.1v-0.1
			c0.1,0,0.1,0,0.1,0c0.101,0,0.2-0.1,0.301-0.1c0.199-0.101,0.5-0.2,0.699-0.2c0-0.101,0.101-0.2,0.101-0.2
			c0.1-0.1,0.3-0.2,0.399-0.2c0-0.1,0-0.1,0-0.2C45.2,40.5,45.2,40.4,45.2,40.3c0-0.1,0-0.1,0-0.1h0.1c0.101,0,0.3-0.101,0.4-0.101
			c0.1-0.1,0.1-0.1,0.2-0.199c0.399-0.301,0.6-0.7,0.5-1.2c0-0.101,0.1-0.2,0.1-0.3c0.4-0.4,0.5-0.9,0.2-1.5c0,0,0,0,0.1,0
			c0-0.101,0.101-0.2,0.101-0.2C47,36.6,47,36.5,47,36.5c0-0.1,0-0.2-0.1-0.4l0,0c-0.2-0.199-0.4-0.3-0.601-0.399c0,0,0,0-0.1,0
			C46.2,35.7,46.2,35.7,46.099,35.8z"/>
		<path style="fill:none;stroke:#000000;" d="M45.2,40.3c0-0.1,0.1-0.1,0.1-0.1h-0.1C45.2,40.2,45.2,40.2,45.2,40.3z"/>
		<path style="fill:none;stroke:#000000;" d="M44.7,41c0,0-0.101,0.1-0.101,0.2l0,0C44.7,41.1,44.7,41,44.7,41z"/>
		<path style="fill:none;stroke:#000000;" d="M43.599,41.5c0,0,0,0-0.1,0c0.1,0,0.2,0,0.2,0s0,0,0.1,0c0,0,0.101,0,0.101-0.1
			C43.799,41.4,43.7,41.5,43.599,41.5z"/>
		<path style="fill:none;stroke:#000000;stroke-width:0.5;" d="M17.799,44.3L17.799,44.3c-0.1,0.101-0.1,0.2-0.1,0.3
			c0,0.101,0,0.101,0,0.2c0.1,0,0.1,0,0.1,0c0,0.101,0.1,0.101,0.1,0.101c0,0.1,0,0.1,0,0.1c0,0.1,0,0.1,0,0.1s0,0,0,0.101l0,0l0,0
			v0.1l0,0c0,0,0,0,0,0.101c0,0,0,0.1,0.1,0.1l0.1,0.1c0.3,0.101,0.6,0,0.8-0.1c0.1,0,0.1,0,0.2,0s0.2,0,0.3,0
			c0.4,0.1,0.8,0,1.2-0.4c0-0.199,0-0.3-0.1-0.5c0,0,0,0-0.1,0l-0.1,0.101c-0.3,0.2-0.6,0.3-0.9,0.3l0,0c0-0.1-0.1-0.1-0.1-0.2
			c0,0-0.1-0.1-0.2-0.1c0,0-0.1,0.1-0.2,0.1V44.9c0,0,0,0,0,0.1c-0.2,0-0.3,0.1-0.5,0.1V45l0,0c0-0.1,0-0.1,0-0.1
			c0-0.101,0-0.101-0.1-0.101c0-0.2-0.1-0.3-0.2-0.399V44.3c0-0.1,0-0.1,0-0.1C18,44.1,18,44.1,18,44.1h-0.1l0,0
			c-0.1,0-0.1,0-0.1,0.101C17.799,44.2,17.799,44.2,17.799,44.3z"/>
		<path style="fill:none;stroke:#000000;" d="M17.799,44.3c0,0,0,0.101-0.1,0.101v0.1v0.1C17.7,44.5,17.7,44.4,17.799,44.3z"/>
		<path style="fill:none;stroke:#000000;" d="M18.1,44.1c0,0,0,0-0.1,0c0,0,0,0,0.1,0.101c0,0,0,0,0,0.1V44.4
			c0.1,0.1,0.2,0.199,0.2,0.399c0.1,0,0.1,0,0.1,0.101c0,0,0,0,0,0.1l0,0v0.1c0.2,0,0.3-0.1,0.5-0.1c0-0.1,0-0.1,0-0.1V44.8
			c0.1,0,0.2-0.1,0.2-0.1c0.1,0,0.2,0.1,0.2,0.1c0,0.101,0.1,0.101,0.1,0.2l0,0c0.3,0,0.6-0.1,0.9-0.3l0,0c-0.1-0.2-0.2-0.3-0.3-0.4
			c-0.1,0-0.1,0-0.1-0.1c-0.1,0-0.1,0-0.2-0.101c-0.2,0-0.5,0-0.8,0c-0.1,0-0.3,0-0.5,0C18.399,44.1,18.299,44.1,18.1,44.1z"/>
		<path style="fill:none;stroke:#000000;" d="M19.399,45.5c-0.1,0-0.2,0-0.3,0l0,0C19.2,45.5,19.299,45.5,19.399,45.5z"/>
		<path style="fill:none;stroke:#000000;" d="M17.899,45.3v-0.1l0,0l0,0C17.899,45.3,17.899,45.3,17.899,45.3z"/>
	</g>
</g>
</svg>
