<?xml version="1.0" encoding="iso-8859-1"?>
<!-- Generator: Adobe Illustrator 12.0.0, SVG Export Plug-In . SVG Version: 6.00 Build 51448)  -->
<!DOCTYPE svg PUBLIC "-//W3C//DTD SVG 1.1//EN" "http://www.w3.org/Graphics/SVG/1.1/DTD/svg11.dtd" [
	<!ENTITY ns_svg "http://www.w3.org/2000/svg">
	<!ENTITY ns_xlink "http://www.w3.org/1999/xlink">
]>
<svg  version="1.1" id="f:4" xmlns="&ns_svg;" xmlns:xlink="&ns_xlink;" width="50" height="50" viewBox="0 0 50 50"
	 style="overflow:visible;enable-background:new 0 0 50 50;" xml:space="preserve">
<rect style="fill:none;" width="50" height="50"/>
<g>
	<g>
		<path style="fill:none;stroke:#000000;stroke-width:0.5;" d="M13.7,19.1c-1.1,1.2-1.6,2.5-1.5,4.1c-0.7,0.4-1.4,0.9-2,1.5
			c-0.1,0-0.1,0.1-0.1,0.2c-0.1,1.8,0,3.6,0.2,5.4c0.1,1.101,0.8,1.601,2.1,1.601c-0.4,0.699-0.7,1.3-0.9,2
			c-0.5,1.699-0.4,3.3,0.4,4.8c0.3,0.6,0.7,1,1.2,1.399c0.9,0.601,2,0.801,3.1,0.601c0,0.1,0,0.3,0.1,0.5c1.1,2.399,3.1,3.5,5.8,3.2
			h0.1l0.1-0.101c0.1,0,0.1-0.1,0.2-0.1h0.1c0.2,0.399,0.3,0.7,0.6,1C23.6,45.6,24,46,24.6,46.1c2.1,0.601,4.2,0.301,6.1-0.6
			c1.3-0.7,2.3-1.7,2.899-2.9c0.801,0.301,1.801,0.2,2.7,0c1.2-0.3,2.101-0.899,2.8-1.899c0-0.101,0.101-0.101,0.101-0.2
			c0.1,0.1,0.2,0.1,0.3,0.1c1.2-0.1,2.3-0.399,3.3-1C44.599,38.7,46,37.4,47,35.7c0.2-0.3,0.3-0.7,0.2-1.101
			c-0.101-1.399-0.9-2.5-2.3-3.3c1.399-1.6,2-3.5,1.6-5.6c-0.1-0.7-0.4-1.3-0.8-1.9c-0.101-0.1-0.3-0.2-0.4-0.4l0,0
			c-0.1-0.1-0.1-0.2-0.1-0.2c0-0.1,0-0.1,0-0.1c-0.101-0.1-0.2-0.2-0.4-0.2c0,0,0,0-0.1,0c0,0,0,0,0,0.1l0,0l0,0h-0.101v0.1l0,0
			c0.101,0.2,0.2,0.4,0.2,0.6c0,0.2,0,0.4,0,0.6c0,0.2,0,0.3-0.1,0.4c-0.101,0.1-0.101,0.3-0.101,0.4c0,0,0,0.1-0.1,0.1
			c0,0,0,0,0,0.1c0,0,0,0-0.1,0C44,26.7,43,27.6,41.599,28c-0.1,0.1-0.3,0.1-0.399,0.1c-0.601-0.1-1.2-0.1-1.7,0
			c0,0.101,0,0.101,0,0.101s0,0,0,0.1l0,0c0.4,0.2,0.7,0.5,1,0.8c0.2,0.2,0.2,0.4,0.2,0.601c0,0.1,0,0.3,0,0.399
			c-0.101,0.2-0.3,0.4-0.5,0.5c-0.2,0.101-0.3,0.2-0.4,0.2c-0.2,0.101-0.3,0.101-0.5,0.3c-0.2,0-0.5,0-0.7-0.1l0,0
			c-0.1-0.2-0.199-0.3-0.399-0.3c-0.101,0-0.101,0-0.101-0.101c-0.1,0-0.199,0-0.199,0c-0.101,0-0.101,0-0.101,0.101h-0.1
			c0,0,0,0.1-0.101,0.1V30.9C37.7,30.9,37.7,31,37.7,31c0,0.1,0,0.1,0,0.1c0.399,0.4,0.899,0.801,1.2,1.4c0.6,1.1,0.399,2-0.5,2.8
			c-0.4,0.4-0.9,0.5-1.5,0.4c-0.301,0-0.4-0.101-0.5-0.3C36.099,35.1,35.9,35.1,35.599,35.3V35.4c0.2,0.399,0,0.6-0.199,0.899
			c-1,1-2.301,1.601-3.601,1.7c-0.3-0.2-0.5-0.3-0.7-0.5C31,37.4,30.9,37.4,30.9,37.3c-0.101-0.2-0.2-0.3-0.4-0.3l-0.1,0.1l0,0
			C30.299,37.2,30.299,37.2,30.299,37.2c0,0.1,0,0.1,0,0.2c0,0,0,0,0.101,0.1l0,0c-0.2,1-0.7,1.7-1.601,2.1
			C28.4,39.9,28,39.9,27.599,39.7c-0.8-0.3-1.1-0.8-0.899-1.601c0-0.1,0-0.1-0.101-0.1v-0.1c-0.1,0-0.199,0-0.199,0
			c-0.301,0.399-0.601,0.6-1,0.699c-0.8,0.2-1.6,0.301-2.4,0.301c-0.2,0-0.4-0.101-0.6-0.2c-0.5-0.5-0.7-1.101-0.8-1.8
			c0-0.7,0.1-1.2,0.2-1.801c0-0.1-0.1-0.199-0.1-0.199c0-0.101,0-0.101-0.1-0.101c0,0,0,0-0.1,0h-0.1c-0.2,0.101-0.3,0.2-0.5,0.2
			c-0.3,0.3-0.6,0.4-1,0.4c-0.2-0.2-0.3-0.301-0.4-0.601c0-0.5-0.1-0.6-0.5-0.2c-0.3,0.301-0.7,0.5-1.1,0.601
			c-0.6,0-1.2,0.1-1.8,0.1s-1-0.1-1.4-0.5c-0.2-0.1-0.3-0.3-0.3-0.5c-0.1-1.2,0.3-2.5,1.3-3.5c0.7-0.8,1.7-1.3,2.9-1.5v-0.1V29.1
			c0,0,0,0,0-0.1c-0.3-0.2-0.7-0.5-1.1-0.8c-0.1-0.101-0.2-0.2-0.2-0.4c-0.1-0.7,0.3-1.399,0.9-1.8c0.2-0.2,0.5-0.3,0.8-0.4
			c0.5-0.2,0.8-0.5,0.9-0.9c-0.1-0.1-0.2-0.1-0.4-0.1c-0.3,0.1-0.6,0.1-0.9,0.1c-0.8-0.2-1.2-0.6-1.2-1.4c0-0.4,0.2-0.8,0.4-1.1
			c0,0,0,0,0-0.1l0,0V22c0,0,0,0,0-0.1c0,0,0,0,0.1,0c0-0.4,0.2-0.8,0.5-1.1c0.7-0.7,1.6-1,2.7-0.9l0,0v-0.1c0,0,0,0,0-0.1l0,0v-0.1
			c-0.1,0-0.1,0-0.1-0.1c-0.7-1.4-1.9-2.1-3.6-2.1C15.899,17.5,14.7,18.1,13.7,19.1z M40.7,28.7L40.7,28.7L40.7,28.7L40.7,28.7z
			 M34,41.8L34,41.8L34,41.8L34,41.8z M32.299,42.1L32.299,42.1L32.2,42.2L32.299,42.1z"/>
		<path style="fill:none;stroke:#000000;" d="M40.7,28.7L40.7,28.7L40.7,28.7L40.7,28.7z"/>
		<path style="fill:none;stroke:#000000;" d="M21.1,19.6v0.1l0,0c0,0.1,0,0.1,0,0.1v0.1l0,0c-1.1-0.1-2,0.2-2.7,0.9
			c-0.3,0.3-0.5,0.7-0.5,1.1c-0.1,0-0.1,0-0.1,0c0,0.1,0,0.1,0,0.1v0.1l0,0c0,0.1,0,0.1,0,0.1c-0.2,0.3-0.4,0.7-0.4,1.1
			c0,0.8,0.4,1.2,1.2,1.4c0.3,0,0.6,0,0.9-0.1c0.2,0,0.3,0,0.4,0.1c-0.1,0.4-0.4,0.7-0.9,0.9c-0.3,0.1-0.6,0.2-0.8,0.4
			c-0.6,0.4-1,1.1-0.9,1.8c0,0.2,0.1,0.3,0.2,0.4c0.4,0.3,0.8,0.6,1.1,0.8c0,0.1,0,0.1,0,0.1V29.2v0.1c-1.2,0.2-2.2,0.7-2.9,1.5
			c-1,1-1.4,2.3-1.3,3.5c0,0.2,0.1,0.4,0.3,0.5c0.4,0.4,0.8,0.5,1.4,0.5s1.2-0.1,1.8-0.1c0.4-0.101,0.8-0.3,1.1-0.601
			c0.4-0.399,0.5-0.3,0.5,0.2c0.1,0.3,0.2,0.4,0.4,0.601c0.4,0,0.7-0.101,1-0.4c0.2,0,0.3-0.1,0.5-0.2h0.1c0.1,0,0.1,0,0.1,0
			c0.1,0,0.1,0,0.1,0.101c0,0,0.1,0.1,0.1,0.199C21.7,35.7,21.6,36.2,21.6,36.9c0.1,0.699,0.3,1.3,0.8,1.8c0.2,0.1,0.4,0.2,0.6,0.2
			c0.8,0,1.6-0.101,2.4-0.301c0.4-0.1,0.7-0.3,1-0.699c0,0,0.1,0,0.199,0V38c0.101,0,0.101,0,0.101,0.1
			c-0.2,0.801,0.1,1.301,0.899,1.601c0.4,0.2,0.801,0.2,1.2-0.101c0.9-0.399,1.4-1.1,1.601-2.1l0,0c-0.101-0.1-0.101-0.1-0.101-0.1
			c0-0.101,0-0.101,0-0.2c0,0,0,0,0.101-0.101l0,0l0.1-0.1c0.2,0,0.3,0.1,0.4,0.3c0,0.101,0.1,0.101,0.199,0.2
			c0.2,0.2,0.4,0.3,0.7,0.5c1.3-0.1,2.601-0.7,3.601-1.7c0.199-0.3,0.399-0.5,0.199-0.899V35.3c0.301-0.2,0.5-0.2,0.801,0.101
			c0.1,0.199,0.199,0.3,0.5,0.3c0.6,0.1,1.1,0,1.5-0.4c0.899-0.8,1.1-1.7,0.5-2.8c-0.301-0.6-0.801-1-1.2-1.4c0,0,0,0,0-0.1
			c0,0,0-0.1-0.101-0.1V30.8c0.101,0,0.101-0.1,0.101-0.1h0.1c0-0.101,0-0.101,0.101-0.101c0,0,0.1,0,0.199,0
			c0,0.101,0,0.101,0.101,0.101c0.2,0,0.3,0.1,0.399,0.3l0,0c0.2,0.1,0.5,0.1,0.7,0.1c0.2-0.199,0.3-0.199,0.5-0.3
			c0.101,0,0.2-0.1,0.4-0.2c0.2-0.1,0.399-0.3,0.5-0.5c0-0.1,0-0.3,0-0.399c0-0.2,0-0.4-0.2-0.601c-0.3-0.3-0.6-0.6-1-0.8l0,0
			c0-0.1,0-0.1,0-0.1s0,0,0-0.101c0.5-0.1,1.1-0.1,1.7,0c0.1,0,0.3,0,0.399-0.1c1.4-0.4,2.4-1.3,2.801-2.7c0.1,0,0.1,0,0.1,0
			c0-0.1,0-0.1,0-0.1c0.1,0,0.1-0.1,0.1-0.1c0-0.1,0-0.3,0.101-0.4c0.1-0.1,0.1-0.2,0.1-0.4c0-0.2,0-0.4,0-0.6
			c0-0.2-0.1-0.4-0.2-0.6l0,0V23H44.7l0,0l0,0c0-0.1,0-0.1,0-0.1l0,0c-0.4-0.3-0.8-0.5-1.2-0.7c0.5-2.1,0.1-3.9-1.1-5.7
			c-0.4-0.5-0.9-1-1.5-1.3c-0.801-0.4-1.601-0.5-2.4-0.3c-0.9,0.1-1.7,0.3-2.4,0.5C36,15.3,35.9,15.2,35.7,15
			c-0.4-0.4-0.7-0.8-1.101-1.2c-0.6-0.9-1.399-1.6-2.3-1.9c-1.1,0.5-2.1,1.1-3.1,1.8l0.1,0.2c0.101-0.2,0.3-0.3,0.5-0.4
			c0.101-0.1,0.2-0.1,0.4-0.2c0,0,0,0.1,0.1,0.1l0,0c-0.2,0.2-0.5,0.4-0.7,0.6c-0.6,0.6-1,1.4-1.199,2.2c0,0.1-0.101,0.2-0.2,0.3
			c0,0.1,0,0.2,0.1,0.2c0,0.1,0,0.1,0,0.2c0.101,0,0.2,0,0.3,0.1c0.801,0.2,1.5,0.1,2.2-0.2c0,0,0.101,0,0.101,0.1
			c0.1,0.1,0,0.3,0,0.5c-0.101,0.1-0.101,0.3-0.101,0.4c0,0.1,0.101,0.1,0.2,0.1c0.5,0.1,1,0.1,1.6,0.2c0-0.1,0.101-0.2,0.2-0.2
			c0.101-0.1,0.101-0.1,0.101-0.2c0.1,0.1,0.199,0.2,0.199,0.2c0,0.1,0,0.3-0.1,0.6c-0.1,0.1-0.2,0.1-0.4,0.2c0,0.5,0,0.9,0.2,1.3
			c0.101,0.2,0.2,0.4,0.4,0.4c0.3,0.1,0.6,0.1,0.8,0.3c0.1,0,0.3,0,0.4,0.2l0,0c0,0.1-0.101,0.2-0.101,0.2c0.3,0.1,0.5,0.3,0.7,0.6
			c0,0.1,0,0.1,0,0.1c0,0.1,0,0.1,0,0.1c0,0.1,0,0.1,0,0.2h-0.1v0.1c-0.101,0-0.101,0-0.2,0c-0.101,0-0.101-0.1-0.2-0.1
			c-0.1-0.1-0.2-0.2-0.3-0.3c-1.101-0.2-1.8,0.2-2.5,1l0,0c-0.101,0-0.2,0-0.2,0c-0.1,0-0.1-0.1-0.1-0.1s0,0,0-0.1h-0.101
			c-0.3,0.3-0.6,0.5-0.899,0.7c-0.2,0.4-0.4,0.9-0.5,1.3c0,0,0,0.1,0,0.2c-0.101-0.2-0.301-0.3-0.5-0.4c-0.101,0-0.301,0.1-0.5,0.2
			l0,0c-0.101,0-0.2,0-0.2,0.1h-0.101l0,0c0,0.1,0,0.1-0.1,0.1l0,0l0,0l-0.1,0.1c-0.101,0.2-0.2,0.3-0.301,0.5L28,25.5v0.1v0.1
			c0,0.1-0.1,0.1-0.1,0.2l0,0c0,0.1,0,0.1,0,0.1s0,0,0,0.1c-0.101,0-0.101,0-0.101,0c0,0.101,0,0.101,0,0.101c0,0.1,0,0.3-0.1,0.399
			V26.7c0.1,0.3,0.2,0.6,0.3,0.899c0,0.101,0,0.101,0,0.101c0.2,0.399,0.4,0.7,0.7,1c0.3,0,0.5,0.1,0.7,0.3c0,0,0,0,0,0.1
			c-0.101,0-0.101,0-0.101,0.101C27.9,29.4,26.7,29,25.7,28.1c-0.2-0.3-0.5-0.5-0.6-0.8c-0.3-0.899-0.4-1.8-0.3-2.8
			c0-0.1,0-0.1,0-0.2c0.1-0.1,0.2-0.2,0.3-0.2c0-0.3,0-0.6-0.1-0.8c0.2-0.5,0.2-0.9,0.1-1.3C24.5,20.1,23.2,19.2,21.1,19.6z
			 M36.099,26.3L36.2,26.4v0.1c-0.101,0-0.101,0.1-0.101,0.1s0,0,0,0.101C36,26.7,35.9,26.6,35.9,26.6c-0.101,0-0.101,0-0.2-0.1
			c-0.101-0.1-0.3-0.3-0.601-0.4c0,0,0-0.1-0.1-0.1c-1.2-0.2-2.2,0.2-3.1,1c-0.101-0.1-0.101-0.1-0.2-0.1
			c0.3-0.7,0.899-1.101,1.7-1.3c0.199,0,0.5,0,0.699-0.1C35,25.4,35.599,25.7,36.099,26.3z M31.4,26.4c0.1,0.1,0.199,0.3,0.3,0.5
			c0.1,0.399,0.2,0.8,0.2,1.199c0,0.101-0.101,0.301-0.101,0.5c-0.1,0-0.2,0.101-0.3,0.101L31.4,28.6c0-1.3-0.4-2.3-1.301-3.2
			c0-0.1,0-0.2,0.101-0.2c0.3,0.4,0.6,0.7,1,1C31.299,26.3,31.4,26.3,31.4,26.4z"/>
		<path style="fill:none;stroke:#000000;" d="M36.2,26.4L36.099,26.3c-0.5-0.6-1.1-0.9-2-0.8c-0.199,0.1-0.5,0.1-0.699,0.1
			c-0.801,0.2-1.4,0.6-1.7,1.3c0.1,0,0.1,0,0.2,0.1c0.899-0.8,1.899-1.2,3.1-1c0.1,0,0.1,0.1,0.1,0.1
			c0.301,0.101,0.5,0.301,0.601,0.4c0.1,0.1,0.1,0.1,0.2,0.1c0,0,0.1,0.101,0.199,0.101c0-0.101,0-0.101,0-0.101s0-0.1,0.101-0.1
			V26.4z"/>
		<path style="fill:none;stroke:#000000;" d="M31.7,26.9c-0.101-0.2-0.2-0.4-0.3-0.5c0-0.101-0.101-0.101-0.2-0.2
			c-0.4-0.3-0.7-0.6-1-1c-0.101,0-0.101,0.1-0.101,0.2c0.9,0.9,1.301,1.9,1.301,3.2l0.1,0.101c0.1,0,0.2-0.101,0.3-0.101
			c0-0.199,0.101-0.399,0.101-0.5C31.9,27.7,31.799,27.3,31.7,26.9z"/>
		<path style="fill:none;stroke:#000000;" d="M30.299,13.4L30.299,13.4c-0.1,0-0.1-0.1-0.1-0.1c-0.2,0.1-0.3,0.1-0.4,0.2
			c-0.2,0.1-0.399,0.2-0.5,0.4l-0.1-0.2c-0.2,0.2-0.5,0.5-0.7,0.7c-0.6-0.3-1.2-0.4-1.8-0.4c-0.101,0-0.3,0.1-0.4,0.2l0,0h-0.1
			c-0.7,0.2-1.3,0.5-1.8,1.2c-0.1,0.1-0.1,0.2-0.1,0.4c-0.1,0.3,0,0.7,0,1.1c0.1,0.1,0.2,0.2,0.3,0.2c0.7,0.5,1.3,0.8,2.1,0.8
			c0,0,0,0.1,0,0.2c-0.101,1.1,0.3,1.9,1.2,2.4c0.8,0.2,1.5,0.1,2.1-0.2c0.1,1,0.6,1.7,1.3,2.3H31.4c-0.101,0-0.101,0-0.101,0
			c0.4-0.8,1.101-1.3,2.101-1.4c0.1,0,0.1,0,0.199-0.1l0,0c0.301,0.1,0.5,0.1,0.7,0c0,0,0.101-0.1,0.101-0.2l0,0
			c-0.101-0.2-0.301-0.2-0.4-0.2c-0.2-0.2-0.5-0.2-0.8-0.3c-0.2,0-0.3-0.2-0.4-0.4c-0.2-0.4-0.2-0.8-0.2-1.3
			c0.2-0.1,0.301-0.1,0.4-0.2c0.1-0.3,0.1-0.5,0.1-0.6c0,0-0.1-0.1-0.199-0.2c0,0.1,0,0.1-0.101,0.2c-0.1,0-0.2,0.1-0.2,0.2
			C32,18,31.5,18,31,17.9c-0.1,0-0.2,0-0.2-0.1c0-0.1,0-0.3,0.101-0.4c0-0.2,0.1-0.4,0-0.5c0-0.1-0.101-0.1-0.101-0.1
			c-0.7,0.3-1.399,0.4-2.2,0.2c-0.1-0.1-0.199-0.1-0.3-0.1c0-0.1,0-0.1,0-0.2c-0.1,0-0.1-0.1-0.1-0.2c0.1-0.1,0.2-0.2,0.2-0.3
			c0.199-0.8,0.6-1.6,1.199-2.2C29.799,13.8,30.099,13.6,30.299,13.4z"/>
		<path style="fill:none;stroke:#000000;" d="M25.1,24.1c-0.1,0-0.2,0.1-0.3,0.2c0,0.1,0,0.1,0,0.2c-0.1,1,0,1.9,0.3,2.8
			c0.1,0.3,0.4,0.5,0.6,0.8c1,0.9,2.2,1.301,3.6,1.101c0-0.101,0-0.101,0.101-0.101c0-0.1,0-0.1,0-0.1c-0.2-0.2-0.4-0.3-0.7-0.3
			c-0.3-0.3-0.5-0.601-0.7-1c0,0,0,0,0-0.101c-0.1-0.3-0.2-0.6-0.3-0.899V26.6c0.1-0.1,0.1-0.3,0.1-0.399c0,0,0,0,0-0.101
			c0,0,0,0,0.101,0c0-0.1,0-0.1,0-0.1s0,0,0-0.1l0,0c0-0.1,0.1-0.1,0.1-0.2v-0.1v-0.1l0.1-0.1c0.101-0.2,0.2-0.3,0.301-0.5l0.1-0.1
			l0,0l0,0c0.1,0,0.1,0,0.1-0.1l0,0H28.7c0-0.1,0.1-0.1,0.2-0.1l0,0c0.199-0.1,0.399-0.2,0.5-0.2c0.1,0,0.1-0.1,0.1-0.1l0,0
			c0-0.1-0.1-0.1-0.1-0.1s0,0-0.101,0l0,0c-0.1,0-0.2-0.1-0.3-0.1c-0.6-0.5-1.3-0.6-2-0.4c-0.7,0.1-1.2,0.3-1.7,0.5
			c0-0.1,0-0.1,0-0.1C25.2,24.1,25.2,24.1,25.1,24.1L25.1,24.1z"/>
		<path style="fill:none;stroke:#000000;" d="M33.599,21.1L33.599,21.1c-0.1,0.1-0.1,0.1-0.199,0.1c-1,0.1-1.7,0.6-2.101,1.4
			c0,0,0,0,0.101,0c0,0.1,0,0.1,0,0.1s0,0.1,0.1,0.1c0,0,0.1,0,0.2,0l0,0c0.7-0.8,1.399-1.2,2.5-1c0.1,0.1,0.2,0.2,0.3,0.3
			c0.1,0,0.1,0.1,0.2,0.1c0.1,0,0.1,0,0.2,0v-0.1H35c0-0.1,0-0.1,0-0.2c0,0,0,0,0-0.1c0,0,0,0,0-0.1c-0.2-0.3-0.4-0.5-0.7-0.6
			C34.099,21.2,33.9,21.2,33.599,21.1z"/>
	</g>
</g>
</svg>
