<?xml version="1.0" encoding="iso-8859-1"?>
<!-- Generator: Adobe Illustrator 12.0.0, SVG Export Plug-In . SVG Version: 6.00 Build 51448)  -->
<!DOCTYPE svg PUBLIC "-//W3C//DTD SVG 1.1//EN" "http://www.w3.org/Graphics/SVG/1.1/DTD/svg11.dtd" [
	<!ENTITY ns_svg "http://www.w3.org/2000/svg">
	<!ENTITY ns_xlink "http://www.w3.org/1999/xlink">
]>
<svg  version="1.1" id="f:10" xmlns="&ns_svg;" xmlns:xlink="&ns_xlink;" width="50" height="50" viewBox="0 0 50 50"
	 style="overflow:visible;enable-background:new 0 0 50 50;" xml:space="preserve">
<rect style="fill:none;" width="50" height="50"/>
<g>
	<g>
		<path style="fill:none;stroke:#000000;" d="M16.6,14.6c0,0,0,0-0.1,0s-0.1,0-0.2,0c-0.2,0.3-0.5,0.5-0.8,0.6
			c-0.1,0.2-0.2,0.2-0.3,0.3c-0.4,0.4-0.9,0.7-1.4,0.7c0,0-0.1,0-0.1,0.1v0.1c0,0-0.1,0.1-0.1,0.2c-0.1,0.1-0.1,0.3-0.1,0.5
			c-0.1,0-0.1,0-0.1,0c-0.2,0.2-0.3,0.3-0.5,0.5h-0.1c-0.1,0-0.2,0-0.3,0s-0.1,0.1-0.1,0.1l0,0c-0.1,0.2-0.1,0.2,0,0.3
			c0,0.1,0,0.1,0,0.2c0,0.1-0.1,0.1-0.1,0.2c0,0,0,0,0,0.1l0,0c0,0.1,0,0.1,0,0.1c-0.1,0-0.1,0.1-0.2,0.1c-0.1,0.2-0.3,0.3-0.4,0.4
			c-0.1,0.2-0.1,0.3-0.1,0.4s0,0.2,0,0.2c-0.5,0.5-1.1,0.7-1.7,0.6c-0.1,0-0.1,0.1-0.1,0.1H9.7c0,0.1,0,0.2,0,0.2
			c0,0.1-0.1,0.1-0.1,0.1c-0.1,0-0.3,0-0.4,0c0,0.1-0.1,0.1-0.1,0.2l0,0c0,0.1,0,0.1,0,0.1c0,0.1,0,0.2,0,0.3l0,0
			c-0.1,0-0.2,0-0.3-0.1c0,0,0-0.1,0-0.2s0.1-0.2,0.1-0.3c0.1,0,0.1,0,0.1-0.1c-0.1,0-0.1-0.1-0.2-0.1v-0.1c0,0-0.1,0-0.2,0l0,0
			c-0.1,0-0.2,0.1-0.3,0.2c0,0.1,0,0.1-0.1,0.2c0,0.1,0,0.3,0,0.4c0,0,0,0.1,0.1,0.2v0.1c0,0.1,0.1,0.1,0.1,0.1
			c0.1,0.2,0.3,0.3,0.4,0.4l0,0c0,0,0.1,0,0.2,0s0.3,0,0.4,0s0.2-0.1,0.2-0.2c0.1-0.1,0.1-0.2,0.1-0.3c0.1,0,0.1-0.1,0.2-0.1
			c0.1-0.1,0.2-0.3,0.3-0.4c0.3,0.1,0.6,0,1-0.1c0.6-0.3,1-0.7,1.1-1.4c0-0.1,0.1-0.2,0.2-0.2c0.3-0.3,0.5-0.6,0.5-1
			c0.5-0.3,0.9-0.7,1.2-1.2c0.2-0.4,0.6-0.7,1.1-1h0.1c0.5-0.2,0.9-0.5,1.1-0.8c0.1-0.1,0.1-0.2,0.1-0.3c0.1-0.1,0.1-0.1,0.1-0.2
			v-0.1C16.7,14.7,16.6,14.7,16.6,14.6z"/>
		<path style="fill:none;stroke:#000000;stroke-width:0.5;" d="M16.299,14.5c-0.3,0-0.6-0.1-0.9-0.1c-0.6,0-1.2,0.1-1.6,0.5
			C13.7,15,13.7,15,13.7,15c0,0.2-0.1,0.4-0.2,0.5c0,0,0,0,0,0.1c-0.2,0-0.4,0-0.7,0v0.1c-0.2,0.2-0.4,0.4-0.5,0.7
			c0,0.1,0,0.2,0,0.3c-0.3,0.1-0.5,0.2-0.8,0.3c-0.1,0.1-0.2,0.2-0.2,0.4l0,0c0,0.1,0,0.1,0,0.1c-0.1,0.1-0.1,0.1-0.2,0.1
			c-0.1,0.1-0.2,0.2-0.3,0.3C10.7,18,10.7,18,10.7,18c0,0.1,0,0.1,0,0.2c0,0,0,0,0,0.1c-0.3,0.1-0.4,0.2-0.5,0.5
			c0,0.1-0.1,0.1-0.1,0.2c-0.2,0.2-0.4,0.3-0.6,0.4c-0.5,0.2-0.7,0.5-0.7,0.9c-0.1,0-0.1,0.1-0.2,0.1c0.1,0,0.2,0,0.2,0v0.1
			c0.1,0,0.1,0.1,0.2,0.1c0,0.1,0,0.1-0.1,0.1c0,0.1-0.1,0.2-0.1,0.3s0,0.2,0,0.2c0.1,0.1,0.2,0.1,0.3,0.1l0,0c0-0.1,0-0.2,0-0.3
			c0,0,0,0,0-0.1l0,0c0-0.1,0.1-0.1,0.1-0.2c0.1,0,0.3,0,0.4,0c0,0,0.1,0,0.1-0.1c0,0,0-0.1,0-0.2h0.1c0,0,0-0.1,0.1-0.1
			c0.6,0.1,1.2-0.1,1.7-0.6c0,0,0-0.1,0-0.2s0-0.2,0.1-0.4c0.1-0.1,0.3-0.2,0.4-0.4c0.1,0,0.1-0.1,0.2-0.1c0,0,0,0,0-0.1l0,0
			c0-0.1,0-0.1,0-0.1c0-0.1,0.1-0.1,0.1-0.2c0-0.1,0-0.1,0-0.2c-0.1-0.1-0.1-0.1,0-0.3l0,0c0,0,0-0.1,0.1-0.1s0.2,0,0.3,0h0.1
			c0.2-0.2,0.3-0.3,0.5-0.5c0,0,0,0,0.1,0c0-0.2,0-0.4,0.1-0.5c0-0.1,0.1-0.2,0.1-0.2v-0.1c0-0.1,0.1-0.1,0.1-0.1
			c0.5,0,1-0.3,1.4-0.7c0.1-0.1,0.2-0.1,0.3-0.3c0.3-0.1,0.6-0.3,0.8-0.6c0.1,0,0.1,0,0.2,0l0,0
			C16.399,14.6,16.399,14.5,16.299,14.5z"/>
		<path style="fill:none;stroke:#000000;" d="M8.799,22c-0.1-0.1-0.3-0.2-0.4-0.4c0,0.1,0.1,0.2,0.1,0.3c0.1,0,0.1,0.1,0.1,0.1
			C8.7,22,8.7,22,8.799,22z"/>
		<path style="fill:none;stroke:#000000;stroke-width:0.5;" d="M33.9,11.4c0,0,0-0.1-0.101-0.1c-0.3,0-0.7,0-1,0l0,0l0,0
			c-0.1,0-0.1,0-0.2,0c0,0.1,0,0.2-0.1,0.2l-0.1,0.1c-0.301,0-0.5,0.1-0.7,0.1c0,0,0,0,0,0.1l0,0c0,0.1,0,0.1,0,0.1
			c0,0.1-0.101,0.1-0.101,0.1v0.1v0.1c0.301,0.2,0.7,0.3,1,0.2c0,0.2,0.2,0.4,0.4,0.5l0,0c0.3,0,0.6-0.1,0.8-0.4H33.9c0,0,0,0,0.1,0
			c0.1,0.4,0.4,0.6,0.8,0.9c0.101,0,0.2,0.1,0.2,0.1c0.1,0,0.3,0,0.4,0v-0.1c0,0,0,0,0.1,0c0,0,0,0,0.1,0c0,0.4,0.2,0.6,0.5,0.7
			c0.2,0,0.301,0.1,0.4,0.1c0.3,0,0.5-0.1,0.8-0.2c0,0,0-0.1,0.101-0.1v-0.1h0.1l0,0c-0.5-0.5-1.1-0.8-1.9-0.9
			c-0.199-0.3-0.5-0.4-1-0.4v-0.1c0-0.3-0.199-0.4-0.5-0.5l0,0C34.099,11.7,34.099,11.6,33.9,11.4z"/>
		<path style="fill:none;stroke:#000000;" d="M31.7,11.7h-0.101c0,0,0,0-0.1,0c0,0.1,0,0.2-0.1,0.2c0,0,0,0.1-0.101,0.1l0,0
			c-0.2,0.1-0.5,0.3-0.6,0.5c-0.2,0-0.3,0.1-0.4,0.1c-0.1,0-0.1,0-0.1,0c-0.101,0.1-0.2,0.3-0.101,0.4c0,0,0,0,0,0.1
			c0,0,0.101,0.1,0.101,0.2c0.6,0.6,1.2,0.6,1.8,0.1c0.6,0.4,1.2,0.5,1.9,0.5c0.1,0,0.199,0.1,0.3,0.2c0.1,0.1,0.1,0.1,0.1,0.1
			c0.2,0.1,0.3,0.2,0.5,0.2H34.9c0.399,0.5,0.899,0.7,1.6,0.7c0.3,0.5,0.8,0.6,1.4,0.5c0.199-0.1,0.199-0.2,0.199-0.4
			c0.101,0,0.101,0,0.101-0.1s0-0.2-0.101-0.2c0-0.4-0.199-0.6-0.399-0.9v0.1c0-0.1,0-0.1,0-0.1l0,0c0.1-0.1,0.1-0.1,0.1-0.1
			c-0.1,0-0.2-0.1-0.2-0.1h-0.1l0,0h-0.1v0.1c-0.101,0-0.101,0.1-0.101,0.1c-0.3,0.1-0.5,0.2-0.8,0.2c-0.1,0-0.2-0.1-0.4-0.1
			c-0.3-0.1-0.5-0.3-0.5-0.7c-0.1,0-0.1,0-0.1,0c-0.1,0-0.1,0-0.1,0v0.1c-0.101,0-0.301,0-0.4,0c0,0-0.1-0.1-0.2-0.1
			c-0.399-0.3-0.7-0.5-0.8-0.9c-0.1,0-0.1,0-0.1,0h-0.101c-0.2,0.3-0.5,0.4-0.8,0.4l0,0c-0.2-0.1-0.4-0.3-0.4-0.5
			c-0.3,0.1-0.699,0-1-0.2v-0.1V12c0,0,0.101,0,0.101-0.1c0,0,0,0,0-0.1l0,0V11.7z"/>
		<path style="fill:none;stroke:#000000;" d="M31.299,12c0.101,0,0.101-0.1,0.101-0.1S31.299,11.9,31.299,12L31.299,12z"/>
		<path style="fill:none;stroke:#000000;" d="M34.9,14.4h-0.101l0,0H34.9z"/>
		<path style="fill:none;stroke:#000000;" d="M37.7,14c0,0,0,0,0,0.1V14L37.7,14z"/>
		<path style="fill:none;stroke:#000000;" d="M46.299,28.1c0,0,0,0.101-0.1,0.101c-0.101,0-0.101,0.1-0.101,0.3
			c-0.1,0.3,0,0.7,0.301,0.9c0.1,0,0.199,0,0.199,0c-0.1-0.101-0.3-0.2-0.399-0.301c0-0.1,0-0.3-0.101-0.399c0-0.101,0-0.101,0-0.2
			H46.2h0.1c0,0,0.101,0.1,0.101,0.2l0,0c0.199,0.1,0.3,0.2,0.6,0.2c0,0,0,0,0.1,0c0-0.101,0-0.101,0-0.101
			C47,28.5,46.9,28.3,46.7,28.1c-0.101,0-0.2,0-0.3,0l0,0C46.299,28.1,46.299,28.1,46.299,28.1z"/>
		<path style="fill:none;stroke:#000000;" d="M47.099,28.9c-0.1,0-0.1,0-0.1,0c-0.3,0-0.4-0.101-0.6-0.2l0,0
			c0-0.101-0.101-0.2-0.101-0.2h-0.1h-0.101c0,0.1,0,0.1,0,0.2C46.2,28.8,46.2,29,46.2,29.1c0.1,0.101,0.3,0.2,0.399,0.301
			c0.101,0,0.2,0.1,0.301,0.1l0,0c0,0,0,0,0.1,0c0,0,0.1,0,0.2,0h0.1c0.2-0.2,0.2-0.3,0.2-0.5l-0.1-0.1
			C47.299,28.9,47.2,28.9,47.099,28.9z"/>
		<path style="fill:none;stroke:#000000;" d="M47.2,30.5v-0.1l0,0C47.099,30.3,47.099,30.3,47,30.3c0-0.1,0-0.1-0.1-0.1v0.1
			c-0.101,0-0.301,0-0.4,0l0,0c-0.1,0.101-0.1,0.101-0.1,0.2c0.1,0.1,0.199,0.2,0.399,0.2c0.101,0,0.2,0,0.2-0.101h0.1H47.2
			C47.2,30.5,47.2,30.5,47.2,30.5z"/>
		<path style="fill:none;stroke:#000000;" d="M47,30.1c-0.1,0-0.1-0.1-0.2-0.1c-0.1,0-0.2,0-0.3,0c0,0-0.1,0-0.1,0.1
			c0,0-0.101,0-0.101,0.101c-0.1,0-0.1,0.2-0.1,0.3c0.1,0,0.1,0.1,0.1,0.2l0.101,0.1c0.199,0,0.3,0,0.399,0H46.9
			c0-0.1,0.1-0.1,0.1-0.2c0,0.101-0.1,0.101-0.2,0.101c-0.2,0-0.3-0.101-0.399-0.2c0-0.1,0-0.1,0.1-0.2l0,0c0.1,0,0.3,0,0.4,0v-0.1
			c0.1,0,0.1,0,0.1,0.1c0-0.1,0-0.1,0-0.1S47,30.2,47,30.1z"/>
		<path style="fill:none;stroke:#000000;stroke-width:0.5;" d="M46.799,33.8L46.7,33.9c0,0,0,0.1,0,0.199c0,0.101,0,0.301-0.101,0.4
			v0.1c-0.1,0.2-0.3,0.5-0.399,0.7c-0.101,0.101-0.101,0.101,0,0.101c0,0.399,0.1,0.699,0.3,1c0,0.1,0,0.1-0.1,0.1
			c-0.4,0.4-0.5,0.8-0.301,1.3c-0.1,0.7-0.6,1-1.3,1c0,0-0.1,0.101-0.1,0.2c0.1,0,0.1,0,0.1,0c0,0.1,0,0.1,0.101,0.2v0.1
			c0,0.101,0,0.101,0,0.101c-0.101,0.1-0.101,0.199-0.2,0.199c-0.4,0.101-0.7,0.301-0.9,0.4c0,0.1,0,0.1,0,0.2l0,0
			c0.101,0.1,0.101,0.1,0.101,0.2c0,0.1,0,0.1,0,0.1s-0.101,0.1-0.101,0.2l0,0c-0.3,0-0.6,0-0.8,0c0,0,0,0-0.1,0
			c-0.2-0.2-0.301-0.101-0.4,0c0,0.1,0,0.1,0,0.2c0,0,0,0,0,0.1c0,0,0,0.1,0,0.2c0.1,0,0.1,0,0.1,0C42.4,41.3,42.2,41.4,42,41.5
			s-0.4,0-0.6,0c-0.101,0-0.101,0-0.101,0c0-0.1,0-0.1,0-0.2c0,0,0,0,0-0.1H41.4c0-0.101,0.1-0.101,0.1-0.2l0,0c0-0.1,0-0.1,0-0.1
			c0.1,0,0.1,0,0.2-0.101c0,0,0,0,0-0.1l0,0c0,0,0,0,0-0.101c-0.101,0-0.101,0-0.101-0.1c-0.1,0-0.199,0.1-0.199,0.1
			c-0.301,0.101-0.5,0.2-0.601,0.4v0.2c0,0.2,0,0.5,0,0.6C40.9,41.9,40.9,41.9,41,41.9c0.8,0.399,1.5,0.199,2-0.4c0-0.1,0-0.1,0-0.2
			l0,0c0.6,0.101,1.1-0.1,1.4-0.6c0.1,0,0.1,0,0.1-0.2c0,0,0-0.1,0-0.2c0.6-0.1,0.9-0.5,0.9-1.1c1.1-0.3,1.399-1,1.199-2
			c0.5-0.4,0.5-0.9,0.2-1.4c0-0.1,0-0.1,0-0.1c0.3-0.601,0.4-1.2,0.4-1.8c-0.101,0-0.101,0-0.101,0c0-0.101,0-0.101-0.1-0.101l0,0
			C47,33.8,46.9,33.8,46.799,33.8L46.799,33.8L46.799,33.8z"/>
		<path style="fill:none;stroke:#000000;" d="M46.7,33.9l0.1-0.101l0,0l0,0c0.101,0,0.2,0,0.2,0l0,0c0-0.5-0.4-0.899-1.1-1.2
			c-0.101,0-0.2,0-0.301,0.101c-0.199,0.2-0.3,0.399-0.3,0.6c-0.1,0.2-0.2,0.3-0.2,0.5C44.9,34.4,44.7,35,44.7,35.6
			C44.599,35.7,44.5,35.9,44.5,36c-0.2,0.7-0.3,1.4-0.4,2.1c-1.199,0.5-2.1,1.2-2.6,2.4c-0.1,0-0.1,0-0.1,0.1c0,0,0.1-0.1,0.199-0.1
			c0,0.1,0,0.1,0.101,0.1c0,0.101,0,0.101,0,0.101l0,0c0,0.1,0,0.1,0,0.1C41.599,40.9,41.599,40.9,41.5,40.9c0,0,0,0,0,0.1l0,0
			c0,0.1-0.1,0.1-0.1,0.2h-0.101c0,0.1,0,0.1,0,0.1c0,0.101,0,0.101,0,0.2c0,0,0,0,0.101,0c0.199,0,0.399,0.1,0.6,0s0.4-0.2,0.6-0.3
			c0,0,0,0-0.1,0c0-0.101,0-0.2,0-0.2c0-0.1,0-0.1,0-0.1c0-0.101,0-0.101,0-0.2c0.1-0.101,0.2-0.2,0.4,0c0.1,0,0.1,0,0.1,0
			c0.2,0,0.5,0,0.8,0l0,0c0-0.101,0.101-0.2,0.101-0.2s0,0,0-0.1c0-0.101,0-0.101-0.101-0.2l0,0c0-0.101,0-0.101,0-0.2
			c0.2-0.1,0.5-0.3,0.9-0.4c0.1,0,0.1-0.1,0.2-0.199c0,0,0,0,0-0.101v-0.1C44.799,39.1,44.799,39.1,44.799,39c0,0,0,0-0.1,0
			c0-0.1,0.1-0.2,0.1-0.2c0.7,0,1.2-0.3,1.3-1C45.9,37.3,46,36.9,46.4,36.5c0.1,0,0.1,0,0.1-0.1c-0.2-0.301-0.3-0.601-0.3-1
			c-0.101,0-0.101,0,0-0.101c0.1-0.2,0.3-0.5,0.399-0.7v-0.1c0.101-0.1,0.101-0.3,0.101-0.4C46.7,34,46.7,33.9,46.7,33.9z"/>
		<path style="fill:none;stroke:#000000;stroke-width:0.5;" d="M39.4,41.9c0,0,0,0-0.101,0V42v0.1c-0.1,0-0.1,0.101-0.1,0.101
			c0,0.1,0,0.2,0,0.3c0,0,0,0-0.101,0.1c0,0-0.1,0.101-0.1,0.2c-0.2,0-0.4,0-0.7,0.101l0,0c0,0.1,0,0.1-0.1,0.1l0.1,0.1
			c0,0.101,0,0.2,0,0.2c-0.2,0.3-0.399,0.5-0.7,0.601C37,44.2,36.5,44.1,36,43.6l0,0c0-0.1,0-0.1,0-0.1c-0.1-0.1-0.3-0.2-0.5-0.1
			l0,0l-0.1,0.1c-0.301,0.1-0.5,0.1-0.7,0v-0.1c0.1-0.2,0.2-0.4,0.2-0.601c0-0.1,0-0.1,0-0.1s-0.101,0-0.101-0.101
			c0,0.101-0.1,0.101-0.1,0.101c-0.2,0.1-0.3,0.3-0.4,0.5c-0.1,0-0.1,0-0.1,0.1c0,0,0,0,0,0.101c-0.101,0.1-0.101,0.199,0,0.3
			c0.399,0.399,0.8,0.5,1.399,0.3l0,0c0,0.1,0,0.1,0.101,0.1c0.5,0.4,1.2,0.601,1.899,0.4c0.5-0.2,1-0.5,1.2-1c0-0.1,0-0.1,0-0.2
			c0.101,0,0.101,0,0.2,0c0.1-0.1,0.2-0.1,0.3-0.1c0-0.101,0.101-0.101,0.101-0.101c0.3-0.3,0.399-0.699,0.199-1.1l0,0
			C39.5,41.9,39.5,41.9,39.4,41.9z"/>
		<path style="fill:none;stroke:#000000;" d="M39.2,42.5c0-0.1,0-0.2,0-0.3c-0.2-0.4-0.7-0.5-1.4-0.4c-0.2,0.2-0.5,0.2-0.7,0.3
			c-0.5,0-0.699,0.2-0.8,0.5c-0.2,0.101-0.3,0.101-0.5,0.101l0,0c0-0.101-0.1-0.2-0.2-0.3c0-0.101,0-0.101-0.1-0.101
			c-0.2,0-0.4-0.1-0.5-0.1c-0.1,0.1-0.2,0.1-0.3,0.2c-0.101,0-0.101,0.1-0.101,0.1v0.1V42.7c-0.1,0.1-0.199,0.2-0.3,0.399l0,0
			c0,0.101,0,0.101,0,0.101c0.101-0.2,0.2-0.4,0.4-0.5c0,0,0.1,0,0.1-0.101c0,0.101,0.101,0.101,0.101,0.101s0,0,0,0.1
			c0,0.2-0.101,0.4-0.2,0.601v0.1c0.2,0.1,0.399,0.1,0.7,0l0.1-0.1l0,0c0.2-0.101,0.4,0,0.5,0.1c0,0,0,0,0,0.1l0,0
			c0.5,0.5,1,0.601,1.6,0.301c0.301-0.101,0.5-0.301,0.7-0.601c0,0,0-0.1,0-0.2L38.2,43c0.1,0,0.1,0,0.1-0.1l0,0
			c0.3-0.101,0.5-0.101,0.7-0.101c0-0.1,0.1-0.2,0.1-0.2C39.2,42.5,39.2,42.5,39.2,42.5z"/>
		<path style="fill:none;stroke:#000000;" d="M38.799,43.5c0-0.1,0-0.1,0.101-0.2c0,0,0,0,0.1,0c-0.1,0-0.1,0-0.2,0
			C38.799,43.4,38.799,43.4,38.799,43.5z"/>
		<path style="fill:none;stroke:#000000;" d="M35.599,44c0,0.1,0,0.1,0.101,0.1C35.599,44.1,35.599,44.1,35.599,44L35.599,44z"/>
		<path style="fill:none;stroke:#000000;stroke-width:0.5;" d="M13.7,41.2c-0.1,0-0.1,0-0.2,0h-0.1c0,0,0,0-0.1,0.1c0,0,0,0,0,0.101
			c0,0.199,0,0.399,0,0.6h0.1c0,0.1,0.1,0.1,0.1,0.1c0.1,0.2,0.3,0.301,0.6,0.4c0,0.1,0,0.1,0,0.2c0.1,0.3,0.3,0.5,0.6,0.6
			c0,0.7,0.4,1.2,1.2,1.2c0,0.1,0.1,0.1,0.2,0.1l0,0c0.3,0.601,1,0.9,1.8,0.7c0.7,0.2,1.4,0.3,2.1,0.101c0,0,0,0,0.1,0
			c0-0.101,0-0.101,0-0.101l0,0c0.3-0.1,0.5-0.2,0.8-0.399c0,0,0.1-0.101,0.2-0.101c0.4-0.399,0.4-0.7,0.2-1.1
			c0-0.101-0.1-0.101-0.1-0.101c-0.1,0-0.1,0-0.1,0c-0.3,0.301-0.5,0.5-0.7,0.801c-0.1,0-0.1,0-0.1,0c-0.1,0.1-0.1,0.1-0.2,0.199
			c-0.1,0-0.2,0-0.3,0.2c-0.7,0.2-1.2,0.101-1.7-0.2c-0.2,0-0.2,0-0.3,0c-0.5,0.2-0.9,0.101-1.2-0.3v-0.1V44.1V44
			c-0.1,0-0.2-0.1-0.2-0.1c-0.2-0.101-0.4-0.101-0.6,0c-0.2,0-0.3-0.101-0.4-0.2c-0.2-0.2-0.3-0.5-0.1-0.9c-0.2-0.2-0.3-0.2-0.6-0.2
			c0,0,0-0.1-0.1-0.1v-0.1V42.3c0.1-0.1,0.1-0.1,0-0.2C14.5,42,14.2,41.9,14,41.9c0-0.101-0.1-0.101-0.1-0.101
			c-0.1,0-0.1-0.1-0.1-0.1c0-0.101,0-0.101,0-0.2S13.799,41.3,13.7,41.2z"/>
		<path style="fill:none;stroke:#000000;" d="M13.7,41.2L13.7,41.2L13.7,41.2c0.1,0.1,0.1,0.2,0.1,0.3s0,0.1,0,0.2
			c0,0,0,0.1,0.1,0.1c0,0,0.1,0,0.1,0.101c0.2,0,0.5,0.1,0.6,0.199c0.1,0.101,0.1,0.101,0,0.2V42.4v0.1c0.1,0,0.1,0.1,0.1,0.1
			c0.3,0,0.4,0,0.6,0.2c-0.2,0.4-0.1,0.7,0.1,0.9c0.1,0.1,0.2,0.2,0.4,0.2c0.2-0.101,0.4-0.101,0.6,0c0,0,0.1,0.1,0.2,0.1v0.1V44.2
			v0.1c0.3,0.4,0.7,0.5,1.2,0.3c0.1,0,0.1,0,0.3,0c0.5,0.301,1,0.4,1.7,0.2c0.1-0.2,0.2-0.2,0.3-0.2c0.1-0.1,0.1-0.1,0.2-0.199
			c0,0,0,0,0.1,0c0.2-0.301,0.4-0.5,0.7-0.801c0,0,0,0,0.1,0c0,0,0,0-0.1,0c-1.3-0.399-2.7-0.699-4-0.6c-0.7-0.4-1.2-0.7-1.8-0.8
			c0-0.101,0-0.101,0-0.2c0,0,0,0,0-0.1c0,0-0.1,0-0.1-0.101c0,0-0.1-0.1-0.2-0.1s-0.2-0.101-0.3-0.101
			c-0.2,0.101-0.4,0.101-0.6,0.101c0-0.101,0-0.2,0-0.2C14,41.3,13.899,41.3,13.7,41.2z"/>
		<path style="fill:none;stroke:#000000;" d="M13.399,42c0,0.1,0,0.2,0,0.3c0.2,0.2,0.5,0.3,0.7,0.4c0-0.101,0-0.101,0-0.2
			c-0.3-0.1-0.5-0.2-0.6-0.4C13.5,42.1,13.399,42.1,13.399,42z"/>
		<path style="fill:none;stroke:#000000;" d="M20.1,45.3c0,0,0,0,0,0.101c0.3-0.101,0.6-0.301,0.9-0.5c0-0.101,0.1-0.101,0.1-0.101
			c-0.1,0-0.2,0.101-0.2,0.101C20.6,45.1,20.399,45.2,20.1,45.3L20.1,45.3z"/>
		<path style="fill:none;stroke:#000000;" d="M16.1,44.6c-0.1,0-0.2,0-0.2-0.1C15.899,44.6,16,44.6,16.1,44.6L16.1,44.6z"/>
	</g>
</g>
</svg>
