<?xml version="1.0" encoding="iso-8859-1"?>
<!-- Generator: Adobe Illustrator 12.0.0, SVG Export Plug-In . SVG Version: 6.00 Build 51448)  -->
<!DOCTYPE svg PUBLIC "-//W3C//DTD SVG 1.1//EN" "http://www.w3.org/Graphics/SVG/1.1/DTD/svg11.dtd" [
	<!ENTITY ns_svg "http://www.w3.org/2000/svg">
	<!ENTITY ns_xlink "http://www.w3.org/1999/xlink">
]>
<svg  version="1.1" xmlns="&ns_svg;" xmlns:xlink="&ns_xlink;" width="3103.667" height="981.031" viewBox="0 0 3103.667 981.031"
	 style="overflow:visible;enable-background:new 0 0 3103.667 981.031;" xml:space="preserve">
<g id="Layer_1" style="display:none;">
	
		<image style="display:inline;" width="1480" height="980" xlink:href="../../../Images/blush/pogo0001.jpg"  transform="matrix(1 0 0 1 869.6675 1)">
	</image>
</g>
<g id="Layer_2">
	<g>
		<polygon points="1582.445,980.031 1598.532,419.388 1578.446,979.969 		"/>
	</g>
	<g>
		<polygon points="1641.445,980.031 1620.532,419.388 1637.446,979.969 		"/>
	</g>
	<g>
		<polygon points="1698.445,980.031 1643.532,419.388 1694.446,979.969 		"/>
	</g>
	<g>
		<polygon points="1758.445,980.031 1664.532,419.388 1754.446,979.969 		"/>
	</g>
	<g>
		<polygon points="1815.445,980.031 1687.532,419.388 1811.446,979.969 		"/>
	</g>
	<g>
		<polygon points="1875.445,980.031 1709.532,419.388 1871.446,979.969 		"/>
	</g>
	<g>
		<polygon points="1935.445,980.031 1731.532,419.388 1931.446,979.969 		"/>
	</g>
	<g>
		<polygon points="1991.445,980.031 1753.532,419.388 1987.446,979.969 		"/>
	</g>
	<g>
		<polygon points="2050.445,980.031 1776.532,419.388 2046.446,979.969 		"/>
	</g>
	<g>
		<polygon points="2111.445,980.031 1798.532,419.388 2107.446,979.969 		"/>
	</g>
	<g>
		<polygon points="2169.445,980.031 1820.532,419.388 2165.446,979.969 		"/>
	</g>
	<g>
		<polygon points="2229.445,980.031 1842.532,419.388 2225.446,979.969 		"/>
	</g>
	<g>
		<polygon points="2286.445,980.031 1864.532,419.388 2282.446,979.969 		"/>
	</g>
	<g>
		<polygon points="2344.445,980.031 1886.532,418.388 2340.446,979.969 		"/>
	</g>
	<g>
		<polygon points="2403.667,980.031 1908.754,418.388 2399.668,979.969 		"/>
	</g>
	<g>
		<polygon points="2462.667,980.031 1930.754,418.388 2458.668,979.969 		"/>
	</g>
	<g>
		<polygon points="2522.667,981.031 1953.754,419.388 2518.668,980.969 		"/>
	</g>
	<g>
		<polygon points="2579.667,981.031 1975.754,419.388 2575.668,980.969 		"/>
	</g>
	<g>
		<polygon points="2638.667,981.031 1998.754,419.388 2634.668,980.969 		"/>
	</g>
	<g>
		<polygon points="2701.667,981.031 2020.754,419.388 2697.668,980.969 		"/>
	</g>
	<g>
		<polygon points="2758.667,981.031 2043.754,419.388 2754.668,980.969 		"/>
	</g>
	<g>
		<polygon points="2818.667,981.031 2064.754,419.388 2814.668,980.969 		"/>
	</g>
	<g>
		<polygon points="2873.667,981.031 2087.754,419.388 2869.668,980.969 		"/>
	</g>
	<g>
		<polygon points="2931.667,981.031 2109.754,419.388 2927.668,980.969 		"/>
	</g>
	<g>
		<polygon points="2993.667,981.031 2131.754,419.388 2989.668,980.969 		"/>
	</g>
	<g>
		<polygon points="3050.667,981.031 2154.754,419.388 3046.668,980.969 		"/>
	</g>
	<g>
		<polygon points="3103.667,981.031 2177.754,419.388 3099.668,980.969 		"/>
	</g>
	<g>
		<polygon points="1521.223,980.031 1576.136,419.387 1525.222,979.969 		"/>
	</g>
	<g>
		<polygon points="1462.223,980.031 1554.136,419.387 1466.222,979.969 		"/>
	</g>
	<g>
		<polygon points="1405.223,980.031 1531.136,419.387 1409.222,979.969 		"/>
	</g>
	<g>
		<polygon points="1345.223,980.031 1510.136,419.387 1349.222,979.969 		"/>
	</g>
	<g>
		<polygon points="1288.223,980.031 1487.136,419.387 1292.222,979.969 		"/>
	</g>
	<g>
		<polygon points="1228.223,980.031 1465.136,419.387 1232.222,979.969 		"/>
	</g>
	<g>
		<polygon points="1168.223,980.031 1443.136,419.387 1172.222,979.969 		"/>
	</g>
	<g>
		<polygon points="1112.223,980.031 1421.136,419.387 1116.222,979.969 		"/>
	</g>
	<g>
		<polygon points="1053.223,980.031 1398.136,419.387 1057.222,979.969 		"/>
	</g>
	<g>
		<polygon points="992.223,980.031 1376.136,419.387 996.222,979.969 		"/>
	</g>
	<g>
		<polygon points="934.223,980.031 1354.136,419.387 938.222,979.969 		"/>
	</g>
	<g>
		<polygon points="874.223,980.031 1332.136,419.387 878.222,979.969 		"/>
	</g>
	<g>
		<polygon points="817.223,980.031 1310.136,419.387 821.222,979.969 		"/>
	</g>
	<g>
		<polygon points="759.223,980.031 1288.136,418.387 763.222,979.969 		"/>
	</g>
	<g>
		<polygon points="700,980.031 1265.913,418.387 703.999,979.969 		"/>
	</g>
	<g>
		<polygon points="641,980.031 1243.913,418.387 644.999,979.969 		"/>
	</g>
	<g>
		<polygon points="581,981.031 1220.913,419.387 584.999,980.969 		"/>
	</g>
	<g>
		<polygon points="524,981.031 1198.913,419.387 527.999,980.969 		"/>
	</g>
	<g>
		<polygon points="465,981.031 1175.913,419.387 468.999,980.969 		"/>
	</g>
	<g>
		<polygon points="402,981.031 1153.913,419.387 405.999,980.969 		"/>
	</g>
	<g>
		<polygon points="345,981.031 1130.913,419.387 348.999,980.969 		"/>
	</g>
	<g>
		<polygon points="285,981.031 1109.913,419.387 288.999,980.969 		"/>
	</g>
	<g>
		<polygon points="230,981.031 1086.913,419.387 233.999,980.969 		"/>
	</g>
	<g>
		<polygon points="172,981.031 1064.913,419.387 175.999,980.969 		"/>
	</g>
	<g>
		<polygon points="110,981.031 1042.913,419.387 113.999,980.969 		"/>
	</g>
	<g>
		<polygon points="53,981.031 1019.913,419.387 56.999,980.969 		"/>
	</g>
	<g>
		<polygon points="0,981.031 996.913,419.387 3.999,980.969 		"/>
	</g>
	<rect x="868.667" style="fill:none;" width="1480" height="980"/>
</g>
</svg>
