<?xml version="1.0" encoding="iso-8859-1"?>
<!-- Generator: Adobe Illustrator 12.0.0, SVG Export Plug-In . SVG Version: 6.00 Build 51448)  -->
<!DOCTYPE svg PUBLIC "-//W3C//DTD SVG 1.1//EN" "http://www.w3.org/Graphics/SVG/1.1/DTD/svg11.dtd" [
	<!ENTITY ns_svg "http://www.w3.org/2000/svg">
	<!ENTITY ns_xlink "http://www.w3.org/1999/xlink">
]>
<svg  version="1.1" id="heart" xmlns="&ns_svg;" xmlns:xlink="&ns_xlink;" width="41.503" height="45.464"
	 viewBox="0 0 41.503 45.464" style="overflow:visible;enable-background:new 0 0 41.503 45.464;" xml:space="preserve">
<g>
	<g>
		<path d="M24.087,42.258c-1.236-2.541-3.75-4.822-7.375-7.495c-6.5-4.795-14.59-10.76-14.627-20.603
			C2.068,9.272,3.864,5.433,7.013,3.626c2.389-1.371,5.214-1.364,7.558,0.019c2.965,1.748,5.188,5.39,5.115,9.979l0,0
			c0.121-7.717,5.95-11.696,10.819-11.652c4.334,0.039,8.697,3.425,8.683,10.9c-0.024,10.729-6.056,17.647-10.901,23.208
			C26.414,38.227,25.26,40.284,24.087,42.258L24.087,42.258z M41.503,12.524C41.522,4.087,36.333,0.045,31.308,0
			c-5.561-0.051-11.487,4.993-11.622,13.623h0.075c0.08-5.106-1.338-9.524-4.749-11.536c-2.782-1.642-6.721-1.625-9.552,0
			C1.861,4.152-0.021,8.403,0,13.808c0.04,10.547,8.722,17.189,15.814,21.674c9.004,5.693,8.193,9.982,8.193,9.982
			s0.261-2.873,5.334-8.467C34.358,31.468,41.478,23.776,41.503,12.524z"/>
	</g>
</g>
<path d="M25.287,8.43c0,0,1.205-2.97,3.936-3.693c2.482-0.658,4.574,0.883,4.574,0.883s-2.545-0.91-4.734,0
	C26.399,6.725,25.287,8.43,25.287,8.43z"/>
<polygon points="31.28,33.837 25.602,28.255 26.083,26.042 18.191,23.445 16.651,16.899 8.086,13.917 6.258,3.907 9.722,12.954 
	17.71,15.456 19.924,22.771 27.43,25.273 27.044,28.353 "/>
</svg>
