<?xml version="1.0" encoding="iso-8859-1"?>
<!-- Generator: Adobe Illustrator 12.0.0, SVG Export Plug-In . SVG Version: 6.00 Build 51448)  -->
<!DOCTYPE svg PUBLIC "-//W3C//DTD SVG 1.1//EN" "http://www.w3.org/Graphics/SVG/1.1/DTD/svg11.dtd" [
	<!ENTITY ns_svg "http://www.w3.org/2000/svg">
	<!ENTITY ns_xlink "http://www.w3.org/1999/xlink">
]>
<svg  version="1.1" id="heart" xmlns="&ns_svg;" xmlns:xlink="&ns_xlink;" width="41.503" height="45.464"
	 viewBox="0 0 41.503 45.464" style="overflow:visible;enable-background:new 0 0 41.503 45.464;" xml:space="preserve">
<g>
</g>
<g>
	<path style="fill:#FF0000;" d="M31.311,0.002c-5.29-0.05-10.919,4.52-11.569,12.41c-0.14-4.58-1.59-8.47-4.73-10.33
		c-2.78-1.64-6.72-1.62-9.55,0c-3.6,2.07-5.48,6.32-5.46,11.73c0.04,10.54,8.72,17.189,15.81,21.67c4.3,2.71,6.36,5.11,7.34,6.87
		c0.92,1.649,0.899,2.75,0.869,3.04c0.07-0.45,0.69-3.29,5.32-8.391c5.021-5.529,12.141-13.229,12.16-24.479
		C41.521,4.082,36.332,0.042,31.311,0.002z M29.222,4.737c2.482-0.658,4.574,0.883,4.574,0.883s-2.545-0.91-4.734,0
		c-2.663,1.105-3.775,2.81-3.775,2.81S26.492,5.46,29.222,4.737z"/>
</g>
</svg>
