<?xml version="1.0" encoding="utf-8"?>
<!-- Generator: Adobe Illustrator 12.0.0, SVG Export Plug-In . SVG Version: 6.00 Build 51448)  -->
<!DOCTYPE svg PUBLIC "-//W3C//DTD SVG 1.0//EN" "http://www.w3.org/TR/2001/REC-SVG-20010904/DTD/svg10.dtd" [
	<!ENTITY ns_svg "http://www.w3.org/2000/svg">
	<!ENTITY ns_xlink "http://www.w3.org/1999/xlink">
]>
<svg  version="1.0" id="_x31__1_" xmlns="&ns_svg;" xmlns:xlink="&ns_xlink;" width="735" height="980" viewBox="0 0 735 980"
	 overflow="visible" enable-background="new 0 0 735 980" xml:space="preserve">
<g>
	<g>
		<path d="M517.472,19.006c2.588-5.211,2.864-10.104,1.034-14.873c-0.24,3.895,0.07,9.209-2.694,13.713
			c-4.369,4.646-16.284,13.224-17.305,13.788C499.927,31.084,515.026,23.021,517.472,19.006z"/>
	</g>
	<g>
		<path d="M521.008,4.124c0.631,1.924,4.439,18.472,0.894,30.852c-3.503,11.182-29.702,41.361-31.048,42.614
			c1.859-1.634,33.826-33.608,35.046-42.471C528.196,24.095,521.946,5.858,521.008,4.124z"/>
	</g>
	<g>
		<path d="M511.208,56.906c0.927,4.836,0.392,8.62-1.515,11.553c-1.365,1.752-10.624,11.626-11.246,12.205
			c0.925-0.667,10.981-7.608,13.119-11.437C513.748,64.205,511.583,57.62,511.208,56.906z"/>
	</g>
	<g>
		<path d="M385.95,251.415c7.311-0.072,15.249-2.036,20.831-5.989c-5.639,2.95-13.553,4.414-20.55,4.199
			c-7.577,0.147-22.095-5.189-23.012-5.497C365.535,245.783,376.619,250.909,385.95,251.415z"/>
	</g>
	<g>
		<path d="M269.975,20.03c-0.081-6.107,0.598-11.086,2.237-14.929c-0.532,0.881-4.47,10.247-4.624,14.543
			c0.423,4.919,9.245,15.642,10.208,16.677C277.221,35.6,270.61,24.656,269.975,20.03z"/>
	</g>
	<g>
		<path d="M295.692-5.063c-1.428,0.749-14.829,11.676-17.028,20.002c-3.785,7.869,5.656,43.13,6.285,45.154
			c-0.806-2.631-6.388-28.347-3.563-40.154C282.991,8.69,294.253-4.014,295.692-5.063z"/>
	</g>
	<path d="M354.188,249.771c-1.822,10.848-20.105,33.661-29.519,38.963c-11.069,6.234-28.06,6.219-44.945,3.871
		c-9.161-1.274-21.337-2.126-31.264,9.676c-5.889,7-13.694,33.113-14.212,35.056c0.537-1.433,11.715-27.155,15.688-32.339
		c8.539-11.141,20.958-10.678,28.561-9.782c8.812,1.041,33.05,5.043,47.897-4.125C338.823,283.416,353.485,257.924,354.188,249.771z
		"/>
	<g>
		<path d="M248.452,677.537c-5.917,16.428-25.979,86.123-22.698,159.574c-0.446,55.646,25.893,127.223,32.953,142.389
			c-1.546-5.182-29.571-99.369-27.516-143.021C226.596,777.479,244.558,695.567,248.452,677.537z"/>
	</g>
	<g>
		<path d="M285.217,91.623c-2.07-0.875-10.084,10.545-5.674,35.419c2.642,21.208,12.36,43.171,22.545,46.538
			c-13.396-8.686-19.363-37.619-20.343-46.559c-1.336-10.155-1.261-31.766,4.334-31.565c2.606-0.106,7.133,10.362,7.215,10.866
			C293.138,105.116,289.497,92.277,285.217,91.623z"/>
	</g>
	<g>
		<path d="M289.444,104.883c-1.505-2.656-2.944-4.409-4.421-5.062c1.07,0.839,2.405,2.688,3.71,5.336
			c1.402,2.752,2.223,4.983,2.465,6.593C290.993,109.141,290.472,106.921,289.444,104.883z"/>
	</g>
	<g>
		<path d="M230.301,347.42c-9.64,22.545-89.924,208.074-90.119,208.65c3.518-7.938,26.307-59.351,30.542-60.789
			C173.286,491.245,227.513,354.92,230.301,347.42z"/>
	</g>
	<g>
		<path d="M530.038,536.064c3.771,2.407,13.668,57.764,15.195,66.313c-0.052-0.606-33.872-199.911-37.868-224.104
			C508.288,386.222,528.511,531.536,530.038,536.064z"/>
	</g>
	<path d="M269.516,455.342c-4.597-14.71-16.258-33.694-16.258-33.694s-13.681,32.792-15.473,37.251
		c-1.791,4.46-21.709,50.942-21.739,51.747l-17.52,62.956c13-36.993,21.536-62.101,21.548-62.808
		c0.012-0.628,17.208-46.779,18.679-50.177c4.045-9.351,10.207-23.347,13.286-31.467c0.536,2.968,10.289,17.923,14.106,28.525
		c9.335,25.93,18.422,67.457,13.221,92.533c-1.918,18.594-21.836,100.981-22.875,104.848c17.065-46.118,26.318-84.729,28.6-109.729
		C288.26,510.61,273.405,467.788,269.516,455.342z"/>
	<g>
		<path d="M123.021,744.052c-0.064,0.394-1.364,55.802-1.394,56.608c-1.837,13.176-8.874,40.906-13.724,40.828
			c-8.709,0.914-10.674-17.236-10.845-18.682c-1.025,2.569-18.702,49.645-25.708,56.611c-11.566,13.823-16.277,3.536-18.771-2.948
			c-18.447,15.645-23.818-1.184-19.609-10.885c-22.989,2.633-12.753-14.714-6.279-23.168c-13.713,4.496-12.604-3.404-11.034-9.328
			c7.251-21.566,49.77-96.215,57.997-104.452l22.176-24.259c-0.229,0.166-22.418,21.383-24.742,23.842
			c-8.709,7.146-52.902,84.309-58.329,103.994c-2.789,6.096-1.101,17.815,10.256,12.852c-10.742,8.31-10.427,25.313,6.253,23.971
			c-2.596,8.189,2.827,27.813,20.981,13.033c2.788,5.923,7.617,15.167,21.108,3.529c9.812-8.639,25.102-52.251,25.428-53.008
			c0.287,1.971,2.127,11.54,11.69,12.231c6.859,0.811,12.419-14.091,16.766-44.588c0.062-1.003-0.311-55.468-0.247-55.861
			l6.521-25.182C129.56,723.129,126.685,731.477,123.021,744.052z"/>
	</g>
	<g>
		<path d="M372.6,919.3l-3.5-60.9l-3.2,60.801l3.5-32.7L372.6,919.3z"/>
	</g>
	<g>
		<path d="M140.182,556.07c-0.392,0.544-17.74,43.417-21.911,60.672c-6.45,18.505-10.18,58.931-10.283,65.803
			C112.626,647.13,125.01,600.209,140.182,556.07z"/>
	</g>
	<g>
		<path d="M198.526,573.602l-11.61,29.064c-7.261,17.259-13.206,30.78-17.835,40.565c-6.617,13.919-16.252,33.326-28.892,58.119
			c10.484-17.141,20.778-36.236,30.672-57.224C182.107,620.426,192.687,592.713,198.526,573.602z"/>
	</g>
	<g>
		<path d="M271.631,4.58c-1.243,1.156-19.267,21.022-12.891,52.471c11.613,8.222,16.242,49.314,16.352,51.82
			c0.086-2.399-2.376-48.116-12.176-53.872C257.702,32.999,269.953,6.721,271.631,4.58z"/>
	</g>
	<g>
		<path d="M512.025,56.435c0.928,2.035,6.426,16.145,4.247,23.868c-4.376,2.047-9.063,29.494-9.114,30.893
			c0.253-1.492,6.607-25.176,12.555-29.168C521.235,67.475,512.988,57.47,512.025,56.435z"/>
	</g>
	<g>
		<path d="M350.221,97.259c4.625,2.167,19.251,7.295,20.042,7.524l-45.157-18.732C330.317,88.639,343.894,95.13,350.221,97.259z"/>
	</g>
	<g>
		<path d="M365.696,127.132c-2.626-4.897-5.792-8.713-9.496-11.448c-6.724-5.045-14.832-7.737-24.43-7.981
			c-7.795-0.28-16.043,0.925-24.846,3.611c-1.664,7.345,1.083,14.448,2.499,16.8c4.732,7.575,18.509,8.469,20.311,8.434
			c7.532,0.78,28.13-2.745,29.606-2.439c4.083,0.546,6.471,0.933,6.959,1.25c-1.245-1.546-3.211-2.517-6.099-2.92
			c1.264-1.756,1.842-3.937,1.536-6.549c1.049,1.438,7.44,10.173,7.993,11.494c0.403-0.085,0.707-0.174,0.811-0.271
			c-2.92-16.215-16.431-27.307-26.354-29.664c-11.97-3.832-26.958-1.998-37.772,1.346l0.428,2.017
			c9.105-2.775,17.354-3.98,24.549-3.722c19.976,1.018,26.049,9.576,30.039,13.386c3.068,3.712,5.417,8,7.043,12.861
			C367.651,131.205,366.727,129.07,365.696,127.132z M349.122,117.731c-0.075-0.703-0.053-1.302-0.135-1.806
			c3.177,0.714,11.116,8.104,11.694,8.725c0.471,3.619,0.078,6.207-0.976,7.67c-3.683-0.532-24.42,1.959-30.449,0.809
			c-9.055-1.426-13.162-6.876-12.321-16.353c3.434-0.877,5.854-1.391,7.26-1.541c-0.136,0.996-0.275,2.092-0.312,3.091
			c0.174,3.508,1.47,6.457,3.985,8.849c2.887,3.206,6.671,3.614,8.979,3.524c3.505-0.074,6.453-1.369,8.745-3.889
			C348.086,124.299,349.193,121.336,349.122,117.731z M336.937,117.095c0.5,0.018,0.992,0.235,1.381,0.55
			c0.481,0.518,0.66,1.124,0.642,1.624c0.075,0.704-0.146,1.296-0.561,1.681c-0.521,0.582-1.028,0.764-1.728,0.738
			c-0.6-0.021-1.092-0.239-1.577-0.656c-0.485-0.418-0.667-0.925-0.742-1.628c-0.079-0.604,0.14-1.096,0.661-1.678
			c0.414-0.385,0.924-0.667,1.524-0.646C336.737,117.087,336.837,117.091,336.937,117.095z"/>
	</g>
	<g>
		<path d="M382.557,102.422l-56.87-24.156l-22.194,7.809l0.097,0.104l21.54-0.728c28.391,11.926,43.477,18.171,45.157,18.731
			C373.934,105.714,381.115,103.571,382.557,102.422z"/>
	</g>
	<g>
		<path d="M488.455,118.83c0.356-1.588,1.335-3.754,2.932-6.399c1.491-2.548,2.955-4.297,4.083-5.057
			c-1.521,0.546-3.081,2.191-4.772,4.732C489.525,114.065,488.848,116.242,488.455,118.83z"/>
	</g>
	<g>
		<path d="M456.369,92.762l-46.384,15.447c0.807-0.172,15.762-4.238,20.53-6.068C436.979,100.472,450.986,94.971,456.369,92.762z"/>
	</g>
	<g>
		<path d="M409.831,134.82c1.971-4.732,4.619-8.84,7.946-12.322c4.253-3.515,10.924-11.616,30.922-11.199
			c7.195,0.258,15.336,2.051,24.219,5.472l0.571-1.98c-10.546-4.11-25.364-7.015-37.578-4.051
			c-10.066,1.64-24.337,11.735-28.412,27.699c0.096,0.104,0.394,0.214,0.789,0.328c0.646-1.277,7.646-9.532,8.796-10.891
			c-0.493,2.584-0.072,4.8,1.063,6.643c-2.909,0.195-4.94,1.023-6.293,2.476c0.511-0.282,2.92-0.496,7.031-0.749
			c2.482-0.083,21.984,4.519,29.355,4.556c1.795,0.165,15.601,0.26,20.863-6.956c1.582-2.245,4.83-9.133,3.697-16.579
			c-8.587-3.31-16.729-5.103-24.523-5.383c-9.59-0.444-17.87,1.66-24.938,6.209c-3.891,2.462-7.321,6.041-10.291,10.738
			C411.88,130.691,410.805,132.754,409.831,134.82z M433.12,129.952c2.105,2.678,4.953,4.181,8.444,4.506
			c2.295,0.255,6.099,0.119,9.208-2.872c2.681-2.206,4.185-5.053,4.609-8.541c0.036-0.999-0.024-2.102-0.089-3.105
			c1.393,0.25,3.77,0.936,7.131,2.057c0.159,9.512-4.328,14.654-13.461,15.427c-6.626,0.536-26.601-3.256-30.313-2.989
			c-0.946-1.535-1.152-4.145-0.424-7.721c0.621-0.578,9.07-7.379,12.29-7.864c-0.118,0.496-0.14,1.096-0.265,1.792
			C429.924,124.234,430.815,127.268,433.12,129.952z M442.852,120.896c0.599,0.021,1.088,0.339,1.474,0.753
			c0.479,0.618,0.66,1.125,0.538,1.721c-0.124,0.696-0.343,1.188-0.856,1.57s-1.021,0.563-1.62,0.542
			c-0.7-0.025-1.192-0.243-1.67-0.86c-0.387-0.414-0.564-1.021-0.439-1.717c0.019-0.5,0.24-1.092,0.758-1.574
			c0.409-0.286,0.916-0.467,1.416-0.449C442.552,120.885,442.651,120.889,442.852,120.896z"/>
	</g>
	<g>
		<path d="M410.007,107.609c1.716-0.438,17.212-5.586,46.384-15.446l21.433,2.27l0.103-0.097l-21.576-9.38l-58.456,20.017
			C399.249,106.222,406.259,108.875,410.007,107.609z"/>
	</g>
	<g>
		<path d="M469.923,39.014c-16.068-1.177-49.059,25.857-72.729,7.896c1.132-0.859,6.265-4.478,5.369-10.214
			c-61.664,7.364-72.767-20.026-85.895-21.194c-3.498-0.125-13.599,2.514-12.574,15.759c-0.001,8.406,8.076,28.708,7.062,31.874
			c-1.785,2.337-17.021,19.802-13.182,24.343c-1.426-4.854,15.979-21.44,16.804-24.914c0.14-3.897-5.873-23.508-6.341-29.646
			c-1.386-6.359,4.333-13.348,8.361-12.708c10.331,1.774,31.174,27.155,81.526,20.237c-0.485,2.384-2.852,4.201-7.207,5.645
			c24.241,27.187,63.022-5.042,77.872-3.409c13.496,0.385,8.703,16.823,2.21,24.895c0.749,1.428,13.785,25.711,13.975,26.018
			c-0.189-0.307-9.725-24.564-10.089-25.578C480.656,60.613,487.041,38.828,469.923,39.014z"/>
	</g>
	<g>
		<path d="M381.44,181.932c-0.738-4.529-2.458-6.792-5.359-6.797c-2.303,0.018-3.837,0.963-4.708,2.933
			c-0.111,0.297,1.4,1.288,1.77,0.864c1.467-1.849,2.699-2.705,3.795-2.565C379.106,176.607,380.715,179.575,381.44,181.932z"/>
	</g>
	<g>
		<path d="M394.599,177.534c1.103-0.061,2.23,0.854,3.562,2.804c0.096,0.103,2.047-0.138,1.858-0.778
			c-0.728-2.027-2.183-3.01-4.479-3.193c-2.894-0.204-4.716,1.951-5.777,6.416C390.655,180.484,392.417,177.618,394.599,177.534z"/>
	</g>
	<g>
		<path d="M411.617,208.231c-2.448-1.489-16.015-9.606-20.965-9.758c-3.235,3.049-8.813,2.968-12.491-0.448
			c-7.427,1.397-19.093,7.82-20.828,8.759c0.745,0.271,13.235,13.991,28.211,14.121C397.728,220.902,410.36,209.788,411.617,208.231
			z M396.826,210.502c-0.004,0.1-0.108,0.196-0.314,0.389c-0.411,0.286-0.722,0.575-1.129,0.76
			c-0.813,0.371-1.521,0.546-2.419,0.514c-0.5-0.018-1.196-0.143-1.785-0.465l-0.199-0.007c0.104-0.096,0.206-0.192,0.307-0.189
			c0.096,0.104,0.296,0.111,0.496,0.118c0.7,0.025,1.506-0.146,2.612-0.307c1.014-0.364,1.721-0.538,2.132-0.824l0.202-0.093l0,0
			C396.829,210.402,396.829,210.402,396.826,210.502z"/>
	</g>
</g>
<g>
	<path d="M485.118,113.207c0.118-0.496,5.384-10.614,7.976-10.321c5.597,0.201,4.122,21.762,2.061,31.794
		c-1.618,8.848-9.643,37.278-23.629,44.981c10.401-2.629,21.669-23.838,25.824-44.802c6.182-24.494-0.993-36.459-3.12-35.735
		C489.914,99.47,485.361,112.014,485.118,113.207z"/>
</g>
<g>
	<path d="M486.626,849.093c-2.256,43.643-38.951,129.838-41,134.843c8.52-14.397,41.31-78.258,46.349-133.677
		c10.503-72.771-2.595-144.104-6.865-161.034C487.208,707.55,497.013,790.834,486.626,849.093z"/>
</g>
<path d="M459.581,477.737c1.004-24.433,8.159-33.796,8.159-33.796s5.483,35.106,6.162,39.864c0.679,4.757,8.723,55.615,8.561,56.405
	l2.031,65.315c-3.82-39.025-6.136-65.44-5.979-66.131c0.139-0.611-5.343-50.502-5.961-54.152
	c-1.704-10.045-4.357-25.105-5.416-33.726c-1.226,2.756-3.701,4.38-4.296,24.6c-0.528,17.954-1.038,55.376,2.352,80.76
	c0.58,18.683,14.541,102.287,15.301,106.218c-13.716-47.223-19.662-86.413-20.661-111.497
	C458.213,510.949,459.263,485.494,459.581,477.737z"/>
<g>
	<path d="M514.927,762.881l0.34,26.009c-0.03,0.398-13.355,53.208-13.535,54.198c-3.037,30.655-1.184,46.452,5.672,47.297
		c9.452,1.604,13.518-7.251,14.266-9.098c0.136,0.813,4.606,46.812,12.08,57.536c10.333,14.515,17.226,6.686,21.341,1.597
		c14.115,18.677,24.054,0.907,23.48-7.664c15.883,5.274,20.233-11.166,11.78-21.794c9.849,7.524,14.277-3.457,13.02-10.042
		c-0.585-20.41-25.144-105.875-31.9-114.889c-1.671-2.941-18.172-28.829-18.357-29.045l15.766,28.84
		c6.03,9.959,29.561,92.582,31.471,115.255c0.114,6.128-0.688,14.064-12.938,6.433c4.275,9.753,10.089,29.039-11.612,21.009
		c1.779,10.425-7.443,25.49-21.636,5.905c-3.965,5.703-10.99,14.575-18.934-1.605c-5.147-8.434-11.11-58.363-11.495-61.102
		c-0.509,1.362-6.739,18.523-14.98,15.563c-4.729-1.079-4.963-29.688-3.611-42.922c0.163-0.789,12.087-54.915,12.119-55.313
		C516.696,775.962,515.89,767.171,514.927,762.881z"/>
</g>
<g>
	<path d="M546.501,732.888c1.536-6.7,7.535-46.851,5.675-66.359c0.056-17.751-6.59-63.521-6.841-64.144
		C549.565,648.866,550.425,697.387,546.501,732.888z"/>
</g>
<g>
	<path d="M494.578,680.61c4.614,22.736,10.067,43.734,16.172,62.878c-6.374-27.089-11.115-48.231-14.23-63.325
		c-2.166-10.605-4.722-25.154-7.666-43.645l-4.359-30.993C485.617,625.478,489.297,654.912,494.578,680.61z"/>
</g>
<path d="M410.535,254.446c-0.813,10.97,11.573,37.002,19.455,44.392c9.267,8.689,25.772,12.72,42.731,14.457
	c9.201,0.943,21.231,3.014,28.063,16.839c4.055,8.2,5.42,35.421,5.46,37.431c-0.181-1.519-4.914-29.163-7.541-35.144
	c-5.641-12.853-17.813-15.36-25.41-16.298c-8.808-1.087-33.3-2.968-45.54-15.407C417.509,290.304,409.278,262.531,410.535,254.446z"
	/>
<rect x="0.5" y="-0.5" fill="#FFFFFF" width="735" height="980"/>
</svg>
