<?xml version="1.0" encoding="iso-8859-1"?>
<!-- Generator: Adobe Illustrator 12.0.0, SVG Export Plug-In . SVG Version: 6.00 Build 51448)  -->
<!DOCTYPE svg PUBLIC "-//W3C//DTD SVG 1.1//EN" "http://www.w3.org/Graphics/SVG/1.1/DTD/svg11.dtd" [
	<!ENTITY ns_svg "http://www.w3.org/2000/svg">
	<!ENTITY ns_xlink "http://www.w3.org/1999/xlink">
]>
<svg  version="1.1" id="info" xmlns="&ns_svg;" xmlns:xlink="&ns_xlink;" width="142.1" height="142" viewBox="0 0 142.1 142"
	 style="overflow:visible;enable-background:new 0 0 142.1 142;" xml:space="preserve">
<g>
	<path style="fill:#FFFFFF;" d="M121.3,20.8C107.399,7,90.7,0,71.1,0C51.5,0,34.7,7,20.9,20.8C7,34.7,0,51.4,0,71
		c0,19.6,7,36.3,20.899,50.2C34.7,135.1,51.5,142,71.1,142c19.602,0,36.3-6.9,50.2-20.8c13.8-13.9,20.8-30.601,20.8-50.2
		C142.1,51.4,135.1,34.7,121.3,20.8z"/>
</g>
<g>
	<g>
		<path style="stroke:#000000;" d="M83.599,90.42c0.594-0.593,1.089-0.792,1.485-0.297c0.099,0,0.495,0.495,1.088,1.486
			c-4.455,4.553-8.019,7.721-10.396,9.602c-1.781,1.486-3.465,1.684-5.049,0.596c-1.584-1.091-2.376-2.771-2.178-4.951
			c0.693-10.791,1.188-18.811,1.485-24.057c-0.1-1.881-0.99-2.178-2.772-0.99c-1.979,1.584-3.168,2.674-3.663,3.068
			c-0.692,1.387-1.584,1.089-2.673-0.593c6.633-7.03,10.691-10.99,11.979-12.079c0.892-0.594,1.685-0.991,2.377-1.188
			c1.483-0.396,2.476,0.197,3.267,1.584c0.595,1.188,0.792,2.871,0.693,4.95c-0.198,2.375-0.495,6.732-1.089,12.87
			c-0.596,5.543-0.892,9.8-0.99,12.968c0.595,1.287,1.683,1.486,3.168,0.299C80.529,93.49,81.618,92.4,83.599,90.42z M74.193,43
			h0.495c2.476-0.594,4.06,0.396,4.853,2.871c0.89,1.882,0.594,3.861-0.793,5.643c-1.484,1.881-3.168,2.574-5.247,2.079
			c-2.476-0.693-3.663-2.475-3.366-5.346C70.333,45.277,71.718,43.594,74.193,43z"/>
	</g>
</g>
</svg>
