<?xml version="1.0" encoding="iso-8859-1"?>
<!-- Generator: Adobe Illustrator 12.0.0, SVG Export Plug-In . SVG Version: 6.00 Build 51448)  -->
<!DOCTYPE svg PUBLIC "-//W3C//DTD SVG 1.1//EN" "http://www.w3.org/Graphics/SVG/1.1/DTD/svg11.dtd" [
	<!ENTITY ns_svg "http://www.w3.org/2000/svg">
	<!ENTITY ns_xlink "http://www.w3.org/1999/xlink">
]>
<svg  version="1.1" id="music_on" xmlns="&ns_svg;" xmlns:xlink="&ns_xlink;" width="142.1" height="142" viewBox="0 0 142.1 142"
	 style="overflow:visible;enable-background:new 0 0 142.1 142;" xml:space="preserve">
<g>
	<g>
		<path style="fill:#FFFFFF;" d="M121.3,20.8C107.399,7,90.7,0,71.1,0C51.5,0,34.7,7,20.9,20.8C7,34.7,0,51.4,0,71
			c0,19.6,7,36.3,20.9,50.2C34.7,135.1,51.5,142,71.1,142c19.601,0,36.3-6.9,50.2-20.8c13.8-13.9,20.8-30.601,20.8-50.2
			C142.1,51.4,135.1,34.7,121.3,20.8z"/>
	</g>
	<g>
		<path d="M86.425,49.88l4.142,23.487c-1.705-0.339-2.847-0.595-3.394-0.589c-0.829-0.037-1.555-0.001-2.351,0.14
			c-2.659,0.469-4.646,1.642-6.05,3.534c-1.417,1.805-1.887,3.806-1.496,6.021c0.375,2.128,1.308,3.791,2.96,4.87
			c1.652,1.08,3.729,1.444,6.032,1.038c2.128-0.375,3.822-1.131,5.35-2.314c1.439-1.167,2.388-2.522,2.862-3.977
			c0.371-1.528,0.366-3.629-0.104-6.288l-6.345-35.985L59.674,53.134l5.579,31.642c-2.299-0.6-4.238-0.715-5.922-0.417
			c-2.659,0.469-4.661,1.552-6.064,3.444c-1.33,1.789-1.872,3.895-1.481,6.11s1.396,3.774,3.049,4.854
			c1.563,1.096,3.55,1.478,5.943,1.056c1.95-0.344,3.734-1.115,5.261-2.3c1.528-1.183,2.565-2.554,2.936-4.081
			c0.443-1.632,0.438-3.733-0.015-6.304l-4.798-27.21L86.425,49.88z"/>
		<path style="fill:none;stroke:#000000;stroke-linecap:round;stroke-linejoin:round;" d="M90.566,73.367
			c-1.705-0.339-2.847-0.595-3.394-0.589c-0.829-0.037-1.555-0.001-2.351,0.14c-2.659,0.469-4.646,1.642-6.05,3.534
			c-1.417,1.805-1.887,3.806-1.496,6.021c0.375,2.128,1.308,3.791,2.96,4.87c1.652,1.08,3.729,1.444,6.032,1.038
			c2.128-0.375,3.822-1.131,5.35-2.314c1.439-1.167,2.388-2.522,2.862-3.977c0.371-1.528,0.366-3.629-0.104-6.288l-6.345-35.985
			L59.674,53.134l5.579,31.642c-2.299-0.6-4.238-0.715-5.922-0.417c-2.659,0.469-4.661,1.552-6.064,3.444
			c-1.33,1.789-1.872,3.895-1.481,6.11s1.396,3.774,3.049,4.854c1.563,1.096,3.55,1.478,5.943,1.056
			c1.95-0.344,3.734-1.115,5.261-2.3c1.528-1.183,2.565-2.554,2.936-4.081c0.443-1.632,0.438-3.733-0.015-6.304l-4.798-27.21
			L86.425,49.88L90.566,73.367"/>
	</g>
</g>
</svg>
