<?xml version="1.0" encoding="iso-8859-1"?>
<!-- Generator: Adobe Illustrator 12.0.0, SVG Export Plug-In . SVG Version: 6.00 Build 51448)  -->
<!DOCTYPE svg PUBLIC "-//W3C//DTD SVG 1.1//EN" "http://www.w3.org/Graphics/SVG/1.1/DTD/svg11.dtd" [
	<!ENTITY ns_svg "http://www.w3.org/2000/svg">
	<!ENTITY ns_xlink "http://www.w3.org/1999/xlink">
]>
<svg  version="1.1" id="pause" xmlns="&ns_svg;" xmlns:xlink="&ns_xlink;" width="142.1" height="142" viewBox="0 0 142.1 142"
	 style="overflow:visible;enable-background:new 0 0 142.1 142;" xml:space="preserve">
<g>
	<g>
		<path style="fill:#FFFFFF;" d="M121.3,20.8C107.399,7,90.7,0,71.1,0C51.5,0,34.7,7,20.9,20.8C7,34.7,0,51.4,0,71
			c0,19.6,7,36.3,20.9,50.2C34.7,135.1,51.5,142,71.1,142c19.601,0,36.3-6.9,50.2-20.8c13.8-13.9,20.8-30.601,20.8-50.2
			C142.1,51.4,135.1,34.7,121.3,20.8z"/>
	</g>
	<g>
		<path d="M60.112,45.93c-1.5,0-2.75,0.271-3.875,0.99c-1,0.72-1.5,1.53-1.5,2.52v42.12c0,0.99,0.5,1.71,1.5,2.43
			c1.125,0.721,2.375,1.081,3.875,1.081s2.75-0.36,3.75-1.081c1.125-0.72,1.5-1.439,1.5-2.43v-42.12c0-0.989-0.375-1.8-1.5-2.52
			C62.862,46.2,61.612,45.93,60.112,45.93z"/>
	</g>
	<g>
		<path d="M82.6,45.93c-1.5,0-2.75,0.271-3.874,0.99c-1,0.72-1.501,1.53-1.501,2.52v42.12c0,0.99,0.501,1.71,1.501,2.43
			C79.85,94.71,81.1,95.07,82.6,95.07s2.75-0.36,3.75-1.081c1.126-0.72,1.625-1.439,1.625-2.43v-42.12c0-0.989-0.499-1.8-1.625-2.52
			C85.35,46.2,84.1,45.93,82.6,45.93z"/>
	</g>
</g>
</svg>
