<?xml version="1.0" encoding="iso-8859-1"?>
<!-- Generator: Adobe Illustrator 12.0.0, SVG Export Plug-In . SVG Version: 6.00 Build 51448)  -->
<!DOCTYPE svg PUBLIC "-//W3C//DTD SVG 1.1//EN" "http://www.w3.org/Graphics/SVG/1.1/DTD/svg11.dtd" [
	<!ENTITY ns_svg "http://www.w3.org/2000/svg">
	<!ENTITY ns_xlink "http://www.w3.org/1999/xlink">
]>
<svg  version="1.1" id="play" xmlns="&ns_svg;" xmlns:xlink="&ns_xlink;" width="142.5" height="142.5" viewBox="0 0 142.5 142.5"
	 style="overflow:visible;enable-background:new 0 0 142.5 142.5;" xml:space="preserve">
<g>
	<g>
		<path style="fill:#FFFFFF;" d="M142.5,71.201c0-19.6-6.9-36.4-20.9-50.4C107.7,6.901,90.9-0.099,71.3,0.001
			c-19.7-0.1-36.5,6.9-50.4,20.8C7,34.801,0,51.601,0,71.201c0,19.7,7,36.399,20.9,50.399c13.9,13.9,30.7,20.801,50.4,20.9
			c19.601-0.101,36.4-7,50.3-20.9C135.6,107.601,142.5,90.901,142.5,71.201z M103.54,70.502c0,2.099-0.619,3.25-2.193,4.09
			L62.444,97.434l-2.294,0.3l-2.195-0.697c-1.365-0.84-1.895-1.901-1.895-3.791V48.059c0-1.89,0.53-2.951,1.895-3.791
			c1.26-0.735,2.599-0.924,4.489-0.399l38.903,22.843C102.921,67.551,103.54,68.612,103.54,70.502z"/>
		<path d="M101.347,74.592c1.417-0.757,2.193-2.2,2.193-4.09c0-1.701-0.777-3.035-2.193-3.791L62.444,43.869
			c-1.701-0.472-3.355-0.263-4.489,0.399c-1.229,0.756-1.895,2.09-1.895,3.791v45.187c0,1.7,0.667,3.034,1.895,3.791l2.195,0.697
			l2.294-0.3L101.347,74.592z"/>
	</g>
</g>
</svg>
