<?xml version="1.0" encoding="iso-8859-1"?>
<!-- Generator: Adobe Illustrator 12.0.0, SVG Export Plug-In . SVG Version: 6.00 Build 51448)  -->
<!DOCTYPE svg PUBLIC "-//W3C//DTD SVG 1.1//EN" "http://www.w3.org/Graphics/SVG/1.1/DTD/svg11.dtd" [
	<!ENTITY ns_svg "http://www.w3.org/2000/svg">
	<!ENTITY ns_xlink "http://www.w3.org/1999/xlink">
]>
<svg  version="1.1" id="f:1" xmlns="&ns_svg;" xmlns:xlink="&ns_xlink;" width="736" height="981.9" viewBox="0 0 736 981.9"
	 style="overflow:visible;enable-background:new 0 0 736 981.9;" xml:space="preserve">
<g>
	<g>
		<path d="M493.4,16.1c2.399-5.3,2.5-10.2,0.5-14.9c-0.101,3.9,0.4,9.201-2.2,13.8c-4.2,4.8-15.8,13.8-16.8,14.4
			C476.3,28.8,491.101,20.2,493.4,16.1z"/>
	</g>
	<g>
		<path d="M496.4,1.1c0.699,1.9,5.1,18.3,2,30.8c-3.1,11.3-28.2,42.4-29.5,43.7c1.8-1.7,32.6-34.8,33.5-43.7
			C504.301,20.8,497.4,2.8,496.4,1.1z"/>
	</g>
	<g>
		<path d="M488.5,54.2c1.1,4.8,0.7,8.6-1.1,11.6c-1.301,1.8-10.2,12-10.801,12.6c0.9-0.7,10.701-7.997,12.7-11.9
			C491.301,61.403,488.9,54.9,488.5,54.2z"/>
	</g>
	<g>
		<path d="M370.299,253.076c7.304-0.334,15.166-2.581,20.604-6.732c-5.529,3.15-13.386,4.897-20.387,4.934
			c-7.566,0.418-22.266-4.394-23.194-4.668C349.695,248.18,360.956,252.905,370.299,253.076z"/>
	</g>
	<g>
		<path d="M246.1,26c-0.3-6.1,0.2-11.1,1.7-15c-0.5,0.9-4.1,10.4-4.1,14.7c0.6,4.9,9.8,15.3,10.8,16.3
			C253.9,41.3,246.9,30.6,246.1,26z"/>
	</g>
	<g>
		<path d="M270.9,0c-1.4,0.8-14.4,12.2-16.3,20.6c-3.5,8,7.2,42.9,7.9,44.9c-0.9-2.6-7.4-28.1-5-40C258.7,14.2,269.5,1.1,270.9,0z"
			/>
	</g>
	<path d="M339.455,252.873c-0.06,11-14.475,36.128-22.917,42.871c-9.926,7.928-26.699,10.638-43.743,11.027
		c-9.247,0.211-21.402,1.322-29.309,14.563c-4.69,7.854-8.208,34.881-8.407,36.881c0.3-1.5,7.209-28.682,10.3-34.436
		c6.642-12.365,18.974-13.9,26.624-14.234c8.865-0.386,33.43-0.322,46.616-11.751C329.657,288.224,340.067,261.032,339.455,252.873z
		"/>
	<g>
		<path d="M249,685.1c-5.1,16.7-21.7,87.3-14.8,160.5c2.3,55.6,31.9,121,39.7,135.8c-1.8-5.1-28.97-78.771-34.3-136.7
			S246,703.3,249,685.1z"/>
	</g>
	<g>
		<path d="M263.9,97c-2.1-0.8-9.7,10.9-4.4,35.6c3.4,21.1,13.9,42.7,24.2,45.7c-13.7-8.2-20.7-36.9-22-45.8
			c-1.7-10.1-2.4-31.7,3.2-31.7c2.601-0.2,7.5,10.1,7.6,10.6C272.3,110.2,268.2,97.5,263.9,97z"/>
	</g>
	<g>
		<path d="M268.6,110.1c-1.6-2.6-3.1-4.3-4.6-4.9c1.1,0.8,2.5,2.6,3.9,5.2c1.5,2.7,2.4,4.9,2.7,6.5
			C270.3,114.3,269.7,112.1,268.6,110.1z"/>
	</g>
	<g>
		<path d="M232.8,368.8c-5.9,23.8-55.4,219.8-55.5,220.4c2.2-8.399,16.45-62.8,20.4-64.899
			C199.582,519.906,231.25,376.65,232.8,368.8z"/>
	</g>
	<g>
		<path d="M537.145,524.3c3.95,2.1,18.201,56.5,20.4,64.899c-0.1-0.6-49.6-196.6-55.5-220.4
			C503.595,376.65,535.264,519.906,537.145,524.3z"/>
	</g>
	<path d="M275.648,471.973C273.97,459.529,267.2,437.4,267.2,437.4s-8.247,34.561-9.3,39.25s-13.101,54.75-13,55.55l-7.2,64.95
		c6.9-38.6,11.3-64.75,11.2-65.45c-0.089-0.62,9.325-49.919,10.231-53.509c2.494-9.878,6.332-24.681,8.069-33.19
		c1.004,2.844,3.681,13.952,5.326,25.1c2.458,16.66,6.272,60.153,1.974,85.399c-1.25,18.65-18.2,101.7-19.1,105.601
		c15.4-46.7,22.748-85.652,24.646-110.685C283.123,509.852,276.596,479.007,275.648,471.973z"/>
	<g>
		<path d="M495.347,844.7c-5.33,57.93-32.5,131.601-34.3,136.7c7.8-14.8,37.399-80.2,39.699-135.8c6.9-73.2-9.699-143.8-14.8-160.5
			C488.946,703.3,500.676,786.77,495.347,844.7z"/>
	</g>
	<path d="M459.299,471.973c1.678-12.444,8.447-34.573,8.447-34.573s8.247,34.561,9.3,39.25c1.054,4.689,13.101,54.75,13.001,55.55
		l7.199,64.95c-6.899-38.6-11.3-64.75-11.199-65.45c0.089-0.62-9.325-49.919-10.231-53.509c-2.494-9.878-6.332-24.681-8.069-33.19
		c-1.004,2.844-3.681,13.952-5.325,25.1c-2.459,16.66-6.272,60.153-1.975,85.399c1.25,18.65,18.2,101.7,19.101,105.601
		c-15.4-46.7-22.748-85.652-24.646-110.685C451.823,509.852,458.351,479.007,459.299,471.973z"/>
	<g>
		<path d="M190.5,777.5c0,0.399,7.6,55.3,7.7,56.1c0.3,13.3-2.2,41.8-7,42.5c-8.45,2.3-13.3-15.301-13.7-16.7
			c-0.6,2.7-10.5,52-16.3,60c-9.2,15.5-15.5,6.1-19,0.101c-15.7,18.399-23.7,2.649-21.1-7.601
			c-22.27,6.285-14.947-12.479-9.913-21.862C98.373,896.674,98.2,888.7,98.8,882.6c3.7-22.45,33.7-102.95,40.5-112.4l18-27.5
			c-0.2,0.2-18.7,24.7-20.6,27.5c-7.45,8.45-38.7,91.7-40.9,112c-1.775,6.465,1.77,17.763,12.184,11.042
			C98.714,903.166,101.75,919.9,118,915.9c-1.25,8.5,7.25,27,22.8,9.5c3.7,5.399,9.95,13.75,21.4,0.1
			c8.3-10.1,16.4-55.6,16.6-56.399c0.6,1.9,3.95,11.05,13.5,10.199c6.9-0.299,10-15.899,9.4-46.699c-0.1-1-9.2-54.7-9.2-55.1
			l2.4-25.9C193.6,755.8,192.1,764.5,190.5,777.5z"/>
	</g>
	<g>
		<path d="M372.6,921.2l-3.5-60.9l-3.2,60.801l3.5-32.7L372.6,921.2z"/>
	</g>
	<g>
		<path d="M177.3,589.2c-0.3,0.601-10.55,45.7-11.9,63.4c-3.4,19.3-0.6,59.8,0.4,66.6C164.7,683.5,169.4,635.2,177.3,589.2z"/>
	</g>
	<g>
		<path d="M237.7,597.15l-6.8,30.55c-4.4,18.2-8.1,32.5-11.1,42.9c-4.3,14.8-10.7,35.5-19.2,62c7.6-18.601,14.7-39.101,21.1-61.4
			C229,646,235,616.95,237.7,597.15z"/>
	</g>
	<g>
		<path d="M247.2,10.5c-1.2,1.2-18.5,21.7-11,52.9c11.9,7.8,18,48.7,18.2,51.2c0-2.4-4.1-48-14.1-53.4
			C234.3,39.4,245.6,12.7,247.2,10.5z"/>
	</g>
	<g>
		<path d="M489.3,53.7c1,2,7.001,15.903,5.101,23.7c-4.3,2.203-8,29.8-8,31.2c0.199-1.5,5.7-25.397,11.5-29.6
			C498.9,64.403,490.3,54.7,489.3,53.7z"/>
	</g>
	<g>
		<path d="M329.1,105.3c4.7,2,19.5,6.6,20.3,6.8L303.6,95C308.9,97.4,322.7,103.4,329.1,105.3z"/>
	</g>
	<g>
		<path d="M345.6,129.6c-2.8-4.8-6.1-8.5-9.9-11.1c-6.9-4.8-15.1-7.2-24.7-7.1c-7.8,0-16,1.5-24.7,4.5c-1.399,7.4,1.6,14.4,3.1,16.7
			c5,7.4,18.8,7.8,20.6,7.7c7.555,0.509,28.014-3.752,29.5-3.5c4.1,0.4,6.5,0.7,7,1c-1.3-1.5-3.3-2.4-6.2-2.7c1.2-1.8,1.7-4,1.3-6.6
			c1.1,1.4,7.8,9.9,8.4,11.2c0.4-0.1,0.7-0.2,0.8-0.3c-3.5-16.1-17.399-26.7-27.4-28.7c-12.1-3.4-27.013-1.029-37.7,2.7l0.5,2
			c9-3.1,17.2-4.6,24.4-4.6c20,0.3,26.376,8.635,30.5,12.3c3.2,3.6,5.7,7.8,7.5,12.6C347.7,133.6,346.7,131.5,345.6,129.6z
			 M328.7,120.8c-0.1-0.7-0.1-1.3-0.2-1.8c3.2,0.6,11.4,7.7,12,8.3c0.6,3.6,0.3,6.2-0.7,7.7c-3.7-0.4-24.334,2.834-30.4,1.9
			c-9.1-1.1-13.4-6.4-12.9-15.9c3.4-1,5.8-1.6,7.2-1.8c-0.1,1-0.2,2.1-0.2,3.1c0.3,3.5,1.7,6.4,4.3,8.7c3,3.1,6.797,3.372,9.1,3.2
			c3.5-0.2,6.4-1.6,8.6-4.2C327.9,127.4,328.9,124.4,328.7,120.8z M316.5,120.6c0.5,0,1,0.2,1.4,0.5c0.5,0.5,0.7,1.1,0.7,1.6
			c0.1,0.7-0.1,1.3-0.5,1.7c-0.5,0.6-1,0.8-1.7,0.8c-0.6,0-1.1-0.2-1.6-0.6c-0.5-0.4-0.7-0.9-0.8-1.6c-0.1-0.6,0.1-1.1,0.6-1.7
			c0.4-0.4,0.9-0.7,1.5-0.7C316.3,120.6,316.4,120.6,316.5,120.6z"/>
	</g>
	<g>
		<path d="M361.6,109.3l-57.7-22.1L282,95.8l0.1,0.1l21.5-1.5c28.8,10.9,44.1,16.6,45.8,17.1C353.1,112.9,360.2,110.5,361.6,109.3z"
			/>
	</g>
	<g>
		<path d="M467.982,116.9c0.3-1.6,1.2-3.8,2.7-6.5c1.399-2.6,2.8-4.4,3.899-5.2c-1.5,0.6-3,2.3-4.6,4.9
			C468.882,112.1,468.282,114.3,467.982,116.9z"/>
	</g>
	<g>
		<path d="M434.982,95l-45.8,17.1c0.8-0.2,15.6-4.8,20.3-6.8C415.882,103.4,429.683,97.4,434.982,95z"/>
	</g>
	<g>
		<path d="M389.982,135.7c1.8-4.8,4.3-9,7.5-12.6c4.124-3.665,10.5-12,30.5-12.3c7.2,0,15.399,1.5,24.399,4.6l0.5-2
			c-10.687-3.729-25.6-6.1-37.699-2.7c-10.001,2-23.9,12.6-27.4,28.7c0.1,0.1,0.4,0.2,0.8,0.3c0.601-1.3,7.3-9.8,8.4-11.2
			c-0.4,2.6,0.1,4.8,1.3,6.6c-2.9,0.3-4.9,1.2-6.2,2.7c0.5-0.3,2.9-0.6,7-1c2.478-0.171,22.132,3.727,29.5,3.5
			c1.8,0.1,15.6-0.3,20.601-7.7c1.5-2.3,4.499-9.3,3.1-16.7c-8.7-3-16.9-4.5-24.7-4.5c-9.6-0.1-17.8,2.3-24.7,7.1
			c-3.8,2.6-7.1,6.3-9.899,11.1C391.882,131.5,390.882,133.6,389.982,135.7z M413.082,130c2.2,2.6,5.101,4,8.601,4.2
			c2.303,0.172,6.1-0.1,9.1-3.2c2.6-2.3,4-5.2,4.3-8.7c0-1-0.1-2.1-0.2-3.1c1.4,0.2,3.801,0.8,7.2,1.8c0.5,9.5-3.8,14.8-12.899,15.9
			c-6.603,0.773-26.7-2.3-30.4-1.9c-1-1.5-1.3-4.1-0.7-7.7c0.601-0.6,8.8-7.7,12-8.3c-0.1,0.5-0.1,1.1-0.2,1.8
			C409.683,124.4,410.683,127.4,413.082,130z M422.482,120.6c0.6,0,1.1,0.3,1.5,0.7c0.5,0.6,0.7,1.1,0.6,1.7
			c-0.1,0.7-0.3,1.2-0.8,1.6c-0.5,0.4-1,0.6-1.6,0.6c-0.7,0-1.2-0.2-1.7-0.8c-0.4-0.4-0.601-1-0.5-1.7c0-0.5,0.2-1.1,0.7-1.6
			c0.399-0.3,0.899-0.5,1.399-0.5C422.183,120.6,422.282,120.6,422.482,120.6z"/>
	</g>
	<g>
		<path d="M389.183,111.5c1.699-0.5,17-6.2,45.8-17.1l21.5,1.5l0.1-0.1l-21.899-8.6l-57.7,22.1
			C378.382,110.5,385.482,112.9,389.183,111.5z"/>
	</g>
	<g>
		<path d="M446.6,37.8C430.5,37.2,398.5,65.4,374.2,48.3c1.101-0.899,6.101-4.7,5-10.4c-61.361,9.571-73.439-17.403-86.6-18.1
			c-3.5,0-13.5,3-12,16.2c0.3,8.4,9.1,28.4,8.2,31.6C287.1,70,272.5,88,276.5,92.4c-1.6-4.8,15.2-22,15.9-25.5
			c0-3.9-6.712-23.282-7.4-29.4c-1.613-6.306,3.851-13.495,7.9-13c10.388,1.403,32.128,26.02,82.2,17.3c-0.399,2.4-2.699,4.3-7,5.9
			c25.201,26.3,62.8-7.299,77.7-6.2c13.501-0.1,9.301,16.5,3.101,24.8c0.8,1.4,14.699,25.2,14.899,25.5c-0.2-0.3-10.6-24.2-11-25.2
			C458.101,59,463.7,37,446.6,37.8z"/>
	</g>
	<g>
		<path d="M363.3,183.8c-0.9-4.5-2.7-6.7-5.6-6.6c-2.3,0.1-3.8,1.1-4.6,3.1c-0.1,0.3,1.446,1.237,1.8,0.8c1.4-1.9,2.6-2.8,3.7-2.7
			C360.776,178.563,362.49,181.471,363.3,183.8z"/>
	</g>
	<g>
		<path d="M376.292,178.933c1.1-0.1,2.26,0.774,3.66,2.674c0.1,0.1,2.04-0.211,1.829-0.844c-0.8-2-2.289-2.93-4.59-3.03
			c-2.899-0.1-4.644,2.119-5.544,6.619C372.457,182.022,374.115,179.095,376.292,178.933z"/>
	</g>
	<g>
		<path d="M394.4,209c-2.5-1.4-16.349-9.025-21.301-9c-3.124,3.163-8.701,3.282-12.5,0c-7.372,1.663-18.8,8.5-20.5,9.5
			c0.754,0.245,13.728,13.507,28.7,13.1C380.975,222.16,393.2,210.6,394.4,209z M379.7,211.8c0,0.1-0.101,0.2-0.3,0.4
			c-0.4,0.3-0.7,0.6-1.101,0.8c-0.8,0.4-1.5,0.6-2.399,0.6c-0.5,0-1.2-0.1-1.801-0.4H373.9c0.1-0.1,0.199-0.2,0.3-0.2
			c0.1,0.1,0.3,0.1,0.5,0.1c0.7,0,1.5-0.2,2.6-0.4c1-0.4,1.7-0.6,2.101-0.9l0.199-0.1l0,0C379.7,211.7,379.7,211.7,379.7,211.8z"/>
	</g>
</g>
<g>
	<path d="M464.446,111.4c0.101-0.5,5-10.8,7.601-10.6c5.6,0,4.899,21.6,3.199,31.7c-1.3,8.9-8.3,37.6-22,45.8
		c10.3-3,20.8-24.6,24.2-45.7c5.3-24.7-2.3-36.4-4.399-35.6C468.746,97.5,464.646,110.2,464.446,111.4z"/>
</g>
<g>
	<path d="M540.047,751.6l2.399,25.9c0,0.399-9.1,54.1-9.2,55.1c-0.6,30.8,2.5,46.4,9.4,46.699c9.55,0.851,12.9-8.299,13.5-10.199
		c0.2,0.8,8.3,46.3,16.6,56.399c11.45,13.65,17.7,5.3,21.4-0.1c15.55,17.5,24.05-1,22.8-9.5c16.25,4,19.286-12.734,10.017-22.658
		c10.414,6.721,13.959-4.577,12.184-11.042c-2.2-20.3-33.45-103.55-40.9-112c-1.899-2.8-20.399-27.3-20.6-27.5l18,27.5
		c6.8,9.45,36.8,89.95,40.5,112.4c0.6,6.1,0.428,14.074-12.388,7.438c5.034,9.383,12.357,28.147-9.912,21.862
		c2.6,10.25-5.4,26-21.101,7.601c-3.5,5.999-9.8,15.399-19-0.101c-5.8-8-15.699-57.3-16.3-60c-0.399,1.399-5.25,19-13.7,16.7
		c-4.8-0.7-7.3-29.2-7-42.5c0.101-0.8,7.7-55.7,7.7-56.1C542.847,764.5,541.347,755.8,540.047,751.6z"/>
</g>
<g>
	<path d="M569.146,719.2c1-6.8,3.8-47.3,0.4-66.6c-1.351-17.7-11.601-62.8-11.9-63.4C565.547,635.2,570.246,683.5,569.146,719.2z"/>
</g>
<g>
	<path d="M513.246,671.2c6.4,22.3,13.5,42.8,21.101,61.4c-8.5-26.5-14.9-47.2-19.2-62c-3-10.4-6.7-24.7-11.1-42.9l-6.801-30.55
		C499.946,616.95,505.946,646,513.246,671.2z"/>
</g>
<path d="M395.705,252.873c0.06,11,14.475,36.128,22.916,42.871c9.927,7.928,26.699,10.638,43.743,11.027
	c9.247,0.211,21.402,1.322,29.309,14.563c4.69,7.854,8.208,34.881,8.407,36.881c-0.3-1.5-7.209-28.682-10.3-34.436
	c-6.642-12.365-18.974-13.9-26.623-14.234c-8.865-0.386-33.43-0.322-46.616-11.751C405.503,288.224,395.093,261.032,395.705,252.873
	z"/>
<path d="M397.832,128.022c-8.323,17.998,50.17,7.424,48.82,5.849c-0.878-1.024,2.667-4.163,1.729-10.771
	c-0.94-6.608-13.295-10.317-27.596-8.284S400.634,121.964,397.832,128.022z"/>
<path d="M340.729,128.022c8.323,17.998-50.17,7.424-48.82,5.849c0.878-1.024-2.667-4.163-1.729-10.771
	c0.94-6.608,13.295-10.317,27.596-8.284S337.927,121.964,340.729,128.022z"/>
<ellipse transform="matrix(0.6975 0.7166 -0.7166 0.6975 198.8585 -205.5125)" cx="342.843" cy="132.776" rx="6.276" ry="3.873"/>
<ellipse transform="matrix(-0.6975 0.7166 -0.7166 -0.6975 766.5735 -58.3414)" cx="395.601" cy="132.626" rx="6.276" ry="3.873"/>
<rect x="0.5" y="1.4" style="fill:#FFFFFF;stroke:#000000;" width="735" height="980"/>
</svg>
