<?xml version="1.0" encoding="iso-8859-1"?>
<!-- Generator: Adobe Illustrator 12.0.0, SVG Export Plug-In . SVG Version: 6.00 Build 51448)  -->
<!DOCTYPE svg PUBLIC "-//W3C//DTD SVG 1.1//EN" "http://www.w3.org/Graphics/SVG/1.1/DTD/svg11.dtd" [
	<!ENTITY ns_svg "http://www.w3.org/2000/svg">
	<!ENTITY ns_xlink "http://www.w3.org/1999/xlink">
]>
<svg  version="1.1" id="f:15" xmlns="&ns_svg;" xmlns:xlink="&ns_xlink;" width="736" height="1031.382" viewBox="0 0 736 1031.382"
	 style="overflow:visible;enable-background:new 0 0 736 1031.382;" xml:space="preserve">
<g>
	<path d="M289.588,199.862c-6.958-4.057-16.023-25.71-16.166-27.729c0.448,2.515,10.597,19.001,17.154,24.278
		c6.559,5.277,33.788,12.214,36.957,18.797C323.126,210.128,296.545,203.918,289.588,199.862z"/>
</g>
<g>
	<path d="M473.414,60.479c-7.4-0.75-14.355-3.331-20.068-9.202c1.248-0.681,6.863-3.492,6.834-9.298
		c-62.073-1.924-68.963-30.665-81.769-33.78c-3.439-0.646-13.821,0.456-14.785,13.706c-1.256,8.312,3.699,29.592,2.224,32.571
		c-2.114,2.045-19.786,17.039-16.668,22.102c-0.686-5.013,19.001-18.814,20.336-22.125c0.719-3.833-2.298-24.121-1.844-30.261
		c-0.421-6.495,6.276-12.552,10.165-11.317c9.95,3.297,26.771,31.505,77.592,32.181c-0.836,2.285-3.447,3.728-7.969,4.506
		c6.994,10.714,16.945,14.433,27.531,14.918C475.488,64.501,473.885,60.526,473.414,60.479z"/>
</g>
<g>
	<path d="M289.294,42.616c1.405-6.741,3.797-12.114,7.507-16.076c-1.112,0.883-10.06,10.546-11.402,15.254
		c-0.533,5.49,11.507,18.771,12.856,20.072C297.477,60.975,289.186,47.818,289.294,42.616z"/>
</g>
<g>
	<path d="M338.621,0c-2.576,0.7-27.401,23.574-33.181,34.07c-20.762,27.576,25.502,63.901,26.042,66.684
		c-0.684-3.614-37.023-40.412-24.926-58.933C312.079,27.369,335.951,1.093,338.621,0z"/>
</g>
<g>
	<path d="M295.961,25.869c-2.369,1.067-23.153,30.677-20.432,66.386c17.951,5.838-3.196,24.6-3.646,27.379
		c0.75-2.629,26.936-21.343,8.342-27.992C277.061,66.535,292.615,27.949,295.961,25.869z"/>
</g>
<g>
	<g>
		<path d="M304.063,130.35c-7.562-18.95-30.813-23.824-32.689-2.201c-1.522,17.548,22.142,71.669,41.241,46.715
			c-20.245,30.876-52.038-33.638-43.317-54.651C277.785,99.762,301.644,112.772,304.063,130.35z"/>
	</g>
	<g>
		<path d="M280.018,120.793c4.686-3.969,14.785,1.53,18.061,9.906c-6.275-4.635-12.072-9.7-15.293-8.341
			c-3.998,1.686-2.83,22.887,2.769,31.855C278.982,146.658,274.51,125.457,280.018,120.793z"/>
	</g>
</g>
<path d="M284.097,185.746c2.883,1.708,11.515-5.133,12.795-5.822c-1.423,0.61-9.537,5.653-11.942,4.636
	c-2.398-1.017-6.615-6.762-7.992-10.103C277.082,175.418,281.215,184.039,284.097,185.746z"/>
<path d="M267.109,78.196c0.725,3.271,10.628,4.754,12.008,5.216c-1.419-0.621-9.656-2.955-10.56-5.404
	c-0.899-2.446,0.41-9.451,1.906-12.742C269.847,66.016,266.383,74.926,267.109,78.196z"/>
<g>
	<path d="M264.216,100.45c-1.128-7.976,4.25-34.232,5.747-35.593c-1.695,1.91-2.349,25.815-2.426,34.23
		c-0.077,8.417,9.505,8.033,6.302,14.598C275.096,107.08,265.343,108.423,264.216,100.45z"/>
</g>
<g>
	<path d="M373.18,82.612c10.047,7.035,14.047,9.729,23.121,14.947c4.332,2.769,18.048,10.227,18.6,10.537L373.18,82.612z"/>
</g>
<g>
	<path d="M419.71,135.66c0.212-0.006,0.802-0.249,0.802-0.249c-2.864-12.509-8.67-21.138-17.585-26.52
		c-5.596-3.366-26.159-10.688-51.458-3.97l0.366,2.028c17.923-5.061,38.413-3.06,50.142,2.983c3.888,2.354,7.21,5.012,10.037,8.6
		c2.913,3.794,5.104,8.144,6.57,13.047c-0.746-2.252-1.602-4.311-2.562-6.276c-2.546-4.973-5.453-8.867-9.016-11.702
		c-11.509-9.557-36.071-11.562-55.106-6.146c-1.476,5.073-0.598,12.298,2.005,16.862c2.781,4.878,6.558,12.253,25.474,10.449
		c10.594-1.01,24.29-2.589,27.064-2.564c4.374-0.721,9.952,1.341,9.952,1.341c-0.879-1.544-3.451-2.696-5.908-3.085
		c1.287-1.721,1.815-3.891,1.682-6.505C413.77,126.342,419.01,133.366,419.71,135.66z M411.167,122.687
		c0.268,3.625-0.083,6.107-1.161,7.641c-4.706-0.863-22.457,1.3-29.907-0.018c-9.156-2.261-15.464-6.96-14.598-16.87
		c3.042-0.82,9.017-1.023,10.107-1.154c-0.258,0.985-0.319,1.983-0.388,3.081c-0.021,3.506,1.27,6.495,3.676,8.954
		c2.301,2.553,5.276,3.746,8.72,3.767c3.441,0.021,6.271-1.2,8.687-3.65c2.414-2.45,3.685-5.475,3.704-8.98
		c-0.055-0.705-0.115-1.31-0.084-1.809C403.305,114.688,410.433,121.838,411.167,122.687z M386.212,118.375
		c-0.465-0.431-0.722-1.048-0.685-1.647c-0.061-0.605,0.172-1.191,0.693-1.659c0.423-0.474,0.926-0.642,1.513-0.604
		c0.692-0.056,1.268,0.181,1.733,0.612c0.36,0.524,0.624,1.042,0.587,1.641c-0.043,0.698-0.173,1.191-0.595,1.665
		c-0.521,0.468-1.128,0.729-1.716,0.691C387.154,119.037,386.579,118.8,386.212,118.375z"/>
</g>
<g>
	<path d="M427.429,107.564l-52.455-32.652l-27.362,5.607l25.701,1.405c26.305,16.188,40.146,24.671,41.721,25.484
		C419.424,109.919,426.137,107.926,427.429,107.564z"/>
</g>
<path d="M440.921,247.103c-8.655,3.559-22.007,2.534-28.992,1.808c6.963,1.878,19.462,3.819,29.9-0.216
	c7.207-2.786,14.626-16.462,15.101-17.855C453.712,233.548,448.704,243.903,440.921,247.103z"/>
<g>
	<path d="M479.751,113.244c-0.011,0.18-0.022,0.357-0.032,0.539c-5.541,0.734-23.795,2.324-24.18,2.374L479.751,113.244z"/>
</g>
<g>
	<path d="M452.002,137.177c1.357-4.022,0.32-6.141,2.39-8.473c-1.44,2.723-1.696,7.551-2.167,11.187
		C452.367,138.348,451.5,138.771,452.002,137.177z"/>
	<path d="M453.964,136.085c0.197,2.436,0.617,4.593,1.879,6.113c-1.188-0.037-1.358,0.193-2.107,0.62
		c1.172,0.069,3.048,0.459,5.636,1.633c2.586,1.176,9.209,5.398,16.691,4.69c0.713-0.028,1.853-0.738,2.646-1.349
		c0.386-2.378,0.729-3.752,0.997-6.121c-1.156,2.398-3.911,3.758-7.572,4.229c-5.81,0.249-12.07-3.837-15.737-3.651
		c-1.04-1.582-1.57-3.855-1.775-7.221c0.132-1.062,2.829-3.362,4.086-4.372c0.068,0.393,0.086,1.857,0.117,2.402
		c0.351,2.736,1.15,4.875,2.991,7.052c1.841,2.178,3.743,3.465,6.2,3.546c2.314,0.077,4.1-1.027,5.631-3.249
		c1.531-2.224,0.961-4.675,0.735-6.363c-0.17-1.278-0.603-2.575-0.944-3.211c0.737,0.223,4.566,0.782,7.096,1.955
		c0.127,0.655,0.155,3.852,0.244,4.453c0.057-3.085,0.232-8.378,0.341-11.394c-11.051-4.374-19.134-4.189-26.197,2.314
		c-0.198,0.183-0.37,0.362-0.529,0.541c-1.44,2.723-1.696,7.551-2.167,11.187c-0.017,0.131-0.033,0.264-0.05,0.391
		c0.017-0.127,0.033-0.26,0.05-0.391c0.143-1.543-0.725-1.12-0.223-2.714c1.357-4.022,0.32-6.141,2.39-8.473
		c0.3-0.565,0.646-1.048,1.061-1.401c7.018-5.967,14.734-5.969,25.641-1.897c-0.096-0.645-0.203-1.29-0.326-1.933
		c-14.305-4.947-21.804-1.774-25.638,1.786c-3.335,3.097-4.525,9.051-4.053,18.363c0,0,0.5,0.306,0.671,0.339
		C452.042,141.902,452.962,138.115,453.964,136.085z M464.428,135.579c-0.081-0.471,0.043-0.846,0.233-1.215
		c0.268-0.285,0.628-0.407,1.093-0.287c0.388,0.035,0.737,0.222,1.064,0.637c0.392,0.422,0.604,0.906,0.62,1.371
		c0.083,0.471-0.029,0.924-0.297,1.209c-0.203,0.29-0.563,0.412-0.95,0.376c-0.388-0.036-0.816-0.306-1.208-0.728
		C464.657,136.527,464.523,136.128,464.428,135.579z"/>
</g>
<g>
	<path d="M479.977,106.495c-0.342-0.043-0.411,3.913-0.421,6.014c-10.518,1.629-19.619,2.561-20.691,2.674
		c-9.82,1.23-12.216-2.019-14.686-3.353L479.977,106.495z"/>
</g>
<path d="M428.486,173.773c-0.291,0.053,0.91,1.366,1.904,0.864c4.619-5.843,13.901-1.48,14.049,2.69
	C444.411,167.44,430.716,169.108,428.486,173.773z"/>
<path d="M451.427,178.225c0.963-2.329,3.285-4.947,5.03-3.646c0.703,0.304,1.554-0.49,1.348-0.522
	C456.757,171.509,451.857,174.315,451.427,178.225z"/>
<g>
	<path d="M450.181,195.539c-3.785,3.521-9.162,0.34-11.389-2.271c-4.263-0.464-28.225,7.828-32.837,10.347
		c2.2,2.3,24.784,13.14,36.252,12.877c10.063,0.371,11.742-4.801,11.357-10.186C453.181,200.923,452.873,195.923,450.181,195.539z
		 M432.848,206.183c1.4,0.4,2.4,0.5,3.1,0.4c0.101,0,0.101,0,0.2,0.1l-0.1,0.1c-1.601,0.5-2.9,0.4-4.2-0.3c-0.4-0.2-0.8-0.4-1.1-0.7
		c-0.2-0.2-0.301-0.4-0.301-0.4c0-0.2,0.101-0.2,0.101-0.1l0.2,0.1C431.147,205.583,431.748,205.883,432.848,206.183z"/>
</g>
<path d="M479.907,136.734c-0.127,3.509-1.523,7.079-2.219,11.117c1.309-1.708,3.105-3.681,3.105-10.318
	c0-6.217-0.339-9.652-1.627-11.858C479.681,128.721,480.033,133.225,479.907,136.734z"/>
<path d="M450.379,489.732c-3.341,21.92-1.368,42.382,1.665,73.258c3.033,30.874,9.705,60.689,26.181,107.021
	c-2.845-10.536-16.449-67.62-21.536-105.131C451.604,527.371,449.895,494.744,450.379,489.732z"/>
<g>
	<path d="M541.255,604.104l25.581,16.113c19.925,11.244,85.937,94.234,95.35,106.279c1.757,3.65,1.827,4.75-4.384,6.941
		c-2.192,2.558,1.826,10.961,6.576,17.172c6.576,6.941-10.596,26.305-17.729,3.173c-14.979-7.672-49.393-62.813-54.61-68.205
		c0.055,1.836,1.756,14.715-6.941,17.902c-5.077,2.564-30.868-28.165-34.872-35.209c-1.237-2.055-3.021-17.598-3.124-17.768
		c-18.999-14.248-26.671-20.459-30.324-21.921l27.767,25.209c0.12,0.395,0.173,12.838,1.461,14.979
		c16.956,25.494,33.004,42.228,39.181,40.065s8.339-5.56,9.411-8.645c1.167,1.165,35.978,52.13,48.765,57.61
		c0.815,10.334,14.649,17.249,23.053,8.48c7.37-7.691,10.501-7.722-5.251-29.032c12.046-4.324,6.138-11.12,3.946-14.772
		c-12.604-15.74-79.14-96.181-96.092-103.659C560.388,615.011,541.255,604.104,541.255,604.104z"/>
</g>
<g>
	<path d="M370.248,933.583l-3.209-60.738l-3.492,60.938l3.201-32.899L370.248,933.583z"/>
</g>
<g>
	<path d="M475.929,604.522c5.647,3.871,15.265,11.357,21.18,13.43c-12.127-4.304-21.079-5.881-28.01-17.576
		C469.099,600.375,470.66,600.911,475.929,604.522z"/>
</g>
<g>
	<path d="M156.916,597.618c-20.219-20.882-26.019-27.014-12.007-62.607c0.568-0.538,50.698-131.289,55.818-147.401
		c-16.364,43.504-48.432,109.255-59.832,145.345C125.429,580.05,129.511,578.268,156.916,597.618z"/>
</g>
<g>
	<path d="M458.3,531.435c11.232,8.55,17.052,18.351,24.116,25.485c6.605,6.67,25.369,25.251,34.417,32.963
		c-7.285-5.949-17.37-18.165-29.351-32.008C479.253,548.367,461.353,532.879,458.3,531.435z"/>
</g>
<path d="M182.652,541.526c0,0,20.029-39.292,27.684-54.601c7.776-15.553,29.942-67.054,29.942-67.054s10.742,11.984,16.367,20.361
	c8.994,13.396,14.911,35.872,15.51,53.274c0.882,22.209-0.298,44.159-3.246,64.557c0.339-11.009,1.841-53.916-0.208-70.947
	c-1.996-16.596-5.885-31.333-14.352-44.779c-6.507-10.333-12.427-13.855-12.427-13.855s-17.277,35.282-27.186,55.955
	s-27.353,57.157-27.353,57.157l7.736,16.578L182.652,541.526z"/>
<path d="M458.715,399.487c2.131,4.548,4.587,32.712,3.879,45.895c-0.709,13.181-6.293,28.3-12.215,44.351
	c7.569-13.055,14.908-30.877,15.515-44.432C466.404,433.9,461.651,404.092,458.715,399.487z"/>
<g>
	<path d="M191.952,641.198c3.814,6.319,5.457,28.26,25.635,35.827c12.354,4.633,24.925-8.018,21.928-16.369
		c30.113,0.979,28.238-23.052,15.752-30.886c29.032,6.486,30.576-22.237,10.091-29.379c18.015,3.744,23.883-13.242,20-20.29
		c1.469,0.734,10.368-16.116-7.236-21.984c-12.604-4.201-20.184,6.316-24.101,7.051c-4.337-0.883-22.789,2.861-28.399,6.365
		c9.771-2.034,13.438-2.851,27.91-2.448c8.813,0.245,12.854-8.497,21.811-6.026c5.49,1.515,11.428,8.03,3.397,15.752
		c5.463,8.193,3.397,18.84-22.546,19.767c35.183,19.12,8.956,30.576-8.783,28.53c20.52,22.121,3.183,31.093-12.485,27.665
		c2.13,7.611-3.188,20.391-14.8,16.404c-14.497-4.846-17.672-18.242-26.94-35.157l-21.391-26.114
		C171.794,609.905,186.294,631.825,191.952,641.198z"/>
</g>
<path d="M400.664,252.593c-5.877,12.063-10.425,42.776-1.712,58.461c4.715,8.487,13.377,17.825,27.547,23.561
	c10.876,4.403,25.937,12.449,30.949,20.29c6.696,10.474,1.678,39.474,1.267,44.582c0.163-3.73,1.081-30.588-3.314-40.899
	c-3.722-8.733-20.5-17.168-29.906-21.215c-20.213-8.695-26.149-18.701-29.017-22.916
	C384.77,297.247,391.385,263.419,400.664,252.593z"/>
<path d="M225.981,328.904c9.432-9.464,19.935-12.794,37.488-14.52c16.055-1.578,31.4-2.058,42.776-7.321
	c30.699-14.204,28.835-73.303,22.326-95.61c10.775,17.394,14.657,84.617-21.487,98.838c-11.06,4.352-19.652,5.812-42.378,7.496
	s-29.241,7.786-36.692,14.253c-14.272,12.387-21.558,34.407-22.225,38.081C206.521,365.048,211.077,343.86,225.981,328.904z"/>
<path d="M493.001,858.334c-5.68,72.239-28.023,157.597-32.973,172.548c16.86-36.133,31.414-101.938,38.365-171.694
	c6.949-69.755-2.119-127.637-11.203-160.54C491.911,734.972,498.527,788.042,493.001,858.334z"/>
<path d="M245.684,693.682c-9.411,32.811-14.055,97.579-7.801,167.4c6.256,69.821,23.422,133.5,39.922,169.8
	c-4.8-15-29.634-97.849-34.521-170.6C238.559,789.93,240.602,729.956,245.684,693.682z"/>
<g style="opacity:0.15;">
	<path d="M594.928,613.037L594.928,613.037c0.611-0.576,54.783-52.287,54.545-97.851c-0.241-45.942-29.676-94.854-29.974-95.343
		c0,0,35.725,47.964,35.974,95.316C655.723,562.9,594.928,613.037,594.928,613.037z"/>
</g>
<g style="opacity:0.15;">
	<path d="M612.781,634.879c0,0,60.761-69.635,60.521-115.199c-0.24-45.942-40-124.761-40.297-125.25
		c0,0,49.049,77.872,49.297,125.224C682.554,567.395,612.781,634.879,612.781,634.879z"/>
</g>
<g style="opacity:0.15;">
	<path d="M636.377,651.734c0,0,60.036-84.537,59.797-130.101c-0.24-45.942-55.006-158.174-55.303-158.663
		c0,0,63.055,111.285,63.303,158.637C704.425,569.347,636.377,651.734,636.377,651.734z"/>
</g>
<g style="opacity:0.15;">
	<path d="M657.725,676.453c0,0,59.688-107.256,59.449-152.82c-0.24-45.942-64.77-189.388-65.066-189.876
		c0,0,72.977,132.509,73.066,189.85C725.264,580.947,657.725,676.453,657.725,676.453z"/>
</g>
<g style="opacity:0.15;">
	<path d="M303.418,572.351L303.418,572.351c0.841,0.048,75.637,3.783,108.539-27.739c33.175-31.781,48.42-86.794,48.569-87.346
		c0,0-10.229,58.925-44.423,91.683C381.63,581.977,303.418,572.351,303.418,572.351z"/>
</g>
<g style="opacity:0.15;">
	<path d="M299.851,600.335c0,0,92.337-3.813,125.239-35.335c33.176-31.784,63.021-114.865,63.171-115.417
		c0,0-22.767,89.171-56.96,121.929C396.828,604.541,299.851,600.335,299.851,600.335z"/>
</g>
<g style="opacity:0.15;">
	<path d="M303.854,629.055c0,0,102.653-14.593,135.557-46.115c33.174-31.781,76.943-148.741,77.094-149.293
		c0,0-37.379,122.322-71.572,155.081C410.459,621.754,303.854,629.055,303.854,629.055z"/>
</g>
<g style="opacity:0.15;">
	<path d="M300.603,661.554c0,0,118.9-30.477,151.804-61.997c33.174-31.783,92.877-177.303,93.028-177.855
		c0,0-45.954,144.126-87.506,183.643C416.378,644.86,300.603,661.554,300.603,661.554z"/>
</g>
<rect x="0.5" y="50.882" style="fill:#FFFFFF;stroke:#000000;" width="735" height="980"/>
</svg>
