<?xml version="1.0" encoding="iso-8859-1"?>
<!-- Generator: Adobe Illustrator 12.0.0, SVG Export Plug-In . SVG Version: 6.00 Build 51448)  -->
<!DOCTYPE svg PUBLIC "-//W3C//DTD SVG 1.1//EN" "http://www.w3.org/Graphics/SVG/1.1/DTD/svg11.dtd" [
	<!ENTITY ns_svg "http://www.w3.org/2000/svg">
	<!ENTITY ns_xlink "http://www.w3.org/1999/xlink">
]>
<svg  version="1.1" id="f:2" xmlns="&ns_svg;" xmlns:xlink="&ns_xlink;" width="736" height="995.8" viewBox="0 0 736 995.8"
	 style="overflow:visible;enable-background:new 0 0 736 995.8;" xml:space="preserve">
<g>
	<path d="M476.315,14.949c2.823-5.212,1.954-10.208,0.437-14.85c-0.22,8.117,0.45,9.708-2.175,13.764
		c-2.388,3.692-18.769,7.938-19.868,8.538C457.527,22.119,473.492,20.162,476.315,14.949z"/>
	<path d="M479.252,0c1,3.3,5.533,18.858,2.059,30.804C477.835,42.75,454.952,71.5,451.752,74.5c4.601-4,31.796-34.148,33.5-43.7
		C486.957,21.248,480.752,2.4,479.252,0z"/>
	<path d="M471.353,53.1c1,4.9,0.873,8.574-1.101,11.6c-1.973,3.026-15.466,9.694-17.57,10.095c2.005-0.2,17.479-5.205,19.471-9.395
		S471.952,54.3,471.353,53.1z"/>
	<path d="M313.475,234.843c1.482,0.884,14.56,7.341,22.277,7.735c7.718,0.393,13.623-1.443,19.671-5.057
		c-6.402,2.889-11.631,3.729-19.311,3.26C328.431,240.312,317.381,236.401,313.475,234.843z"/>
	<path d="M338.546,252.917c-0.784,5.692-6.293,38.06-18.387,46.625c-10.772,7.629-21.198,8.792-31.351,10.497
		c-8.662,1.454-21.127,3.068-27.307,12.113c-6.86,10.04-8.117,42.747-8.057,47.871c0.093-3.732,4.037-33.049,9.498-43.035
		c5.057-9.246,13.829-11.507,26.736-13.793c13.092-2.319,26.435-6.393,32.664-11.175
		C334.422,292.744,338.646,258.77,338.546,252.917z"/>
	<path d="M276.027,557.286c-4.441,37.593-17.064,94.901-19.729,105.484c15.678-46.608,23.792-82.46,24.341-107.455
		c0.659-26.799,0.149-50.963-3.566-72.824C277.644,487.495,280.469,519.693,276.027,557.286z"/>
	<path d="M249.671,687.065c-9.084,32.903-20.152,90.785-13.203,160.54c6.951,69.756,17.004,111.562,33.865,147.694
		c-4.949-14.951-22.097-74.767-28.472-148.548C235.747,775.987,244.951,723.39,249.671,687.065z"/>
	<g>
		<path d="M476.002,109.451c7.15,21.339-21.81,88.438-38.409,57.084c15.66,25.34,37.955-31.205,36.707-49.025
			c-1.539-21.957-20.603-17.008-26.802,2.236C449.481,101.896,469.044,88.683,476.002,109.451z"/>
	</g>
	<g>
		<path d="M462.674,143.978c4.591-9.107,5.548-30.636,2.27-32.349c-2.641-1.379-7.394,3.764-12.539,8.47
			c2.687-8.505,10.967-14.089,14.81-10.059C471.73,114.776,468.063,136.306,462.674,143.978z"/>
	</g>
	<g>
		<path d="M204.064,580.149c7.569-24.866,14.568-57.123,26.602-79.016c1-11.583,18.003-93.452,20.924-113.288
			C244.086,421.315,205.952,560.154,204.064,580.149z"/>
	</g>
	<g>
		<path d="M142.163,716.33c-11.559,14.481-43.668,89.637-47.545,109.425c-3.034,12,4.622,17.906,12.872,11.886
			c-14.886,21.669-0.865,29.116,7.079,25.333c-1.135,19.48,18.079,18.628,23.073,9.268c14.185,11.536,21.837-11.555,27.045-25.343
			c5.556-14.711,11.798-36.252,12.293-37.825c1.088,3.57,4.622,15.32,12.293,14.185c7.565-0.189,14.563-17.399,17.778-47.849
			c0.15-2.495-9.564-47.974-9.641-48.379l3.946-25.711c-1.548,4.115-3.46,12.616-5.942,25.592
			c-0.012,0.198,7.809,47.615,7.665,50.011c-0.285,8.097-7.701,42.43-13.388,42.509c-9.185,1.204-11.877-19.635-12.68-21.287
			c-2.126,7.196-11.006,33.152-14.773,43.718c-3.306,9.276-11.924,37.188-23.535,23.903c-15.004,15.911-23.217,5.19-20.607-8.85
			c-19.191,4.77-13.059-9.018-5.923-24.18c-7.236,3.18-16.896,5.654-14.584-6.401c2.762-15.035,34.706-90.579,47.155-109.775
			l19.613-26.373C164.356,690.186,148.045,708.959,142.163,716.33z"/>
	</g>
	<g>
		<path d="M369.252,883.3l3.2,32.899l-3.492-60.938L365.752,916L369.252,883.3z"/>
	</g>
	<g>
		<path d="M189.378,622.439c-3.215,12.278-10.251,33.751-10.156,45.36c-0.101-23.838,11.705-68.979,24.842-87.65
			C204.064,580.149,192.377,610.986,189.378,622.439z"/>
	</g>
	<g>
		<path d="M278.166,500.628c-6.34,32.001-16.906,64.908-23.85,86.644c-6.494,20.326-31.412,67.437-43.205,92.75
			c9.9-17.591,26.756-41.786,41.471-80.25C267.297,561.31,277.562,520.252,278.166,500.628z"/>
	</g>
	<path d="M501.047,317.258c-9.049-7.918-17.657-14.424-43.068-16.859c-14.441-1.384-24.807-2.447-34.839-9.765
		c-20.59-15.02-25.792-49.033-24.122-64.062c-3.101,15.982-0.357,51.099,23.576,67.742c7.616,5.296,19.705,7.393,39.437,9.996
		c20.861,2.752,32.053,11.208,37.275,17.176c8.48,9.692,18.173,34.213,18.673,37.914C517.479,354.3,512.984,327.704,501.047,317.258
		z"/>
	<path d="M497.577,841.7c-6.482,70.621-31.555,138.6-36.354,153.6c16.5-36.3,35.5-82.979,41.756-152.8
		c6.254-69.821-5.39-127.59-14.801-160.4C493.26,718.373,504.022,771.484,497.577,841.7z"/>
	<g>
		<path d="M561.419,507.202c-9.705-36.582-22.686-81.284-37.004-125.504c4.363,16.333,32.356,126.808,32.898,127.37
			c19.851,27.446,28.211,106.766,27.464,126.176C586.473,614.403,584.83,550.249,561.419,507.202z"/>
	</g>
	<path d="M514.984,525.12c-3.313-15.686-7.782-39.125-16.265-66.055S481.077,409.3,481.077,409.3s-8.529,16.878-12.456,29.057
		c-4.985,15.462-12.631,48.919-11.443,83.144c0.867,24.988,9.676,83.218,25.075,129.917c-2.6-10.6-18.202-90.132-20.476-127.917
		c-1.914-31.815,4.053-63.099,8.807-78.824c3.449-11.408,10.493-27.776,10.493-27.776s9.304,29.108,14.285,44.563
		s12.711,47.731,16.31,66.2S531,624.466,541,641.244C531.136,613.068,518.297,540.806,514.984,525.12z"/>
	<g>
		<path d="M587.927,652.985l15.858,57.604c6.915,21.811,40.692,112.12,39.369,127.348c-0.965,12.239-8.576,12.256-14.711,7.272
			c5.033,17.021-4.716,24.612-21.956,14.928c-5.674,9.456-23.641,14.752-26.478-14.563c-17.589,16.644-22.156-9.426-22.887-19.246
			c-0.83-11.187-8.366-42.661-8.509-50.163c-1.212,1.379-8.295,16.079-16.832,12.482c-5.463-1.584-3.313-33.078-1.442-40.961
			c0.496-2.349,23.802-52.353,23.843-52.548c-2.353-13.348-8.057-29.775-8.459-34.154l6.503,33.741
			c-0.181,0.37-24.565,48.704-25.083,51.149c-7.077,30.087-2.472,46.768,4.217,48.488c7.096,3.129,13.179-5.775,15.175-8.932
			c0.06,1.648,5.435,29.446,6.892,45.104c1.367,14.676,10.078,34.257,24.312,21.657c-0.994,21.11,21.184,28.37,29.506,12.862
			c9.275,7.77,33.284,5.672,24.7-14.137c6.882,4.49,15.245,0.574,15.499-11.801c1.508-20.107-33.462-110.229-40.769-127.256
			C602.956,703.195,587.927,652.985,587.927,652.985z"/>
	</g>
	<g>
		<path d="M469.729,105.376c0-3.4,3.328-27.225,7.522-28.976c1.887-6.719-3.399-20.6-5.1-23.7c1.6,2.3,8.289,8.51,8.6,25.3
			C474.577,82.929,470.43,101.376,469.729,105.376z"/>
	</g>
</g>
<g>
	<path d="M352.453,99.1c0.6-0.2,15.482-4.919,20.262-6.814c9.899-3.4,14.338-5.286,25.537-10.286L352.453,99.1z"/>
</g>
<g>
	<path d="M360.152,115.5c-0.3,2.6,0.1,4.8,1.3,6.6c-2.522,0.231-5.209,1.216-6.2,2.7c0,0,5.8-1.7,10.2-0.7
		c2.822,0.153,16.643,2.607,27.348,4.295c19.115,3.014,23.416-4.104,26.552-8.795c2.933-4.387,4.28-11.542,3.1-16.7
		c-19.007-6.625-44.1-6.2-56.399,2.6c-3.8,2.6-7,6.3-9.9,11.1c-1.1,1.9-2.1,3.9-3,6.1c1.8-4.8,4.3-9,7.5-12.6
		c3.1-3.4,6.645-5.839,10.745-7.939c12.303-5.278,33.255-5.961,51.155,0.239l0.5-2c-25.293-8.328-46.655-2.339-52.556,0.661
		c-9.4,4.8-15.845,13.039-19.544,25.339c0,0,0.585,0.28,0.8,0.3C352.609,124.455,358.377,117.781,360.152,115.5z M373.252,106
		c0,0.5-0.1,1.1-0.199,1.8c-0.2,3.5,0.899,6.6,3.199,9.2c2.301,2.6,5.101,4,8.601,4.2c3.5,0.2,6.6-0.8,9.1-3.2
		c2.601-2.3,4.101-5.2,4.3-8.7c0-1.1,0-2.1-0.199-3.1c1.1,0.2,7.16,0.787,10.199,1.8c0.258,9.946-6.45,14.23-15.899,15.9
		c-7.656,0.837-25.563-2.459-30.4-1.9c-1-1.6-1.2-4.1-0.7-7.7C362.053,113.5,369.748,106.821,373.252,106z M385.303,112.304
		c-0.601,0-1.2-0.3-1.7-0.8c-0.4-0.5-0.5-1-0.5-1.7c0-0.6,0.3-1.1,0.7-1.6c0.5-0.4,1.1-0.6,1.8-0.5c0.6,0,1.1,0.2,1.5,0.7
		c0.5,0.5,0.7,1.1,0.6,1.7c0,0.6-0.3,1.2-0.8,1.6C386.503,112.104,385.902,112.304,385.303,112.304z"/>
</g>
<g>
	<path d="M352.453,98.4c1.7-0.5,16.9-6.2,45.799-17.1l25.5,3.5l-25.8-10.7l-57.7,22.1C341.453,96.8,347.665,100.031,352.453,98.4z"
		/>
</g>
<g>
	<path d="M266.212,89.797c11.76,3.483,16.408,4.769,26.669,6.837c4.986,1.25,20.36,3.971,20.982,4.09L266.212,89.797z"/>
</g>
<g>
	<path d="M317.302,127.094c0.213-0.037,0.773-0.363,0.773-0.363c-2.829-9.547-7.278-15.205-9.97-17.325
		c-5.119-4.029-15.593-9.709-42.127-0.601l0.658,1.953c16.983-6.568,29.418-7.365,39.902-0.3c3.73,2.514,6.87,8.12,9.048,12.76
		c-1.074-2.121,0.501-1.467-0.747-3.273c-3.275-4.553-1.902-5.581-6.655-9.477c-10.99-9.007-34.031-3.4-41.408,0.78
		c-0.765,5.236,1.151,12.259,4.426,16.399c3.5,4.425,10.818,5.986,16.142,6.128c10.035,0.692,17.086-4.857,20.11-6.114
		c3.025-1.256,5.363-1.68,6.879-1.762c-1.115-0.444-1.411-0.685-2.958-0.638c1.178-1.61,1.053-3.886,0.546-6.454
		C313.875,120.94,316.269,124.925,317.302,127.094z M310.731,117.701c0.786,3.549,0.804,5.947-0.065,7.622
		c-4.867-0.17-11.484,5.234-19.183,5.011c-9.552-0.908-13.591-4.883-14.13-14.817c1.02-1.033,7.942-2.537,8.827-2.771
		c-0.345,0.564-1.142,3.1-1.236,5.115c-0.113,2.426,0.125,4.201,2.517,6.909c2.164,2.45,5.133,2.997,7.978,2.606
		c2.844-0.392,5.169-1.227,6.876-3.494c1.707-2.268,1.974-4.343,1.878-7.19c0.095-0.606-0.196-2.044-0.229-2.452
		C306.151,115.178,309.363,116.677,310.731,117.701z M293.027,119.878c-0.434-0.293-0.718-0.762-0.758-1.251
		c-0.121-0.482,0.003-0.984,0.378-1.423c0.293-0.434,0.689-0.629,1.179-0.669c0.565-0.127,1.068-0.002,1.502,0.29
		c0.36,0.381,0.637,0.769,0.677,1.258c0.046,0.569-0.003,0.984-0.296,1.417c-0.375,0.44-0.846,0.724-1.336,0.763
		C293.883,120.301,293.38,120.178,293.027,119.878z"/>
</g>
<g>
	<path d="M325.577,96.245l-63.216-14.89l0.649,7.176c30.083,7.004,49.01,11.227,50.761,11.499
		C318.731,101.018,324.465,96.998,325.577,96.245z"/>
</g>
<path d="M426.652,78.7c0,0-9.994-22.978-11-25.2c4.346-5.671,13.519-31.963-10.164-28.507c-17.179,2.507-44.626,26.69-68.404,10.274
	c2.162-0.722,5.531-6.067,5.011-10.394c-48.946,7.392-67.309-9.994-78.798-17.094c-0.398,1.33-0.803,2.489-0.93,4.055
	c11.888,6.739,34.166,23.518,75.659,16.94c-0.277,2.106-2.868,4.464-7.073,5.825c23.943,24.817,60.361-3.811,74.298-5.92
	c20.206-3.058,10.465,19.981,6.501,24.52C413.813,56.749,426.652,78.7,426.652,78.7z"/>
<path d="M333.893,170.308c-0.432-3.219,6.047-10.048,10.86-2.808c0.994,0.502,2.195-0.811,1.904-0.864
	C345.177,162.423,333.208,160.154,333.893,170.308z"/>
<path d="M316.887,166.245c-0.291,0.053,0.911,1.366,1.904,0.864c3.455-4.415,6.495,1.888,7.103,2.72
	C325.286,163.365,318.367,162.032,316.887,166.245z"/>
<g>
	<path d="M309.953,198.5c0,0,11.147,12.127,24.84,11.409c11.469,0.262,27.36-9.609,29.56-11.909
		c-4.612-2.52-21.881-11.779-26.145-11.315c-2.226,2.61-9.193,4.204-12.978,0.683C319.906,188.156,312.652,197,309.953,198.5z
		 M346.252,198.8l0.2-0.1c0-0.1,0.1-0.1,0.1,0.1c0,0-0.1,0.2-0.3,0.4c-0.3,0.3-0.7,0.5-1.1,0.7c-1.3,0.7-2.6,0.8-4.2,0.3l-0.1-0.1
		c0.1-0.1,0.1-0.1,0.2-0.1c0.7,0.1,1.7,0,3.1-0.4C345.252,199.3,345.853,199,346.252,198.8z"/>
</g>
<ellipse cx="293.041" cy="120.417" rx="19.728" ry="10.448"/>
<path d="M360.8,115.738c-3.743,11.384,15.127,9.2,36.024,8.889c14.441-0.215,15.627-8.694,14.688-15.302
	c-0.94-6.608-13.295-10.317-27.596-8.284S362.884,109.397,360.8,115.738z"/>
<ellipse transform="matrix(0.6975 0.7166 -0.7166 0.6975 180.7027 -186.3705)" cx="311.093" cy="120.843" rx="6.276" ry="3.873"/>
<ellipse transform="matrix(-0.6975 0.7166 -0.7166 -0.6975 694.7587 -53.5603)" cx="358.684" cy="119.859" rx="6.276" ry="3.873"/>
<rect x="0.5" y="15.3" style="fill:#FFFFFF;stroke:#000000;" width="735" height="980"/>
</svg>
