<?xml version="1.0" encoding="iso-8859-1"?>
<!-- Generator: Adobe Illustrator 12.0.0, SVG Export Plug-In . SVG Version: 6.00 Build 51448)  -->
<!DOCTYPE svg PUBLIC "-//W3C//DTD SVG 1.1//EN" "http://www.w3.org/Graphics/SVG/1.1/DTD/svg11.dtd" [
	<!ENTITY ns_svg "http://www.w3.org/2000/svg">
	<!ENTITY ns_xlink "http://www.w3.org/1999/xlink">
]>
<svg  version="1.1" id="f:3" xmlns="&ns_svg;" xmlns:xlink="&ns_xlink;" width="736" height="1024.7" viewBox="0 0 736 1024.7"
	 style="overflow:visible;enable-background:new 0 0 736 1024.7;" xml:space="preserve">
<g>
	<path d="M459.315,14.85c2.823-5.212,1.954-10.208,0.437-14.85c-0.22,8.117,0.45,9.708-2.175,13.764
		c-2.388,3.692-18.769,7.938-19.868,8.538C440.527,22.02,456.492,20.063,459.315,14.85z"/>
	<path d="M463.208,15.44c1.027,3.292,4.298,18.503,2.318,30.786c-2.728,16.928-34.615,29.793-40.291,32.396
		c6.743-2.023,42.425-15.026,44.233-32.434C470.472,36.536,464.729,17.828,463.208,15.44z"/>
	<path d="M462.254,54.262c0.367,4.988,0.219,9.07-2.571,11.365c-12.396,10.195-31.764,5.947-33.902,6.077
		c2.014,0.057,26.627,6.712,35.698-5.14C464.298,62.88,462.695,55.529,462.254,54.262z"/>
	<path d="M278.07,224.157c0.474,1.393,7.894,15.07,15.101,17.855c10.438,4.035,22.938,2.095,29.901,0.216
		c-6.986,0.726-20.337,1.751-28.993-1.808C286.296,237.22,281.288,226.866,278.07,224.157z"/>
	<path d="M334.335,245.91c5.877,12.063,10.425,42.776,1.712,58.461c-4.714,8.487-13.377,17.825-27.546,23.561
		c-10.876,4.403-25.937,12.449-30.95,20.29c-6.696,10.474-1.678,39.474-1.266,44.582c-0.163-3.73-1.081-30.588,3.314-40.899
		c3.722-8.733,20.5-17.168,29.907-21.215c20.212-8.695,26.149-18.701,29.016-22.916C350.23,290.564,343.615,256.736,334.335,245.91z
		"/>
	<path d="M278.312,558.198c-5.087,37.511-18.692,94.595-21.537,105.131c16.476-46.332,23.148-76.147,26.181-107.021
		c3.033-30.876,5.005-51.338,1.665-73.258C285.105,488.062,283.396,520.688,278.312,558.198z"/>
	<path d="M248.671,691.966c-9.084,32.903-18.152,90.785-11.203,160.54c6.951,69.756,21.505,135.562,38.365,171.694
		c-4.949-14.951-27.293-100.309-32.973-172.548C237.334,781.359,243.951,728.29,248.671,691.966z"/>
	<g>
		<path d="M465.702,113.53c8.721,21.014-23.072,85.528-43.317,54.651c19.1,24.954,42.764-29.167,41.241-46.715
			c-1.877-21.623-25.128-16.749-32.689,2.201C433.356,106.09,457.215,93.079,465.702,113.53z"/>
	</g>
	<g>
		<path d="M449.446,147.53c5.599-8.968,6.767-30.169,2.769-31.855c-3.221-1.359-9.018,3.706-15.293,8.341
			c3.275-8.376,13.375-13.875,18.061-9.906C460.49,118.774,456.018,139.976,449.446,147.53z"/>
	</g>
	<g>
		<path d="M165.983,612.137c-16.952,7.479-83.489,87.919-96.092,103.659c-2.192,3.652-8.1,10.448,3.946,14.772
			c-15.751,21.311-12.621,21.341-5.25,29.032c8.403,8.769,22.237,1.854,23.052-8.48c12.787-5.48,47.598-56.445,48.765-57.61
			c1.072,3.085,3.234,6.482,9.411,8.645s22.225-14.571,39.181-40.065c1.289-2.142,1.341-14.585,1.461-14.979l27.767-25.209
			c-3.653,1.462-11.326,7.673-30.324,21.921c-0.103,0.17-1.887,15.713-3.125,17.768c-4.003,7.044-29.795,37.773-34.872,35.209
			c-8.698-3.188-6.996-16.066-6.942-17.902c-5.218,5.393-39.631,60.533-54.61,68.205c-7.134,23.132-24.305,3.769-17.729-3.173
			c4.75-6.211,8.769-14.614,6.576-17.172c-6.211-2.191-6.141-3.291-4.384-6.941c9.413-12.045,75.424-95.035,95.35-106.279
			l25.581-16.113C193.745,597.422,174.612,608.329,165.983,612.137z"/>
	</g>
	<g>
		<path d="M368.252,894.2l3.201,32.899l-3.492-60.938l-3.209,60.738L368.252,894.2z"/>
	</g>
	<g>
		<path d="M265.901,593.693c-6.93,11.695-15.882,13.272-28.009,17.576c5.915-2.072,15.532-9.559,21.18-13.43
			C264.34,594.229,265.901,593.693,265.901,593.693z"/>
	</g>
	<path d="M509.019,322.222c-9.432-9.464-19.935-12.794-37.488-14.52c-16.055-1.578-31.4-2.058-42.776-7.321
		c-30.699-14.204-28.835-73.303-22.326-95.61c-10.775,17.394-14.657,84.617,21.487,98.838c11.06,4.352,19.652,5.812,42.378,7.496
		s29.241,7.786,36.692,14.253c14.272,12.387,21.558,34.407,22.225,38.081C528.479,358.366,523.923,337.178,509.019,322.222z"/>
	<path d="M492.577,853.601c-4.887,72.751-29.721,155.6-34.521,170.6c16.5-36.3,33.666-99.979,39.922-169.8
		c6.254-69.821,1.61-134.59-7.801-167.4C495.26,723.273,497.303,783.248,492.577,853.601z"/>
	<g>
		<path d="M594.104,526.272c-11.4-36.09-43.468-101.841-59.832-145.345c5.12,16.112,55.25,146.863,55.818,147.401
			c14.012,35.594,8.212,41.726-12.007,62.607C605.489,571.586,609.571,573.368,594.104,526.272z"/>
	</g>
	<g>
		<path d="M564.068,603.223l-21.391,26.114c-9.269,16.915-12.443,30.312-26.94,35.157c-11.612,3.986-16.93-8.793-14.8-16.404
			c-15.668,3.428-33.005-5.544-12.485-27.665c-17.739,2.046-43.966-9.41-8.783-28.53c-25.943-0.927-28.009-11.573-22.546-19.767
			c-8.03-7.722-2.093-14.237,3.397-15.752c8.956-2.471,12.997,6.271,21.811,6.026c14.473-0.402,18.139,0.414,27.91,2.448
			c-5.61-3.504-24.063-7.248-28.399-6.365c-3.917-0.734-11.497-11.252-24.101-7.051c-17.604,5.868-8.705,22.719-7.236,21.984
			c-3.883,7.048,1.985,24.034,20,20.29c-20.485,7.142-18.941,35.865,10.091,29.379c-12.486,7.834-14.361,31.865,15.752,30.886
			c-2.997,8.352,9.574,21.002,21.928,16.369c20.178-7.567,21.82-29.508,25.635-35.827
			C549.568,625.143,564.068,603.223,564.068,603.223z"/>
	</g>
	<g>
		<path d="M465.012,108.11c-0.125-3.398,2.327-27.329,6.455-29.233c1.639-6.784-4.153-20.461-5.967-23.497
			c1.683,2.241,8.596,8.2,9.523,24.967C469.034,85.5,465.566,104.087,465.012,108.11z"/>
	</g>
</g>
<g>
	<path d="M320.1,101.413c0.551-0.31,14.267-7.769,18.6-10.537c9.074-5.217,13.074-7.912,23.121-14.947L320.1,101.413z"/>
</g>
<g>
	<path d="M322.829,117.271c-0.133,2.614,0.395,4.784,1.682,6.505c-2.457,0.39-5.029,1.542-5.908,3.085c0,0,5.579-2.062,9.952-1.341
		c2.774-0.025,16.471,1.554,27.064,2.564c18.917,1.804,22.693-5.571,25.475-10.449c2.603-4.564,3.48-11.789,2.005-16.862
		c-19.035-5.415-43.597-3.411-55.106,6.146c-3.563,2.834-6.47,6.729-9.016,11.702c-0.96,1.965-1.816,4.024-2.562,6.276
		c1.466-4.903,3.657-9.252,6.57-13.047c2.828-3.588,6.15-6.246,10.038-8.6c11.729-6.042,32.218-8.043,50.142-2.983l0.366-2.028
		c-25.299-6.718-45.862,0.604-51.458,3.97c-8.915,5.382-14.72,14.011-17.585,26.52c0,0,0.59,0.243,0.802,0.249
		C315.991,126.684,321.23,119.659,322.829,117.271z M335.079,106.965c0.031,0.499-0.03,1.104-0.084,1.809
		c0.02,3.505,1.29,6.53,3.704,8.98c2.415,2.45,5.245,3.671,8.687,3.65c3.443-0.021,6.418-1.214,8.72-3.767
		c2.406-2.459,3.696-5.448,3.675-8.954c-0.068-1.098-0.129-2.096-0.387-3.081c1.09,0.13,7.065,0.334,10.107,1.154
		c0.866,9.91-5.442,14.609-14.598,16.87c-7.451,1.318-25.201-0.845-29.907,0.018c-1.079-1.534-1.429-4.016-1.162-7.641
		C324.567,115.155,331.695,108.006,335.079,106.965z M347.257,112.393c-0.587,0.037-1.194-0.224-1.715-0.691
		c-0.422-0.474-0.552-0.967-0.595-1.665c-0.037-0.599,0.227-1.117,0.587-1.641c0.466-0.431,1.042-0.668,1.733-0.612
		c0.587-0.038,1.09,0.13,1.513,0.604c0.521,0.468,0.754,1.054,0.694,1.659c0.037,0.599-0.22,1.217-0.685,1.647
		C348.421,112.117,347.846,112.354,347.257,112.393z"/>
</g>
<g>
	<path d="M319.967,100.726c1.574-0.813,15.416-9.296,41.72-25.484l25.701-1.405l-27.362-5.607l-52.455,32.652
		C308.864,101.243,315.577,103.237,319.967,100.726z"/>
</g>
<g>
	<path d="M255.249,106.561c0.011,0.18,0.022,0.357,0.032,0.539c5.541,0.734,23.795,2.324,24.18,2.374L255.249,106.561z"/>
</g>
<g>
	<path d="M282.998,130.495c-1.357-4.022-0.32-6.141-2.39-8.473c1.441,2.723,1.696,7.551,2.167,11.187
		C282.633,131.665,283.5,132.088,282.998,130.495z"/>
	<path d="M283.252,137.279c0.171-0.033,0.671-0.339,0.671-0.339c0.473-9.312-0.718-15.266-4.053-18.363
		c-3.834-3.561-11.333-6.733-25.638-1.786c-0.123,0.643-0.23,1.288-0.326,1.933c10.906-4.072,18.623-4.07,25.64,1.897
		c0.415,0.353,0.761,0.836,1.061,1.401c2.07,2.332,1.033,4.45,2.39,8.473c0.502,1.594-0.365,1.17-0.223,2.714
		c0.017,0.131,0.033,0.264,0.05,0.391c-0.017-0.127-0.033-0.26-0.05-0.391c-0.471-3.635-0.727-8.464-2.167-11.187
		c-0.159-0.179-0.331-0.358-0.529-0.541c-7.063-6.503-15.147-6.688-26.198-2.314c0.108,3.015,0.285,8.309,0.341,11.394
		c0.089-0.601,0.117-3.798,0.244-4.453c2.529-1.172,6.358-1.732,7.096-1.955c-0.342,0.636-0.774,1.933-0.945,3.211
		c-0.225,1.688-0.796,4.139,0.736,6.363c1.531,2.222,3.316,3.326,5.631,3.249c2.457-0.082,4.359-1.369,6.2-3.546
		c1.841-2.177,2.641-4.316,2.992-7.052c0.031-0.544,0.049-2.009,0.117-2.402c1.257,1.009,3.954,3.31,4.086,4.372
		c-0.206,3.366-0.736,5.639-1.776,7.221c-3.667-0.186-9.928,3.9-15.737,3.651c-3.661-0.471-6.417-1.831-7.572-4.229
		c0.268,2.368,0.611,3.743,0.997,6.121c0.793,0.611,1.933,1.32,2.646,1.349c7.482,0.708,14.105-3.515,16.692-4.69
		c2.587-1.174,4.464-1.564,5.635-1.633c-0.749-0.427-0.92-0.656-2.107-0.62c1.262-1.52,1.682-3.677,1.879-6.113
		C282.038,131.432,282.958,135.22,283.252,137.279z M270.016,130.261c-0.391,0.422-0.82,0.692-1.208,0.728
		c-0.387,0.035-0.748-0.087-0.951-0.376c-0.268-0.286-0.379-0.739-0.297-1.209c0.017-0.465,0.229-0.949,0.62-1.371
		c0.328-0.416,0.677-0.602,1.064-0.637c0.465-0.12,0.826,0.002,1.093,0.287c0.19,0.37,0.314,0.744,0.233,1.215
		C270.476,129.446,270.343,129.845,270.016,130.261z"/>
</g>
<g>
	<path d="M255.023,99.813c0.342-0.043,0.411,3.913,0.42,6.014c10.518,1.629,19.62,2.561,20.692,2.674
		c9.82,1.23,12.216-2.019,14.686-3.353L255.023,99.813z"/>
</g>
<path d="M388.508,65.352c0,0-14.174-20.663-15.584-22.653c3.19-6.393,7.204-33.949-15.392-26.059
	c-16.39,5.723-38.747,34.678-65.209,23.074c1.985-1.12,4.278-7.006,2.947-11.156c-10.211,3.622-18.82,5.662-26.998,6.717
	c-0.514,1.107-0.831,2.214-1.063,3.712c7.338-0.912,16.276-2.731,24.806-5.828c0.128,2.121-1.969,4.928-5.838,7.063
	c28.219,19.82,58.54-15.201,71.823-19.918c19.258-6.838,14.069,17.631,11.038,22.84C371.735,46.238,388.508,65.352,388.508,65.352z"
	/>
<path d="M290.561,170.645c0.147-4.17,9.43-8.533,14.049-2.69c0.994,0.502,2.195-0.811,1.904-0.864
	C304.284,162.425,290.589,160.758,290.561,170.645z"/>
<path d="M277.195,167.375c-0.206,0.032,0.645,0.826,1.348,0.522c1.745-1.301,4.067,1.317,5.03,3.646
	C283.143,167.633,278.243,164.826,277.195,167.375z"/>
<g>
	<path d="M281.435,199.624c-0.384,5.384,1.294,10.556,11.357,10.186c11.469,0.262,34.052-10.577,36.252-12.877
		c-4.612-2.519-28.574-10.811-32.837-10.347c-2.226,2.61-7.604,5.792-11.388,2.271C282.127,189.241,281.819,194.24,281.435,199.624z
		 M304.252,198.7l0.2-0.1c0-0.1,0.1-0.1,0.1,0.1c0,0-0.1,0.2-0.3,0.4c-0.3,0.3-0.7,0.5-1.1,0.7c-1.3,0.7-2.6,0.8-4.2,0.3l-0.1-0.1
		c0.1-0.1,0.1-0.1,0.2-0.1c0.7,0.1,1.7,0,3.1-0.4C303.252,199.2,303.853,198.9,304.252,198.7z"/>
</g>
<path d="M451.703,172.269c-1.655,3.211-6.343,8.58-8.819,9.39c-2.482,0.809-10.14-4.902-11.507-5.631
	c1.218,0.795,9.24,8.342,12.257,6.885C446.649,181.455,451.498,173.215,451.703,172.269z"/>
<g>
	<path d="M410.887,198.928c3.169-6.583,17.736,3.032,24.295-2.245c6.558-5.277,16.706-21.764,17.154-24.278
		c-0.143,2.019-9.208,23.673-16.166,27.729C429.213,204.191,415.294,193.848,410.887,198.928z"/>
</g>
<g>
	<path d="M247.518,551.192c-11.981,13.843-22.065,26.059-29.351,32.008c9.048-7.712,27.812-26.293,34.417-32.963
		c7.064-7.134,12.884-16.936,24.116-25.485C273.647,526.196,255.747,541.685,247.518,551.192z"/>
</g>
<path d="M552.348,534.844c0,0-20.029-39.292-27.684-54.601c-7.776-15.553-29.942-67.054-29.942-67.054s-10.742,11.984-16.367,20.361
	c-8.994,13.396-14.911,35.872-15.51,53.274c-0.882,22.209,0.298,44.159,3.246,64.558c-0.339-11.009-1.841-53.917,0.208-70.948
	c1.996-16.596,5.885-31.333,14.352-44.779c6.507-10.333,12.427-13.855,12.427-13.855s17.277,35.282,27.186,55.955
	s27.353,57.157,27.353,57.157l-7.736,16.578L552.348,534.844z"/>
<path d="M255.833,118.992c-1.288,2.207-1.626,5.642-1.626,11.858c0,6.637,1.796,8.609,3.105,10.318
	c-0.695-4.039-2.092-7.608-2.219-11.117C254.966,126.542,255.319,122.039,255.833,118.992z"/>
<path d="M269.106,438.617c0.607,13.555,7.945,31.377,15.515,44.432c-5.922-16.05-11.506-31.169-12.215-44.351
	c-0.708-13.182,1.748-41.346,3.879-45.895C273.349,397.41,268.596,427.218,269.106,438.617z"/>
<g>
	<path d="M438.392,35.303c3.411-4.713,4.49-9.494,3.472-14.499c-0.88,3.802-1.438,6.544-1.877,8.191
		c-0.459,1.742-1.484,3.268-3.04,4.889c-2.086,1.718-5.586,3.86-10.401,6.45c-4.893,2.471-7.84,3.91-8.939,4.297
		c1.49-0.307,4.771-1.372,9.72-3.117C432.393,39.691,436.088,37.588,438.392,35.303z"/>
</g>
<rect x="0.5" y="44.2" style="fill:#FFFFFF;stroke:#000000;" width="735" height="980"/>
</svg>
