<?xml version="1.0" encoding="iso-8859-1"?>
<!-- Generator: Adobe Illustrator 12.0.0, SVG Export Plug-In . SVG Version: 6.00 Build 51448)  -->
<!DOCTYPE svg PUBLIC "-//W3C//DTD SVG 1.1//EN" "http://www.w3.org/Graphics/SVG/1.1/DTD/svg11.dtd" [
	<!ENTITY ns_svg "http://www.w3.org/2000/svg">
	<!ENTITY ns_xlink "http://www.w3.org/1999/xlink">
]>
<svg  version="1.1" id="f:13" xmlns="&ns_svg;" xmlns:xlink="&ns_xlink;" width="736" height="1056.382" viewBox="0 0 736 1056.382"
	 style="overflow:visible;enable-background:new 0 0 736 1056.382;" xml:space="preserve">
<g>
	<path d="M336.291,32.984c-1.1-0.6-17.48-4.845-19.868-8.538c-2.625-4.056-1.955-5.647-2.175-13.764
		c-1.518,4.642-2.387,9.637,0.437,14.85C317.508,30.745,333.473,32.702,336.291,32.984z"/>
	<g>
		<path d="M333.419,116.35c-9.313-18.95-37.95-23.824-40.262-2.201c-1.876,17.548,27.271,71.669,50.795,46.715
			c-24.935,30.876-64.093-33.638-53.353-54.651C301.054,85.762,330.439,98.772,333.419,116.35z"/>
	</g>
	<g>
		<path d="M303.803,106.793c5.771-3.969,18.211,1.53,22.245,9.906c-7.729-4.635-14.87-9.7-18.837-8.341
			c-4.924,1.686-3.485,22.887,3.41,31.855C302.528,132.658,297.02,111.457,303.803,106.793z"/>
	</g>
</g>
<g>
	<path d="M346.675,52.197c4.949,1.745,8.229,2.811,9.72,3.117c-1.1-0.387-4.047-1.826-8.939-4.297
		c-4.815-2.59-8.315-4.732-10.401-6.45c-1.556-1.621-2.581-3.147-3.04-4.889c-0.438-1.647-0.997-4.39-1.877-8.191
		c-1.019,5.005,0.061,9.786,3.472,14.499C337.912,48.271,341.607,50.374,346.675,52.197z"/>
</g>
<g>
	<path d="M308.64,199.862c-10.073-4.057-23.196-25.71-23.402-27.729c0.649,2.515,15.339,19.001,24.833,24.278
		c9.494,5.277,28.251,5.563,32.839,12.146C336.53,203.477,318.711,203.918,308.64,199.862z"/>
</g>
<g>
	<path d="M509.863,59.761c-5.688-1.247-10.992-3.833-15.518-8.484c1.248-0.681,6.863-3.492,6.834-9.298
		c-62.073-1.924-68.963-30.665-81.769-33.78c-3.439-0.646-13.821,0.456-14.785,13.706c-1.256,8.312,3.699,29.592,2.224,32.571
		c-2.113,2.045-19.786,17.039-16.668,22.102c-0.686-5.013,19.001-18.814,20.336-22.125c0.719-3.833-2.299-24.121-1.844-30.261
		c-0.422-6.495,6.275-12.552,10.164-11.317c9.95,3.297,26.771,31.505,77.592,32.181c-0.836,2.285-3.447,3.728-7.969,4.506
		c5.706,8.741,13.38,12.826,21.762,14.297C510.977,63.97,510.391,59.956,509.863,59.761z"/>
</g>
<g>
	<path d="M296.214,42.616c2.034-6.741,5.497-12.114,10.868-16.076c-1.61,0.883-14.563,10.546-16.505,15.254
		c-0.772,5.49,6.657,18.771,8.611,20.072C298.061,60.975,296.058,47.818,296.214,42.616z"/>
</g>
<g>
	<path d="M379.621,0c-3.729,0.7-39.667,23.574-48.033,34.07c-30.056,27.576,36.918,63.901,37.698,66.684
		c-0.989-3.614-53.596-40.412-36.083-58.933C341.198,27.369,375.757,1.093,379.621,0z"/>
</g>
<path d="M300.691,185.746c4.173,1.708,16.669-5.133,18.522-5.822c-2.061,0.61-13.806,5.653-17.288,4.636
	c-3.472-1.017-9.576-6.762-11.57-10.103C290.535,175.418,296.52,184.039,300.691,185.746z"/>
<path d="M263.921,108.297c2.885,5.428,22.58,5.67,25.202,6.143c-2.771-0.734-19.998-2.819-22.783-6.801
	c-2.774-3.977-3.987-16.267-3.027-22.241C262.615,86.819,261.041,102.87,263.921,108.297z"/>
<g>
	<path d="M256.72,138.644c-5.919-13.382,3.605-51.155,5.521-53.836c-1.991,3.663-4.491,36.314-0.442,50.733
		c4.049,14.419,35.506,19.939,33.216,31.92C293.91,155.865,262.635,152.023,256.72,138.644z"/>
</g>
<path d="M262.6,164.141c7.567,16.247,57.258,17.938,66.519,17.84c-8.065-0.785-52.849-3.498-61.451-19.003
	c-6.239-11.25-6.626-26.923-6.301-30.411C260.134,135.333,258.404,155.132,262.6,164.141z"/>
<g>
	<path d="M307.411,23.869c-3.177,1.067-45.778,35.677-42.129,71.386c25.902,7.206,20.966,19.956,20.362,22.735
		c1.005-2.629,6.88-20.109-14.065-23.348C267.337,69.535,302.924,25.949,307.411,23.869z"/>
</g>
<path d="M461.385,250.683c-8.956,2.713-23.151-0.422-30.035-1.814c6.751,2.537,20.01,6.501,30.787,3.485
	c7.44-2.083,13.241-17.116,13.847-18.458C472.521,236.285,469.439,248.243,461.385,250.683z"/>
<g>
	<path d="M414.18,83.612c10.047,7.035,14.047,9.729,23.121,14.947c4.332,2.769,18.048,10.227,18.6,10.537L414.18,83.612z"/>
</g>
<g>
	<path d="M460.71,135.66c0.212-0.006,0.802-0.249,0.802-0.249c-2.864-12.509-8.67-21.138-17.585-26.52
		c-5.596-3.366-26.159-10.688-51.458-3.97l0.366,2.028c17.924-5.061,38.413-3.06,50.143,2.983c3.888,2.354,7.21,5.012,10.037,8.6
		c2.913,3.794,5.104,8.144,6.57,13.047c-0.746-2.252-1.602-4.311-2.562-6.276c-2.546-4.973-5.453-8.867-9.016-11.702
		c-11.509-9.557-36.071-11.562-55.106-6.146c-1.476,5.073-0.598,12.298,2.005,16.862c2.781,4.878,6.558,12.253,25.475,10.449
		c10.594-1.01,24.29-2.589,27.064-2.564c4.374-0.721,9.952,1.341,9.952,1.341c-0.879-1.544-3.451-2.696-5.908-3.085
		c1.287-1.721,1.815-3.891,1.682-6.505C454.77,126.342,460.01,133.366,460.71,135.66z M452.167,122.687
		c0.268,3.625-0.083,6.107-1.161,7.641c-4.706-0.863-22.457,1.3-29.907-0.018c-9.156-2.261-15.465-6.96-14.599-16.87
		c3.042-0.82,9.018-1.023,10.107-1.154c-0.258,0.985-0.319,1.983-0.388,3.081c-0.021,3.506,1.27,6.495,3.676,8.954
		c2.301,2.553,5.276,3.746,8.72,3.767c3.441,0.021,6.271-1.2,8.687-3.65c2.414-2.45,3.685-5.475,3.704-8.98
		c-0.055-0.705-0.115-1.31-0.084-1.809C444.305,114.688,451.433,121.838,452.167,122.687z M427.212,119.375
		c-0.465-0.431-0.722-1.048-0.685-1.647c-0.061-0.605,0.172-1.191,0.693-1.659c0.423-0.474,0.926-0.642,1.513-0.604
		c0.692-0.056,1.268,0.181,1.733,0.612c0.36,0.524,0.624,1.042,0.587,1.641c-0.043,0.698-0.173,1.191-0.595,1.665
		c-0.521,0.468-1.128,0.729-1.716,0.691C428.154,120.037,427.579,119.8,427.212,119.375z"/>
</g>
<g>
	<path d="M468.429,108.564l-52.455-32.652l-27.362,5.607l25.701,1.405c26.305,16.188,40.146,24.671,41.721,25.484
		C460.424,110.919,467.137,108.926,468.429,108.564z"/>
</g>
<g>
	<path d="M493.289,123.719l8.163,3.316c-0.028,0.111-0.058,0.223-0.086,0.334C497.324,125.623,493.387,123.745,493.289,123.719z"/>
</g>
<g>
	<path d="M491.13,129.676c1.318-0.323,5.369,0.115,9.041,1.13c-0.167,0.592-0.335,1.185-0.51,1.775
		c-3.424-0.936-7.364-1.617-8.989-1.073c-0.517,0.173-1.246,0.372-1.734,0.785c-0.883,0.817-1.176,0.562-3.696,5.332
		c-0.781,1.477-1.505,3.075-1.952,4.198c-0.049,0.123-0.128,0.233-0.191,0.345c0.063-0.112,0.128-0.229,0.191-0.345
		c1.792-3.197,0.872-5.866,6.009-9.53c0.214-0.107,0.991-0.395,1.243-0.491c1.804-0.684,5.299-0.131,8.993,1.197
		c-1.5,5.016-3.284,9.96-5.583,14.776c-0.861-0.634-1.535-1.362-1.844-2.173c-1.013-2.666-1.083-5.143-0.389-7.813
		c0.176-0.523,0.6-2.011,0.687-2.421c-1.542,0.468-4.562,1.9-5.08,2.836c-1.063,3.2-1.419,5.507-1.043,7.363
		c1.078,0.371,3.771,2.206,6.62,4.322c-0.325,0.632-0.659,1.263-1.004,1.89c-1.813-1.458-3.193-2.936-3.55-3.293
		c-2.006-2.012-3.977-2.935-5.038-3.435c0.854-0.118,1.389-0.216,2.477,0.261c-0.604-1.881-0.19-4.039,0.535-6.373
		c-1.687,1.51-3.952,4.682-4.992,6.483c-0.146-0.094-0.497-0.564-0.497-0.564C483.865,136.041,486.242,130.875,491.13,129.676z"/>
</g>
<g>
	<path d="M485.535,115.642l17.303,5.737c-0.372,1.578-0.752,3.153-1.146,4.726c-1.976-0.988-3.623-1.833-3.778-1.878
		C488.343,121.708,487.048,117.82,485.535,115.642z"/>
</g>
<path d="M468.476,179.061c-0.291,0.053-0.079,0.078,0.915-0.424c7.485-2.557,20.493-2.015,14.531,5.844
	C498.827,173.912,470.705,174.396,468.476,179.061z"/>
<g>
	<path d="M483.38,200.741c-3.784,3.521-4.854-0.248-7.08-2.858c-4.264-0.464-22.729,3.4-31.401,3.671
		c2.2,2.3,19.56,17.5,31.707,20.325c0.34,0.845,0.893-6.869,6.504-11.111C485.747,208.773,485.357,201.306,483.38,200.741z
		 M473.862,209.04c1.203,0.82,2.121,1.23,2.816,1.355c0.095,0.031,0.095,0.031,0.158,0.158l-0.126,0.063
		c-1.677-0.029-2.879-0.533-3.892-1.606c-0.317-0.316-0.634-0.632-0.824-1.011c-0.127-0.252-0.159-0.474-0.159-0.474
		c0.063-0.19,0.158-0.159,0.127-0.064l0.158,0.158C472.438,207.936,472.913,208.409,473.862,209.04z"/>
</g>
<path d="M496.93,178.79c-0.77,3.708-6.479,6.464-6.859,7.183c0.571-0.592,8.229-3.49,8.785-7.021s-6.104-13.205-7.074-14.524
	C492.371,166.402,497.7,175.083,496.93,178.79z"/>
<g>
	<path d="M372.959,937.583l-1.518-60.738l-1.65,60.938l1.514-32.899L372.959,937.583z"/>
</g>
<g>
	<path d="M506.104,423.047c-16.303-12.102-21.079-17.38-31.55-21.267c10.58,6.061,22.944,17.678,31.477,23.902
		c12.462,9.089,23.076,16.04,36.257,29.313C535.624,446.643,522.797,435.436,506.104,423.047z"/>
</g>
<path d="M349.977,503.883c-13.958,15.153-60.439,65.333-64.219,66.682c27.502-19.489,57.746-55.519,66.719-64.182
	c10.4-9.937,46.118-52.648,47.141-54.871C398.313,453.719,363.001,489.743,349.977,503.883z"/>
<g>
	<path d="M372.541,419.81l-83.064,67.073l-3.5-32l-0.366,41.635L372.541,419.81z"/>
</g>
<path d="M569.662,397.194c-5.137,10.189-20.196,43.128-25.88,58.174c5.612-10.927,22.344-45.558,28.542-57.411
	c6.118-11.698,16.14-32.722,17.811-38.69C586.299,367.114,575.488,385.639,569.662,397.194z"/>
<path d="M457.292,461.872l-10.062,26.007c0,0,1.845,12.134,3.261,23.016s3.951,38.814,9.477,76.82
	c5.251,36.124,12.902,63.725,18.169,93.217c-10.006-29.756-16.744-59.857-21.855-94.534c-2.567-17.414-7.764-59.148-9.078-69.339
	c-1.315-10.191-4.074-31.344-4.074-31.344L457.292,461.872z"/>
<g>
	<path d="M631.673,310.994c-2.436-3.799-14.5-10.748-19.922-24.788c-2.194-5.68-14.545-5.905-16.12-2.281
		c2.433-16.12-15.734-21.149-21.291-11.558c1.978-8.364-16.12-18.705-18.553-6.691c-3.042-6.083-15.968-3.042-14.933,2.995
		c-14.114,7.803-4.837,18.6,5.231,26.625c0.729,7.335,6.354,15.189,11.069,19.349c4.717,4.159,28.176,26.17,34.967,28.697
		c-5.745-4.304-24.271-21.692-32.229-30.217c-3.935-4.214-9.124-13.383-10.341-19.314c-6.562-6.364-20.53-16.424-5.019-23.419
		c-0.304-2.616,2.281-4.41,12.318,0.304c-0.913-3.498,9.581-13.991,15.815,7.452c3.322-4.981,19.466-14.143,20.53,13.839
		c1.781-4.245,7.147-8.82,15.846-4.69c6.661,14.879,11.685,15.335,19.226,25.533c7.358,9.952-1.202,16.822-1.202,16.822
		S639.803,323.677,631.673,310.994z"/>
</g>
<path d="M266.969,627.597c-6.3,23.535-10.162,35.741-13.925,47.139c7.793-15.428,12.112-26.624,16.931-46.388
	c5.053-20.724,5.229-31.937,3.651-49.807C272.975,583.699,272.925,605.347,266.969,627.597z"/>
<g>
	<path d="M589.729,491.976c15.089-47.518,30.843-104.729,33.246-122.151c-4.506,16.521-37.043,121.307-36.762,122.037
		c-25.995,67.354-105.573-16.507-128.922-29.99C480.888,483.22,566.554,570.783,589.729,491.976z"/>
</g>
<g>
	<path d="M287.061,570.565c-22.138,13.154-41.109,11.915-46.558-24.94c0.281-0.73-18.486-139.907-20.814-156.651
		c3.998,46.308,11.027,119.049,16.308,156.528C242.354,594.663,271.66,585.965,287.061,570.565z"/>
</g>
<path d="M216.441,332.542c2.491-13.22,10.525-39.7,42.716-35.216c22.146,3.085,30.201,6.825,46.189-2.144
	c26.979-15.134,33.978-44.259,25.344-89.72c8.591,17.183,13.851,74.491-24.497,94.028c-18.373,9.361-25.745,4.387-49.16,1.478
	c-26.167-3.251-34.148,18.265-37.541,32.657c-2.982,12.654-2.012,33.26-1.091,36.879
	C216.956,365.586,213.709,347.044,216.441,332.542z"/>
<path d="M382.879,300.344c1.782,13.205,16.136,37.75,37.413,47.729c-17.458-11.552-30.882-36.338-32.857-49.39
	c-2.688-17.764,6.662-44.286,33.932-49.889C394.844,249.541,380.503,282.74,382.879,300.344z"/>
<g>
	<path d="M470.345,403.425c6.163-4.063,35.313-25.753,50.375-45.357c16.732-21.777,2.717-28.622-3.969-28.455
		c4.651-9.732-4.77-17.826-13.608-15.864c4.222-8.159-1.785-18.276-15.386-15.055c-0.947-10.874-10.258-13.054-17.388-10.083
		c-4.506,1.877-7.749,4.991-10.52,7.581c-8.509-31.035-25.537-1.793-31.873,25.193c-3.092,13.168-6.273,28.041-9.282,37.567
		c-3.39,10.735-7.717,20.074-12.047,25.191c5.708-4.133,10.603-13.551,15.438-27.451c6.78-19.493,6.896-25.75,10.43-37.574
		c14.691-49.157,23.646-28.758,25.458-15.667c1.948-2.644,4.868-4.972,10.892-9.173c10.179-7.098,21.145,1.039,10.674,13.184
		c13.965-10.856,26.664-1.915,16.33,11.941c19.422-7.912,19.14,9.886,15.288,15.127c6.047-1.708,22.418,0.868,0.063,26.99
		c-10.591,12.376-34.382,34.179-40.283,38.166c-9.089,6.14-28.932,19.713-33.262,22.666
		C437.674,422.351,452.435,415.233,470.345,403.425z"/>
</g>
<path d="M490.645,860.515c-5.847,70.759-38.736,180.992-43.494,195.367c16.86-36.133,43.963-124.698,49.596-195.123
	c5.588-69.877-2.684-125.208-11.768-158.111C489.699,738.972,496.471,789.999,490.645,860.515z"/>
<path d="M249.981,701.321c-9.411,32.811-11.146,87.949-1.912,157.439c9.35,70.366,39.081,159.122,55.081,197.122
	c-8.479-33.02-38.14-122.488-48.706-197.122C243.978,784.837,244.899,737.594,249.981,701.321z"/>
<path d="M299.25,89.383c-0.904-0.867-10.391-11.459-11.728-15.648c-1.471-4.602,6.593-22.962,8.507-30.853
	c-2.681,4.083-11.828,25.675-10.469,31.445C286.92,80.099,296.604,88.374,299.25,89.383z"/>
<path d="M318.619,66.671c-1.1-0.6-17.48-4.845-19.868-8.538c-2.625-4.056-1.955-5.647-2.175-13.764
	c-1.518,4.642-2.387,9.637,0.437,14.85C299.835,64.432,315.8,66.389,318.619,66.671z"/>
<rect x="0.5" y="75.882" style="fill:#FFFFFF;stroke:#000000;" width="735" height="980"/>
</svg>
