<?xml version="1.0" encoding="iso-8859-1"?>
<!-- Generator: Adobe Illustrator 12.0.0, SVG Export Plug-In . SVG Version: 6.00 Build 51448)  -->
<!DOCTYPE svg PUBLIC "-//W3C//DTD SVG 1.1//EN" "http://www.w3.org/Graphics/SVG/1.1/DTD/svg11.dtd" [
	<!ENTITY ns_svg "http://www.w3.org/2000/svg">
	<!ENTITY ns_xlink "http://www.w3.org/1999/xlink">
]>
<svg  version="1.1" id="f:6" xmlns="&ns_svg;" xmlns:xlink="&ns_xlink;" width="736" height="1044.7" viewBox="0 0 736 1044.7"
	 style="overflow:visible;enable-background:new 0 0 736 1044.7;" xml:space="preserve">
<g>
	<path d="M430.315,14.85c2.823-5.212,1.954-10.208,0.437-14.85c-0.22,8.117,0.45,9.708-2.175,13.764
		c-2.388,3.692-18.769,7.938-19.868,8.538C411.527,22.02,427.492,20.063,430.315,14.85z"/>
	<path d="M450.504,7.44c1.19,3.292,4.979,18.503,2.687,30.786c-3.16,16.928-40.104,29.793-46.68,32.396
		c7.813-2.023,49.151-15.026,51.247-32.434C458.92,28.536,452.268,9.828,450.504,7.44z"/>
	<path d="M449.399,46.262c0.425,4.988,0.253,9.07-2.979,11.365c-14.361,10.195-36.8,5.947-39.278,6.077
		c2.333,0.057,30.85,6.712,41.359-5.14C451.767,54.88,449.91,47.529,449.399,46.262z"/>
	<path d="M264.017,224.214c0.605,1.341,6.406,16.375,13.847,18.458c10.777,3.016,24.036-0.948,30.787-3.485
		c-6.884,1.392-21.079,4.527-30.036,1.814C270.561,238.561,267.479,226.603,264.017,224.214z"/>
	<path d="M332.622,237.061c2.555,9,14.137,34.683,13.88,51.38c-0.276,17.963-6.135,26.613-13.373,31.438
		c-15.484,10.323-21.215,11.385-28.838,20.982c-5.805,7.31-4.988,13.371-3.641,18.203c0.471-6.45,3.052-12.785,5.85-16.197
		c6.786-8.276,20.186-12.825,29.859-20.957s14.851-17.067,13.948-34.44C349.529,272.499,335.307,241.818,332.622,237.061z"/>
	<path d="M273.074,577.011c-7.026,36.231-17.958,79.1-19.999,89.82c9.867-25.862,16.817-54.301,23.036-89.207
		c5.441-30.543,13.272-74.2,11.496-96.691C288.47,485.894,280.385,539.308,273.074,577.011z"/>
	<path d="M248.671,691.966c-9.084,32.903-17.152,90.785-10.203,160.54c6.951,69.756,34.609,155.562,51.47,191.694
		c-4.949-14.951-39.01-118.222-46.077-192.548C237.223,781.839,243.951,728.29,248.671,691.966z"/>
	<g>
		<path d="M453.395,105.53c10.103,21.014-26.731,85.528-50.187,54.651c22.128,24.954,49.545-29.167,47.78-46.715
			c-2.174-21.623-29.112-16.749-37.872,2.201C415.919,98.09,443.561,85.079,453.395,105.53z"/>
	</g>
	<g>
		<path d="M434.561,139.53c6.486-8.968,7.84-30.169,3.208-31.855c-3.731-1.359-10.448,3.706-17.719,8.341
			c3.795-8.376,15.496-13.875,20.925-9.906C447.355,110.774,442.174,131.976,434.561,139.53z"/>
	</g>
	<g>
		<path d="M364.173,894.2l1.513,32.899l-1.65-60.938l-1.517,60.738L364.173,894.2z"/>
	</g>
	<g>
		<path d="M272.909,569.337c-23.749-17.382-32.585-30.475-50.912-48.631c-12.548-12.432-29.446-29.148-43.029-45.389
			c13.438,18.317,15.705,23.187,39.93,46.835C243.702,546.366,258.944,561.365,272.909,569.337z"/>
	</g>
	<path d="M516.68,318.225c-7.257-12.264-17.34-19.659-35.982-20.237c-21.861-0.679-34.529,0.859-46.943-5.606
		c-27.034-14.081-32.763-68.396-34.254-73.514c0.855,5.89,0.963,60.725,32.624,76.384c13.185,6.521,33.229,6.408,44.091,6.51
		c25.007,0.236,31.936,9.923,38.231,18.619c7.571,10.458,12.286,36.733,12.273,40.467
		C526.926,355.727,522.142,327.455,516.68,318.225z"/>
	<path d="M400.657,491.762c4.514,6.22,50.165,42.484,64.86,51.824c10.491,6.745,35.287,25.323,70.694,35.107
		c-24.406-7.708-56.874-28.988-73.521-41.126C447.156,526.241,402.367,493.673,400.657,491.762z"/>
	<path d="M486.382,848.004c-7.791,90.748-45.532,182.503-49.914,196.196c29.483-64.863,52.07-158.37,55.495-196.595
		c6.254-69.821,5.117-124.156-4.294-156.967C492.751,726.912,492.611,775.442,486.382,848.004z"/>
	<g>
		<path d="M567.916,529.987c-11.371-46.372-27.803-107.091-36.779-152.696c2.397,16.735,32.01,153.438,32.482,154.063
			c6.939,36.903,7.22,51.758-27.407,47.34C568.877,589.838,579.287,576.358,567.916,529.987z"/>
	</g>
	<g>
		<path d="M364.959,467.829c0,0-45.268-25.348-85.258-40.076c-9.591-3.533-44.876-4.602-60.159-8.436
			c-13.828-4.532-6.013-15.842,0.25-15.416c-23.272-2.712-28.45-21.481-1.19-21.862c-19.063-5.875-25.249-27.378,17.077-16.418
			c-20.078-10.511-7.538-20.543,2.431-18.16s48.599,19.303,68.563,25.639c0.109-4.173-3.481-19.381,9.872-10.173
			c11.38,7.848,18.788,14.367,27.86,22.418c10.109,8.971,44.115,45.07,49.87,53.226c-1.71-6.39-42.706-50.742-46.992-54.561
			c-11.549-10.292-19.968-18.114-30.123-25.284c-6.093-4.301-17.722-6.293-14.947,8.795c-33.074-11.335-52.467-23.885-69.941-24.748
			c-14.482-0.026-15.776,13.565-6.43,18.198c-21.966-9.811-38.781,6.723-18.105,19.291c-17.015-1.914-21.142,21.789,4.099,24.593
			c-7.89,3.451-6.584,14.747,6.053,17.863c23.761,5.859,50.215,5.087,59.526,8.338C323.857,447.274,364.959,467.829,364.959,467.829
			z"/>
	</g>
	<g>
		<path d="M452.594,100.11c-0.145-3.398,2.696-27.329,7.479-29.233c1.899-6.784-4.812-20.461-6.912-23.497
			c1.949,2.241,9.958,8.2,11.033,24.967C457.254,77.5,453.236,96.087,452.594,100.11z"/>
	</g>
</g>
<g>
	<path d="M291.1,102.413c0.551-0.31,14.267-7.769,18.6-10.537c9.074-5.217,13.074-7.912,23.121-14.947L291.1,102.413z"/>
</g>
<g>
	<path d="M293.829,117.271c-0.133,2.614,0.395,4.784,1.682,6.505c-2.457,0.39-5.029,1.542-5.908,3.085c0,0,5.579-2.062,9.952-1.341
		c2.774-0.025,16.471,1.554,27.064,2.564c18.917,1.804,22.693-5.571,25.475-10.449c2.603-4.564,3.48-11.789,2.005-16.862
		c-19.035-5.415-43.597-3.411-55.106,6.146c-3.563,2.834-6.47,6.729-9.016,11.702c-0.96,1.965-1.816,4.024-2.562,6.276
		c1.466-4.903,3.657-9.252,6.57-13.047c2.828-3.588,6.15-6.246,10.038-8.6c11.729-6.042,32.218-8.043,50.142-2.983l0.366-2.028
		c-25.299-6.718-45.862,0.604-51.458,3.97c-8.915,5.382-14.72,14.011-17.585,26.52c0,0,0.59,0.243,0.802,0.249
		C286.991,126.684,292.23,119.659,293.829,117.271z M306.079,106.965c0.031,0.499-0.03,1.104-0.084,1.809
		c0.02,3.505,1.29,6.53,3.704,8.98c2.415,2.45,5.245,3.671,8.687,3.65c3.443-0.021,6.418-1.214,8.72-3.767
		c2.406-2.459,3.696-5.448,3.675-8.954c-0.068-1.098-0.129-2.096-0.387-3.081c1.09,0.13,7.065,0.334,10.107,1.154
		c0.866,9.91-5.442,14.609-14.598,16.87c-7.451,1.318-25.201-0.845-29.907,0.018c-1.079-1.534-1.429-4.016-1.162-7.641
		C295.567,115.155,302.695,108.006,306.079,106.965z M318.257,113.393c-0.587,0.037-1.194-0.224-1.715-0.691
		c-0.422-0.474-0.552-0.967-0.595-1.665c-0.037-0.599,0.227-1.117,0.587-1.641c0.466-0.431,1.042-0.668,1.733-0.612
		c0.587-0.038,1.09,0.13,1.513,0.604c0.521,0.468,0.754,1.054,0.694,1.659c0.037,0.599-0.22,1.217-0.685,1.647
		C319.421,113.117,318.846,113.354,318.257,113.393z"/>
</g>
<g>
	<path d="M290.967,101.726c1.574-0.813,15.416-9.296,41.72-25.484l25.701-1.405l-27.362-5.607l-52.455,32.652
		C279.864,102.243,286.577,104.237,290.967,101.726z"/>
</g>
<g>
	<path d="M249.711,116.037l-15.048,6.112c0.024,0.068,0.048,0.137,0.072,0.206C239.084,121.094,249.552,116.078,249.711,116.037z"/>
</g>
<g>
	<path d="M258.906,132.54c-2.759-3.227-2.586-5.579-5.375-6.971c2.352,1.989,4.388,6.375,6.18,9.572
		C259.003,133.762,259.966,133.832,258.906,132.54z"/>
	<path d="M252.651,123.267c-3.339-1.331-10.411,0.297-16.716,2.669c0.187,0.583,0.369,1.165,0.549,1.748
		c6.516-3.083,12.549-4.021,15.54-3.021c0.517,0.173,1.018,0.492,1.506,0.905c2.789,1.392,2.617,3.744,5.375,6.971
		c1.06,1.292,0.097,1.222,0.805,2.601c0.064,0.116,0.128,0.233,0.192,0.345c-0.063-0.112-0.128-0.229-0.192-0.345
		c-1.792-3.197-3.829-7.583-6.18-9.572c-0.214-0.107-0.441-0.209-0.692-0.305c-3.231-1.225-13.238,0.837-16.101,2.912
		c0.563,3.175,2.063,6.401,2.272,7.455c0.27-0.141,1.378-0.341,1.429-0.102c0.393,0.216,0.88,0.712,0.943,0.983
		c0.074,0.321,0.157,0.963-0.138,1.395c0.061,0.239-1.042,0.884-1.486,0.927c0.241,1.816,0.791,3.217,1.24,5.104
		c1.473,0.184,8.477-2.231,9.719-5.5c1.013-2.666,1.017-4.507,0.323-7.177c-0.174-0.517-0.704-1.882-0.786-2.272
		c1.542,0.468,4.902,1.598,5.42,2.534c1.064,3.2,1.419,5.507,1.043,7.363c-2.28,0.784-11.755,7.092-14.737,9.821
		c0.18,0.864,0.973,2.688,1.151,3.563c4.568-5.066,10.813-9.844,12.196-10.857c2.292-1.678,3.401-2.326,4.462-2.826
		c-0.854-0.118-1.49-0.433-2.577,0.043c0.604-1.881,0.19-4.039-0.535-6.373c1.686,1.51,3.952,4.682,4.992,6.483
		c0.146-0.094,0.497-0.564,0.497-0.564C259.135,129.358,257.25,125.1,252.651,123.267z"/>
</g>
<g>
	<path d="M257.465,107.959l-25.005,8.291c0.708,1.78,1.372,3.549,1.996,5.311c1.965-0.541,13.746-6.024,14.094-6.16
		C255.35,112.75,256.4,110.75,257.465,107.959z"/>
</g>
<path d="M359.508,65.352c0,0-14.174-20.663-15.584-22.653c3.19-6.393,7.204-33.949-15.392-26.059
	c-16.39,5.723-38.747,34.678-65.209,23.074c1.985-1.12,4.278-7.006,2.947-11.156c-46.653,16.55-70.904,1.782-83.532-3.009
	c0.447,1.53,0.812,3.075,0.984,4.636c12.951,4.359,39.803,17.311,79.292,2.975c0.128,2.121-1.969,4.928-5.838,7.063
	c28.219,19.82,58.54-15.201,71.823-19.918c19.258-6.838,14.069,17.631,11.038,22.84C342.735,46.238,359.508,65.352,359.508,65.352z"
	/>
<path d="M260.627,171.388c-2.825-6.497,7.91-7.062,14.983-3.434c0.994,0.502,2.195-0.811,1.904-0.864
	C275.284,162.425,249.045,160.936,260.627,171.388z"/>
<path style="stroke:#000000;" d="M248.195,168.375c-0.206,0.032,0.645,0.826,1.348,0.522c1.745-1.301,3.624,1.575,4.587,3.904
	C253.7,168.891,249.243,165.826,248.195,168.375z"/>
<g>
	<path d="M260.345,199.637c3.672,5.368,4.179,11.862,4.52,11.018c12.147-2.825,34.524-15.214,36.725-17.515
		c-4.612-2.519-30.118-7.019-34.381-6.555c-2.226,2.61-3.643,6.968-7.428,3.447C257.802,190.598,258.478,196.908,260.345,199.637z
		 M273.879,196.937l0.158-0.158c-0.031-0.095,0.063-0.126,0.127,0.064c0,0-0.032,0.221-0.159,0.474
		c-0.19,0.379-0.507,0.695-0.824,1.011c-1.013,1.073-2.215,1.577-3.892,1.606l-0.126-0.063c0.063-0.126,0.063-0.126,0.159-0.158
		c0.695-0.125,1.613-0.535,2.816-1.355C273.087,197.727,273.563,197.253,273.879,196.937z"/>
</g>
<path style="stroke:#000000;" d="M249.464,157.798c-0.971,1.319-2.12,3.024-2.237,5.354c-0.105,2.093,0.505,4.019,1.076,4.611
	c-0.38-0.719-0.526-2.518-0.296-4.65C248.256,160.803,248.874,159.772,249.464,157.798z"/>
<path d="M442.175,164.269c-1.917,3.211-10.353,7.973-15.218,9.39c-2.868,0.835-11.747-4.902-13.331-5.631
	c1.411,0.795,10.593,8.036,14.2,6.885C435.418,172.49,441.938,165.215,442.175,164.269z"/>
<g>
	<path d="M409.715,195.269c3.672-6.583,18.549,1.032,26.147-4.245c7.598-5.277,6.526-24.104,7.046-26.619
		c-0.165,2.019,2.16,26.013-5.901,30.07C428.947,198.531,414.821,190.188,409.715,195.269z"/>
</g>
<path d="M505.866,501.334c0,0-7.215-22.099-10.271-36.973s-10.771-45.622-10.771-45.622l-18.111,29.722l-7.106,26.625l8.251-25.61
	l15.938-19.946c0,0,3.892,16.885,7.332,33.156s7.029,30.426,7.029,30.426l-63.546-27.812L505.866,501.334z"/>
<path d="M241.107,143.585c0,0.767-0.119,0.966,0.257,3.102c-0.183-1.039,0.923,3.657,1.584,4.262c-1.469-2.853-0.833-2.5-1.335-4.44
	C241.305,145.323,241.035,144.416,241.107,143.585z"/>
<g>
	<path d="M409.392,35.303c3.411-4.713,4.49-9.494,3.472-14.499c-0.88,3.802-1.438,6.544-1.877,8.191
		c-0.459,1.742-1.484,3.268-3.04,4.889c-2.086,1.718-5.586,3.86-10.401,6.45c-4.893,2.471-7.84,3.91-8.939,4.297
		c1.49-0.307,4.771-1.372,9.72-3.117C403.393,39.691,407.088,37.588,409.392,35.303z"/>
</g>
<path style="fill:none;" d="M239.441,135.491c0.393-0.143,0.77-0.128,1.153,0.111c0.449,0.215,0.724,0.569,0.803,0.994
	c0.145,0.401,0.092,0.874-0.14,1.261c-0.166,0.362-0.511,0.639-0.906,0.782"/>
<path d="M468.396,69.569c0.836,5.974-0.221,18.264-2.639,22.241c-2.427,3.981-17.438,6.066-19.853,6.801
	c2.284-0.473,19.447-0.714,21.961-6.143C470.376,87.041,469.004,70.99,468.396,69.569z"/>
<g>
	<path d="M440.77,151.632c-1.996-11.98,25.417-17.501,28.945-31.92c3.528-14.419,1.35-47.07-0.385-50.733
		c1.67,2.681,9.97,40.454,4.812,53.836C468.986,136.195,441.732,140.036,440.77,151.632z"/>
</g>
<path d="M470.092,116.738c0.284,3.488-0.054,19.161-5.49,30.411c-7.496,15.505-46.521,18.217-53.55,19.002
	c8.07,0.099,51.372-1.592,57.966-17.839C472.674,139.303,471.166,119.504,470.092,116.738z"/>
<g>
	<path d="M264.933,489.796l10.249-35.232l-12.139,29.894l-55.655-32.639L264.933,489.796z"/>
</g>
<g>
	<path d="M151.562,443.985c0,0-35.285-28.434-36.298-63.44c-0.587-20.265-19.462-43.636-31.242-74.525
		c0.735-8.705,8.488-8.295,14.741-3.46c-19.027-33.008-4.333-30.904,4.125-26.087c-3.905-7.892-2.864-31.514,14.571-14.214
		c15.785-19.192,27.26,30.396,32.8,38.538c10.175-4.539,11.282,0.062,12.917,5.517c3.004,10.025,5.672,28.263,6.692,37.021
		c2.064,17.717,6.467,55.495,5.938,65.637c3.419-8.328-0.715-56.312-0.965-65.534c-0.25-9.222-3.088-24.906-6.04-37.842
		c-4.13-18.091-15.436-12.865-15.308-11.229c-6.525-19.914-20.465-54.963-35.344-37.214c-7.331-12.06-28.066-5.708-20.242,12.963
		c-16.591-7.1-15.665,17.724-6.66,25.195c-5.388-4.09-14.681,4.156-10.478,13.802c10.39,23.842,30.086,63.292,30.237,70.672
		C111.823,419.663,151.562,443.985,151.562,443.985z"/>
</g>
<path d="M453.106,526.709c-1.183,22.53-0.041,30.101,6.205,60.49c7.138,34.729,13.279,54.271,23.825,79.864
	c-2.322-10.663-12.826-44.524-20.807-80.558C454.026,549.01,452.375,531.692,453.106,526.709z"/>
<path d="M270.197,437.026c0.607,13.556,7.945,31.377,15.515,44.433c-5.922-16.051-11.506-31.17-12.215-44.351
	C272.79,423.926,269.687,425.627,270.197,437.026z"/>
<rect x="0.5" y="64.2" style="fill:#FFFFFF;stroke:#000000;" width="735" height="980"/>
</svg>
