<?xml version="1.0" encoding="iso-8859-1"?>
<!-- Generator: Adobe Illustrator 12.0.0, SVG Export Plug-In . SVG Version: 6.00 Build 51448)  -->
<!DOCTYPE svg PUBLIC "-//W3C//DTD SVG 1.1//EN" "http://www.w3.org/Graphics/SVG/1.1/DTD/svg11.dtd" [
	<!ENTITY ns_svg "http://www.w3.org/2000/svg">
	<!ENTITY ns_xlink "http://www.w3.org/1999/xlink">
]>
<svg  version="1.1" id="f:10" xmlns="&ns_svg;" xmlns:xlink="&ns_xlink;" width="736" height="989.9" viewBox="0 0 736 989.9"
	 style="overflow:visible;enable-background:new 0 0 736 989.9;" xml:space="preserve">
<g>
	<g>
		<path d="M293.932,113.846c-6.199-19.244-25.263-24.193-26.802-2.236c-1.248,17.82,21.047,74.365,36.707,49.025
			c-16.6,31.354-45.56-35.745-38.409-57.084C272.386,82.783,291.948,95.996,293.932,113.846z"/>
	</g>
	<g>
		<path d="M274.216,104.14c3.843-4.03,12.123,1.554,14.81,10.059c-5.146-4.707-9.898-9.85-12.539-8.47
			c-3.278,1.712-2.321,23.242,2.27,32.349C273.367,130.406,269.699,108.876,274.216,104.14z"/>
	</g>
</g>
<g>
	<path d="M481.443,19.267c-17.146,4.021-45.484,25.312-67.323,9.943c1.101-0.899,6.101-4.7,5-10.4
		c-61.361,9.571-73.439-17.403-86.6-18.1c-3.5,0-13.5,3-12,16.2c0.3,8.4,9.1,28.4,8.2,31.6c-1.7,2.4-16.299,20.4-12.3,24.8
		c-1.6-4.8,15.2-22,15.9-25.5c0-3.9-6.712-23.282-7.4-29.4c-1.613-6.306,3.851-13.495,7.9-13c10.388,1.403,32.128,26.02,82.2,17.3
		c-0.399,2.4-2.699,4.3-7,5.9c23.002,24.005,56.902-2.081,73.873-5.947C482.04,21.437,481.805,20.314,481.443,19.267z"/>
</g>
<g>
	<path d="M269.1,31c-0.3-6.1,0.2-11.1,1.7-15c-0.5,0.9-4.1,10.4-4.1,14.7c0.6,4.9,7.8,6.3,8.8,7.3C274.9,37.3,269.9,35.6,269.1,31z"
		/>
</g>
<g>
	<path d="M291.9,0c-1.4,0.8-12.649,20.441-14.549,28.841c-8.233,22.678,23.711,44.511,24.411,46.511
		c-0.9-2.6-25.084-28.996-22.684-40.896C280.278,23.156,290.5,1.1,291.9,0z"/>
</g>
<g>
	<path d="M270.2,15.5c-1.2,1.2-13.889,27.611-6.389,58.811c11.9,7.8,5.733,19.023,5.933,21.523c0-2.4,8.167-18.323-1.833-23.724
		C261.911,50.312,268.6,17.7,270.2,15.5z"/>
</g>
<g>
	<path d="M343.178,76.1c11.199,5,15.638,6.886,25.537,10.286c4.779,1.895,19.662,6.614,20.262,6.814L343.178,76.1z"/>
</g>
<g>
	<path d="M389.677,120.8c0.215-0.02,0.8-0.3,0.8-0.3c-3.699-12.3-10.144-20.54-19.544-25.339c-5.9-3-27.263-8.988-52.556-0.661
		l0.5,2c17.9-6.2,38.853-5.517,51.155-0.239c4.101,2.1,7.645,4.539,10.745,7.939c3.199,3.6,5.699,7.8,7.5,12.6
		c-0.9-2.2-1.9-4.2-3-6.1c-2.9-4.8-6.101-8.5-9.9-11.1c-12.3-8.8-37.393-9.226-56.399-2.6c-1.181,5.158,0.167,12.313,3.1,16.7
		c3.136,4.691,7.437,11.809,26.552,8.795c10.705-1.688,24.526-4.142,27.348-4.295c4.4-1,10.2,0.7,10.2,0.7
		c-0.99-1.484-3.678-2.469-6.2-2.7c1.2-1.8,1.601-4,1.301-6.6C383.053,111.881,388.82,118.555,389.677,120.8z M380.177,108.4
		c0.5,3.6,0.3,6.1-0.7,7.7c-4.837-0.56-22.743,2.737-30.399,1.9c-9.449-1.669-16.157-5.954-15.899-15.9
		c3.039-1.014,9.1-1.6,10.199-1.8c-0.199,1-0.199,2-0.199,3.1c0.199,3.5,1.699,6.4,4.3,8.7c2.5,2.4,5.6,3.4,9.1,3.2
		c3.5-0.2,6.3-1.6,8.601-4.2c2.3-2.6,3.399-5.7,3.199-9.2c-0.1-0.7-0.199-1.3-0.199-1.8
		C371.682,100.921,379.377,107.6,380.177,108.4z M354.527,105.804c-0.5-0.4-0.8-1-0.8-1.6c-0.101-0.6,0.1-1.2,0.6-1.7
		c0.4-0.5,0.9-0.7,1.5-0.7c0.7-0.1,1.3,0.1,1.8,0.5c0.4,0.5,0.7,1,0.7,1.6c0,0.7-0.1,1.2-0.5,1.7c-0.5,0.5-1.1,0.8-1.7,0.8
		C355.527,106.404,354.927,106.204,354.527,105.804z"/>
</g>
<g>
	<path d="M401.177,90.3l-57.699-22.1l-25.8,10.7l25.5-3.5c28.899,10.9,44.1,16.6,45.799,17.1
		C393.765,94.131,399.977,90.9,401.177,90.3z"/>
</g>
<g>
	<path d="M427.566,94.825c0.622-0.119,15.995-2.84,20.981-4.09c10.262-2.068,14.91-3.354,26.67-6.837L427.566,94.825z"/>
</g>
<g>
	<path d="M429.506,112.909c-0.507,2.568-0.631,4.844,0.547,6.454c-1.547-0.047-1.843,0.193-2.958,0.638
		c1.517,0.082,3.854,0.505,6.879,1.762s10.075,6.806,20.11,6.114c5.324-0.142,12.642-1.704,16.143-6.128
		c3.274-4.14,5.19-11.163,4.426-16.399c-7.378-4.181-30.418-9.787-41.408-0.78c-4.754,3.896-3.381,4.924-6.655,9.477
		c-1.248,1.806,0.327,1.152-0.747,3.273c2.179-4.64,5.318-10.246,9.049-12.76c10.483-7.065,22.918-6.268,39.901,0.3l0.658-1.953
		c-26.534-9.108-37.008-3.428-42.127,0.601c-2.691,2.12-7.141,7.777-9.97,17.325c0,0,0.561,0.326,0.773,0.363
		C425.16,119.025,427.554,115.041,429.506,112.909z M437.466,108.338c-0.032,0.408-0.323,1.846-0.229,2.452
		c-0.095,2.848,0.172,4.923,1.879,7.19c1.707,2.267,4.032,3.102,6.876,3.494c2.844,0.391,5.813-0.156,7.978-2.606
		c2.391-2.708,2.63-4.482,2.517-6.909c-0.095-2.015-0.892-4.551-1.236-5.115c0.885,0.235,7.808,1.738,8.827,2.771
		c-0.54,9.935-4.579,13.91-14.131,14.817c-7.698,0.223-14.315-5.182-19.183-5.011c-0.869-1.675-0.852-4.073-0.065-7.622
		C432.066,110.777,435.278,109.278,437.466,108.338z M447.057,114.362c-0.49-0.039-0.961-0.322-1.336-0.763
		c-0.294-0.433-0.343-0.847-0.297-1.417c0.04-0.489,0.317-0.877,0.677-1.258c0.435-0.292,0.937-0.417,1.502-0.29
		c0.489,0.04,0.886,0.235,1.179,0.669c0.376,0.439,0.499,0.941,0.379,1.423c-0.04,0.489-0.324,0.958-0.758,1.251
		C448.049,114.278,447.547,114.401,447.057,114.362z"/>
</g>
<g>
	<path d="M427.658,94.131c1.751-0.272,20.679-4.495,50.762-11.499l0.649-7.176l-63.217,14.89
		C416.965,91.098,422.698,95.118,427.658,94.131z"/>
</g>
<path d="M394.772,160.736c-0.29,0.053,0.911,1.366,1.904,0.864c4.813-7.24,11.292-0.411,10.86,2.808
	C408.222,154.254,396.253,156.523,394.772,160.736z"/>
<path d="M415.535,163.928c0.608-0.832,3.648-7.135,7.104-2.72c0.993,0.502,2.194-0.811,1.904-0.864
	C423.063,156.132,416.144,157.465,415.535,163.928z"/>
<ellipse cx="448.389" cy="114.517" rx="19.728" ry="10.448"/>
<path d="M380.63,109.838c3.742,11.384-15.127,9.2-36.024,8.889c-14.441-0.215-15.627-8.694-14.688-15.302
	c0.94-6.608,13.295-10.317,27.596-8.284S378.545,103.497,380.63,109.838z"/>
<path d="M405.317,234.881c-7.68,0.47-12.909-0.371-19.311-3.26c6.048,3.613,11.953,5.449,19.671,5.057
	c7.717-0.394,20.795-6.851,22.277-7.735C424.048,230.501,412.999,234.412,405.317,234.881z"/>
<g>
	<path d="M416.2,181.468c-3.785,3.521-10.752,1.927-12.979-0.683c-4.264-0.464-21.532,8.795-26.145,11.315
		c2.2,2.3,18.091,12.171,29.56,11.909c13.693,0.718,24.84-11.409,24.84-11.409C428.777,191.1,421.523,182.256,416.2,181.468z
		 M397.277,193.7c1.399,0.4,2.399,0.5,3.1,0.4c0.1,0,0.1,0,0.2,0.1l-0.101,0.1c-1.6,0.5-2.899,0.4-4.199-0.3
		c-0.4-0.2-0.801-0.4-1.101-0.7c-0.2-0.2-0.3-0.4-0.3-0.4c0-0.2,0.1-0.2,0.1-0.1l0.2,0.1C395.577,193.1,396.177,193.4,397.277,193.7
		z"/>
</g>
<path d="M464.355,476.592c-3.715,21.861-4.225,46.025-3.565,72.824c0.549,24.995,8.662,60.847,24.341,107.455
	c-2.664-10.583-15.288-67.892-19.729-105.484C460.961,513.793,463.785,481.595,464.355,476.592z"/>
<g>
	<path d="M489.839,381.945c2.921,19.836,19.925,101.705,20.924,113.288c12.034,21.893,19.033,54.15,26.603,79.016
		C535.478,554.254,497.343,415.415,489.839,381.945z"/>
</g>
<g>
	<path d="M577.073,684.286l19.613,26.373c12.448,19.196,44.393,94.74,47.154,109.775c2.313,12.056-7.348,9.581-14.584,6.401
		c7.136,15.162,13.268,28.949-5.923,24.18c2.609,14.04-5.604,24.761-20.607,8.85c-11.61,13.285-20.229-14.627-23.534-23.903
		c-3.768-10.565-12.647-36.521-14.773-43.718c-0.803,1.652-3.495,22.491-12.681,21.287c-5.687-0.079-13.103-34.412-13.388-42.509
		c-0.145-2.396,7.677-49.813,7.665-50.011c-2.481-12.976-4.394-21.477-5.942-25.592l3.946,25.711
		c-0.076,0.405-9.791,45.884-9.641,48.379c3.215,30.449,10.213,47.659,17.777,47.849c7.672,1.136,11.205-10.614,12.293-14.185
		c0.495,1.573,6.738,23.114,12.294,37.825c5.207,13.788,12.86,36.879,27.045,25.343c4.994,9.36,24.208,10.213,23.073-9.268
		c7.943,3.783,21.965-3.664,7.078-25.333c8.25,6.021,15.906,0.114,12.872-11.886c-3.876-19.788-35.986-94.943-47.545-109.425
		C593.385,703.059,577.073,684.286,577.073,684.286z"/>
</g>
<g>
	<path d="M375.677,910.1l-3.207-60.738l-3.492,60.938l3.2-32.899L375.677,910.1z"/>
</g>
<g>
	<path d="M537.365,574.25c13.138,18.671,24.943,63.813,24.842,87.65c0.096-11.609-6.94-33.082-10.155-45.36
		C549.053,605.086,537.365,574.25,537.365,574.25z"/>
</g>
<g>
	<path d="M488.847,593.873c14.715,38.464,31.571,62.659,41.472,80.25c-11.793-25.313-36.711-72.424-43.205-92.75
		c-6.943-21.736-17.51-54.643-23.85-86.644C463.868,514.352,474.132,555.41,488.847,593.873z"/>
</g>
<g>
	<path d="M156.652,629.344c-0.747-19.41,7.613-98.729,27.464-126.176c0.542-0.563,28.535-111.037,32.898-127.37
		c-14.318,44.22-27.299,88.922-37.004,125.504C156.6,544.349,154.957,608.503,156.652,629.344z"/>
</g>
<path d="M226.445,519.22c3.313-15.686,7.782-39.125,16.265-66.055s17.643-49.765,17.643-49.765s8.529,16.878,12.456,29.057
	c4.985,15.462,12.631,48.919,11.443,83.144c-0.867,24.988-9.676,83.218-25.075,129.917c2.6-10.6,18.202-90.132,20.476-127.917
	c1.914-31.815-4.053-63.099-8.807-78.824C267.396,427.368,260.353,411,260.353,411s-9.304,29.108-14.285,44.563
	s-12.711,47.731-16.31,66.2s-19.328,96.803-29.328,113.581C210.294,607.168,223.133,534.906,226.445,519.22z"/>
<g>
	<path d="M134.755,705.962c-7.307,17.027-42.276,107.148-40.769,127.256c0.254,12.375,8.617,16.291,15.499,11.801
		c-8.584,19.809,15.425,21.906,24.7,14.137c8.322,15.508,30.5,8.248,29.506-12.862c14.233,12.6,22.944-6.981,24.312-21.657
		c1.457-15.657,6.832-43.455,6.892-45.104c1.996,3.156,8.079,12.061,15.175,8.932c6.688-1.721,11.294-18.401,4.217-48.488
		c-0.518-2.445-24.902-50.779-25.083-51.149l6.503-33.741c-0.402,4.379-6.106,20.807-8.459,34.154
		c0.041,0.195,23.347,50.199,23.843,52.548c1.871,7.883,4.021,39.377-1.442,40.961c-8.537,3.597-15.62-11.104-16.832-12.482
		c-0.143,7.502-7.679,38.977-8.509,50.163c-0.73,9.82-5.298,35.89-22.887,19.246c-2.837,29.314-20.804,24.019-26.478,14.563
		c-17.24,9.685-26.989,2.093-21.956-14.928c-6.135,4.983-13.746,4.967-14.711-7.272C96.952,816.81,130.729,726.5,137.645,704.69
		l15.858-57.604C153.503,647.085,138.474,697.295,134.755,705.962z"/>
</g>
<path d="M402.884,247.017c0.783,5.692,6.293,38.06,18.387,46.625c10.772,7.629,21.198,8.792,31.351,10.497
	c8.662,1.454,21.127,3.068,27.307,12.113c6.86,10.04,8.117,42.747,8.058,47.871c-0.093-3.732-4.037-33.049-9.498-43.035
	c-5.057-9.246-13.828-11.507-26.736-13.793c-13.092-2.319-26.435-6.393-32.664-11.175
	C407.007,286.844,402.783,252.87,402.884,247.017z"/>
<path d="M240.383,311.358c9.049-7.918,17.657-14.424,43.068-16.859c14.441-1.384,24.807-2.447,34.839-9.765
	c20.59-15.02,25.792-49.033,24.122-64.062c3.101,15.982,0.357,51.099-23.576,67.742c-7.616,5.296-19.705,7.393-39.437,9.996
	c-20.861,2.752-32.053,11.208-37.275,17.176c-8.48,9.692-18.173,34.213-18.673,37.914
	C223.951,348.4,228.445,321.804,240.383,311.358z"/>
<path d="M499.568,840.852c-6.375,73.781-23.523,133.597-28.473,148.548c16.86-36.133,26.914-77.938,33.865-147.694
	c6.949-69.755-4.119-127.637-13.203-160.54C496.479,717.49,505.683,770.087,499.568,840.852z"/>
<path d="M253.252,676.2c-9.411,32.811-21.055,90.579-14.801,160.4c6.256,69.821,25.256,116.5,41.756,152.8
	c-4.8-15-29.872-82.979-36.354-153.6C237.408,765.584,248.17,712.473,253.252,676.2z"/>
<ellipse transform="matrix(-0.6975 0.7166 -0.7166 -0.6975 812.7013 -113.5419)" cx="430.315" cy="114.762" rx="6.276" ry="3.874"/>
<ellipse transform="matrix(0.6975 0.7166 -0.7166 0.6975 197.2998 -239.8326)" cx="382.724" cy="113.779" rx="6.276" ry="3.872"/>
<rect x="0.5" y="9.4" style="fill:#FFFFFF;stroke:#000000;" width="735" height="980"/>
</svg>
