<?xml version="1.0" encoding="iso-8859-1"?>
<!-- Generator: Adobe Illustrator 12.0.0, SVG Export Plug-In . SVG Version: 6.00 Build 51448)  -->
<!DOCTYPE svg PUBLIC "-//W3C//DTD SVG 1.1//EN" "http://www.w3.org/Graphics/SVG/1.1/DTD/svg11.dtd" [
	<!ENTITY ns_svg "http://www.w3.org/2000/svg">
	<!ENTITY ns_xlink "http://www.w3.org/1999/xlink">
]>
<svg  version="1.1" id="f:14" xmlns="&ns_svg;" xmlns:xlink="&ns_xlink;" width="736" height="1051.382" viewBox="0 0 736 1051.382"
	 style="overflow:visible;enable-background:new 0 0 736 1051.382;" xml:space="preserve">
<g>
	<path d="M326.291,28.984c-1.1-0.6-17.48-4.845-19.868-8.538c-2.625-4.056-1.955-5.647-2.175-13.764
		c-1.518,4.642-2.387,9.637,0.437,14.85C307.508,26.745,323.473,28.702,326.291,28.984z"/>
	<g>
		<path d="M321.884,122.35c-8.76-18.95-35.698-23.824-37.872-2.201c-1.765,17.548,25.652,71.669,47.78,46.715
			c-23.455,30.876-60.289-33.638-50.187-54.651C291.439,91.762,319.081,104.772,321.884,122.35z"/>
	</g>
	<g>
		<path d="M294.025,112.793c5.429-3.969,17.13,1.53,20.925,9.906c-7.271-4.635-13.987-9.7-17.719-8.341
			c-4.632,1.686-3.278,22.887,3.208,31.855C292.826,138.658,287.645,117.457,294.025,112.793z"/>
	</g>
</g>
<g>
	<path d="M301.865,199.862c-9.331-4.057-21.489-25.71-21.68-27.729c0.601,2.515,14.21,19.001,23.005,24.278
		c8.795,5.277,26.172,5.563,30.422,12.146C327.702,203.477,311.195,203.918,301.865,199.862z"/>
</g>
<g>
	<path d="M502.414,60.479c-7.4-0.75-14.355-3.331-20.068-9.202c1.248-0.681,6.863-3.492,6.834-9.298
		c-62.073-1.924-68.963-30.665-81.769-33.78c-3.439-0.646-13.821,0.456-14.785,13.706c-1.256,8.312,3.699,29.592,2.224,32.571
		c-2.113,2.045-19.786,17.039-16.668,22.102c-0.686-5.013,19.001-18.814,20.336-22.125c0.719-3.833-2.299-24.121-1.844-30.261
		c-0.422-6.495,6.275-12.552,10.164-11.317c9.95,3.297,26.771,31.505,77.592,32.181c-0.836,2.285-3.447,3.728-7.969,4.506
		c6.994,10.714,16.945,14.433,27.531,14.918C504.488,64.501,502.885,60.526,502.414,60.479z"/>
</g>
<g>
	<path d="M301.47,42.616c1.884-6.741,5.092-12.114,10.068-16.076c-1.492,0.883-13.491,10.546-15.291,15.254
		c-0.715,5.49,14.431,18.771,16.241,20.072C311.445,60.975,301.326,47.818,301.47,42.616z"/>
</g>
<g>
	<path d="M367.621,0c-3.455,0.7-36.748,23.574-44.498,34.07c-27.843,27.576,34.2,63.901,34.924,66.684
		c-0.917-3.614-49.651-40.412-33.427-58.933C332.026,27.369,364.041,1.093,367.621,0z"/>
</g>
<g>
	<path d="M310.411,25.869c-3.177,1.067-51.778,35.677-48.129,71.386c25.902,7.206,18.966,19.956,18.362,22.735
		c1.005-2.629,8.88-20.109-12.065-23.348C264.337,71.535,305.924,27.949,310.411,25.869z"/>
</g>
<path d="M294.501,185.746c3.866,1.708,15.442-5.133,17.159-5.822c-1.909,0.61-12.79,5.653-16.015,4.636
	c-3.216-1.017-8.871-6.762-10.718-10.103C285.093,175.418,290.637,184.039,294.501,185.746z"/>
<path d="M260.438,108.297c2.673,5.428,20.918,5.67,23.347,6.143c-2.566-0.734-18.525-2.819-21.105-6.801
	c-2.57-3.977-3.693-16.267-2.805-22.241C259.229,86.819,257.77,102.87,260.438,108.297z"/>
<g>
	<path d="M253.767,138.644c-5.483-13.382,3.34-51.155,5.115-53.836c-1.845,3.663-4.16,36.314-0.409,50.733
		c3.751,14.419,32.893,19.939,30.771,31.92C288.22,155.865,259.247,152.023,253.767,138.644z"/>
</g>
<path d="M259.214,164.141c7.01,16.247,53.043,17.938,61.622,17.84c-7.472-0.785-48.959-3.498-56.928-19.003
	c-5.779-11.25-6.139-26.923-5.837-30.411C256.93,135.333,255.327,155.132,259.214,164.141z"/>
<g>
	<path d="M402.18,83.612c10.047,7.035,14.047,9.729,23.121,14.947c4.332,2.769,18.048,10.227,18.6,10.537L402.18,83.612z"/>
</g>
<g>
	<path d="M448.71,135.66c0.212-0.006,0.802-0.249,0.802-0.249c-2.864-12.509-8.67-21.138-17.585-26.52
		c-5.596-3.366-26.159-10.688-51.458-3.97l0.366,2.028c17.924-5.061,38.413-3.06,50.143,2.983c3.888,2.354,7.21,5.012,10.037,8.6
		c2.913,3.794,5.104,8.144,6.57,13.047c-0.746-2.252-1.602-4.311-2.562-6.276c-2.546-4.973-5.453-8.867-9.016-11.702
		c-11.509-9.557-36.071-11.562-55.106-6.146c-1.476,5.073-0.598,12.298,2.005,16.862c2.781,4.878,6.558,12.253,25.475,10.449
		c10.594-1.01,24.29-2.589,27.064-2.564c4.374-0.721,9.952,1.341,9.952,1.341c-0.879-1.544-3.451-2.696-5.908-3.085
		c1.287-1.721,1.815-3.891,1.682-6.505C442.77,126.342,448.01,133.366,448.71,135.66z M440.167,122.687
		c0.268,3.625-0.083,6.107-1.161,7.641c-4.706-0.863-22.457,1.3-29.907-0.018c-9.156-2.261-15.465-6.96-14.599-16.87
		c3.042-0.82,9.018-1.023,10.107-1.154c-0.258,0.985-0.319,1.983-0.388,3.081c-0.021,3.506,1.27,6.495,3.676,8.954
		c2.301,2.553,5.276,3.746,8.72,3.767c3.441,0.021,6.271-1.2,8.687-3.65c2.414-2.45,3.685-5.475,3.704-8.98
		c-0.055-0.705-0.115-1.31-0.084-1.809C432.305,114.688,439.433,121.838,440.167,122.687z M415.212,119.375
		c-0.465-0.431-0.722-1.048-0.685-1.647c-0.061-0.605,0.172-1.191,0.693-1.659c0.423-0.474,0.926-0.642,1.513-0.604
		c0.692-0.056,1.268,0.181,1.733,0.612c0.36,0.524,0.624,1.042,0.587,1.641c-0.043,0.698-0.173,1.191-0.595,1.665
		c-0.521,0.468-1.128,0.729-1.716,0.691C416.154,120.037,415.579,119.8,415.212,119.375z"/>
</g>
<g>
	<path d="M456.429,108.564l-52.455-32.652l-27.362,5.607l25.701,1.405c26.305,16.188,40.146,24.671,41.721,25.484
		C448.424,110.919,455.137,108.926,456.429,108.564z"/>
</g>
<g>
	<path d="M485.289,121.719l15.048,6.112c-0.024,0.068-0.049,0.137-0.072,0.206C495.916,126.777,485.448,121.761,485.289,121.719z"/>
</g>
<g>
	<path d="M476.094,138.222c2.759-3.227,2.587-5.579,5.376-6.971c-2.352,1.989-4.389,6.375-6.181,9.572
		C475.997,139.444,475.034,139.514,476.094,138.222z"/>
	<path d="M482.349,128.95c3.339-1.331,10.411,0.297,16.716,2.669c-0.187,0.583-0.369,1.165-0.549,1.748
		c-6.516-3.083-12.549-4.021-15.54-3.021c-0.517,0.173-1.018,0.492-1.506,0.905c-2.789,1.392-2.617,3.744-5.376,6.971
		c-1.06,1.292-0.097,1.222-0.805,2.601c-0.063,0.116-0.128,0.233-0.191,0.345c0.063-0.112,0.128-0.229,0.191-0.345
		c1.792-3.197,3.829-7.583,6.181-9.572c0.214-0.107,0.44-0.209,0.692-0.305c3.23-1.225,13.238,0.837,16.101,2.912
		c-0.563,3.175-2.063,6.401-2.272,7.455c-0.27-0.141-1.378-0.341-1.429-0.102c-0.394,0.216-0.881,0.712-0.943,0.983
		c-0.074,0.321-0.157,0.963,0.138,1.395c-0.062,0.239,1.041,0.884,1.485,0.927c-0.241,1.816-0.791,3.217-1.239,5.104
		c-1.473,0.184-8.477-2.231-9.72-5.5c-1.013-2.666-1.017-4.507-0.322-7.177c0.174-0.517,0.703-1.882,0.786-2.272
		c-1.543,0.468-4.902,1.598-5.421,2.534c-1.063,3.2-1.419,5.507-1.043,7.363c2.28,0.784,11.755,7.092,14.736,9.821
		c-0.18,0.864-0.973,2.688-1.15,3.563c-4.568-5.066-10.813-9.844-12.196-10.857c-2.292-1.678-3.401-2.326-4.462-2.826
		c0.854-0.118,1.489-0.433,2.577,0.043c-0.604-1.881-0.19-4.039,0.535-6.373c-1.687,1.51-3.952,4.682-4.992,6.483
		c-0.146-0.094-0.497-0.564-0.497-0.564C475.865,135.041,477.75,130.783,482.349,128.95z"/>
</g>
<g>
	<path d="M477.535,113.642l25.005,8.291c-0.708,1.78-1.372,3.549-1.996,5.311c-1.965-0.541-13.745-6.024-14.094-6.16
		C479.65,118.433,478.601,116.433,477.535,113.642z"/>
</g>
<path d="M493.388,152.192c-0.502,1.94,0.134,1.587-1.335,4.44c0.661-0.604,1.767-5.3,1.584-4.262
	c0.375-2.136,0.257-2.335,0.257-3.102C493.966,150.099,493.695,151.005,493.388,152.192z"/>
<path style="fill:none;" d="M495.56,141.173c-0.394-0.143-0.771-0.128-1.153,0.111c-0.448,0.215-0.724,0.569-0.803,0.994
	c-0.145,0.401-0.093,0.874,0.14,1.261c0.165,0.362,0.511,0.639,0.905,0.782"/>
<path d="M456.385,247.683c-8.957,2.713-23.151-0.422-30.036-1.814c6.752,2.537,20.011,6.501,30.787,3.485
	c7.441-2.083,13.242-17.116,13.847-18.458C467.521,233.285,464.438,245.243,456.385,247.683z"/>
<g>
	<path d="M372.481,933.583l-1.518-60.738l-1.65,60.938l1.514-32.899L372.481,933.583z"/>
</g>
<path d="M457.485,173.773c-0.29,0.053,0.911,1.366,1.904,0.864c7.073-3.628,17.808-3.063,14.983,3.434
	C485.955,167.618,459.716,169.108,457.485,173.773z"/>
<path style="stroke:#000000;" d="M480.87,179.483c0.963-2.329,2.842-5.205,4.587-3.904c0.703,0.304,1.554-0.49,1.348-0.522
	C485.757,172.509,481.3,175.574,480.87,179.483z"/>
<g>
	<path d="M475.22,196.715c-3.784,3.521-5.201-0.836-7.428-3.447c-4.264-0.464-29.769,4.036-34.381,6.555
		c2.2,2.3,24.577,14.689,36.725,17.515c0.34,0.845,0.847-5.65,4.52-11.018C476.522,203.591,477.197,197.28,475.22,196.715z
		 M462.862,205.04c1.202,0.82,2.12,1.23,2.815,1.355c0.096,0.031,0.096,0.031,0.159,0.158l-0.127,0.063
		c-1.676-0.029-2.878-0.533-3.892-1.606c-0.317-0.316-0.634-0.632-0.824-1.011c-0.127-0.252-0.159-0.474-0.159-0.474
		c0.063-0.19,0.158-0.159,0.127-0.064l0.158,0.158C461.438,203.936,461.912,204.409,462.862,205.04z"/>
</g>
<path style="stroke:#000000;" d="M486.992,169.795c0.23,2.132,0.085,3.931-0.296,4.65c0.571-0.592,1.182-2.518,1.076-4.611
	c-0.117-2.329-1.267-4.034-2.237-5.354C486.126,166.455,486.743,167.486,486.992,169.795z"/>
<path d="M447.393,487.615c-1.776,22.491,6.055,66.148,11.496,96.691c6.219,34.906,13.168,63.345,23.035,89.207
	c-2.04-10.721-12.973-53.589-19.998-89.82C454.614,545.99,446.53,492.576,447.393,487.615z"/>
<g>
	<path d="M372.481,933.583l-1.518-60.738l-1.65,60.938l1.514-32.899L372.481,933.583z"/>
</g>
<g>
	<path d="M516.102,528.835c24.226-23.649,26.491-28.518,39.93-46.835c-13.583,16.241-30.48,32.957-43.029,45.389
		c-18.326,18.156-27.162,31.249-50.911,48.63C476.056,568.047,491.298,553.049,516.102,528.835z"/>
</g>
<g>
	<path d="M527.612,458.501l-55.655,32.639l-12.139-29.894l10.248,35.232L527.612,458.501z"/>
</g>
<g>
	<path d="M623.993,386.468c0.151-7.38,19.848-46.831,30.237-70.672c4.204-9.646-5.09-17.892-10.478-13.802
		c9.005-7.471,9.932-32.295-6.66-25.195c7.825-18.671-12.911-25.023-20.241-12.963c-14.879-17.749-28.818,17.3-35.344,37.214
		c0.128-1.637-11.178-6.863-15.309,11.229c-2.952,12.936-5.79,28.62-6.04,37.842c-0.249,9.222-4.384,57.206-0.965,65.534
		c-0.529-10.142,3.873-47.92,5.938-65.637c1.021-8.758,3.688-26.996,6.692-37.021c1.635-5.455,2.742-10.056,12.917-5.517
		c5.539-8.142,17.015-57.73,32.8-38.538c17.436-17.3,18.477,6.322,14.571,14.214c8.458-4.817,23.152-6.921,4.125,26.087
		c6.253-4.835,14.006-5.245,14.741,3.46c-11.779,30.889-30.655,54.261-31.242,74.525c-1.014,35.006-36.298,63.44-36.298,63.44
		S623.177,426.345,623.993,386.468z"/>
</g>
<path d="M272.67,593.188c-7.98,36.033-18.484,69.895-20.807,80.558c10.546-25.593,16.688-45.135,23.825-79.864
	c6.246-30.389,7.388-37.959,6.205-60.489C282.625,538.375,280.974,555.692,272.67,593.188z"/>
<path d="M461.502,443.791c-0.708,13.181-6.293,28.3-12.215,44.351c7.57-13.056,14.908-30.877,15.516-44.433
	C465.313,432.31,462.21,430.608,461.502,443.791z"/>
<path d="M272.31,544.25c-16.647,12.138-49.115,33.417-73.521,41.125c35.407-9.784,60.203-28.362,70.694-35.107
	c14.695-9.34,60.347-45.604,64.86-51.824C332.633,500.355,287.844,532.923,272.31,544.25z"/>
<g>
	<path d="M198.788,585.375c-34.627,4.418-34.347-10.437-27.407-47.339c0.473-0.625,30.085-137.327,32.482-154.063
		c-8.977,45.605-25.408,106.324-36.779,152.696C155.713,583.041,166.123,596.52,198.788,585.375z"/>
</g>
<g>
	<path d="M457.583,437.74c9.312-3.251,35.766-2.479,59.526-8.338c12.638-3.116,13.943-14.412,6.054-17.863
		c25.24-2.804,21.113-26.507,4.099-24.593c20.676-12.568,3.861-29.102-18.104-19.291c9.346-4.633,8.052-18.224-6.431-18.198
		c-17.474,0.863-36.866,13.412-69.94,24.748c2.775-15.088-8.854-13.096-14.947-8.795c-10.155,7.169-18.574,14.992-30.123,25.284
		c-4.285,3.819-45.281,48.171-46.991,54.561c5.755-8.155,39.761-44.255,49.869-53.226c9.073-8.051,16.48-14.57,27.86-22.418
		c13.354-9.208,9.763,6,9.872,10.173c19.965-6.335,58.594-23.255,68.563-25.639c9.969-2.383,22.509,7.649,2.431,18.16
		c42.325-10.96,36.14,10.543,17.077,16.418c27.26,0.381,22.082,19.149-1.19,21.862c6.264-0.426,14.079,10.884,0.251,15.416
		c-15.283,3.833-50.568,4.903-60.159,8.436c-39.99,14.729-85.258,40.076-85.258,40.076S411.143,453.957,457.583,437.74z"/>
</g>
<path d="M229.134,508.017c0,0,7.215-22.099,10.271-36.973s10.771-45.622,10.771-45.622l18.111,29.722l7.106,26.625l-8.251-25.61
	l-15.938-19.946c0,0-3.892,16.885-7.332,33.156s-7.029,30.426-7.029,30.426l63.546-27.812L229.134,508.017z"/>
<path d="M402.378,243.743c-2.555,9-14.137,34.683-13.88,51.38c0.276,17.963,6.135,26.613,13.373,31.438
	c15.484,10.323,21.215,11.385,28.838,20.982c5.805,7.31,4.987,13.371,3.641,18.203c-0.472-6.45-3.052-12.785-5.85-16.197
	c-6.786-8.276-20.187-12.825-29.859-20.957c-9.674-8.131-14.852-17.067-13.948-34.44C385.471,279.181,399.693,248.5,402.378,243.743
	z"/>
<path d="M218.32,324.907c7.257-12.264,17.34-19.659,35.982-20.237c21.861-0.679,34.529,0.859,46.943-5.606
	c27.034-14.081,32.763-68.396,34.254-73.514c-0.855,5.89-0.963,60.725-32.624,76.384c-13.185,6.521-33.229,6.408-44.091,6.51
	c-25.007,0.236-31.936,9.923-38.231,18.619c-7.571,10.458-12.286,36.733-12.273,40.467
	C208.074,362.41,212.858,334.138,218.32,324.907z"/>
<path d="M491.984,858.334c-7.067,74.326-36.128,177.597-41.077,192.548c16.86-36.133,39.519-121.938,46.47-191.694
	c6.949-69.755-1.119-127.637-10.203-160.54C491.895,734.972,498.622,788.521,491.984,858.334z"/>
<path d="M248.176,697.321c-9.411,32.811-10.548,87.146-4.294,156.967c3.425,38.225,21.012,131.731,50.495,196.595
	c-4.382-13.693-37.123-105.448-44.914-196.196C243.234,782.125,243.094,733.594,248.176,697.321z"/>
<path d="M298.25,92.383c-0.904-0.867-10.391-11.459-11.728-15.648c-1.471-4.602,6.593-22.962,8.507-30.853
	c-2.681,4.083-11.828,25.675-10.469,31.445C285.92,83.099,295.604,91.374,298.25,92.383z"/>
<path d="M317.619,69.671c-1.1-0.6-17.48-4.845-19.868-8.538c-2.625-4.056-1.955-5.647-2.175-13.764
	c-1.518,4.642-2.387,9.637,0.437,14.85C298.835,67.432,314.8,69.389,317.619,69.671z"/>
<rect x="0.5" y="70.882" style="fill:#FFFFFF;stroke:#000000;" width="735" height="980"/>
</svg>
