<?xml version="1.0" encoding="iso-8859-1"?>
<!-- Generator: Adobe Illustrator 12.0.0, SVG Export Plug-In . SVG Version: 6.00 Build 51448)  -->
<!DOCTYPE svg PUBLIC "-//W3C//DTD SVG 1.1//EN" "http://www.w3.org/Graphics/SVG/1.1/DTD/svg11.dtd" [
	<!ENTITY ns_svg "http://www.w3.org/2000/svg">
	<!ENTITY ns_xlink "http://www.w3.org/1999/xlink">
]>
<svg  version="1.1" id="f:5" xmlns="&ns_svg;" xmlns:xlink="&ns_xlink;" width="736" height="1048.26" viewBox="0 0 736 1048.26"
	 style="overflow:visible;enable-background:new 0 0 736 1048.26;" xml:space="preserve">
<g>
	<path d="M420.315,17.409c2.823-5.212,1.954-10.208,0.437-14.85c-0.22,8.117,0.45,9.708-2.175,13.764
		c-2.388,3.692-18.769,7.938-19.868,8.538C401.527,24.579,417.492,22.622,420.315,17.409z"/>
	<path d="M441.327,0c1.266,3.292,5.294,18.503,2.856,30.786c-3.359,16.928-42.635,29.793-49.624,32.396
		c8.305-2.023,52.252-15.026,54.479-32.434C450.274,21.096,443.202,2.387,441.327,0z"/>
	<path d="M440.153,38.822c0.452,4.988,0.269,9.07-3.167,11.365c-15.268,10.195-39.121,5.947-41.756,6.077
		c2.479,0.057,32.795,6.712,43.968-5.14C442.67,47.44,440.696,40.089,440.153,38.822z"/>
	<path d="M313.22,240.67c27.27,5.603,36.62,32.125,33.931,49.889c-1.975,13.052-15.399,37.838-32.857,49.39
		c21.277-9.979,35.631-34.524,37.414-47.729C354.083,274.617,339.742,241.417,313.22,240.67z"/>
	<path d="M259.017,225.774c0.605,1.341,6.406,16.375,13.847,18.458c10.777,3.016,24.036-0.948,30.787-3.485
		c-6.884,1.392-21.079,4.527-30.036,1.814C265.561,240.12,262.479,228.162,259.017,225.774z"/>
	<path d="M251.671,694.525c-9.084,32.903-17.355,88.234-11.767,158.111c5.632,70.425,32.735,158.99,49.596,195.123
		c-4.758-14.375-37.647-124.608-43.494-195.367C240.179,781.876,246.951,730.85,251.671,694.525z"/>
	<g>
		<path d="M444.4,98.09c10.74,21.014-28.418,85.528-53.353,54.651c23.524,24.954,52.671-29.167,50.795-46.715
			c-2.312-21.623-30.949-16.749-40.262,2.201C404.561,90.649,433.946,77.639,444.4,98.09z"/>
	</g>
	<g>
		<path d="M424.379,132.09c6.896-8.968,8.334-30.169,3.41-31.855c-3.967-1.359-11.107,3.706-18.837,8.341
			c4.034-8.376,16.474-13.875,22.245-9.906C437.98,103.334,432.472,124.535,424.379,132.09z"/>
	</g>
	<g>
		<path d="M363.173,896.76l1.513,32.899l-1.65-60.938l-1.517,60.738L363.173,896.76z"/>
	</g>
	<g>
		<path d="M192.189,446.872c13.181-13.273,23.795-20.224,36.257-29.313c8.533-6.224,20.897-17.841,31.477-23.902
			c-10.471,3.887-15.247,9.166-31.55,21.267C211.68,427.313,198.854,438.52,192.189,446.872z"/>
	</g>
	<path d="M517.856,324.419c-2.491-13.22-10.525-39.7-42.716-35.216c-22.146,3.085-30.201,6.825-46.189-2.144
		c-26.979-15.134-33.978-44.259-25.344-89.72c-8.591,17.183-13.851,74.491,24.497,94.028c18.373,9.361,25.745,4.387,49.16,1.478
		c26.167-3.251,34.148,18.265,37.541,32.657c2.982,12.654,2.012,33.26,1.091,36.879
		C517.342,357.463,520.589,338.921,517.856,324.419z"/>
	<path d="M334.859,443.389c1.023,2.222,36.74,44.934,47.141,54.871c8.973,8.663,39.217,44.693,66.719,64.183
		c-3.779-1.35-50.261-51.53-64.219-66.683C371.476,481.62,336.164,445.596,334.859,443.389z"/>
	<path d="M482.206,850.638c-10.566,74.634-40.227,164.103-48.706,197.122c16-38,45.731-126.756,55.081-197.122
		c9.233-69.49,7.499-124.629-1.912-157.439C491.751,729.472,492.672,776.715,482.206,850.638z"/>
	<g>
		<path d="M499.783,537.379c5.28-37.479,12.31-110.221,16.308-156.528c-2.328,16.744-21.096,155.921-20.814,156.651
			c-5.448,36.855-24.42,38.095-46.558,24.94C464.119,577.843,493.426,586.54,499.783,537.379z"/>
	</g>
	<g>
		<path d="M296.912,414.228c-4.33-2.952-24.173-16.525-33.262-22.666c-5.902-3.987-29.692-25.79-40.284-38.166
			c-22.355-26.123-5.984-28.698,0.063-26.99c-3.852-5.241-4.134-23.04,15.288-15.127c-10.334-13.855,2.365-22.797,16.33-11.941
			c-10.471-12.145,0.495-20.281,10.673-13.184c6.024,4.201,8.943,6.529,10.892,9.173c1.812-13.09,10.767-33.489,25.458,15.667
			c3.534,11.823,3.65,18.081,10.43,37.574c4.835,13.9,9.729,23.318,15.438,27.451c-4.33-5.117-8.657-14.456-12.047-25.191
			c-3.008-9.526-6.19-24.399-9.282-37.567c-6.336-26.986-23.364-56.228-31.874-25.193c-2.771-2.59-6.014-5.704-10.519-7.581
			c-7.13-2.971-16.44-0.791-17.388,10.083c-13.601-3.221-19.608,6.896-15.386,15.055c-8.839-1.962-18.26,6.131-13.609,15.864
			c-6.686-0.167-20.701,6.677-3.969,28.455c15.063,19.604,44.212,41.294,50.375,45.357
			C282.151,407.11,296.912,414.228,296.912,414.228z"/>
	</g>
	<g>
		<path d="M443.549,92.67c-0.153-3.398,2.867-27.329,7.951-29.233c2.019-6.784-5.115-20.461-7.349-23.497
			c2.072,2.241,10.586,8.2,11.729,24.967C448.503,70.06,444.232,88.647,443.549,92.67z"/>
	</g>
</g>
<g>
	<path d="M279.1,100.973c0.551-0.31,14.267-7.769,18.6-10.537c9.074-5.217,13.074-7.912,23.121-14.947L279.1,100.973z"/>
</g>
<g>
	<path d="M281.829,115.831c-0.133,2.614,0.395,4.784,1.682,6.505c-2.457,0.39-5.029,1.542-5.908,3.085c0,0,5.579-2.062,9.952-1.341
		c2.774-0.025,16.471,1.554,27.064,2.564c18.917,1.804,22.693-5.571,25.475-10.449c2.603-4.564,3.48-11.789,2.005-16.862
		c-19.035-5.415-43.597-3.411-55.106,6.146c-3.563,2.834-6.47,6.729-9.016,11.702c-0.96,1.965-1.816,4.024-2.562,6.276
		c1.466-4.903,3.657-9.252,6.57-13.047c2.828-3.588,6.15-6.246,10.038-8.6c11.729-6.042,32.218-8.043,50.142-2.983l0.366-2.028
		c-25.299-6.718-45.862,0.604-51.458,3.97c-8.915,5.382-14.72,14.011-17.585,26.52c0,0,0.59,0.243,0.802,0.249
		C274.991,125.243,280.23,118.219,281.829,115.831z M294.079,105.524c0.031,0.499-0.03,1.104-0.084,1.809
		c0.02,3.505,1.29,6.53,3.704,8.98c2.415,2.45,5.245,3.671,8.687,3.65c3.443-0.021,6.418-1.214,8.72-3.767
		c2.406-2.459,3.696-5.448,3.675-8.954c-0.068-1.098-0.129-2.096-0.387-3.081c1.09,0.13,7.065,0.334,10.107,1.154
		c0.866,9.91-5.442,14.609-14.598,16.87c-7.451,1.318-25.201-0.845-29.907,0.018c-1.079-1.534-1.429-4.016-1.162-7.641
		C283.567,113.715,290.695,106.565,294.079,105.524z M306.257,111.952c-0.587,0.037-1.194-0.224-1.715-0.691
		c-0.422-0.474-0.552-0.967-0.595-1.665c-0.037-0.599,0.227-1.117,0.587-1.641c0.466-0.431,1.042-0.668,1.733-0.612
		c0.587-0.038,1.09,0.13,1.513,0.604c0.521,0.468,0.754,1.054,0.694,1.659c0.037,0.599-0.22,1.217-0.685,1.647
		C307.421,111.677,306.846,111.914,306.257,111.952z"/>
</g>
<g>
	<path d="M278.967,100.285c1.574-0.813,15.416-9.296,41.72-25.484l25.701-1.405l-27.362-5.607l-52.455,32.652
		C267.864,100.803,274.577,102.796,278.967,100.285z"/>
</g>
<g>
	<path d="M241.711,115.596l-8.163,3.316c0.028,0.111,0.057,0.223,0.085,0.334C237.676,117.5,241.614,115.622,241.711,115.596z"/>
</g>
<g>
	<path d="M243.871,121.553c-1.319-0.323-5.369,0.115-9.042,1.13c0.167,0.592,0.335,1.185,0.51,1.775
		c3.423-0.936,7.364-1.617,8.989-1.073c0.517,0.173,1.246,0.372,1.734,0.785c0.883,0.817,1.176,0.562,3.697,5.332
		c0.781,1.477,1.505,3.075,1.952,4.198c0.049,0.123,0.128,0.233,0.192,0.345c-0.063-0.112-0.128-0.229-0.192-0.345
		c-1.792-3.197-0.872-5.866-6.008-9.53c-0.214-0.107-0.992-0.395-1.243-0.491c-1.804-0.684-5.299-0.131-8.993,1.197
		c1.5,5.016,3.284,9.96,5.583,14.776c0.861-0.634,1.535-1.362,1.843-2.173c1.013-2.666,1.083-5.143,0.389-7.813
		c-0.176-0.523-0.6-2.011-0.687-2.421c1.542,0.468,4.562,1.9,5.08,2.836c1.064,3.2,1.419,5.507,1.043,7.363
		c-1.079,0.371-3.771,2.206-6.621,4.322c0.325,0.632,0.659,1.263,1.004,1.89c1.813-1.458,3.193-2.936,3.549-3.293
		c2.006-2.012,3.977-2.935,5.038-3.435c-0.854-0.118-1.389-0.216-2.476,0.261c0.604-1.881,0.19-4.039-0.535-6.373
		c1.686,1.51,3.952,4.682,4.992,6.483c0.146-0.094,0.497-0.564,0.497-0.564C251.135,127.917,248.758,122.751,243.871,121.553z"/>
</g>
<g>
	<path d="M249.465,107.519l-17.303,5.737c0.373,1.578,0.752,3.153,1.147,4.726c1.976-0.988,3.623-1.833,3.778-1.878
		C246.658,113.585,247.952,109.697,249.465,107.519z"/>
</g>
<path d="M349.508,67.911c0,0-14.174-20.663-15.584-22.653c3.19-6.393,7.204-33.949-15.392-26.059
	c-16.39,5.723-38.747,34.678-65.209,23.074c1.985-1.12,4.278-7.006,2.947-11.156c-46.653,16.55-70.904,1.782-83.532-3.009
	c0.447,1.53,0.812,3.075,0.984,4.636c12.951,4.359,39.803,17.311,79.292,2.975c0.128,2.121-1.969,4.928-5.838,7.063
	c28.219,19.82,58.54-15.201,71.823-19.918c19.258-6.838,14.069,17.631,11.038,22.84C332.735,48.797,349.508,67.911,349.508,67.911z"
	/>
<path d="M251.078,176.358c-5.962-7.859,7.046-8.401,14.532-5.844c0.994,0.502,1.206,0.478,0.915,0.424
	C264.295,166.273,236.173,165.789,251.078,176.358z"/>
<g>
	<path d="M251.891,202.645c5.611,4.242,6.164,11.956,6.504,11.111c12.147-2.825,29.506-18.024,31.707-20.325
		c-8.672-0.271-27.138-4.135-31.401-3.671c-2.226,2.61-3.295,6.379-7.08,2.858C249.643,193.183,249.253,200.65,251.891,202.645z
		 M262.879,199.497l0.158-0.158c-0.031-0.095,0.063-0.126,0.127,0.064c0,0-0.032,0.221-0.159,0.474
		c-0.19,0.379-0.507,0.695-0.824,1.011c-1.013,1.073-2.215,1.577-3.892,1.606l-0.126-0.063c0.063-0.126,0.063-0.126,0.159-0.158
		c0.695-0.125,1.613-0.535,2.816-1.355C262.087,200.286,262.563,199.813,262.879,199.497z"/>
</g>
<path d="M243.219,156.304c-0.971,1.319-7.63,10.993-7.075,14.524s8.214,6.43,8.785,7.021c-0.38-0.719-6.089-3.476-6.859-7.183
	S242.629,158.279,243.219,156.304z"/>
<g>
	<path d="M448.866,488.395L448.5,446.76l-3.5,32l-83.063-67.073L448.866,488.395z"/>
</g>
<path d="M144.343,351.145c1.671,5.968,11.692,26.992,17.81,38.69c6.198,11.853,22.93,46.484,28.542,57.411
	c-5.684-15.046-20.743-47.984-25.88-58.174C158.989,377.516,148.178,358.991,144.343,351.145z"/>
<g>
	<path d="M399.392,37.862c3.411-4.713,4.49-9.494,3.472-14.499c-0.88,3.802-1.438,6.544-1.877,8.191
		c-0.459,1.742-1.484,3.268-3.04,4.889c-2.086,1.718-5.586,3.86-10.401,6.45c-4.893,2.471-7.84,3.91-8.939,4.297
		c1.49-0.307,4.771-1.372,9.72-3.117C393.393,42.251,397.088,40.148,399.392,37.862z"/>
</g>
<path d="M460.348,62.128c0.889,5.974-0.234,18.264-2.805,22.241c-2.58,3.981-18.539,6.066-21.105,6.801
	c2.429-0.473,20.674-0.714,23.347-6.143C462.453,79.6,460.994,63.55,460.348,62.128z"/>
<g>
	<path d="M430.979,144.191c-2.122-11.98,27.02-17.501,30.771-31.92c3.751-14.419,1.436-47.07-0.409-50.733
		c1.775,2.681,10.599,40.454,5.115,53.836C460.976,128.754,432.003,132.595,430.979,144.191z"/>
</g>
<path d="M462.151,109.297c0.302,3.488-0.058,19.161-5.837,30.411c-7.969,15.505-49.456,18.217-56.928,19.002
	c8.579,0.099,54.612-1.592,61.622-17.839C464.896,131.862,463.293,112.063,462.151,109.297z"/>
<path d="M277.186,453.749l10.061,26.007c0,0-1.845,12.134-3.261,23.016s-3.951,38.814-9.476,76.82
	c-5.251,36.124-12.903,63.725-18.169,93.217c10.006-29.756,16.745-59.857,21.856-94.534c2.567-17.414,7.763-59.149,9.078-69.34
	s4.074-31.344,4.074-31.344L277.186,453.749z"/>
<g>
	<path d="M107.411,321.527c0,0-8.56-6.87-1.202-16.822c7.541-10.198,12.564-10.654,19.225-25.533
		c8.698-4.13,14.064,0.445,15.846,4.69c1.064-27.982,17.208-18.82,20.53-13.839c6.235-21.442,16.729-10.949,15.816-7.452
		c10.037-4.714,12.622-2.92,12.318-0.304c15.512,6.996,1.543,17.056-5.019,23.419c-1.216,5.931-6.406,15.1-10.341,19.314
		c-7.958,8.525-26.484,25.914-32.229,30.217c6.791-2.527,30.25-24.538,34.967-28.697c4.716-4.16,10.341-12.014,11.069-19.349
		c10.069-8.025,19.346-18.822,5.231-26.625c1.036-6.036-11.891-9.078-14.932-2.995c-2.433-12.014-20.53-1.673-18.553,6.691
		c-5.557-9.591-23.724-4.562-21.291,11.558c-1.575-3.624-13.926-3.398-16.12,2.281c-5.422,14.04-17.487,20.989-19.922,24.788
		C94.675,315.554,107.411,321.527,107.411,321.527z"/>
</g>
<path d="M460.851,570.419c-1.577,17.87-1.401,29.083,3.651,49.807c4.818,19.764,9.138,30.96,16.931,46.388
	c-3.763-11.397-7.625-23.604-13.925-47.139C461.552,597.225,461.502,575.576,460.851,570.419z"/>
<g>
	<path d="M277.186,453.749c-23.349,13.483-102.927,97.344-128.922,29.99c0.281-0.73-32.256-105.516-36.762-122.037
		c2.403,17.423,18.157,74.633,33.246,122.151C167.923,562.66,253.59,475.097,277.186,453.749z"/>
</g>
<path d="M442.175,154.828c-1.917,3.211-10.353,7.973-15.218,9.39c-2.868,0.835-21.747-4.902-23.331-5.631
	c1.411,0.795,20.593,8.036,24.2,6.885C435.418,163.049,441.938,155.775,442.175,154.828z"/>
<g>
	<path d="M409.715,185.828c3.672-6.583,18.549,1.032,26.147-4.245c7.598-5.277,6.526-24.104,7.046-26.619
		c-0.165,2.019,2.16,26.013-5.901,30.07C428.947,189.091,414.821,180.748,409.715,185.828z"/>
</g>
<rect x="0.5" y="67.76" style="fill:#FFFFFF;stroke:#000000;" width="735" height="980"/>
</svg>
