<?xml version="1.0" encoding="iso-8859-1"?>
<!-- Generator: Adobe Illustrator 12.0.0, SVG Export Plug-In . SVG Version: 6.00 Build 51448)  -->
<!DOCTYPE svg PUBLIC "-//W3C//DTD SVG 1.1//EN" "http://www.w3.org/Graphics/SVG/1.1/DTD/svg11.dtd" [
	<!ENTITY ns_svg "http://www.w3.org/2000/svg">
	<!ENTITY ns_xlink "http://www.w3.org/1999/xlink">
]>
<svg  version="1.1" id="recycle" xmlns="&ns_svg;" xmlns:xlink="&ns_xlink;" width="142.1" height="142" viewBox="0 0 142.1 142"
	 style="overflow:visible;enable-background:new 0 0 142.1 142;" xml:space="preserve">
<g>
	<path style="fill:#FFFFFF;" d="M121.3,20.8C107.399,7,90.7,0,71.1,0C51.5,0,34.7,7,20.9,20.8C7,34.7,0,51.4,0,71
		c0,19.6,7,36.3,20.9,50.2C34.7,135.1,51.5,142,71.1,142c19.601,0,36.3-6.9,50.2-20.8c13.8-13.9,20.8-30.601,20.8-50.2
		C142.1,51.4,135.1,34.7,121.3,20.8z"/>
</g>
<g>
	<g>
		<path style="stroke:#000000;" d="M69,55.845c4.68-1.62,8.911-1.35,13.05,0.99c1.98,1.17,3.6,2.43,4.68,3.96l4.86-3.511
			c-1.44-2.07-3.6-3.87-6.3-5.58c-5.58-3.42-11.521-4.32-17.73-2.61c-4.86,1.35-9.18,5.13-12.96,11.34l-4.229,8.91l-5.49-0.99
			l5.49,16.65l12.24-13.05l-5.67-0.99l2.52-6.3C61.98,60.165,65.22,57.285,69,55.845z"/>
	</g>
	<g>
		<path style="stroke:#000000;" d="M76.379,89.98c-4.913,1.7-9.355,1.321-13.702-1.041c-2.078-1.229-3.779-2.646-4.914-4.157
			l-5.103,3.591c1.512,2.173,3.78,4.158,6.616,5.954c5.858,3.496,12.095,4.44,18.617,2.646c5.103-1.323,9.638-5.292,13.607-11.907
			l4.441-9.355l5.764,1.134l-5.764-17.482L83.089,73.064l5.954,1.134l-2.646,6.521C83.751,85.349,80.349,88.373,76.379,89.98z"/>
	</g>
</g>
</svg>
