<?xml version="1.0" encoding="iso-8859-1"?>
<!-- Generator: Adobe Illustrator 12.0.0, SVG Export Plug-In . SVG Version: 6.00 Build 51448)  -->
<!DOCTYPE svg PUBLIC "-//W3C//DTD SVG 1.1//EN" "http://www.w3.org/Graphics/SVG/1.1/DTD/svg11.dtd" [
	<!ENTITY ns_svg "http://www.w3.org/2000/svg">
	<!ENTITY ns_xlink "http://www.w3.org/1999/xlink">
]>
<svg  version="1.1" id="Layer_2" xmlns="&ns_svg;" xmlns:xlink="&ns_xlink;" width="1057" height="594.101"
	 viewBox="0 0 1057 594.101" style="overflow:visible;enable-background:new 0 0 1057 594.101;" xml:space="preserve">
<g>
	<polygon points="901.713,338.759 900.919,338.771 901.719,338.765 	"/>
	<polygon points="896.457,338.994 154.947,360.325 151.117,366.296 900.181,342.72 	"/>
	<path d="M900.919,338.771l0.794-0.012l0.006,0.006L900.919,338.771z"/>
</g>
<polygon points="1057,510.101 902.211,338.498 938.306,0 896.457,338.994 896.457,338.994 900.181,342.72 900.181,342.72 "/>
<polygon points="154.947,360.325 149.303,360.653 154.947,360.325 82,0.101 148.305,360.721 56,507.101 151.117,366.296 
	151.117,366.296 "/>
<line style="fill:none;" x1="0" y1="501.089" x2="88" y2="502.046"/>
<rect y="0.101" style="fill:none;" width="1057" height="594"/>
<polygon points="0,0.101 0,594.101 148.314,360.964 82.043,0.521 "/>
<polygon points="1057,0.101 1057,510.101 902.211,338.498 938.343,0.266 "/>
</svg>
